<?xml version="1.0" encoding="UTF-8"?>
<svg width="13px" height="11px" viewBox="0 0 13 11" version="1.1" xmlns="http://www.w3.org/2000/svg" xmlns:xlink="http://www.w3.org/1999/xlink">
    <!-- Generator: Sketch 53.2 (72643) - https://sketchapp.com -->
    <title>%</title>
    <desc>Created with Sketch.</desc>
    <g id="Symbols" stroke="none" stroke-width="1" fill="none" fill-rule="evenodd">
        <g id="Header-/-Desktop-v3" transform="translate(-1014.000000, -14.000000)" fill="#FF2626" fill-rule="nonzero">
            <path d="M1016.38,23.51 L1023.45,14.046 L1024.36,14.732 L1017.304,24.154 L1016.38,23.51 Z M1015.288,18.386 C1014.77466,17.919331 1014.518,17.3126704 1014.518,16.566 C1014.518,15.8193296 1014.777,15.2173356 1015.295,14.76 C1015.813,14.3026644 1016.47333,14.074 1017.276,14.074 C1018.07867,14.074 1018.739,14.3026644 1019.257,14.76 C1019.775,15.2173356 1020.034,15.8193296 1020.034,16.566 C1020.034,17.3126704 1019.775,17.9169977 1019.257,18.379 C1018.739,18.8410023 1018.07867,19.072 1017.276,19.072 C1016.47333,19.072 1015.81067,18.8433356 1015.288,18.386 Z M1016.03,16.566 C1016.03,16.9300018 1016.149,17.2216656 1016.387,17.441 C1016.625,17.6603344 1016.92133,17.77 1017.276,17.77 C1017.64934,17.77 1017.95267,17.6603344 1018.186,17.441 C1018.41933,17.2216656 1018.536,16.9300018 1018.536,16.566 C1018.536,16.2113316 1018.417,15.9243344 1018.179,15.705 C1017.941,15.4856656 1017.64,15.376 1017.276,15.376 C1016.92133,15.376 1016.625,15.4856656 1016.387,15.705 C1016.149,15.9243344 1016.03,16.2113316 1016.03,16.566 Z M1021.476,23.454 C1020.96266,22.987331 1020.706,22.3806704 1020.706,21.634 C1020.706,20.8873296 1020.965,20.2853356 1021.483,19.828 C1022.001,19.3706644 1022.66133,19.142 1023.464,19.142 C1024.26667,19.142 1024.927,19.3706644 1025.445,19.828 C1025.963,20.2853356 1026.222,20.8873296 1026.222,21.634 C1026.222,22.3806704 1025.963,22.9849977 1025.445,23.447 C1024.927,23.9090023 1024.26667,24.14 1023.464,24.14 C1022.66133,24.14 1021.99867,23.9113356 1021.476,23.454 Z M1022.218,21.634 C1022.218,21.9980018 1022.337,22.2896656 1022.575,22.509 C1022.813,22.7283344 1023.10933,22.838 1023.464,22.838 C1023.83734,22.838 1024.14067,22.7283344 1024.374,22.509 C1024.60733,22.2896656 1024.724,21.9980018 1024.724,21.634 C1024.724,21.2793316 1024.605,20.9923344 1024.367,20.773 C1024.129,20.5536656 1023.828,20.444 1023.464,20.444 C1023.10933,20.444 1022.813,20.5536656 1022.575,20.773 C1022.337,20.9923344 1022.218,21.2793316 1022.218,21.634 Z" id="%"></path>
        </g>
    </g>
</svg>