<?xml version="1.0" encoding="utf-8"?>
<svg width="24px" height="24px" viewBox="0 0 24 24" version="1.1" xmlns:xlink="http://www.w3.org/1999/xlink" xmlns="http://www.w3.org/2000/svg">
  <desc>Created with Lunacy</desc>
  <defs>
    <path d="M12 24C18.6274 24 24 18.6274 24 12C24 5.37258 18.6274 0 12 0C5.37258 0 0 5.37258 0 12C0 18.6274 5.37258 24 12 24Z" id="path_1" />
    <clipPath id="clip_1">
      <use xlink:href="#path_1" />
    </clipPath>
  </defs>
  <g id="arr_right" transform="matrix(-4.371139E-08 1 -1 -4.371139E-08 24 0)">
    <g id="area">
      <use stroke="none" fill="#FFFFFF" xlink:href="#path_1" />
      <g clip-path="url(#clip_1)">
        <use xlink:href="#path_1" fill="none" stroke="#4C7399" stroke-width="1.6" />
      </g>
    </g>
    <path d="M1.57998 0.746575L4.99408 3.18729Q5.0424 3.22184 5.08628 3.26186Q5.13017 3.30188 5.169 3.34683Q5.20783 3.39177 5.24107 3.44099Q5.2743 3.49022 5.30147 3.54304Q5.32864 3.59585 5.34935 3.65152Q5.37007 3.70718 5.38405 3.76491Q5.39802 3.82263 5.40506 3.88161Q5.4121 3.94059 5.4121 3.99998Q5.4121 4.05937 5.40506 4.11835Q5.39802 4.17733 5.38405 4.23505Q5.37007 4.29278 5.34935 4.34844Q5.32864 4.40411 5.30147 4.45693Q5.2743 4.50974 5.24107 4.55897Q5.20783 4.60819 5.169 4.65314Q5.13017 4.69808 5.08628 4.7381Q5.0424 4.77812 4.99408 4.81267L1.57998 7.25339Q1.55215 7.27329 1.52301 7.29124Q1.49388 7.30919 1.46358 7.3251Q1.43329 7.34102 1.40197 7.35482Q1.37066 7.36862 1.33848 7.38025Q1.30629 7.39188 1.27339 7.40128Q1.24048 7.41068 1.20701 7.4178Q1.17354 7.42493 1.13966 7.42975Q1.10578 7.43457 1.07165 7.43706Q1.03752 7.43954 1.0033 7.43969Q0.969083 7.43984 0.934933 7.43764Q0.900783 7.43545 0.866863 7.43092Q0.832943 7.4264 0.799413 7.41956Q0.765882 7.41272 0.732898 7.40361Q0.699914 7.39449 0.66763 7.38314Q0.635347 7.37179 0.603917 7.35826Q0.572486 7.34472 0.542055 7.32907Q0.511624 7.31342 0.482336 7.29572Q0.453047 7.27802 0.425038 7.25836Q0.39703 7.2387 0.370432 7.21717Q0.343834 7.19564 0.318772 7.17234Q0.29371 7.14904 0.270301 7.12407Q0.246892 7.09911 0.225247 7.07261Q0.203601 7.0461 0.183819 7.01818Q0.164038 6.99026 0.146214 6.96104Q0.128389 6.93183 0.112606 6.90147Q0.0968225 6.87111 0.0831537 6.83973Q0.069485 6.80836 0.057995 6.77613Q0.0465051 6.74389 0.0372478 6.71095Q0.0279905 6.678 0.0210093 6.6445Q0.0140282 6.611 0.00935576 6.5771Q0.00468337 6.5432 0.00234169 6.50906Q0 6.47492 0 6.4407L0 1.55926Q0 1.52504 0.00234168 1.4909Q0.00468337 1.45676 0.00935576 1.42286Q0.0140282 1.38896 0.0210093 1.35546Q0.0279905 1.32196 0.0372478 1.28901Q0.0465051 1.25607 0.057995 1.22383Q0.069485 1.1916 0.0831537 1.16023Q0.0968225 1.12886 0.112606 1.09849Q0.128389 1.06813 0.146214 1.03892Q0.164038 1.00971 0.183819 0.981782Q0.203601 0.953858 0.225247 0.927353Q0.246892 0.900848 0.270301 0.875887Q0.29371 0.850925 0.318772 0.827624Q0.343834 0.804323 0.370432 0.782792Q0.39703 0.76126 0.425038 0.741599Q0.453047 0.721938 0.482336 0.70424Q0.511624 0.686542 0.542055 0.670889Q0.572486 0.655237 0.603917 0.641703Q0.635347 0.62817 0.66763 0.616819Q0.699914 0.605468 0.732898 0.596353Q0.765882 0.587237 0.799413 0.580401Q0.832943 0.573564 0.866863 0.569037Q0.900783 0.564511 0.934933 0.562317Q0.969083 0.560122 1.0033 0.560269Q1.03752 0.560417 1.07165 0.562905Q1.10578 0.565394 1.13966 0.570213Q1.17354 0.575031 1.20701 0.582156Q1.24048 0.589282 1.27339 0.598681Q1.30629 0.60808 1.33848 0.619709Q1.37066 0.631338 1.40197 0.645141Q1.43329 0.658945 1.46358 0.674859Q1.49388 0.690773 1.52301 0.708723Q1.55215 0.726673 1.57998 0.746575Z" transform="translate(10 8)" id="arr" fill="#1A1A1A" stroke="none" />
  </g>
</svg>