<?xml version="1.0" encoding="utf-8"?>
<svg width="295px" height="273px" viewBox="0 0 295 273" version="1.1" xmlns:xlink="http://www.w3.org/1999/xlink" xmlns="http://www.w3.org/2000/svg">
  <desc>Created with Lunacy</desc>
  <path d="M0 0L295 46.8582L295 268.001Q295 268.124 294.994 268.246Q294.988 268.369 294.976 268.491Q294.964 268.613 294.946 268.734Q294.928 268.856 294.904 268.976Q294.88 269.097 294.85 269.216Q294.82 269.335 294.785 269.452Q294.749 269.57 294.708 269.685Q294.666 269.801 294.619 269.914Q294.572 270.027 294.52 270.138Q294.468 270.249 294.41 270.357Q294.352 270.466 294.289 270.571Q294.226 270.676 294.157 270.778Q294.089 270.88 294.016 270.979Q293.943 271.077 293.865 271.172Q293.787 271.267 293.705 271.358Q293.623 271.449 293.536 271.536Q293.449 271.623 293.358 271.705Q293.267 271.787 293.172 271.865Q293.077 271.943 292.979 272.016Q292.88 272.089 292.778 272.158Q292.676 272.226 292.571 272.289Q292.466 272.352 292.358 272.41Q292.249 272.468 292.138 272.52Q292.027 272.572 291.914 272.619Q291.801 272.666 291.685 272.708Q291.57 272.749 291.452 272.785Q291.335 272.82 291.216 272.85Q291.097 272.88 290.976 272.904Q290.856 272.928 290.734 272.946Q290.613 272.964 290.491 272.976Q290.369 272.988 290.246 272.994Q290.124 273 290.001 273L4.999 273Q4.87628 273 4.75371 272.994Q4.63114 272.988 4.50901 272.976Q4.38688 272.964 4.26549 272.946Q4.1441 272.928 4.02374 272.904Q3.90338 272.88 3.78434 272.85Q3.6653 272.82 3.54787 272.785Q3.43043 272.749 3.31489 272.708Q3.19934 272.666 3.08597 272.619Q2.97259 272.572 2.86165 272.52Q2.75072 272.468 2.64249 272.41Q2.53426 272.352 2.429 272.289Q2.32374 272.226 2.2217 272.157Q2.11967 272.089 2.0211 272.016Q1.92253 271.943 1.82767 271.865Q1.73281 271.787 1.64188 271.705Q1.55095 271.623 1.46417 271.536Q1.3774 271.449 1.29499 271.358Q1.21257 271.267 1.13472 271.172Q1.05687 271.077 0.983765 270.979Q0.910662 270.88 0.842483 270.778Q0.774305 270.676 0.711215 270.571Q0.648125 270.466 0.590276 270.357Q0.532426 270.249 0.479957 270.138Q0.427489 270.027 0.380526 269.914Q0.333564 269.801 0.292221 269.685Q0.250879 269.57 0.215255 269.452Q0.179632 269.335 0.149814 269.216Q0.119996 269.097 0.0960544 268.976Q0.0721132 268.856 0.0541066 268.734Q0.0361001 268.613 0.0240715 268.491Q0.012043 268.369 0.00602151 268.246Q1.74463e-15 268.124 1.74383e-15 268.001L0 0Z" id="Mask" fill="#4C7399" stroke="none" />
</svg>