<?xml version="1.0" encoding="utf-8"?>
<svg width="56px" height="40px" viewBox="0 0 56 40" version="1.1" xmlns:xlink="http://www.w3.org/1999/xlink" xmlns="http://www.w3.org/2000/svg">
  <desc>Created with Lunacy</desc>
  <defs>
    <filter filterUnits="userSpaceOnUse" color-interpolation-filters="sRGB" id="filter_1">
      <feFlood flood-opacity="0" result="BackgroundImageFix" />
      <feColorMatrix in="SourceAlpha" type="matrix" values="0 0 0 0 0 0 0 0 0 0 0 0 0 0 0 0 0 0 127 0" />
      <feOffset dx="0" dy="2" />
      <feGaussianBlur stdDeviation="2.5" />
      <feColorMatrix type="matrix" values="0 0 0 0 0 0 0 0 0 0 0 0 0 0 0 0 0 0 0.05098039 0" />
      <feBlend mode="normal" in2="BackgroundImageFix" result="effect0_dropShadow" />
      <feBlend mode="normal" in="SourceGraphic" in2="effect0_dropShadow" result="shape" />
    </filter>
  </defs>
  <g id="btn">
    <path d="M19.999 0L36.001 0Q36.4919 0 36.9823 0.0240897Q37.4727 0.0481793 37.9612 0.0963006Q38.4498 0.144422 38.9355 0.216459Q39.4211 0.288496 39.9026 0.384275Q40.3841 0.480054 40.8604 0.599345Q41.3366 0.718635 41.8064 0.86115Q42.2762 1.00366 42.7385 1.16906Q43.2007 1.33446 43.6543 1.52233Q44.1079 1.71021 44.5517 1.92012Q44.9955 2.13003 45.4285 2.36146Q45.8614 2.59289 46.2825 2.84529Q46.7036 3.09768 47.1118 3.37044Q47.5201 3.64319 47.9144 3.93565Q48.3087 4.22811 48.6882 4.53956Q49.0677 4.85102 49.4315 5.18072Q49.7953 5.51042 50.1424 5.85757Q50.4896 6.20472 50.8193 6.56849Q51.149 6.93226 51.4604 7.31177Q51.7719 7.69128 52.0643 8.08561Q52.3568 8.47994 52.6296 8.88815Q52.9023 9.29636 53.1547 9.71746Q53.4071 10.1386 53.6385 10.5715Q53.87 11.0045 54.0799 11.4483Q54.2898 11.8921 54.4777 12.3457Q54.6655 12.7993 54.8309 13.2615Q54.9963 13.7238 55.1388 14.1936Q55.2814 14.6634 55.4007 15.1396Q55.5199 15.6159 55.6157 16.0974Q55.7115 16.5789 55.7835 17.0645Q55.8556 17.5502 55.9037 18.0388Q55.9518 18.5273 55.9759 19.0177Q56 19.5081 56 19.999L56 20.001Q56 20.4919 55.9759 20.9823Q55.9518 21.4727 55.9037 21.9612Q55.8556 22.4498 55.7835 22.9355Q55.7115 23.4211 55.6157 23.9026Q55.5199 24.3841 55.4007 24.8604Q55.2814 25.3366 55.1388 25.8064Q54.9963 26.2762 54.8309 26.7385Q54.6655 27.2007 54.4777 27.6543Q54.2898 28.1079 54.0799 28.5517Q53.87 28.9955 53.6385 29.4285Q53.4071 29.8614 53.1547 30.2825Q52.9023 30.7036 52.6296 31.1118Q52.3568 31.5201 52.0643 31.9144Q51.7719 32.3087 51.4604 32.6882Q51.149 33.0677 50.8193 33.4315Q50.4896 33.7953 50.1424 34.1424Q49.7953 34.4896 49.4315 34.8193Q49.0677 35.149 48.6882 35.4604Q48.3087 35.7719 47.9144 36.0643Q47.5201 36.3568 47.1118 36.6296Q46.7036 36.9023 46.2825 37.1547Q45.8614 37.4071 45.4285 37.6385Q44.9955 37.87 44.5517 38.0799Q44.1079 38.2898 43.6543 38.4777Q43.2007 38.6655 42.7385 38.8309Q42.2762 38.9963 41.8064 39.1388Q41.3366 39.2814 40.8604 39.4006Q40.3841 39.5199 39.9026 39.6157Q39.4211 39.7115 38.9355 39.7835Q38.4498 39.8556 37.9613 39.9037Q37.4727 39.9518 36.9823 39.9759Q36.4919 40 36.001 40L19.999 40Q19.5081 40 19.0177 39.9759Q18.5273 39.9518 18.0388 39.9037Q17.5502 39.8556 17.0645 39.7835Q16.5789 39.7115 16.0974 39.6157Q15.6159 39.5199 15.1396 39.4007Q14.6634 39.2814 14.1936 39.1388Q13.7238 38.9963 13.2615 38.8309Q12.7993 38.6655 12.3457 38.4777Q11.8921 38.2898 11.4483 38.0799Q11.0045 37.87 10.5715 37.6385Q10.1386 37.4071 9.71746 37.1547Q9.29636 36.9023 8.88815 36.6296Q8.47994 36.3568 8.08561 36.0643Q7.69128 35.7719 7.31177 35.4604Q6.93226 35.149 6.56849 34.8193Q6.20472 34.4896 5.85757 34.1424Q5.51042 33.7953 5.18072 33.4315Q4.85102 33.0677 4.53956 32.6882Q4.22811 32.3087 3.93565 31.9144Q3.64319 31.5201 3.37044 31.1118Q3.09768 30.7036 2.84529 30.2825Q2.59289 29.8614 2.36146 29.4285Q2.13003 28.9955 1.92012 28.5517Q1.71021 28.1079 1.52233 27.6543Q1.33446 27.2007 1.16906 26.7385Q1.00366 26.2762 0.86115 25.8064Q0.718635 25.3366 0.599345 24.8604Q0.480054 24.3841 0.384275 23.9026Q0.288496 23.4211 0.216459 22.9355Q0.144422 22.4498 0.0963006 21.9612Q0.0481793 21.4727 0.0240897 20.9823Q0 20.4919 0 20.001L0 19.999Q0 19.5081 0.0240897 19.0177Q0.0481793 18.5273 0.0963006 18.0388Q0.144422 17.5502 0.216459 17.0645Q0.288496 16.5789 0.384275 16.0974Q0.480054 15.6159 0.599345 15.1396Q0.718635 14.6634 0.86115 14.1936Q1.00366 13.7238 1.16906 13.2615Q1.33446 12.7993 1.52233 12.3457Q1.71021 11.8921 1.92012 11.4483Q2.13003 11.0045 2.36146 10.5715Q2.59289 10.1386 2.84529 9.71746Q3.09768 9.29636 3.37044 8.88815Q3.64319 8.47994 3.93565 8.08561Q4.22811 7.69128 4.53956 7.31177Q4.85102 6.93226 5.18072 6.56849Q5.51042 6.20472 5.85757 5.85757Q6.20472 5.51042 6.56849 5.18072Q6.93226 4.85102 7.31177 4.53956Q7.69128 4.22811 8.08561 3.93565Q8.47994 3.64319 8.88815 3.37044Q9.29636 3.09768 9.71746 2.84529Q10.1386 2.59289 10.5715 2.36146Q11.0045 2.13003 11.4483 1.92012Q11.8921 1.71021 12.3457 1.52233Q12.7993 1.33446 13.2615 1.16906Q13.7238 1.00366 14.1936 0.86115Q14.6634 0.718635 15.1396 0.599345Q15.6159 0.480054 16.0974 0.384275Q16.5789 0.288496 17.0645 0.216459Q17.5502 0.144422 18.0388 0.0963006Q18.5273 0.0481793 19.0177 0.0240897Q19.5081 0 19.999 0L19.999 0Z" id="area" fill="#FFFFFF" fill-opacity="0.1" stroke="none" />
    <g id="icons/cross" transform="translate(16 8)">
      <g filter="url(#filter_1)">
        <path d="M9.66199 1.97037L6.63233 5.00016L9.66199 8.03082C10.1127 8.4813 10.1127 9.21176 9.66199 9.66246C9.43719 9.88814 9.14202 10 8.84664 10C8.55147 10 8.2563 9.88814 8.03063 9.66246L5.00011 6.63159L1.97023 9.66246C1.74457 9.88814 1.4494 10 1.15401 10C0.858845 10 0.563676 9.88814 0.338879 9.66246C-0.11267 9.21176 -0.11267 8.4813 0.338879 8.03082L3.36854 5.00016L0.33801 1.97037C-0.11267 1.5188 -0.11267 0.788345 0.33801 0.337862C0.788473 -0.112621 1.5189 -0.112621 1.96936 0.337862L5.00011 3.36852L8.03063 0.337862C8.4811 -0.112621 9.21153 -0.112621 9.66199 0.337862C10.1127 0.788345 10.1127 1.5188 9.66199 1.97037Z" transform="translate(7 7)" id="cross" fill="#FFFFFF" stroke="none" />
      </g>
    </g>
  </g>
</svg>