<?xml version="1.0" encoding="UTF-8"?>
<svg width="54px" height="32px" viewBox="0 0 54 32" version="1.1" xmlns="http://www.w3.org/2000/svg" xmlns:xlink="http://www.w3.org/1999/xlink">
    <!-- Generator: Sketch 53.2 (72643) - https://sketchapp.com -->
    <title>card rating tag</title>
    <desc>Created with Sketch.</desc>
    <g id="Desktop" stroke="none" stroke-width="1" fill="none" fill-rule="evenodd">
        <g id="Desktop/pcard-divan-delivy" transform="translate(-60.000000, -238.000000)" fill="#F2F249">
            <g id="additional-actions" transform="translate(60.000000, 238.000000)">
                <path d="M42,3.6739404e-16 L54,16 L42,32 L0,32 L0,0 L42,0 Z M39.6268925,18.9770252 L37.4631221,20.2197793 C37.1001416,20.4279281 36.6661433,20.1040983 36.7608338,19.7107056 L37.340124,17.3887913 C37.2133383,17.1464629 37.1186973,16.8846611 37.0618618,16.6090465 L35.1589852,14.9755719 C34.8512409,14.7056495 35.0169494,14.204365 35.4272751,14.1658046 L37.8141459,13.9452262 C38.0700118,13.6731424 38.3761062,13.4488363 38.7176192,13.2871181 L39.5542052,11.2892026 C39.7120228,10.9035991 40.2723542,10.9035991 40.4301718,11.2892026 L41.2713018,13.2818995 C41.6176039,13.4441501 41.9278131,13.6706331 42.1865908,13.9460099 L44.5649139,14.1658046 C44.9752396,14.204365 45.148839,14.7056495 44.8489855,14.9755719 L42.9364087,16.6173734 C42.880157,16.8862794 42.7878991,17.1419559 42.6649087,17.3791294 L43.2392461,19.7107056 C43.3340155,20.1118104 42.9000171,20.4279281 42.5370367,20.2197793 L40.373177,18.9770166 C40.250914,18.9921866 40.1263695,19 40,19 C39.8736544,19 39.7491331,18.9921896 39.6268925,18.9770252 Z" id="card-rating-tag"></path>
            </g>
        </g>
    </g>
</svg>