<svg xmlns="http://www.w3.org/2000/svg" width="10" height="8" viewBox="0 0 10 8">
  <path fill="#292929" fill-rule="evenodd" d="M6.11442858,11.400275 C6.0375018,11.32027 6,11.1987624 6,11.1187574 C6,11.0387524 6.0375018,10.919745 6.11442858,10.83974 L6.6533968,10.279205 C6.80773114,10.1186949 7.03851147,10.1186949 7.19236502,10.279205 L7.23034761,10.3202075 L9.34679552,12.679355 C9.42372229,12.75986 9.53815087,12.75986 9.61555844,12.679355 L14.7686908,7.11850741 L14.8081158,7.11850741 C14.9624501,6.96049753 15.1932304,6.96049753 15.347084,7.11850741 L15.8846098,7.67904244 C16.0384634,7.83955247 16.0384634,8.07956747 15.8846098,8.23957747 L9.73191019,14.8809926 C9.65498341,14.9609976 9.57757584,15 9.4612241,15 C9.34679552,15 9.26986874,14.9609976 9.19294197,14.8809926 L6.19135535,11.5192825 L6.11442858,11.400275 Z" transform="translate(-6 -7)"/>
</svg>
