<svg xmlns="http://www.w3.org/2000/svg" width="156" height="156" viewBox="0 0 156 156">
  <g fill="none" fill-rule="evenodd">
    <circle cx="78" cy="78" r="78" fill="#7ED321" opacity=".302"/>
    <circle cx="77.5" cy="77.5" r="69.5" fill="#7ED321"/>
    <path fill="#FFF" d="M33.3159287,69.6031627 C32.4312707,68.6831052 32,67.2857679 32,66.3657104 C32,65.4456529 32.4312707,64.0770673 33.3159287,63.1570098 L39.5140632,56.7108569 C41.2889081,54.8649916 43.9428819,54.8649916 45.7121977,56.7108569 L46.1489975,57.1823864 L70.4881485,84.312582 C71.3728064,85.2383899 72.688735,85.2383899 73.5789221,84.312582 L132.839944,20.3628352 L133.293331,20.3628352 C135.068176,18.5457216 137.72215,18.5457216 139.491466,20.3628352 L145.673013,26.8089881 C147.442329,28.6548534 147.442329,31.4150259 145.673013,33.2551409 L74.9169672,109.631414 C74.0323092,110.551472 73.1421222,111 71.8040771,111 C70.4881485,111 69.6034906,110.551472 68.7188326,109.631414 L34.2005866,70.9717482 L33.3159287,69.6031627 Z"/>
  </g>
</svg>
