<?xml version="1.0" encoding="utf-8"?>
<svg width="54px" height="32px" viewBox="0 0 54 32" version="1.1" xmlns:xlink="http://www.w3.org/1999/xlink" xmlns="http://www.w3.org/2000/svg">
  <desc>Created with Lunacy</desc>
  <path d="M0 0L42 0L54 16L42 32L0 32L0 0ZM42.1866 13.946C41.9278 13.6706 41.6176 13.4441 41.2713 13.2819L41.4165 13.626C41.4875 13.7879 41.6375 13.8959 41.8111 13.9113L42.1866 13.946ZM38.7176 13.2871C38.3761 13.4488 38.07 13.6731 37.8141 13.9452L38.1812 13.9113C38.3548 13.8959 38.5126 13.7879 38.5757 13.626L38.7176 13.2871ZM37.0619 16.609C37.1187 16.8847 37.2133 17.1465 37.3401 17.3888L37.3842 17.2121C37.4237 17.0424 37.3684 16.8727 37.2343 16.7571L37.0619 16.609ZM39.6269 18.977C39.7491 18.9922 39.8737 19 40 19C40.1264 19 40.2509 18.9922 40.3732 18.977L40.2407 18.9009C40.0908 18.8161 39.9093 18.8161 39.7594 18.9009L39.6269 18.977ZM42.6649 17.3791L42.6238 17.2121C42.5843 17.0424 42.6395 16.8727 42.7737 16.7571L42.9364 16.6174C42.8802 16.8863 42.7879 17.142 42.6649 17.3791Z" id="Combined-Shape" fill="#F2F249" fill-rule="evenodd" stroke="none" />
</svg>