<?xml version="1.0" encoding="utf-8"?>
<svg width="54px" height="32px" viewBox="0 0 54 32" version="1.1" xmlns:xlink="http://www.w3.org/1999/xlink" xmlns="http://www.w3.org/2000/svg">
  <desc>Created with Lunacy</desc>
  <path d="M0 0L42 0L54 16L42 32L0 32L0 0ZM42.1866 13.946L44.5649 14.1658C44.9752 14.2044 45.1488 14.7056 44.849 14.9756L42.9364 16.6174C42.8802 16.8863 42.7879 17.142 42.6649 17.3791L43.2392 19.7107C43.334 20.1118 42.9 20.4279 42.537 20.2198L40.3732 18.977C40.2509 18.9922 40.1264 19 40 19C39.8737 19 39.7491 18.9922 39.6269 18.977L37.4631 20.2198C37.1001 20.4279 36.6661 20.1041 36.7608 19.7107L37.3401 17.3888C37.2133 17.1465 37.1187 16.8847 37.0619 16.609L35.159 14.9756C34.8512 14.7056 35.0169 14.2044 35.4273 14.1658L37.8141 13.9452C38.07 13.6731 38.3761 13.4488 38.7176 13.2871L39.5542 11.2892C39.712 10.9036 40.2724 10.9036 40.4302 11.2892L41.2713 13.2819C41.6176 13.4441 41.9278 13.6706 42.1866 13.946Z" id="Combined-Shape" fill="#F2F249" fill-rule="evenodd" stroke="none" />
</svg>