<?xml version="1.0" encoding="UTF-8"?>
<svg width="32px" height="24px" viewBox="0 0 32 24" version="1.1" xmlns="http://www.w3.org/2000/svg" xmlns:xlink="http://www.w3.org/1999/xlink">
    <!-- Generator: Sketch 53.2 (72643) - https://sketchapp.com -->
    <title>Group</title>
    <desc>Created with Sketch.</desc>
    <g id="Desktop" stroke="none" stroke-width="1" fill="none" fill-rule="evenodd">
        <g id="Desktop/pcard-divan-razmery" transform="translate(-1148.000000, -436.000000)" fill="#FF2626">
            <g id="price" transform="translate(900.000000, 301.000000)">
                <g id="Group" transform="translate(248.000000, 135.000000)">
                    <path d="M25.5706667,24 L4.23733333,24 C1.98,24 0,22.1306667 0,20 L0,4 C0,1.86933333 1.98,0 4.23733333,0 L20,0 C20.7373333,0 21.3333333,0.597333333 21.3333333,1.33333333 C21.3333333,2.06933333 20.7373333,2.66666667 20,2.66666667 L4.23733333,2.66666667 C3.444,2.66666667 2.66666667,3.32666667 2.66666667,4 L2.66666667,20 C2.66666667,20.6733333 3.444,21.3333333 4.23733333,21.3333333 L25.5706667,21.3333333 C26.328,21.3333333 26.6666667,20.664 26.6666667,20 L26.6666667,16 C26.6666667,15.264 27.2626667,14.6666667 28,14.6666667 C28.7373333,14.6666667 29.3333333,15.264 29.3333333,16 L29.3333333,20 C29.3333333,22.28 27.716,24 25.5706667,24" id="Fill-1"></path>
                    <path d="M28,9.33333333 C27.2626667,9.33333333 26.6666667,8.736 26.6666667,8 L26.6666667,4 C26.6666667,3.26533333 26.0693333,2.66666667 25.3333333,2.66666667 C24.596,2.66666667 24,2.06933333 24,1.33333333 C24,0.597333333 24.596,0 25.3333333,0 C27.5386667,0 29.3333333,1.79466667 29.3333333,4 L29.3333333,8 C29.3333333,8.736 28.7373333,9.33333333 28,9.33333333" id="Fill-2"></path>
                    <path d="M29.3333333,17.3333333 L21.3333333,17.3333333 C19.864,17.3333333 18.6666667,16.1373333 18.6666667,14.6666667 L18.6666667,9.33333333 C18.6666667,7.86266667 19.864,6.66666667 21.3333333,6.66666667 L29.3333333,6.66666667 C30.8026667,6.66666667 32,7.86266667 32,9.33333333 L32,14.6666667 C32,16.1373333 30.8026667,17.3333333 29.3333333,17.3333333 L29.3333333,17.3333333 Z M29.3333333,9.332 L21.3333333,9.33333333 L21.3333333,14.6666667 L29.3333333,14.6666667 L29.3333333,9.332 L29.3333333,9.332 Z" id="Fill-3"></path>
                    <path d="M25.3333333,12 C25.3333333,12.736 24.736,13.3333333 24,13.3333333 C23.2626667,13.3333333 22.6666667,12.736 22.6666667,12 C22.6666667,11.264 23.2626667,10.6666667 24,10.6666667 C24.736,10.6666667 25.3333333,11.264 25.3333333,12" id="Fill-4"></path>
                </g>
            </g>
        </g>
    </g>
</svg>