<?xml version="1.0" encoding="utf-8"?>
<svg width="23px" height="24px" viewBox="0 0 23 24" version="1.1" xmlns:xlink="http://www.w3.org/1999/xlink" xmlns="http://www.w3.org/2000/svg">
  <desc>Created with Lunacy</desc>
  <path d="M9.96042 0C10.5088 0 11.0571 0.209538 11.4757 0.628075L22.0991 11.252C22.9367 12.0891 22.9211 13.4454 22.0851 14.2836L20 16L20 13.9221L20.9878 13C21.4112 12.5766 21.1338 12.1454 20.9878 12L10.3639 1.7431C10.2184 1.5982 10.0488 1.57988 9.96042 1.57988C9.87262 1.57988 9.7024 1.60735 9.55696 1.75279L6.2593 5.06392L12 11.0378L9 11.0378L4.50866 6.81833L3.74 7.56275C3.59456 7.70819 3.57302 7.88433 3.57302 7.97267C3.57302 8.06101 3.59456 8.24362 3.74 8.38959L6 11.0378L4 11.0378L2.62821 9.50192C1.7906 8.66485 1.7906 7.28157 2.62821 6.4445L8.44517 0.628075C8.86371 0.209538 9.4126 0 9.96042 0ZM1.99995 12C0.816515 12 0 12.7387 0 13.9221L0 20L18.9999 20L18.9999 13.9221C18.9999 12.7387 18.1834 12 16.9999 12L1.99995 12ZM17 24L2 24C0.816031 24 0 23.1796 0 22L19 21.9967C19 23.1796 18.1834 24 17 24Z" id="credit" fill="#FF2626" fill-rule="evenodd" stroke="none" />
</svg>