<svg xmlns="http://www.w3.org/2000/svg" width="16" height="16" viewBox="0 0 16 16">
    <g fill="none" fill-rule="evenodd">
        <circle cx="8" cy="8" r="8" fill="#CDCDCD"/>
        <path fill="#FFF" d="M9.014 8.43a.157.157 0 0 1 0-.236l2.666-2.527a.355.355 0 0 0 .107-.235.357.357 0 0 0-.107-.237l-.498-.472a.392.392 0 0 0-.248-.1.332.332 0 0 0-.25.1L8.017 7.25a.178.178 0 0 1-.248 0L5.102 4.723a.395.395 0 0 0-.248-.1.398.398 0 0 0-.25.1l-.498.472A.357.357 0 0 0 4 5.432c0 .066.035.168.106.235l2.666 2.527a.157.157 0 0 1 0 .235l-2.666 2.526a.355.355 0 0 0-.106.237c0 .068.035.168.106.235l.498.472c.072.068.18.101.25.101s.177-.033.248-.1L7.77 9.372a.178.178 0 0 1 .248 0l2.667 2.526c.071.068.179.101.25.101a.392.392 0 0 0 .248-.1l.498-.473a.352.352 0 0 0 .107-.235.356.356 0 0 0-.107-.237L9.014 8.43z"/>
    </g>
</svg>
