<?xml version="1.0" encoding="utf-8"?>
<svg width="22px" height="21px" viewBox="0 0 22 21" version="1.1" xmlns:xlink="http://www.w3.org/1999/xlink" xmlns="http://www.w3.org/2000/svg">
  <desc>Created with Lunacy</desc>
  <defs>
    <path d="M8.55 17.03C3.4 12.36 0 9.28 0 5.5C0 2.42 2.42 0 5.5 0C7.24 0 8.91 0.81 10 2.09C11.09 0.81 12.76 0 14.5 0C17.58 0 20 2.42 20 5.5C20 9.28 16.6 12.36 11.45 17.04L10 18.35L8.55 17.03Z" id="path_1" />
    <clipPath id="mask_1">
      <use xlink:href="#path_1" />
    </clipPath>
  </defs>
  <g id="favorite" transform="translate(1 1)">
    <path d="M8.55 17.03C3.4 12.36 0 9.28 0 5.5C0 2.42 2.42 0 5.5 0C7.24 0 8.91 0.81 10 2.09C11.09 0.81 12.76 0 14.5 0C17.58 0 20 2.42 20 5.5C20 9.28 16.6 12.36 11.45 17.04L10 18.35L8.55 17.03Z" id="Icon" fill="#FF2626" stroke="none" />
  </g>
</svg>