<?xml version="1.0" encoding="UTF-8"?>
<svg width="48px" height="32px" viewBox="0 0 48 32" version="1.1" xmlns="http://www.w3.org/2000/svg" xmlns:xlink="http://www.w3.org/1999/xlink">
    <!-- Generator: sketchtool 53.2 (72643) - https://sketchapp.com -->
    <title>2B79F81C-DFE0-422A-99C2-BF02F97CE344</title>
    <desc>Created with sketchtool.</desc>
    <g id="Desktop" stroke="none" stroke-width="1" fill="none" fill-rule="evenodd">
        <g id="Desktop/pcard-kitchen-photo" transform="translate(-76.000000, -397.000000)">
            <g id="photos" transform="translate(60.000000, 365.000000)">
                <g id="icons/fullscreen" transform="translate(16.000000, 32.000000)">
                    <g id="fullscreen">
                        <rect id="area" fill="#1A1A1A" opacity="0.200000003" x="0" y="0" width="48" height="32" rx="5"></rect>
                        <path d="M17.0629855,13.7286962 L17.002863,9.39790535 C17,9.17750158 17.1803677,8.99717123 17.400817,9.00003361 L21.732504,9.06300612 C22.0789244,9.06873089 22.2507031,9.48663933 22.004487,9.73280458 L20.7991729,10.9378693 L22.803258,12.9415399 L20.9423218,14.8020912 L18.9382367,12.7984206 L17.7329226,14.0034854 C17.4895694,14.2467882 17.0687115,14.075045 17.0629855,13.7286962 Z M29.0617297,12.8241821 L27.0576446,14.8249903 L25.1967083,12.964439 L27.2007935,10.9607684 L25.9983424,9.76142844 C25.7521262,9.5152632 25.923905,9.09735476 26.2703254,9.09162998 L30.6020123,9.02865748 C30.8224617,9.02579509 31.0028294,9.20612545 30.9999664,9.42652921 L30.9369808,13.7573201 C30.9312549,14.1036689 30.51326,14.2754121 30.2670438,14.0292468 L29.0617297,12.8241821 Z M25.9954794,22.2671954 L27.1979305,21.0649931 L25.1938454,19.0613225 L27.0547816,17.2007712 L29.0588667,19.2044418 L30.2641808,17.999377 C30.510397,17.7532118 30.9283919,17.924955 30.9341179,18.2713038 L30.9971034,22.6020947 C30.9999664,22.8224984 30.8195987,23.0028288 30.5991493,22.9999664 L26.2674624,22.9369939 C25.921042,22.9312691 25.7492632,22.5133607 25.9954794,22.2671954 Z M17.400817,22.9713425 C17.1803677,22.9742049 17,22.7938746 17,22.5734708 L17.0629855,18.2426799 C17.0687115,17.8963311 17.4867064,17.7245879 17.7329226,17.9707532 L18.9382367,19.1758179 L20.9423218,17.1721473 L22.803258,19.0326986 L20.7991729,21.0363692 L22.004487,22.2385716 C22.2507031,22.4847368 22.0789244,22.9026452 21.732504,22.90837 L17.400817,22.9713425 Z" id="full_screen" fill="#FFFFFF" fill-rule="nonzero"></path>
                    </g>
                </g>
            </g>
        </g>
    </g>
</svg>