<?xml version="1.0" encoding="utf-8"?>
<svg width="40px" height="40px" viewBox="0 0 40 40" version="1.1" xmlns:xlink="http://www.w3.org/1999/xlink" xmlns="http://www.w3.org/2000/svg">
  <desc>Created with Lunacy</desc>
  <g id="arr_right">
    <path d="M20 40C31.0457 40 40 31.0457 40 20C40 8.9543 31.0457 0 20 0C8.9543 0 0 8.9543 0 20C0 31.0457 8.9543 40 20 40Z" id="area" fill="#FFFFFF" fill-opacity="0.202845976" stroke="none" />
    <path d="M1.57998 0.471331L9.40065 6.06228Q9.44897 6.09682 9.49285 6.13685Q9.53673 6.17687 9.57557 6.22181Q9.6144 6.26675 9.64763 6.31598Q9.68087 6.3652 9.70803 6.41802Q9.7352 6.47084 9.75592 6.5265Q9.77664 6.58217 9.79061 6.63989Q9.80459 6.69762 9.81163 6.7566Q9.81866 6.81557 9.81866 6.87497Q9.81866 6.93436 9.81163 6.99334Q9.80459 7.05231 9.79061 7.11004Q9.77664 7.16777 9.75592 7.22343Q9.7352 7.27909 9.70803 7.33191Q9.68087 7.38473 9.64763 7.43395Q9.6144 7.48318 9.57557 7.52812Q9.53673 7.57306 9.49285 7.61309Q9.44897 7.65311 9.40065 7.68765L1.57998 13.2786Q1.55215 13.2985 1.52301 13.3165Q1.49388 13.3344 1.46358 13.3503Q1.43329 13.3662 1.40197 13.38Q1.37066 13.3938 1.33848 13.4055Q1.30629 13.4171 1.27339 13.4265Q1.24048 13.4359 1.20701 13.443Q1.17354 13.4501 1.13966 13.455Q1.10578 13.4598 1.07165 13.4623Q1.03752 13.4648 1.0033 13.4649Q0.969083 13.4651 0.934933 13.4629Q0.900783 13.4607 0.866863 13.4561Q0.832943 13.4516 0.799413 13.4448Q0.765882 13.4379 0.732898 13.4288Q0.699914 13.4197 0.66763 13.4084Q0.635347 13.397 0.603917 13.3835Q0.572486 13.3699 0.542055 13.3543Q0.511624 13.3386 0.482336 13.3209Q0.453047 13.3032 0.425038 13.2836Q0.39703 13.2639 0.370432 13.2424Q0.343834 13.2209 0.318772 13.1976Q0.29371 13.1743 0.270301 13.1493Q0.246892 13.1243 0.225247 13.0978Q0.203601 13.0713 0.183819 13.0434Q0.164038 13.0155 0.146214 12.9863Q0.128389 12.957 0.112606 12.9267Q0.0968225 12.8963 0.0831537 12.8649Q0.069485 12.8336 0.057995 12.8013Q0.0465051 12.7691 0.0372478 12.7362Q0.0279905 12.7032 0.0210093 12.6697Q0.0140282 12.6362 0.00935576 12.6023Q0.00468337 12.5684 0.00234169 12.5343Q0 12.5001 0 12.4659L0 1.28402Q0 1.2498 0.00234169 1.21566Q0.00468337 1.18151 0.00935576 1.14761Q0.0140282 1.11371 0.0210094 1.08021Q0.0279905 1.04671 0.0372478 1.01377Q0.0465051 0.980824 0.057995 0.94859Q0.069485 0.916356 0.0831537 0.884984Q0.0968225 0.853612 0.112606 0.823249Q0.128389 0.792885 0.146214 0.763673Q0.164038 0.734461 0.183819 0.706538Q0.203601 0.678614 0.225247 0.652109Q0.246892 0.625604 0.270301 0.600643Q0.29371 0.575682 0.318772 0.55238Q0.343834 0.529079 0.370432 0.507548Q0.39703 0.486016 0.425038 0.466356Q0.453047 0.446695 0.482336 0.428996Q0.511624 0.411298 0.542055 0.395646Q0.572486 0.379993 0.603917 0.36646Q0.635347 0.352926 0.66763 0.341575Q0.699914 0.330224 0.732898 0.321109Q0.765882 0.311994 0.799413 0.305157Q0.832943 0.29832 0.866863 0.293794Q0.900783 0.289267 0.934933 0.287073Q0.969083 0.284878 1.0033 0.285026Q1.03752 0.285173 1.07165 0.287662Q1.10578 0.29015 1.13966 0.294969Q1.17354 0.299787 1.20701 0.306913Q1.24048 0.314038 1.27339 0.323437Q1.30629 0.332836 1.33848 0.344465Q1.37066 0.356094 1.40197 0.369897Q1.43329 0.383701 1.46358 0.399615Q1.49388 0.415529 1.52301 0.433479Q1.55215 0.451429 1.57998 0.471331L1.57998 0.471331Z" transform="translate(16.25 13.75)" id="arr" fill="#FFFFFF" stroke="none" />
  </g>
</svg>