<svg xmlns="http://www.w3.org/2000/svg" width="40" height="40" viewBox="0 0 40 40">
    <g fill="none" fill-rule="evenodd">
        <circle cx="20" cy="20" r="19" fill="#FFF" stroke="#4D7399" stroke-width="2"/>
        <path fill="#FF2626" fill-rule="nonzero" d="M7.396 24.232l2.213-3.234 2.226 3.234h1.77l-3.012-4.39 2.902-4.217h-1.771l-2.078 3.11-2.115-3.11H5.76l2.877 4.218-3.013 4.39h1.77zm8.927 0l4.512-6.11v6.11h1.513v-8.607H21.02l-4.513 6.123v-6.123h-1.512v8.607h1.328zm11.718 0V17.04h2.791v-1.414h-7.095v1.414h2.791v7.193h1.513zm5.644-2.975v-5.632h-1.5v5.632h1.5zm-.713 3.037c.254 0 .467-.099.639-.295.172-.197.258-.427.258-.689 0-.23-.086-.438-.258-.627-.172-.189-.385-.283-.64-.283-.295 0-.532.094-.713.283-.18.189-.27.398-.27.627 0 .262.09.492.27.689.18.196.418.295.714.295z"/>
    </g>
</svg>
