<?xml version="1.0" encoding="utf-8"?>
<svg width="14px" height="16px" viewBox="0 0 14 16" version="1.1" xmlns:xlink="http://www.w3.org/1999/xlink" xmlns="http://www.w3.org/2000/svg">
  <desc>Created with Lunacy</desc>
  <path d="M7.55611 0.224583L13.552 6.35658C13.8367 6.64903 14 7.05658 14 7.47581L14 13.9905C14 14.8484 13.3404 15.546 12.5308 15.546L1.46844 15.546C0.658778 15.546 0 14.8484 0 13.9905L0 7.47581C0 7.05658 0.163333 6.64903 0.447222 6.35736L6.44389 0.224583C6.73711 -0.0748611 7.26289 -0.0748611 7.55611 0.224583ZM10.1112 13.9903L12.4368 13.9903L12.4446 7.47561L6.99855 1.88184L1.56033 7.44372L1.55566 13.9903L3.889 13.9903L3.889 8.54584C3.889 8.11572 4.23666 7.76806 4.66678 7.76806L9.33344 7.76806C9.76278 7.76806 10.1112 8.11572 10.1112 8.54584L10.1112 13.9903ZM5.44434 13.9904L8.55545 13.9904L8.55545 9.32373L5.44434 9.32373L5.44434 13.9904Z" id="🎨-Icon-Сolor" fill="#4C7399" fill-rule="evenodd" stroke="none" />
</svg>