<?xml version="1.0" encoding="UTF-8"?>
<svg width="57px" height="56px" viewBox="0 0 57 56" version="1.1" xmlns="http://www.w3.org/2000/svg" xmlns:xlink="http://www.w3.org/1999/xlink">
    <!-- Generator: Sketch 53.2 (72643) - https://sketchapp.com -->
    <title>honest rationgs</title>
    <desc>Created with Sketch.</desc>
    <g id="Desktop" stroke="none" stroke-width="1" fill="none" fill-rule="evenodd">
        <g id="Desktop/main" transform="translate(-737.000000, -2178.000000)">
            <g id="advantages" transform="translate(60.000000, 2146.000000)">
                <g id="03" transform="translate(677.000000, 32.000000)">
                    <g id="honest-rationgs">
                        <polygon id="decor" fill="#F2F249" points="33 7 57 43 9 43"></polygon>
                        <path d="M5.8515625,5.96095938 C5.39907812,5.96095938 5.03125,5.59313125 5.03125,5.14064688 C5.03125,4.6881625 5.39907812,4.32033438 5.8515625,4.32033438 C6.30404688,4.32033438 6.671875,4.6881625 6.671875,5.14064688 C6.671875,5.59313125 6.30404688,5.96095938 5.8515625,5.96095938 M5.8515625,2.67970938 C4.49465625,2.67970938 3.390625,3.78374063 3.390625,5.14064688 C3.390625,6.49755313 4.49465625,7.60158438 5.8515625,7.60158438 C7.20846875,7.60158438 8.3125,6.49755313 8.3125,5.14064688 C8.3125,3.78374063 7.20846875,2.67970938 5.8515625,2.67970938" id="Fill-1" fill="#000000"></path>
                        <path d="M12.4140625,4.32033438 C12.8665469,4.32033438 13.234375,4.6881625 13.234375,5.14064688 C13.234375,5.59313125 12.8665469,5.96095938 12.4140625,5.96095938 C11.9615781,5.96095938 11.59375,5.59313125 11.59375,5.14064688 C11.59375,4.6881625 11.9615781,4.32033438 12.4140625,4.32033438 M12.4140625,7.60158438 C13.7709688,7.60158438 14.875,6.49755313 14.875,5.14064688 C14.875,3.78374063 13.7709688,2.67970938 12.4140625,2.67970938 C11.0571562,2.67970938 9.953125,3.78374063 9.953125,5.14064688 C9.953125,6.49755313 11.0571562,7.60158438 12.4140625,7.60158438" id="Fill-3" fill="#000000"></path>
                        <path d="M18.15625,5.14064688 C18.15625,4.6881625 18.5240781,4.32033438 18.9765625,4.32033438 C19.4290469,4.32033438 19.796875,4.6881625 19.796875,5.14064688 C19.796875,5.59313125 19.4290469,5.96095938 18.9765625,5.96095938 C18.5240781,5.96095938 18.15625,5.59313125 18.15625,5.14064688 M21.4375,5.14064688 C21.4375,3.78374063 20.3334688,2.67970938 18.9765625,2.67970938 C17.6196562,2.67970938 16.515625,3.78374063 16.515625,5.14064688 C16.515625,6.49755313 17.6196562,7.60158438 18.9765625,7.60158438 C20.3334688,7.60158438 21.4375,6.49755313 21.4375,5.14064688" id="Fill-5" fill="#000000"></path>
                        <path d="M40.6328125,14.0547094 C40.1794531,14.0547094 39.8125,14.4221 39.8125,14.8750219 L39.8125,54.3593969 L1.640625,54.3593969 L1.640625,52.4726781 C1.640625,52.0197563 1.27367187,51.6523656 0.8203125,51.6523656 C0.366953125,51.6523656 0,52.0197563 0,52.4726781 L0,55.1797094 C0,55.6326313 0.366953125,56.0000219 0.8203125,56.0000219 L40.6328125,56.0000219 C41.0861719,56.0000219 41.453125,55.6326313 41.453125,55.1797094 L41.453125,14.8750219 C41.453125,14.4221 41.0861719,14.0547094 40.6328125,14.0547094" id="Fill-7" fill="#000000"></path>
                        <path d="M40.6328125,2.18750001e-05 L0.8203125,2.18750001e-05 C0.366953125,2.18750001e-05 0,0.3674125 0,0.820334375 L0,48.9453344 C0,49.3982563 0.366953125,49.7656469 0.8203125,49.7656469 C1.27367187,49.7656469 1.640625,49.3982563 1.640625,48.9453344 L1.640625,10.3906469 L6.7265625,10.3906469 C7.17992187,10.3906469 7.546875,10.0232563 7.546875,9.57033438 C7.546875,9.1174125 7.17992187,8.75002188 6.7265625,8.75002188 L1.640625,8.75002188 L1.640625,1.64064688 L39.8125,1.64064688 L39.8125,8.75002188 L10.2334531,8.75002188 C9.78053125,8.75002188 9.41314062,9.1174125 9.41314062,9.57033438 C9.41314062,10.0232563 9.78053125,10.3906469 10.2334531,10.3906469 L39.8125,10.3906469 L39.8125,11.3476781 C39.8125,11.8006 40.1794531,12.1679906 40.6328125,12.1679906 C41.0861719,12.1679906 41.453125,11.8006 41.453125,11.3476781 L41.453125,0.820334375 C41.453125,0.3674125 41.0861719,2.18750001e-05 40.6328125,2.18750001e-05" id="Fill-10" fill="#000000"></path>
                        <path d="M5.1060479,22.499129 C5.39916053,22.4569982 5.65262312,22.2747911 5.78422609,22.0114908 L6.21428701,21.1506752 L6.64428027,22.0114908 C6.77568025,22.2747911 7.02941349,22.4569982 7.32225547,22.499129 L8.27480387,22.6357674 L7.58843855,23.2967147 C7.374829,23.5023802 7.27759842,23.7991155 7.32807442,24.0901211 L7.49086966,25.0287943 L6.63162744,24.5824779 C6.37024837,24.4466484 6.058055,24.4466484 5.79640529,24.5824779 L4.93716306,25.0287943 L5.10022895,24.0901211 C5.15070495,23.7991155 5.05347437,23.5023802 4.83959417,23.2967147 L4.15322885,22.6357674 L5.1060479,22.499129 Z M3.04390715,22.2797794 C2.9382188,22.60604 3.02651796,22.9567701 3.27443225,23.1953313 L4.08955873,23.9803115 L3.89712744,25.0873055 C3.83873497,25.4238123 3.97480364,25.7582293 4.25208332,25.9599177 C4.53146053,26.1631565 4.89568613,26.190592 5.20253419,26.0312366 L6.21428701,25.5059167 L7.22603983,26.0312366 C7.3587254,26.099994 7.50196626,26.1339683 7.64446285,26.1339683 C7.83181947,26.1339683 8.01761986,26.0755245 8.17622005,25.9599177 C8.45377038,25.7582293 8.58956841,25.4238123 8.53117593,25.0873055 L8.33901529,23.9803115 L9.15414177,23.1953313 C9.40205606,22.9567701 9.49008457,22.6057703 9.38432856,22.2797794 C9.27809891,21.9522381 8.99899235,21.7181259 8.65594502,21.6689172 L7.52578336,21.5066632 L7.02122636,20.4968733 C6.86790382,20.1903636 6.55895824,20 6.21428701,20 C5.86961578,20 5.56039955,20.1903636 5.40734766,20.4966036 L4.90252001,21.5066632 L3.772629,21.6689172 C3.42958167,21.7181259 3.15047511,21.9522381 3.04390715,22.2797794 L3.04390715,22.2797794 Z" id="Fill-12" fill="#000000"></path>
                        <path d="M22.1675559,16.7665085 C21.9084894,17.0320175 21.79012,17.4142462 21.8513569,17.789696 L22.0492686,18.9996524 L21.006764,18.4245711 C20.689662,18.2493612 20.3106664,18.2493612 19.9935644,18.4245711 L18.9510597,19 L19.1489715,17.789696 C19.2102083,17.4142462 19.0921673,17.0320175 18.8327724,16.7665085 L18,15.9147069 L19.1557026,15.738541 C19.5113034,15.6842224 19.8188012,15.4493056 19.978132,15.1098364 L20.4998769,14 L21.0215396,15.1098364 C21.1811988,15.4493056 21.4886966,15.6842224 21.8442974,15.738541 L23,15.9147069 L22.1675559,16.7665085 Z M23.9521757,15.6016105 C23.8365027,15.2278309 23.5322901,14.9606697 23.1586737,14.9044374 L21.9283404,14.7193553 L21.3786358,13.5670157 C21.212052,13.2172368 20.8752741,13 20.5000368,13 C20.1247259,13 19.787948,13.2172368 19.6213642,13.5670157 L19.0716596,14.7193553 L17.8413263,14.9044374 C17.4677099,14.9606697 17.163792,15.2278309 17.0478243,15.6016105 C16.9327408,15.9739285 17.0288157,16.3741704 17.2987684,16.6464087 L18.186356,17.5422027 L17.9768184,18.8053915 C17.9132351,19.1894791 18.0614734,19.571105 18.3633283,19.8012653 C18.6675409,20.0331948 19.0641445,20.0645033 19.39827,19.8826521 L20.5000368,19.283174 L21.60173,19.8826521 C21.7462107,19.9611158 21.902185,19.9998861 22.0572753,19.9998861 C22.2613607,19.9998861 22.4636779,19.933192 22.636377,19.8012653 C22.9385266,19.571105 23.0864702,19.1894791 23.0228869,18.8053915 L22.813644,17.5422027 L23.7012316,16.6464087 C23.9711843,16.3741704 24.0672592,15.9739285 23.9521757,15.6016105 L23.9521757,15.6016105 Z" id="Fill-14" fill="#000000"></path>
                        <path d="M14.5886544,19.2964451 C14.3751125,19.5023802 14.2775437,19.7988459 14.3280196,20.0900537 L14.4911532,21.0285247 L13.6318433,20.5824779 C13.3704642,20.446581 13.0580679,20.446581 12.7966888,20.5824779 L11.9373789,21.0287943 L12.1005125,20.0900537 C12.1509885,19.7988459 12.0536903,19.5023802 11.8398777,19.2964451 L11.1534447,18.6357674 L12.1060608,18.499129 C12.3991734,18.4569982 12.652636,18.2747911 12.7839683,18.0114908 L13.2142999,17.1506752 L13.6442932,18.0114908 C13.7758961,18.2747911 14.0293587,18.4569982 14.3222007,18.499129 L15.2748168,18.6357674 L14.5886544,19.2964451 Z M16.3846121,18.2797794 C16.2783825,17.9522381 15.9990052,17.7181259 15.6558902,17.6688498 L14.5259992,17.5066632 L14.0211716,16.4968733 C13.8681874,16.1903636 13.5589035,16 13.2142999,16 C12.8696287,16 12.5603448,16.1903636 12.4073605,16.4968733 L11.9025329,17.5066632 L10.7726419,17.6688498 C10.4295269,17.7181259 10.1504203,17.9522381 10.04392,18.2797794 C9.93823169,18.60604 10.0264632,18.9567701 10.2743775,19.1953313 L11.089504,19.9803115 L10.8970727,21.0872381 C10.8386802,21.4238123 10.9748165,21.7582293 11.2520286,21.9599177 C11.5314058,22.1631565 11.8956314,22.190592 12.2024794,22.0312366 L13.2142999,21.5059167 L14.2260527,22.0312366 C14.3587383,22.099994 14.5019792,22.1342379 14.6446787,22.1342379 C14.8318324,22.1342379 15.0176328,22.0755245 15.1762329,21.9601873 C15.4537156,21.7582293 15.5895813,21.4238123 15.5311888,21.0872381 L15.3390282,19.9803115 L16.1541547,19.1953313 C16.4020689,18.9567701 16.4903005,18.60604 16.3846121,18.2797794 L16.3846121,18.2797794 Z" id="Fill-16" fill="#000000"></path>
                        <path d="M36.5886544,23.2964451 C36.3751125,23.5023802 36.2775437,23.7988459 36.3280196,24.0900537 L36.4911532,25.0285247 L35.6318433,24.5824779 C35.3704642,24.446581 35.0580679,24.446581 34.7966888,24.5824779 L33.9373789,25.0287943 L34.1005125,24.0900537 C34.1509885,23.7988459 34.0536903,23.5023802 33.8398777,23.2964451 L33.1534447,22.6357674 L34.1060608,22.499129 C34.3991734,22.4569982 34.652636,22.2747911 34.7839683,22.0114908 L35.2140293,21.1506752 L35.6440225,22.0114908 C35.7756255,22.2747911 36.0290881,22.4569982 36.3222007,22.499129 L37.2748168,22.6357674 L36.5886544,23.2964451 Z M38.3846121,22.2797794 C38.2783825,21.9522381 37.9990052,21.7181259 37.6558902,21.6688498 L36.5259992,21.5066632 L36.0211716,20.4968733 C35.8681874,20.1903636 35.5589035,20 35.2142999,20 C34.8696287,20 34.5603448,20.1903636 34.4073605,20.4968733 L33.9025329,21.5066632 L32.7726419,21.6688498 C32.4295269,21.7181259 32.1504203,21.9522381 32.04392,22.2797794 C31.9382317,22.60604 32.0264632,22.9567701 32.2743775,23.1953313 L33.089504,23.9803115 L32.8970727,25.0872381 C32.8386802,25.4238123 32.9748165,25.7582293 33.2520286,25.9599177 C33.5314058,26.1631565 33.8956314,26.190592 34.2024794,26.0312366 L35.2142999,25.5059167 L36.2260527,26.0312366 C36.3587383,26.099994 36.5019792,26.1339683 36.6444081,26.1339683 C36.8318324,26.1339683 37.0176328,26.0755245 37.1762329,25.9599177 C37.4537156,25.7582293 37.5895813,25.4238123 37.5311888,25.0872381 L37.3390282,23.9803115 L38.1541547,23.1953313 C38.4020689,22.9567701 38.4903005,22.60604 38.3846121,22.2797794 L38.3846121,22.2797794 Z" id="Fill-14" fill="#000000"></path>
                        <path d="M29.7612747,19.2964451 C29.5477328,19.5023802 29.4501639,19.7988459 29.5006399,20.0900537 L29.6637735,21.0285247 L28.8044636,20.5824779 C28.5430845,20.446581 28.2306882,20.446581 27.9693091,20.5824779 L27.1099992,21.0287943 L27.2731328,20.0900537 C27.3236088,19.7988459 27.2263105,19.5023802 27.012498,19.2964451 L26.326065,18.6357674 L27.2786811,18.499129 C27.5717937,18.4569982 27.8252563,18.2747911 27.9565886,18.0114908 L28.3869202,17.1506752 L28.8169134,18.0114908 C28.9485164,18.2747911 29.201979,18.4569982 29.494821,18.499129 L30.447437,18.6357674 L29.7612747,19.2964451 Z M31.5572324,18.2797794 C31.4510027,17.9522381 31.1716255,17.7181259 30.8285105,17.6688498 L29.6986195,17.5066632 L29.1937919,16.4968733 C29.0408076,16.1903636 28.7315237,16 28.3869202,16 C28.0422489,16 27.732965,16.1903636 27.5799808,16.4968733 L27.0751532,17.5066632 L25.9452622,17.6688498 C25.6021472,17.7181259 25.3230406,17.9522381 25.2165403,18.2797794 C25.110852,18.60604 25.1990835,18.9567701 25.4469977,19.1953313 L26.2621242,19.9803115 L26.0696929,21.0872381 C26.0113005,21.4238123 26.1474368,21.7582293 26.4246488,21.9599177 C26.704026,22.1631565 27.0682516,22.190592 27.3750997,22.0312366 L28.3869202,21.5059167 L29.398673,22.0312366 C29.5313585,22.099994 29.6745994,22.1342379 29.817299,22.1342379 C30.0044526,22.1342379 30.190253,22.0755245 30.3488532,21.9601873 C30.6263359,21.7582293 30.7622016,21.4238123 30.7038091,21.0872381 L30.5116484,19.9803115 L31.3267749,19.1953313 C31.5746892,18.9567701 31.6629207,18.60604 31.5572324,18.2797794 L31.5572324,18.2797794 Z" id="Fill-16" fill="#000000"></path>
                        <path d="M15.8298984,30.6241687 L15.8298984,27.845825 C15.8298984,26.9729031 16.0995078,26.386325 16.5006953,26.386325 L16.7015078,26.386325 L16.7015078,27.2270906 C16.7015078,28.1367625 16.9523047,29.0061844 17.4269922,29.7406375 C18.1310391,30.8322 18.6488203,32.23745 18.8385859,32.7907781 C18.9650234,33.1590437 19.1906641,33.4794031 19.4910078,33.7178406 C19.6212734,33.8212 19.6990391,33.9892 19.6990391,34.1677 L19.6990391,40.3312 C19.6990391,40.4692312 19.6050859,40.585825 19.4930859,40.585825 L10.8165859,40.585825 C10.7504141,40.585825 10.6875234,40.5636219 10.6572266,40.5294969 C10.6426797,40.5127625 10.6187266,40.4854187 10.6187266,40.3986844 C10.6187266,40.2957625 10.6392891,40.2171219 10.6789922,40.1662625 C10.9122891,39.8676687 10.9541797,39.4694344 10.7874922,39.128075 C10.6196016,38.7840906 10.2782422,38.5709187 9.89630469,38.5709187 L9.36353906,38.5709187 C9.18711719,38.5709187 9.04350781,38.4030281 9.04350781,38.1966375 C9.04350781,37.9518562 9.13199219,37.8646844 9.20932031,37.815575 C9.51305469,37.6224187 9.67416406,37.2673875 9.61903906,36.9110437 C9.56435156,36.5548094 9.30414844,36.265075 8.95677344,36.1724344 C8.83328906,36.1395125 8.70772656,36.0036687 8.70772656,35.8075594 C8.70772656,35.7472937 8.70772656,35.5870594 9.12849219,35.4695906 C9.50627344,35.3640437 9.76516406,35.0299031 9.77282031,34.6385594 C9.78091406,34.2454656 9.53438281,33.9002781 9.15933594,33.7794187 C9.04613281,33.7431062 8.92385156,33.6140437 8.92385156,33.4179344 C8.92385156,33.2115437 9.06746094,33.0436531 9.24519531,33.0436531 L13.0527578,33.0364344 C14.3371484,33.0364344 15.8298984,31.982825 15.8298984,30.6241687 L15.8298984,30.6241687 Z M21.3396641,40.715325 L22.9802891,40.715325 L22.9802891,33.3872 L21.3396641,33.3872 L21.3396641,40.715325 Z M24.6209141,40.1487625 L32.7453984,40.1487625 L32.7453984,34.131825 L24.6209141,34.131825 L24.6209141,40.1487625 Z M14.1892734,27.845825 L14.1892734,30.6241687 C14.1892734,30.9489031 13.5308359,31.3958094 13.0511172,31.3958094 L9.24344531,31.4030281 C8.16249219,31.4030281 7.28278906,32.3066844 7.28278906,33.4179344 C7.28278906,33.8157312 7.39435156,34.1903406 7.59089844,34.5065437 C7.25292969,34.8521687 7.06710156,35.299075 7.06710156,35.8071219 C7.06710156,36.3459031 7.27469531,36.8448719 7.62119531,37.2114969 C7.49180469,37.470825 7.40288281,37.7951219 7.40288281,38.1962 C7.40288281,39.1759812 8.08647656,39.9941062 8.98882031,40.1743562 C8.98160156,40.2478562 8.97810156,40.3226687 8.97810156,40.3982469 C8.97810156,40.86145 9.13319531,41.2817781 9.42719531,41.6150437 C9.77030469,42.0034344 10.2769297,42.22645 10.8165859,42.22645 L19.4930859,42.22645 C19.7332734,42.22645 19.9621953,42.1773406 20.1728516,42.0914812 C20.3830703,42.2564187 20.6466641,42.35595 20.9337734,42.35595 L23.3857422,42.35595 C23.8202891,42.35595 24.2022266,42.1294344 24.4227266,41.78895 L33.5652734,41.78895 C34.0186328,41.78895 34.3855859,41.4219969 34.3855859,40.9686375 L34.3855859,33.3115125 C34.3855859,32.8582625 34.0186328,32.4912 33.5652734,32.4912 L24.5187578,32.4912 C24.3286641,32.0532625 23.8924766,31.746575 23.3857422,31.746575 L20.9337734,31.746575 C20.6923828,31.746575 20.4676172,31.8170125 20.2770859,31.9371062 C19.9861484,31.1351687 19.4798516,29.8970437 18.8047891,28.8506531 C18.5019297,28.3815437 18.3416953,27.8201219 18.3416953,27.2267625 L18.3416953,26.0782156 C18.3416953,25.3434344 17.7546797,24.7457 17.0325859,24.7457 L16.5002578,24.7457 C15.3500703,24.7457 14.1892734,25.7044812 14.1892734,27.845825 L14.1892734,27.845825 Z" id="Fill-18" fill="#000000"></path>
                        <path d="M33.578125,46.4843969 C33.578125,46.031475 33.2111719,45.6640844 32.7578125,45.6640844 L8.6953125,45.6640844 C8.24195312,45.6640844 7.875,46.031475 7.875,46.4843969 C7.875,46.9373188 8.24195312,47.3047094 8.6953125,47.3047094 L32.7578125,47.3047094 C33.2111719,47.3047094 33.578125,46.9373188 33.578125,46.4843969" id="Fill-20" fill="#000000"></path>
                        <path d="M8.6953125,49.3097719 C8.24195312,49.3097719 7.875,49.6771625 7.875,50.1300844 C7.875,50.5834438 8.24195312,50.9503969 8.6953125,50.9503969 L14.8288437,50.9503969 C15.2822031,50.9503969 15.6491562,50.5834438 15.6491562,50.1300844 C15.6491562,49.6771625 15.2822031,49.3097719 14.8288437,49.3097719 L8.6953125,49.3097719 Z" id="Fill-22" fill="#000000"></path>
                    </g>
                </g>
            </g>
        </g>
    </g>
</svg>