<?xml version="1.0" encoding="utf-8"?>
<svg width="42px" height="56px" viewBox="0 0 42 56" version="1.1" xmlns:xlink="http://www.w3.org/1999/xlink" xmlns="http://www.w3.org/2000/svg">
  <desc>Created with Lunacy</desc>
  <g id="honest-rationgs">
    <path d="M0.820313 0L40.6328 0C41.0862 0 41.4531 0.367391 41.4531 0.820313L41.4531 11.3477C41.4531 11.8006 41.0862 12.168 40.6328 12.168C40.1795 12.168 39.8125 11.8006 39.8125 11.3477L39.8125 10.3906L10.2335 10.3906C9.78053 10.3906 9.41314 10.0232 9.41314 9.57031C9.41314 9.11739 9.78053 8.75 10.2335 8.75L39.8125 8.75L39.8125 1.64063L1.64063 1.64063L1.64063 8.75L6.72656 8.75C7.17992 8.75 7.54688 9.11739 7.54688 9.57031C7.54688 10.0232 7.17992 10.3906 6.72656 10.3906L1.64063 10.3906L1.64063 48.9453C1.64063 49.3982 1.27367 49.7656 0.820313 49.7656C0.366953 49.7656 0 49.3982 0 48.9453L0 0.820313C0 0.367391 0.366953 0 0.820313 0ZM5.85156 2.67969C4.49466 2.67969 3.39063 3.78372 3.39063 5.14063C3.39063 6.49753 4.49466 7.60156 5.85156 7.60156C7.20847 7.60156 8.3125 6.49753 8.3125 5.14063C8.3125 3.78372 7.20847 2.67969 5.85156 2.67969ZM14.875 5.14063C14.875 6.49753 13.771 7.60156 12.4141 7.60156C11.0572 7.60156 9.95313 6.49753 9.95313 5.14063C9.95313 3.78372 11.0572 2.67969 12.4141 2.67969C13.771 2.67969 14.875 3.78372 14.875 5.14063ZM21.4375 5.14063C21.4375 3.78372 20.3335 2.67969 18.9766 2.67969C17.6197 2.67969 16.5156 3.78372 16.5156 5.14063C16.5156 6.49753 17.6197 7.60156 18.9766 7.60156C20.3335 7.60156 21.4375 6.49753 21.4375 5.14063ZM5.85156 5.96094C5.39908 5.96094 5.03125 5.59311 5.03125 5.14063C5.03125 4.68814 5.39908 4.32031 5.85156 4.32031C6.30405 4.32031 6.67188 4.68814 6.67188 5.14063C6.67188 5.59311 6.30405 5.96094 5.85156 5.96094ZM13.2344 5.14063C13.2344 4.68814 12.8665 4.32031 12.4141 4.32031C11.9616 4.32031 11.5938 4.68814 11.5938 5.14063C11.5938 5.59311 11.9616 5.96094 12.4141 5.96094C12.8665 5.96094 13.2344 5.59311 13.2344 5.14063ZM18.1563 5.14063C18.1563 4.68814 18.5241 4.32031 18.9766 4.32031C19.429 4.32031 19.7969 4.68814 19.7969 5.14063C19.7969 5.59311 19.429 5.96094 18.9766 5.96094C18.5241 5.96094 18.1563 5.59311 18.1563 5.14063ZM23.9522 15.6016C23.8365 15.2278 23.5323 14.9606 23.1587 14.9044L21.9283 14.7193L21.3786 13.567C21.2121 13.2172 20.8753 13 20.5 13C20.1247 13 19.7879 13.2172 19.6214 13.567L19.0717 14.7193L17.8413 14.9044C17.4677 14.9606 17.1638 15.2278 17.0478 15.6016C16.9327 15.9739 17.0288 16.3741 17.2988 16.6464L18.1864 17.5422L17.9768 18.8054C17.9132 19.1895 18.0615 19.5711 18.3633 19.8012C18.6675 20.0332 19.0641 20.0645 19.3983 19.8826L20.5 19.2832L21.6017 19.8826C21.7462 19.9611 21.9022 19.9999 22.0573 19.9999C22.2614 19.9999 22.4637 19.9332 22.6364 19.8012C22.9385 19.5711 23.0865 19.1895 23.0229 18.8054L22.8136 17.5422L23.7012 16.6464C23.9712 16.3741 24.0673 15.9739 23.9522 15.6016ZM22.1676 16.7665C21.9085 17.032 21.7901 17.4142 21.8514 17.7897L22.0493 18.9996L21.0068 18.4245C20.6897 18.2493 20.3107 18.2493 19.9936 18.4245L18.9511 19L19.149 17.7897C19.2102 17.4142 19.0922 17.032 18.8328 16.7665L18 15.9147L19.1557 15.7385C19.5113 15.6842 19.8188 15.4493 19.9781 15.1098L20.4999 14L21.0215 15.1098C21.1812 15.4493 21.4887 15.6842 21.8443 15.7385L23 15.9147L22.1676 16.7665ZM40.6328 14.0547C40.1795 14.0547 39.8125 14.4221 39.8125 14.875L39.8125 54.3594L1.64063 54.3594L1.64063 52.4727C1.64063 52.0197 1.27367 51.6523 0.820313 51.6523C0.366953 51.6523 0 52.0197 0 52.4727L0 55.1797C0 55.6326 0.366953 56 0.820313 56L40.6328 56C41.0862 56 41.4531 55.6326 41.4531 55.1797L41.4531 14.875C41.4531 14.4221 41.0862 14.0547 40.6328 14.0547ZM15.6559 17.6688C15.999 17.7181 16.2784 17.9522 16.3846 18.2798C16.4903 18.606 16.4021 18.9567 16.1542 19.1953L15.339 19.9803L15.5312 21.0872C15.5896 21.4238 15.4537 21.7582 15.1762 21.9602C15.0176 22.0755 14.8318 22.1342 14.6447 22.1342C14.502 22.1342 14.3587 22.1 14.2261 22.0312L13.2143 21.5059L12.2025 22.0312C11.8956 22.1906 11.5314 22.1631 11.252 21.9599C10.9748 21.7582 10.8387 21.4238 10.8971 21.0872L11.0895 19.9803L10.2744 19.1953C10.0265 18.9567 9.93823 18.606 10.0439 18.2798C10.1504 17.9522 10.4295 17.7181 10.7726 17.6688L11.9025 17.5066L12.4074 16.4969C12.5603 16.1903 12.8696 16 13.2143 16C13.5589 16 13.8682 16.1903 14.0212 16.4969L14.526 17.5066L15.6559 17.6688ZM30.8285 17.6688C31.1716 17.7181 31.451 17.9522 31.5572 18.2798C31.6629 18.606 31.5747 18.9567 31.3268 19.1953L30.5117 19.9803L30.7038 21.0872C30.7622 21.4238 30.6263 21.7582 30.3489 21.9602C30.1903 22.0755 30.0045 22.1342 29.8173 22.1342C29.6746 22.1342 29.5314 22.1 29.3987 22.0312L28.3869 21.5059L27.3751 22.0312C27.0683 22.1906 26.704 22.1631 26.4247 21.9599C26.1474 21.7582 26.0113 21.4238 26.0697 21.0872L26.2621 19.9803L25.447 19.1953C25.1991 18.9567 25.1109 18.606 25.2165 18.2798C25.323 17.9522 25.6021 17.7181 25.9453 17.6688L27.0752 17.5066L27.58 16.4969C27.733 16.1903 28.0422 16 28.3869 16C28.7315 16 29.0408 16.1903 29.1938 16.4969L29.6986 17.5066L30.8285 17.6688ZM14.328 20.09C14.2775 19.7988 14.3751 19.5024 14.5887 19.2964L15.2748 18.6357L14.3222 18.4991C14.0294 18.457 13.7759 18.2748 13.6443 18.0115L13.2143 17.1507L12.784 18.0115C12.6526 18.2748 12.3992 18.457 12.1061 18.4991L11.1534 18.6357L11.8399 19.2964C12.0537 19.5024 12.151 19.7988 12.1005 20.09L11.9374 21.0288L12.7967 20.5825C13.0581 20.4466 13.3705 20.4466 13.6318 20.5825L14.4912 21.0285L14.328 20.09ZM29.5006 20.09C29.4502 19.7988 29.5477 19.5024 29.7613 19.2964L30.4474 18.6357L29.4948 18.4991C29.202 18.457 28.9485 18.2748 28.8169 18.0115L28.3869 17.1507L27.9566 18.0115C27.8253 18.2748 27.5718 18.457 27.2787 18.4991L26.3261 18.6357L27.0125 19.2964C27.2263 19.5024 27.3236 19.7988 27.2731 20.09L27.11 21.0288L27.9693 20.5825C28.2307 20.4466 28.5431 20.4466 28.8045 20.5825L29.6638 21.0285L29.5006 20.09ZM3.27443 23.1953C3.02652 22.9567 2.93822 22.606 3.04391 22.2798C3.15048 21.9522 3.42958 21.7181 3.77263 21.6689L4.90252 21.5066L5.40735 20.4966C5.5604 20.1903 5.86962 20 6.21429 20C6.55896 20 6.8679 20.1903 7.02123 20.4969L7.52578 21.5066L8.65594 21.6689C8.99899 21.7181 9.2781 21.9522 9.38433 22.2798C9.49008 22.6057 9.40206 22.9567 9.15414 23.1953L8.33902 23.9803L8.53118 25.0873C8.58957 25.4238 8.45377 25.7582 8.17622 25.9599C8.01762 26.0755 7.83182 26.1339 7.64446 26.1339C7.50197 26.1339 7.35873 26.1 7.22604 26.0312L6.21429 25.5059L5.20253 26.0312C4.89569 26.1906 4.53146 26.1631 4.25208 25.9599C3.9748 25.7582 3.83873 25.4238 3.89713 25.0873L4.08956 23.9803L3.27443 23.1953ZM38.3846 22.2798C38.2784 21.9522 37.999 21.7181 37.6559 21.6688L36.526 21.5066L36.0212 20.4969C35.8682 20.1903 35.5589 20 35.2143 20C34.8696 20 34.5603 20.1903 34.4074 20.4969L33.9025 21.5066L32.7726 21.6688C32.4295 21.7181 32.1504 21.9522 32.0439 22.2798C31.9382 22.606 32.0265 22.9567 32.2744 23.1953L33.0895 23.9803L32.8971 25.0872C32.8387 25.4238 32.9748 25.7582 33.252 25.9599C33.5314 26.1631 33.8956 26.1906 34.2025 26.0312L35.2143 25.5059L36.2261 26.0312C36.3587 26.1 36.502 26.1339 36.6444 26.1339C36.8318 26.1339 37.0176 26.0755 37.1762 25.9599C37.4537 25.7582 37.5896 25.4238 37.5312 25.0872L37.339 23.9803L38.1542 23.1953C38.4021 22.9567 38.4903 22.606 38.3846 22.2798ZM5.78423 22.0115C5.65262 22.2748 5.39916 22.457 5.10605 22.4991L4.15323 22.6357L4.83959 23.2967C5.05347 23.5024 5.1507 23.7991 5.10023 24.0901L4.93716 25.0288L5.79641 24.5825C6.05805 24.4466 6.37025 24.4466 6.63163 24.5825L7.49087 25.0288L7.32807 24.0901C7.2776 23.7991 7.37483 23.5024 7.58844 23.2967L8.2748 22.6357L7.32226 22.4991C7.02941 22.457 6.77568 22.2748 6.64428 22.0115L6.21429 21.1507L5.78423 22.0115ZM36.5887 23.2964C36.3751 23.5024 36.2775 23.7988 36.328 24.09L36.4912 25.0285L35.6318 24.5825C35.3705 24.4466 35.0581 24.4466 34.7967 24.5825L33.9374 25.0288L34.1005 24.09C34.151 23.7988 34.0537 23.5024 33.8399 23.2964L33.1534 22.6357L34.1061 22.4991C34.3992 22.457 34.6526 22.2748 34.784 22.0115L35.214 21.1507L35.644 22.0115C35.7756 22.2748 36.0291 22.457 36.3222 22.4991L37.2748 22.6357L36.5887 23.2964ZM14.1893 27.8458L14.1893 30.6241C14.1893 30.9489 13.5308 31.3958 13.0511 31.3958L9.24345 31.403C8.16249 31.403 7.28279 32.3067 7.28279 33.4179C7.28279 33.8157 7.39435 34.1903 7.5909 34.5065C7.25293 34.8521 7.0671 35.2991 7.0671 35.8071C7.0671 36.3459 7.2747 36.8448 7.6212 37.2115C7.4918 37.4708 7.40288 37.7951 7.40288 38.1962C7.40288 39.176 8.08648 39.9941 8.98882 40.1743C8.9816 40.2478 8.9781 40.3226 8.9781 40.3982C8.9781 40.8614 9.1332 41.2818 9.4272 41.615C9.7703 42.0034 10.2769 42.2264 10.8166 42.2264L19.4931 42.2264C19.7333 42.2264 19.9622 42.1773 20.1729 42.0915C20.3831 42.2564 20.6467 42.3559 20.9338 42.3559L23.3857 42.3559C23.8203 42.3559 24.2022 42.1294 24.4227 41.7889L33.5653 41.7889C34.0186 41.7889 34.3856 41.422 34.3856 40.9686L34.3856 33.3115C34.3856 32.8582 34.0186 32.4912 33.5653 32.4912L24.5188 32.4912C24.3287 32.0532 23.8925 31.7466 23.3857 31.7466L20.9338 31.7466C20.6924 31.7466 20.4676 31.817 20.2771 31.9371C19.9861 31.1351 19.4799 29.897 18.8048 28.8506C18.5019 28.3815 18.3417 27.8201 18.3417 27.2267L18.3417 26.0782C18.3417 25.3434 17.7547 24.7457 17.0326 24.7457L16.5003 24.7457C15.3501 24.7457 14.1893 25.7045 14.1893 27.8458ZM15.8299 27.8458L15.8299 30.6241C15.8299 31.9828 14.3371 33.0364 13.0528 33.0364L9.2452 33.0436C9.06746 33.0436 8.92385 33.2115 8.92385 33.4179C8.92385 33.614 9.04613 33.7431 9.15934 33.7794C9.53438 33.9003 9.78091 34.2454 9.77282 34.6385C9.76516 35.0299 9.50627 35.364 9.12849 35.4696C8.70773 35.587 8.70773 35.7473 8.70773 35.8075C8.70773 36.0036 8.83329 36.1395 8.95677 36.1724C9.30415 36.2651 9.56435 36.5548 9.61904 36.911C9.67416 37.2674 9.51305 37.6224 9.20932 37.8156C9.13199 37.8647 9.04351 37.9518 9.04351 38.1966C9.04351 38.403 9.18712 38.5709 9.36354 38.5709L9.89631 38.5709C10.2782 38.5709 10.6196 38.7841 10.7875 39.1281C10.9542 39.4694 10.9123 39.8676 10.679 40.1662C10.6393 40.2171 10.6187 40.2957 10.6187 40.3987C10.6187 40.4854 10.6427 40.5127 10.6572 40.5295C10.6875 40.5636 10.7504 40.5858 10.8166 40.5858L19.4931 40.5858C19.6051 40.5858 19.699 40.4692 19.699 40.3312L19.699 34.1677C19.699 33.9892 19.6213 33.8212 19.491 33.7178C19.1907 33.4794 18.965 33.159 18.8386 32.7908C18.6488 32.2374 18.131 30.8322 17.427 29.7406C16.9523 29.0062 16.7015 28.1367 16.7015 27.2271L16.7015 26.3863L16.5007 26.3863C16.0995 26.3863 15.8299 26.9729 15.8299 27.8458ZM21.3397 40.7153L22.9803 40.7153L22.9803 33.3872L21.3397 33.3872L21.3397 40.7153ZM32.7454 40.1487L24.6209 40.1487L24.6209 34.1318L32.7454 34.1318L32.7454 40.1487ZM33.5781 46.4844C33.5781 46.0315 33.2112 45.6641 32.7578 45.6641L8.69531 45.6641C8.24195 45.6641 7.875 46.0315 7.875 46.4844C7.875 46.9373 8.24195 47.3047 8.69531 47.3047L32.7578 47.3047C33.2112 47.3047 33.5781 46.9373 33.5781 46.4844ZM7.875 50.1301C7.875 49.6771 8.24195 49.3097 8.69531 49.3097L14.8288 49.3097C15.2822 49.3097 15.6492 49.6771 15.6492 50.1301C15.6492 50.5834 15.2822 50.9504 14.8288 50.9504L8.69531 50.9504C8.24195 50.9504 7.875 50.5834 7.875 50.1301Z" transform="translate(0 2.1875001E-05)" id="Combined-Shape" fill="#FF2626" fill-rule="evenodd" stroke="none" />
  </g>
</svg>