<?xml version="1.0" encoding="utf-8"?>
<svg width="24px" height="24px" viewBox="0 0 24 24" version="1.1" xmlns:xlink="http://www.w3.org/1999/xlink" xmlns="http://www.w3.org/2000/svg">
  <desc>Created with Lunacy</desc>
  <defs>
    <path d="M10.0004 2.04731e-06C11.0619 0.00124494 12.0421 0.568285 12.5693 1.48254L19.5749 13.4623C20.1217 14.387 20.1335 15.5333 19.6058 16.469C19.0781 17.4048 18.0912 17.9878 17.0071 17.9983L2.98197 17.9983C1.90559 17.9896 0.916049 17.4059 0.387603 16.4681C-0.140842 15.5304 -0.127521 14.3816 0.418874 13.4625L7.42603 1.47998C7.95868 0.562778 8.93968 -0.00124005 10.0004 2.04731e-06ZM2.14169 14.4783L9.15521 2.48494C9.32946 2.18442 9.65071 1.99959 9.99809 2C10.3455 2.00041 10.6663 2.18599 10.8398 2.48692L17.8509 14.4761C18.0364 14.7898 18.0403 15.1734 17.8637 15.4866C17.6871 15.7998 17.3568 15.9949 16.9973 15.9984L2.99011 15.9983C2.63802 15.9954 2.30685 15.8001 2.13 15.4863C1.95315 15.1724 1.95761 14.788 2.14169 14.4783ZM10.9901 4.99835L8.99011 4.99835L8.99011 11.9983L10.9901 11.9983L10.9901 4.99835ZM9.99011 14.9983C10.5424 14.9983 10.9901 14.5506 10.9901 13.9983C10.9901 13.4461 10.5424 12.9983 9.99011 12.9983C9.43782 12.9983 8.99011 13.4461 8.99011 13.9983C8.99011 14.5506 9.43782 14.9983 9.99011 14.9983Z" transform="translate(2 3)" id="path_1" />
    <clipPath id="mask_1">
      <use xlink:href="#path_1" />
    </clipPath>
  </defs>
  <g id="icons/claim">
    <path d="M10.0004 2.04731e-06C11.0619 0.00124494 12.0421 0.568285 12.5693 1.48254L19.5749 13.4623C20.1217 14.387 20.1335 15.5333 19.6058 16.469C19.0781 17.4048 18.0912 17.9878 17.0071 17.9983L2.98197 17.9983C1.90559 17.9896 0.916049 17.4059 0.387603 16.4681C-0.140842 15.5304 -0.127521 14.3816 0.418874 13.4625L7.42603 1.47998C7.95868 0.562778 8.93968 -0.00124005 10.0004 2.04731e-06ZM2.14169 14.4783L9.15521 2.48494C9.32946 2.18442 9.65071 1.99959 9.99809 2C10.3455 2.00041 10.6663 2.18599 10.8398 2.48692L17.8509 14.4761C18.0364 14.7898 18.0403 15.1734 17.8637 15.4866C17.6871 15.7998 17.3568 15.9949 16.9973 15.9984L2.99011 15.9983C2.63802 15.9954 2.30685 15.8001 2.13 15.4863C1.95315 15.1724 1.95761 14.788 2.14169 14.4783ZM10.9901 4.99835L8.99011 4.99835L8.99011 11.9983L10.9901 11.9983L10.9901 4.99835ZM9.99011 14.9983C10.5424 14.9983 10.9901 14.5506 10.9901 13.9983C10.9901 13.4461 10.5424 12.9983 9.99011 12.9983C9.43782 12.9983 8.99011 13.4461 8.99011 13.9983C8.99011 14.5506 9.43782 14.9983 9.99011 14.9983Z" transform="translate(2 3)" id="Shape" fill="#FF2626" fill-rule="evenodd" stroke="none" />
  </g>
</svg>