<?xml version="1.0" encoding="utf-8"?>
<svg width="17px" height="17px" viewBox="0 0 17 17" version="1.1" xmlns:xlink="http://www.w3.org/1999/xlink" xmlns="http://www.w3.org/2000/svg">
  <desc>Created with Lunacy</desc>
  <g id="delete" transform="translate(0.5 0.5)">
    <path d="M0.999 0L15.001 0Q15.0994 0 15.1959 0.0191955Q15.2924 0.038391 15.3833 0.0760443Q15.4742 0.113698 15.556 0.168362Q15.6378 0.223026 15.7074 0.2926Q15.777 0.362175 15.8316 0.443985Q15.8863 0.525796 15.924 0.616699Q15.9616 0.707602 15.9808 0.804105Q16 0.900607 16 0.999L16 15.001Q16 15.0994 15.9808 15.1959Q15.9616 15.2924 15.924 15.3833Q15.8863 15.4742 15.8316 15.556Q15.777 15.6378 15.7074 15.7074Q15.6378 15.777 15.556 15.8316Q15.4742 15.8863 15.3833 15.924Q15.2924 15.9616 15.1959 15.9808Q15.0994 16 15.001 16L0.999 16Q0.900607 16 0.804105 15.9808Q0.707602 15.9616 0.616699 15.924Q0.525796 15.8863 0.443985 15.8316Q0.362175 15.777 0.2926 15.7074Q0.223026 15.6378 0.168362 15.556Q0.113698 15.4742 0.0760443 15.3833Q0.038391 15.2924 0.0191955 15.1959Q0 15.0994 0 15.001L0 0.999Q0 0.900607 0.0191955 0.804105Q0.038391 0.707602 0.0760443 0.616699Q0.113698 0.525796 0.168362 0.443985Q0.223026 0.362175 0.2926 0.2926Q0.362175 0.223026 0.443985 0.168362Q0.525796 0.113698 0.616699 0.0760443Q0.707602 0.038391 0.804105 0.0191955Q0.900607 0 0.999 0Z" id="Rectangle" fill="#F2F249" stroke="none" />
    <g id="icons/cross">
      <path d="M6.44133 1.31358L4.42155 3.33344L6.44133 5.35388C6.74178 5.6542 6.74178 6.14118 6.44133 6.44164C6.29146 6.59209 6.09468 6.66667 5.89776 6.66667C5.70098 6.66667 5.5042 6.59209 5.35376 6.44164L3.33341 4.42106L1.31349 6.44164C1.16305 6.59209 0.966266 6.66667 0.769342 6.66667C0.572563 6.66667 0.375784 6.59209 0.225919 6.44164C-0.0751134 6.14118 -0.0751134 5.6542 0.225919 5.35388L2.24569 3.33344L0.22534 1.31358C-0.0751134 1.01254 -0.0751134 0.525563 0.22534 0.225241C0.525649 -0.0750805 1.0126 -0.0750805 1.31291 0.225241L3.33341 2.24568L5.35376 0.225241C5.65407 -0.0750805 6.14102 -0.0750805 6.44133 0.225241C6.74178 0.525563 6.74178 1.01254 6.44133 1.31358Z" transform="translate(4.666667 4.666667)" id="cross" fill="#141414" stroke="none" />
    </g>
  </g>
</svg>