<?xml version="1.0" encoding="utf-8"?>
<svg width="24px" height="24px" viewBox="0 0 24 24" version="1.1" xmlns:xlink="http://www.w3.org/1999/xlink" xmlns="http://www.w3.org/2000/svg">
  <desc>Created with Lunacy</desc>
  <g id="icons/more-dots">
    <path d="M0.999 0L15.001 0Q15.0994 0 15.1959 0.0191955Q15.2924 0.038391 15.3833 0.0760443Q15.4742 0.113698 15.556 0.168362Q15.6378 0.223026 15.7074 0.2926Q15.777 0.362175 15.8316 0.443985Q15.8863 0.525796 15.924 0.616699Q15.9616 0.707602 15.9808 0.804105Q16 0.900607 16 0.999L16 1.001Q16 1.09939 15.9808 1.1959Q15.9616 1.2924 15.924 1.3833Q15.8863 1.4742 15.8316 1.55601Q15.777 1.63783 15.7074 1.7074Q15.6378 1.77697 15.556 1.83164Q15.4742 1.8863 15.3833 1.92396Q15.2924 1.96161 15.1959 1.9808Q15.0994 2 15.001 2L0.999 2Q0.900607 2 0.804105 1.9808Q0.707602 1.96161 0.616699 1.92396Q0.525796 1.8863 0.443985 1.83164Q0.362175 1.77697 0.2926 1.7074Q0.223026 1.63783 0.168362 1.55601Q0.113698 1.4742 0.0760443 1.3833Q0.038391 1.2924 0.0191955 1.1959Q0 1.09939 0 1.001L0 0.999Q0 0.900607 0.0191955 0.804105Q0.038391 0.707602 0.0760443 0.616699Q0.113698 0.525796 0.168362 0.443985Q0.223026 0.362175 0.2926 0.2926Q0.362175 0.223026 0.443985 0.168362Q0.525796 0.113698 0.616699 0.0760443Q0.707602 0.038391 0.804105 0.0191955Q0.900607 0 0.999 0ZM15.001 4L0.999 4Q0.900607 4 0.804105 4.0192Q0.707602 4.03839 0.616699 4.07604Q0.525796 4.1137 0.443985 4.16836Q0.362175 4.22303 0.2926 4.2926Q0.223026 4.36217 0.168362 4.44398Q0.113698 4.5258 0.0760443 4.6167Q0.038391 4.7076 0.0191955 4.8041Q0 4.90061 0 4.999L0 5.001Q0 5.09939 0.0191955 5.19589Q0.038391 5.2924 0.0760443 5.3833Q0.113698 5.4742 0.168362 5.55601Q0.223026 5.63782 0.2926 5.7074Q0.362175 5.77697 0.443985 5.83164Q0.525796 5.8863 0.616699 5.92395Q0.707602 5.96161 0.804105 5.9808Q0.900607 6 0.999 6L15.001 6Q15.0994 6 15.1959 5.9808Q15.2924 5.96161 15.3833 5.92395Q15.4742 5.8863 15.556 5.83164Q15.6378 5.77697 15.7074 5.7074Q15.777 5.63782 15.8316 5.55601Q15.8863 5.4742 15.924 5.3833Q15.9616 5.2924 15.9808 5.19589Q16 5.09939 16 5.001L16 4.999Q16 4.90061 15.9808 4.8041Q15.9616 4.7076 15.924 4.6167Q15.8863 4.5258 15.8316 4.44398Q15.777 4.36217 15.7074 4.2926Q15.6378 4.22303 15.556 4.16836Q15.4742 4.1137 15.3833 4.07604Q15.2924 4.03839 15.1959 4.0192Q15.0994 4 15.001 4ZM7.001 8L0.999 8Q0.900607 8 0.804105 8.0192Q0.707602 8.03839 0.616699 8.07604Q0.525796 8.1137 0.443985 8.16836Q0.362175 8.22303 0.2926 8.2926Q0.223026 8.36217 0.168362 8.44398Q0.113698 8.52579 0.0760443 8.6167Q0.038391 8.7076 0.0191955 8.8041Q0 8.90061 0 8.999L0 9.001Q0 9.09939 0.0191955 9.19589Q0.038391 9.2924 0.0760443 9.3833Q0.113698 9.4742 0.168362 9.55602Q0.223026 9.63783 0.2926 9.7074Q0.362175 9.77697 0.443985 9.83164Q0.525796 9.8863 0.616699 9.92395Q0.707602 9.96161 0.804105 9.9808Q0.900607 10 0.999 10L7.001 10Q7.09939 10 7.19589 9.9808Q7.2924 9.96161 7.3833 9.92395Q7.4742 9.8863 7.55601 9.83164Q7.63782 9.77697 7.7074 9.7074Q7.77697 9.63783 7.83164 9.55602Q7.8863 9.4742 7.92395 9.3833Q7.96161 9.2924 7.9808 9.19589Q8 9.09939 8 9.001L8 8.999Q8 8.90061 7.9808 8.8041Q7.96161 8.7076 7.92395 8.6167Q7.8863 8.5258 7.83164 8.44399Q7.77697 8.36217 7.7074 8.2926Q7.63782 8.22303 7.55601 8.16836Q7.4742 8.1137 7.3833 8.07604Q7.2924 8.03839 7.19589 8.0192Q7.09939 8 7.001 8ZM13 10L13 8.999Q13 8.90061 12.9808 8.8041Q12.9616 8.7076 12.924 8.6167Q12.8863 8.52579 12.8316 8.44398Q12.777 8.36217 12.7074 8.2926Q12.6378 8.22303 12.556 8.16836Q12.4742 8.1137 12.3833 8.07604Q12.2924 8.03839 12.1959 8.0192Q12.0994 8 12.001 8L11.999 8Q11.9006 8 11.8041 8.0192Q11.7076 8.03839 11.6167 8.07604Q11.5258 8.1137 11.444 8.16836Q11.3622 8.22303 11.2926 8.2926Q11.223 8.36217 11.1684 8.44398Q11.1137 8.52579 11.076 8.6167Q11.0384 8.7076 11.0192 8.8041Q11 8.90061 11 8.999L11 10L9.999 10Q9.90061 10 9.8041 10.0192Q9.7076 10.0384 9.6167 10.076Q9.52579 10.1137 9.44398 10.1684Q9.36217 10.223 9.2926 10.2926Q9.22303 10.3622 9.16836 10.444Q9.1137 10.5258 9.07604 10.6167Q9.03839 10.7076 9.01919 10.8041Q9 10.9006 9 10.999L9 11.001Q9 11.0994 9.01919 11.1959Q9.03839 11.2924 9.07604 11.3833Q9.1137 11.4742 9.16836 11.556Q9.22303 11.6378 9.2926 11.7074Q9.36217 11.777 9.44398 11.8316Q9.52579 11.8863 9.6167 11.924Q9.7076 11.9616 9.8041 11.9808Q9.90061 12 9.999 12L11 12L11 13.001Q11 13.0994 11.0192 13.1959Q11.0384 13.2924 11.076 13.3833Q11.1137 13.4742 11.1684 13.556Q11.223 13.6378 11.2926 13.7074Q11.3622 13.777 11.444 13.8316Q11.5258 13.8863 11.6167 13.924Q11.7076 13.9616 11.8041 13.9808Q11.9006 14 11.999 14L12.001 14Q12.0994 14 12.1959 13.9808Q12.2924 13.9616 12.3833 13.924Q12.4742 13.8863 12.556 13.8316Q12.6378 13.777 12.7074 13.7074Q12.777 13.6378 12.8316 13.556Q12.8863 13.4742 12.924 13.3833Q12.9616 13.2924 12.9808 13.1959Q13 13.0994 13 13.001L13 12L14.001 12Q14.0994 12 14.1959 11.9808Q14.2924 11.9616 14.3833 11.924Q14.4742 11.8863 14.556 11.8316Q14.6378 11.777 14.7074 11.7074Q14.777 11.6378 14.8316 11.556Q14.8863 11.4742 14.924 11.3833Q14.9616 11.2924 14.9808 11.1959Q15 11.0994 15 11.001L15 10.999Q15 10.9006 14.9808 10.8041Q14.9616 10.7076 14.924 10.6167Q14.8863 10.5258 14.8316 10.444Q14.777 10.3622 14.7074 10.2926Q14.6378 10.223 14.556 10.1684Q14.4742 10.1137 14.3833 10.076Q14.2924 10.0384 14.1959 10.0192Q14.0994 10 14.001 10L13 10ZM0.999 12L7.001 12Q7.09939 12 7.19589 12.0192Q7.2924 12.0384 7.3833 12.076Q7.4742 12.1137 7.55601 12.1684Q7.63782 12.223 7.7074 12.2926Q7.77697 12.3622 7.83164 12.444Q7.8863 12.5258 7.92395 12.6167Q7.96161 12.7076 7.9808 12.8041Q8 12.9006 8 12.999L8 13.001Q8 13.0994 7.9808 13.1959Q7.96161 13.2924 7.92395 13.3833Q7.8863 13.4742 7.83164 13.556Q7.77697 13.6378 7.7074 13.7074Q7.63782 13.777 7.55601 13.8316Q7.4742 13.8863 7.3833 13.924Q7.2924 13.9616 7.19589 13.9808Q7.09939 14 7.001 14L0.999 14Q0.900607 14 0.804105 13.9808Q0.707602 13.9616 0.616699 13.924Q0.525796 13.8863 0.443985 13.8316Q0.362175 13.777 0.2926 13.7074Q0.223026 13.6378 0.168362 13.556Q0.113698 13.4742 0.0760443 13.3833Q0.038391 13.2924 0.0191955 13.1959Q0 13.0994 0 13.001L0 12.999Q0 12.9006 0.0191955 12.8041Q0.038391 12.7076 0.0760443 12.6167Q0.113698 12.5258 0.168362 12.444Q0.223026 12.3622 0.2926 12.2926Q0.362175 12.223 0.443985 12.1684Q0.525796 12.1137 0.616699 12.076Q0.707602 12.0384 0.804105 12.0192Q0.900607 12 0.999 12Z" transform="translate(4 5)" id="Combined-Shape" fill="#FF2626" fill-rule="evenodd" stroke="none" />
  </g>
</svg>