<?xml version="1.0" encoding="utf-8"?>
<svg width="19px" height="24px" viewBox="0 0 19 24" version="1.1" xmlns:xlink="http://www.w3.org/1999/xlink" xmlns="http://www.w3.org/2000/svg">
  <desc>Created with Lunacy</desc>
  <defs>
    <path d="M11.2941 0L1.41176 0C0.632471 0 0 0.632471 0 1.41176L0 21.1765C0 21.9558 0.632471 22.5882 1.41176 22.5882L15.5294 22.5882C16.3087 22.5882 16.9412 21.9558 16.9412 21.1765L16.9412 5.64706L11.2941 0Z" id="path_1" />
    <path d="M0 0L0 5.64706L5.64706 5.64706L0 0Z" transform="translate(11.29412 0)" id="path_2" />
  </defs>
  <g id="icon/pdf">
    <g id="pdf-icon" transform="translate(0.7058824 0.7058824)">
      <g id="Stroke-1">
        <use xlink:href="#path_1" fill="none" stroke="#D1D1D1" stroke-width="2" stroke-linecap="round" stroke-linejoin="round" />
        <use stroke="none" fill="#FFFFFF" xlink:href="#path_1" />
      </g>
      <g id="Stroke-9">
        <use xlink:href="#path_2" fill="none" stroke="#D1D1D1" stroke-width="2" stroke-linecap="round" stroke-linejoin="round" />
        <use stroke="none" fill="#F0F0F0" xlink:href="#path_2" />
      </g>
      <path d="M0.704883 0L12.001 0Q12.0704 0 12.1385 0.0135441Q12.2066 0.0270882 12.2707 0.053656Q12.3349 0.0802237 12.3926 0.118794Q12.4503 0.157365 12.4994 0.206455Q12.5485 0.255546 12.5871 0.313271Q12.6257 0.370995 12.6522 0.435136Q12.6788 0.499276 12.6923 0.567367Q12.7059 0.635458 12.7059 0.704883L12.7059 0.706883Q12.7059 0.776307 12.6923 0.844398Q12.6788 0.912489 12.6522 0.976629Q12.6257 1.04077 12.5871 1.09849Q12.5485 1.15622 12.4994 1.20531Q12.4503 1.2544 12.3926 1.29297Q12.3349 1.33154 12.2707 1.35811Q12.2066 1.38468 12.1385 1.39822Q12.0704 1.41176 12.001 1.41177L0.704883 1.41177Q0.635458 1.41176 0.567367 1.39822Q0.499276 1.38468 0.435136 1.35811Q0.370995 1.33154 0.313271 1.29297Q0.255546 1.2544 0.206455 1.20531Q0.157365 1.15622 0.118794 1.09849Q0.0802237 1.04077 0.053656 0.976629Q0.0270882 0.912489 0.0135441 0.844398Q0 0.776307 0 0.706883L0 0.704883Q0 0.635458 0.0135441 0.567367Q0.0270882 0.499276 0.053656 0.435136Q0.0802237 0.370995 0.118794 0.313271Q0.157365 0.255546 0.206455 0.206455Q0.255546 0.157365 0.313271 0.118794Q0.370995 0.0802237 0.435136 0.053656Q0.499276 0.0270882 0.567367 0.0135441Q0.635458 0 0.704883 0Z" transform="translate(2.117647 12.70588)" id="Rectangle" fill="#FF2626" stroke="none" />
      <path d="M0.704883 0L7.76571 0Q7.83513 0 7.90322 0.0135441Q7.97131 0.0270882 8.03545 0.053656Q8.09959 0.0802237 8.15732 0.118794Q8.21504 0.157365 8.26413 0.206455Q8.31322 0.255546 8.35179 0.313271Q8.39036 0.370995 8.41693 0.435136Q8.4435 0.499276 8.45704 0.567367Q8.47059 0.635458 8.47059 0.704883L8.47059 0.706883Q8.47059 0.776307 8.45704 0.844398Q8.4435 0.912489 8.41693 0.976629Q8.39036 1.04077 8.35179 1.09849Q8.31322 1.15622 8.26413 1.20531Q8.21504 1.2544 8.15732 1.29297Q8.09959 1.33154 8.03545 1.35811Q7.97131 1.38468 7.90322 1.39822Q7.83513 1.41176 7.76571 1.41177L0.704883 1.41177Q0.635458 1.41176 0.567367 1.39822Q0.499276 1.38468 0.435136 1.35811Q0.370995 1.33154 0.313271 1.29297Q0.255546 1.2544 0.206455 1.20531Q0.157365 1.15622 0.118794 1.09849Q0.0802237 1.04077 0.053656 0.976629Q0.0270882 0.912489 0.0135441 0.844398Q0 0.776307 0 0.706883L0 0.704883Q0 0.635458 0.0135441 0.567367Q0.0270882 0.499276 0.053656 0.435136Q0.0802237 0.370995 0.118794 0.313271Q0.157365 0.255546 0.206455 0.206455Q0.255546 0.157365 0.313271 0.118794Q0.370995 0.0802237 0.435136 0.053656Q0.499276 0.0270882 0.567367 0.0135441Q0.635458 0 0.704883 0L0.704883 0Z" transform="translate(2.117647 9.882353)" id="Rectangle" fill="#FF2626" stroke="none" />
      <path d="M0.704883 0L9.88335 0Q9.95278 0 10.0209 0.0135441Q10.089 0.0270882 10.1531 0.053656Q10.2172 0.0802237 10.275 0.118794Q10.3327 0.157365 10.3818 0.206455Q10.4309 0.255546 10.4694 0.313271Q10.508 0.370995 10.5346 0.435136Q10.5611 0.499276 10.5747 0.567367Q10.5882 0.635458 10.5882 0.704883L10.5882 0.706883Q10.5882 0.776307 10.5747 0.844398Q10.5611 0.912489 10.5346 0.976629Q10.508 1.04077 10.4694 1.09849Q10.4309 1.15622 10.3818 1.20531Q10.3327 1.2544 10.275 1.29297Q10.2172 1.33154 10.1531 1.35811Q10.089 1.38468 10.0209 1.39822Q9.95278 1.41176 9.88335 1.41177L0.704883 1.41177Q0.635458 1.41176 0.567367 1.39822Q0.499276 1.38468 0.435136 1.35811Q0.370995 1.33154 0.313271 1.29297Q0.255546 1.2544 0.206455 1.20531Q0.157365 1.15622 0.118794 1.09849Q0.0802237 1.04077 0.053656 0.976629Q0.0270882 0.912489 0.0135441 0.844398Q0 0.776307 0 0.706883L0 0.704883Q0 0.635458 0.0135441 0.567367Q0.0270882 0.499276 0.053656 0.435136Q0.0802237 0.370995 0.118794 0.313271Q0.157365 0.255546 0.206455 0.206455Q0.255546 0.157365 0.313271 0.118794Q0.370995 0.0802237 0.435136 0.053656Q0.499276 0.0270882 0.567367 0.0135441Q0.635458 0 0.704883 0L0.704883 0Z" transform="translate(2.117647 15.52941)" id="Rectangle" fill="#FF2626" stroke="none" />
      <path d="M0.704882 0L12.001 0Q12.0704 0 12.1385 0.0135441Q12.2066 0.0270882 12.2707 0.0536559Q12.3349 0.0802237 12.3926 0.118794Q12.4503 0.157364 12.4994 0.206455Q12.5485 0.255546 12.5871 0.313271Q12.6257 0.370995 12.6522 0.435135Q12.6788 0.499276 12.6923 0.567366Q12.7059 0.635457 12.7059 0.704882L12.7059 0.706882Q12.7059 0.776307 12.6923 0.844398Q12.6788 0.912489 12.6522 0.976629Q12.6257 1.04077 12.5871 1.09849Q12.5485 1.15622 12.4994 1.20531Q12.4503 1.2544 12.3926 1.29297Q12.3349 1.33154 12.2707 1.35811Q12.2066 1.38468 12.1385 1.39822Q12.0704 1.41176 12.001 1.41176L0.704882 1.41176Q0.635457 1.41176 0.567366 1.39822Q0.499276 1.38468 0.435135 1.35811Q0.370995 1.33154 0.313271 1.29297Q0.255546 1.2544 0.206455 1.20531Q0.157364 1.15622 0.118794 1.09849Q0.0802237 1.04077 0.0536559 0.976629Q0.0270882 0.912488 0.0135441 0.844398Q0 0.776307 0 0.706882L0 0.704882Q0 0.635457 0.0135441 0.567366Q0.0270882 0.499276 0.0536559 0.435135Q0.0802237 0.370995 0.118794 0.313271Q0.157364 0.255546 0.206455 0.206455Q0.255546 0.157364 0.313271 0.118794Q0.370995 0.0802237 0.435135 0.0536559Q0.499276 0.0270882 0.567366 0.0135441Q0.635457 0 0.704882 0Z" transform="translate(2.117647 18.35294)" id="Rectangle" fill="#FF2626" stroke="none" />
    </g>
  </g>
</svg>