<?xml version="1.0" encoding="utf-8"?>
<svg width="264px" height="345px" viewBox="0 0 264 345" version="1.1" xmlns:xlink="http://www.w3.org/1999/xlink" xmlns="http://www.w3.org/2000/svg">
  <desc>Created with Lunacy</desc>
  <g id="img" transform="translate(0.5 0.5)">
    <path d="M3.999 0L259.001 0Q259.198 0 259.393 0.0192563Q259.589 0.0385126 259.781 0.0768396Q259.974 0.115167 260.162 0.172196Q260.35 0.229224 260.531 0.304406Q260.713 0.379587 260.886 0.472197Q261.059 0.564807 261.223 0.673953Q261.386 0.783099 261.538 0.907731Q261.69 1.03236 261.829 1.17128Q261.968 1.3102 262.092 1.46206Q262.217 1.61393 262.326 1.77727Q262.435 1.94062 262.528 2.11388Q262.62 2.28715 262.696 2.46865Q262.771 2.65015 262.828 2.83815Q262.885 3.02615 262.923 3.21883Q262.961 3.41152 262.981 3.60703Q263 3.80254 263 3.999L263 340.001Q263 340.197 262.981 340.393Q262.961 340.588 262.923 340.781Q262.885 340.974 262.828 341.162Q262.771 341.35 262.696 341.531Q262.62 341.713 262.528 341.886Q262.435 342.059 262.326 342.223Q262.217 342.386 262.092 342.538Q261.968 342.69 261.829 342.829Q261.69 342.968 261.538 343.092Q261.386 343.217 261.223 343.326Q261.059 343.435 260.886 343.528Q260.713 343.62 260.531 343.696Q260.35 343.771 260.162 343.828Q259.974 343.885 259.781 343.923Q259.589 343.962 259.393 343.981Q259.198 344 259.001 344L3.999 344Q3.80254 344 3.60703 343.981Q3.41152 343.962 3.21883 343.923Q3.02615 343.885 2.83815 343.828Q2.65015 343.771 2.46865 343.696Q2.28715 343.62 2.11388 343.528Q1.94062 343.435 1.77727 343.326Q1.61393 343.217 1.46206 343.092Q1.3102 342.968 1.17128 342.829Q1.03236 342.69 0.907731 342.538Q0.783099 342.386 0.673953 342.223Q0.564807 342.059 0.472197 341.886Q0.379587 341.713 0.304406 341.531Q0.229224 341.35 0.172196 341.162Q0.115167 340.974 0.0768396 340.781Q0.0385126 340.588 0.0192563 340.393Q0 340.197 0 340.001L0 3.999Q0 3.80254 0.0192563 3.60703Q0.0385126 3.41152 0.0768396 3.21883Q0.115167 3.02615 0.172196 2.83815Q0.229224 2.65015 0.304406 2.46865Q0.379587 2.28715 0.472197 2.11388Q0.564807 1.94062 0.673953 1.77727Q0.783099 1.61393 0.907731 1.46206Q1.03236 1.3102 1.17128 1.17128Q1.3102 1.03236 1.46206 0.907731Q1.61393 0.783099 1.77727 0.673953Q1.94062 0.564807 2.11388 0.472197Q2.28715 0.379587 2.46865 0.304406Q2.65015 0.229224 2.83815 0.172196Q3.02615 0.115167 3.21883 0.0768396Q3.41152 0.0385126 3.60703 0.0192563Q3.80254 0 3.999 0Z" id="area" fill="#4C7399" stroke="none" />
    <g id="Group-8" transform="translate(80 121)">
      <path d="M52 104C80.7188 104 104 80.7188 104 52C104 23.2812 80.7188 0 52 0C23.2812 0 0 23.2812 0 52C0 80.7188 23.2812 104 52 104Z" id="Oval" fill="#FFFFFF" fill-opacity="0.172270268" stroke="none" />
      <path d="M32.001 0L31.999 0Q31.9006 0 31.8041 0.0191955Q31.7076 0.038391 31.6167 0.0760443Q31.5258 0.113698 31.444 0.168362Q31.3622 0.223026 31.2926 0.2926Q31.223 0.362175 31.1684 0.443985Q31.1137 0.525796 31.076 0.616699Q31.0384 0.707602 31.0192 0.804105Q31 0.900607 31 0.999L31 31L0.999001 31Q0.900608 31 0.804105 31.0192Q0.707603 31.0384 0.616699 31.076Q0.525796 31.1137 0.443986 31.1684Q0.362175 31.223 0.2926 31.2926Q0.223026 31.3622 0.168362 31.444Q0.113698 31.5258 0.0760444 31.6167Q0.038391 31.7076 0.0191955 31.8041Q0 31.9006 0 31.999L0 32.001Q0 32.0994 0.0191955 32.1959Q0.038391 32.2924 0.0760444 32.3833Q0.113698 32.4742 0.168362 32.556Q0.223026 32.6378 0.2926 32.7074Q0.362175 32.777 0.443986 32.8316Q0.525796 32.8863 0.6167 32.924Q0.707603 32.9616 0.804105 32.9808Q0.900608 33 0.999001 33L31 33L31 63.001Q31 63.0994 31.0192 63.1959Q31.0384 63.2924 31.076 63.3833Q31.1137 63.4742 31.1684 63.556Q31.223 63.6378 31.2926 63.7074Q31.3622 63.777 31.444 63.8316Q31.5258 63.8863 31.6167 63.924Q31.7076 63.9616 31.8041 63.9808Q31.9006 64 31.999 64L32.001 64Q32.0994 64 32.1959 63.9808Q32.2924 63.9616 32.3833 63.924Q32.4742 63.8863 32.556 63.8316Q32.6378 63.777 32.7074 63.7074Q32.777 63.6378 32.8316 63.556Q32.8863 63.4742 32.924 63.3833Q32.9616 63.2924 32.9808 63.1959Q33 63.0994 33 63.001L33 33L63.001 33Q63.0994 33 63.1959 32.9808Q63.2924 32.9616 63.3833 32.924Q63.4742 32.8863 63.556 32.8316Q63.6378 32.777 63.7074 32.7074Q63.777 32.6378 63.8316 32.556Q63.8863 32.4742 63.924 32.3833Q63.9616 32.2924 63.9808 32.1959Q64 32.0994 64 32.001L64 31.999Q64 31.9006 63.9808 31.8041Q63.9616 31.7076 63.924 31.6167Q63.8863 31.5258 63.8316 31.444Q63.777 31.3622 63.7074 31.2926Q63.6378 31.223 63.556 31.1684Q63.4742 31.1137 63.3833 31.076Q63.2924 31.0384 63.1959 31.0192Q63.0994 31 63.001 31L33 31L33 0.999Q33 0.900607 32.9808 0.804105Q32.9616 0.707602 32.924 0.616699Q32.8863 0.525796 32.8316 0.443985Q32.777 0.362175 32.7074 0.2926Q32.6378 0.223026 32.556 0.168362Q32.4742 0.113698 32.3833 0.0760443Q32.2924 0.038391 32.1959 0.0191955Q32.0994 0 32.001 0Z" transform="translate(20 19)" id="Combined-Shape" fill="#FFFFFF" fill-rule="evenodd" stroke="none" />
    </g>
  </g>
</svg>