<?xml version="1.0" encoding="UTF-8"?>
<svg width="20px" height="20px" viewBox="0 0 20 20" version="1.1" xmlns="http://www.w3.org/2000/svg" xmlns:xlink="http://www.w3.org/1999/xlink">
    <!-- Generator: Sketch 53.2 (72643) - https://sketchapp.com -->
    <title>inst</title>
    <desc>Created with Sketch.</desc>
    <defs>
        <polygon id="path-1" points="0 0 19.9999 0 19.9999 19.9996 0 19.9996"></polygon>
    </defs>
    <g id="Symbols" stroke="none" stroke-width="1" fill="none" fill-rule="evenodd">
        <g id="Footer-/-Desktop" transform="translate(-214.000000, -235.000000)">
            <g id="footer">
                <g id="social" transform="translate(60.000000, 195.000000)">
                    <g id="inst" transform="translate(154.000000, 40.000000)">
                        <g id="Group-3">
                            <mask id="mask-2" fill="white">
                                <use xlink:href="#path-1"></use>
                            </mask>
                            <g id="Clip-2"></g>
                            <path d="M17.9879,14.0416 C17.9879,16.2216 16.2209,17.9876 14.0419,17.9876 L5.9579,17.9876 C3.7789,17.9876 2.0119,16.2216 2.0119,14.0416 L2.0119,5.9586 C2.0119,3.7786 3.7789,2.0116 5.9579,2.0116 L14.0419,2.0116 C16.2209,2.0116 17.9879,3.7786 17.9879,5.9586 L17.9879,14.0416 Z M14.0419,-0.0004 L5.9579,-0.0004 C2.6729,-0.0004 -0.0001,2.6726 -0.0001,5.9586 L-0.0001,14.0416 C-0.0001,17.3266 2.6729,19.9996 5.9579,19.9996 L14.0419,19.9996 C17.3269,19.9996 19.9999,17.3266 19.9999,14.0416 L19.9999,5.9586 C19.9999,2.6726 17.3269,-0.0004 14.0419,-0.0004 L14.0419,-0.0004 Z" id="Fill-1" fill="#C60967" mask="url(#mask-2)"></path>
                        </g>
                        <path d="M10.0001,13.1607 C8.2541,13.1607 6.8391,11.7457 6.8391,9.9997 C6.8391,8.2547 8.2541,6.8397 10.0001,6.8397 C11.7461,6.8397 13.1611,8.2547 13.1611,9.9997 C13.1611,11.7457 11.7461,13.1607 10.0001,13.1607 M10.0001,4.8277 C7.1471,4.8277 4.8271,7.1477 4.8271,9.9997 C4.8271,12.8517 7.1471,15.1727 10.0001,15.1727 C12.8521,15.1727 15.1721,12.8517 15.1721,9.9997 C15.1721,7.1477 12.8521,4.8277 10.0001,4.8277" id="Fill-4" fill="#C60967"></path>
                        <path d="M15.1832,3.6266 C15.8682,3.6266 16.4222,4.1816 16.4222,4.8666 C16.4222,5.5506 15.8682,6.1056 15.1832,6.1056 C14.4982,6.1056 13.9432,5.5506 13.9432,4.8666 C13.9432,4.1816 14.4982,3.6266 15.1832,3.6266" id="Fill-6" fill="#C60967"></path>
                    </g>
                </g>
            </g>
        </g>
    </g>
</svg>