<?xml version="1.0" encoding="UTF-8"?>
<svg width="13px" height="16px" viewBox="0 0 13 16" version="1.1" xmlns="http://www.w3.org/2000/svg" xmlns:xlink="http://www.w3.org/1999/xlink">
    <!-- Generator: Sketch 53.2 (72643) - https://sketchapp.com -->
    <title>like</title>
    <desc>Created with Sketch.</desc>
    <g id="like" stroke="none" stroke-width="1" fill="none" fill-rule="evenodd">
        <path d="M7.98351648,15.4977745 L2.6877301,15.4977745 C2.49651139,15.4977745 2.3396321,15.4606443 2.20926172,15.3909215 C2.07889135,15.3211986 1.97657592,15.2188832 1.90685308,15.0885128 C1.83713025,14.9581424 1.8,14.8012632 1.8,14.6100444 L1.8,14.5855046 C1.8,14.3942859 1.83713025,14.2374066 1.90685308,14.1070363 C1.97657592,13.9766659 2.07889135,13.8743505 2.20926172,13.8046276 C2.3396321,13.7349048 2.49651139,13.6977745 2.6877301,13.6977745 L4,13.6977745 L1.64633112,13.2564616 C1.4376285,13.2173299 1.29090045,13.1579473 1.16903395,13.0722286 C1.04716746,12.98651 0.954908969,12.8753453 0.893117105,12.7397692 C0.83132524,12.604193 0.8,12.4490345 0.8,12.236695 L0.8,12.1855046 C0.8,11.9942859 0.837130244,11.8374066 0.906853082,11.7070363 C0.976575919,11.5766659 1.07889135,11.4743505 1.20926172,11.4046276 C1.33963209,11.3349048 1.49651138,11.2977745 1.6877301,11.2977745 L3,11.2977745 L0.818812799,10.7888309 C0.602247821,10.738299 0.464448269,10.6762676 0.348427664,10.5895337 C0.232407058,10.5027997 0.145300142,10.3930281 0.0871983779,10.2603339 C0.0290966133,10.1276397 0,9.97934947 0,9.75696724 L4.4408921e-16,9.68550464 C4.4408921e-16,9.49428593 0.0371302445,9.33740663 0.106853082,9.20703626 C0.176575919,9.07666589 0.278891348,8.97435046 0.409261719,8.90462763 C0.539632089,8.83490479 0.696511381,8.79777454 0.887730096,8.79777454 L3.5,8.79777454 L1.32006971,8.36178849 C1.13161342,8.32409723 0.983593659,8.26318099 0.863334738,8.17715679 C0.743075817,8.09113259 0.652242132,7.9803333 0.591473178,7.845539 C0.530704224,7.71074469 0.5,7.55365272 0.5,7.36146425 L0.5,7.34777454 C0.5,7.17883194 0.538130244,7.0280733 0.60774197,6.90214737 C0.677353696,6.77622145 0.778446904,6.67512824 0.90437283,6.60551652 C1.03029876,6.53590479 1.1810574,6.49777454 1.35,6.49777454 L4.5,6.49777454 L7.2,6.49777454 C7.64496671,4.76240438 5.278966,0.968259545 7.1,0.147774545 C7.15606116,0.122515633 7.23032632,0.090567904 7.3227955,0.0519313583 L7.32281,0.0519660431 C7.66421634,-0.0906843174 8.05662183,0.0704392412 8.19927219,0.411845584 C8.20233915,0.419185773 8.20527513,0.426580006 8.20807874,0.434024765 C8.24795238,0.539906116 8.2785928,0.627822709 8.3,0.697774545 C9.15399843,3.48836671 9.79882664,4.79006845 11.2,6.49777454 C11.9911967,7.46206026 13,8.56920312 13,10.4977745 C13,12.9084888 11.4450549,15.4977745 7.98351648,15.4977745 Z" fill="#D1D1D1"></path>
    </g>
</svg>