<?xml version="1.0" encoding="utf-8"?>
<svg width="18px" height="19px" viewBox="0 0 18 19" version="1.1" xmlns:xlink="http://www.w3.org/1999/xlink" xmlns="http://www.w3.org/2000/svg">
  <desc>Created with Lunacy</desc>
  <defs>
    <path d="M11.6668 18.0006C11.6458 18.0006 11.6258 17.9996 11.6058 17.9986C11.1538 17.9716 10.7768 17.6436 10.6868 17.1996L9.1488 9.63264C9.0688 9.23864 8.7618 8.93164 8.3678 8.85164L0.8008 7.31264C0.3568 7.22364 0.0288003 6.84664 0.0018003 6.39464C-0.0251997 5.94164 0.2538 5.52764 0.6838 5.38564L16.6838 0.0526433C17.0428 -0.0693567 17.4388 0.0246433 17.7068 0.293643C17.9748 0.561643 18.0678 0.957643 17.9488 1.31664L12.6148 17.3166C12.4788 17.7276 12.0948 18.0006 11.6668 18.0006" id="path_1" />
    <clipPath id="mask_1">
      <use xlink:href="#path_1" />
    </clipPath>
  </defs>
  <path d="M11.6668 18.0006C11.6458 18.0006 11.6258 17.9996 11.6058 17.9986C11.1538 17.9716 10.7768 17.6436 10.6868 17.1996L9.1488 9.63264C9.0688 9.23864 8.7618 8.93164 8.3678 8.85164L0.8008 7.31264C0.3568 7.22364 0.0288003 6.84664 0.0018003 6.39464C-0.0251997 5.94164 0.2538 5.52764 0.6838 5.38564L16.6838 0.0526433C17.0428 -0.0693567 17.4388 0.0246433 17.7068 0.293643C17.9748 0.561643 18.0678 0.957643 17.9488 1.31664L12.6148 17.3166C12.4788 17.7276 12.0948 18.0006 11.6668 18.0006" id="location" fill="#CDCDCD" stroke="none" />
</svg>