<?xml version="1.0" encoding="utf-8"?>
<svg width="24px" height="24px" viewBox="0 0 24 24" version="1.1" xmlns:xlink="http://www.w3.org/1999/xlink" xmlns="http://www.w3.org/2000/svg">
  <desc>Created with Lunacy</desc>
  <g id="icons/info">
    <path d="M7.99997 0C12.4182 0 16 3.58173 16 7.99997C15.9972 10.166 15.1345 12.1302 13.7354 13.5704C13.7125 13.6022 13.6878 13.6328 13.6596 13.661C12.1613 15.1655 10.1233 16.0078 7.99997 15.9999C5.90291 16.0057 3.88998 15.182 2.39836 13.7107C0.918477 12.2589 0 10.2368 0 7.99997C0 3.58173 3.58173 0 7.99997 0ZM8.00004 1.45447C11.6151 1.45447 14.5455 4.38499 14.5455 7.99992C14.5455 9.41646 14.0954 10.7278 13.3306 11.799C12.6741 10.6619 11.6664 9.75853 10.4504 9.23197C11.1791 8.56692 11.6364 7.60965 11.6364 6.5454C11.6364 4.5371 10.0083 2.90906 8.00004 2.90906C5.99175 2.90906 4.3637 4.5371 4.3637 6.5454C4.3637 7.61183 4.82277 8.57101 5.55409 9.23619C4.36711 9.75328 3.34616 10.6418 2.67702 11.8092C1.90773 10.7361 1.45459 9.42097 1.45459 7.99992C1.45459 4.38499 4.38511 1.45447 8.00004 1.45447ZM5.81812 6.54546C5.81812 5.34049 6.79496 4.36365 7.99993 4.36365C9.20491 4.36365 10.1817 5.34049 10.1817 6.54546C10.1817 7.71771 9.25714 8.67376 8.0975 8.72483C8.03423 8.72387 7.97116 8.72394 7.90809 8.72496C6.74573 8.67676 5.81812 7.71962 5.81812 6.54546ZM7.99993 10.1817C7.99509 10.1817 7.99025 10.1814 7.98534 10.1814C7.34811 10.183 6.70093 10.3139 6.08191 10.5914C5.03177 11.0621 4.19136 11.9025 3.7207 12.9526C6.20177 15.0123 9.79815 15.0123 12.2792 12.9526C11.5012 11.2167 9.79747 10.1869 8.01118 10.1815C8.00736 10.1815 8.00375 10.1817 7.99993 10.1817Z" transform="translate(4 4)" id="Fill-1" fill="#FF2626" fill-rule="evenodd" stroke="none" />
  </g>
</svg>