<?xml version="1.0" encoding="utf-8"?>
<svg width="24px" height="24px" viewBox="0 0 24 24" version="1.1" xmlns:xlink="http://www.w3.org/1999/xlink" xmlns="http://www.w3.org/2000/svg">
  <desc>Created with Lunacy</desc>
  <g id="icons/info">
    <path d="M7.99997 0C12.4182 0 16 3.58173 16 7.99997C15.9972 10.166 15.1345 12.1302 13.7354 13.5704C13.7125 13.6022 13.6878 13.6328 13.6596 13.661C12.1613 15.1655 10.1233 16.0078 7.99997 15.9999C5.90291 16.0057 3.88998 15.182 2.39836 13.7107C0.918477 12.2589 0 10.2368 0 7.99997C0 3.58173 3.58173 0 7.99997 0ZM7.99997 1.45452C11.615 1.45452 14.5454 4.38504 14.5454 7.99997C14.5454 9.41652 14.0953 10.7279 13.3305 11.7991C12.674 10.6619 11.6663 9.75859 10.4504 9.23202C11.179 8.56697 11.6363 7.6097 11.6363 6.54545C11.6363 4.53716 10.0083 2.90911 7.99997 2.90911C5.99168 2.90911 4.36363 4.53716 4.36363 6.54545C4.36363 7.61188 4.8227 8.57106 5.55402 9.23625C4.36704 9.75334 3.34609 10.6419 2.67695 11.8093C1.90766 10.7362 1.45452 9.42102 1.45452 7.99997C1.45452 4.38504 4.38504 1.45452 7.99997 1.45452ZM5.81816 6.54545C5.81816 5.34048 6.795 4.36363 7.99997 4.36363C9.20495 4.36363 10.1818 5.34048 10.1818 6.54545C10.1818 7.7177 9.25718 8.67375 8.09754 8.72481C8.03427 8.72386 7.9712 8.72393 7.90813 8.72495C6.74577 8.67675 5.81816 7.71961 5.81816 6.54545ZM7.99997 10.1818C7.99513 10.1818 7.99029 10.1815 7.98538 10.1815C7.34816 10.183 6.70097 10.3139 6.08195 10.5914C5.03182 11.0622 4.19141 11.9026 3.72075 12.9527C6.20182 15.0123 9.7982 15.0123 12.2793 12.9527C11.5012 11.2167 9.79752 10.1869 8.01122 10.1815C8.00741 10.1815 8.00379 10.1818 7.99997 10.1818Z" transform="translate(4 4)" id="Fill-1" fill="#4C7399" fill-rule="evenodd" stroke="none" />
  </g>
</svg>