<svg xmlns="http://www.w3.org/2000/svg" width="161" height="43" viewBox="0 0 161 43">
  <g fill="none" fill-rule="evenodd">
    <path fill="#FD2624" d="M50.06496,24.12144 C52.22336,26.07984 53.41696,28.88784 53.32896,31.80144 C53.31296,32.33904 53.10816,32.85424 52.75296,33.25744 C52.33376,33.61904 51.80256,33.82224 51.24896,33.83184 L36.89696,33.83184 C37.76256,36.41904 40.17056,38.17104 42.89696,38.20144 C43.17376,38.22224 43.45216,38.22224 43.72896,38.20144 L44.84896,38.20144 C45.80736,37.96784 46.72096,37.57904 47.55296,37.04944 C48.02496,36.72304 48.63456,36.67344 49.15296,36.92144 C49.68576,37.09424 50.12096,37.48464 50.35296,37.99344 C50.86496,39.03184 50.52896,39.94544 49.36096,40.74544 C48.22016,41.44624 46.98656,41.98384 45.69696,42.34544 L42.96096,42.34544 C40.17056,42.38384 37.48896,41.26544 35.55296,39.25744 C33.56256,37.33104 32.46176,34.66544 32.51296,31.89584 C32.47776,26.16144 37.09696,21.48464 42.83136,21.44944 L42.96096,21.44944 C45.58656,21.38544 48.13216,22.34384 50.06496,24.12144 Z M91.08368,21.4124608 C93.66928,21.42544 96.16048,22.39024 98.08048,24.12144 C100.22128,26.08944 101.39568,28.89424 101.29648,31.80144 C101.28048,32.33904 101.07728,32.85424 100.72048,33.25744 C100.30288,33.61904 99.77008,33.82224 99.21648,33.83184 L84.80048,33.83184 C85.67248,36.43504 88.10608,38.19184 90.85008,38.20144 C91.12528,38.22224 91.40368,38.22224 91.68048,38.20144 L92.81648,38.20144 C93.77488,37.96464 94.68688,37.57584 95.52048,37.04944 C95.99248,36.72304 96.60208,36.67344 97.12048,36.92144 C97.65008,37.09904 98.08368,37.48784 98.32048,37.99344 C98.81648,39.03184 98.49648,39.94544 97.32848,40.74544 C96.18768,41.44624 94.95408,41.98384 93.66448,42.34544 L90.91408,42.34544 C88.12848,42.37904 85.45328,41.26224 83.52048,39.25744 C81.53008,37.33104 80.42928,34.66544 80.48048,31.89584 C80.51408,26.07344 85.25968,21.37904 91.08368,21.4124608 Z M14.64048,24.3136 C16.18128,22.4384 18.50288,21.3808 20.92848,21.4496 C23.0498618,21.4114182 25.0954354,22.2173322 26.6185018,23.6836529 L26.83248,23.8976 C28.42608,25.432 29.31248,27.5568 29.28048,29.768 C29.29328,29.8208 29.29328,29.8768 29.28048,29.9296 L29.28048,40.2496 C29.29008,40.8016 29.06288,41.3312 28.65648,41.704 C28.27888,42.1056 27.75088,42.3328 27.20048,42.3296 C26.06928,42.32 25.16048,41.3968 25.16848,40.2656 L25.16848,29.768 C25.20528,28.6496 24.78288,27.5632 24.00048,26.7616 C23.19248,25.9952 22.12208,25.5664 21.00848,25.5616 C19.89328,25.56 18.82128,25.9904 18.01648,26.7616 C17.20528,27.5488 16.75248,28.6368 16.76848,29.768 L16.76848,40.2496 C16.77488,40.7936 16.56208,41.3184 16.17648,41.704 C15.40688,42.5088 14.13008,42.5376 13.32688,41.7664 C13.30608,41.7472 13.28528,41.7264 13.26448,41.704 C12.85808,41.3312 12.63088,40.8016 12.64048,40.2496 L12.64048,29.768 C12.61808,28.6384 12.15888,27.5616 11.36048,26.7616 C9.68048,25.1616 7.04208,25.1616 5.36048,26.7616 C4.54768,27.5488 4.09648,28.6368 4.11248,29.768 L4.11248,40.2496 C4.12528,40.792 3.91728,41.3168 3.53648,41.704 C3.15888,42.1056 2.63248,42.3328 2.08048,42.3296 C1.52848,42.3408 0.99728,42.112 0.62448,41.704 C0.21808,41.3312 -0.00912,40.8016 0.000479999999,40.2496 L0.000479999999,29.768 C-0.02992,27.5568 0.85648,25.432 2.44848,23.8976 C4.00208,22.304 6.14288,21.4176 8.36848,21.4496 C10.79248,21.3712 13.11248,22.4304 14.64048,24.3136 Z M106.5448,11.08128 C107.0856,11.09728 107.6024,11.30688 108.0008,11.67328 C108.3624,12.07328 108.5656,12.59008 108.5768,13.12928 L108.5768,40.20128 C108.5944,40.74528 108.3848,41.27168 108.0008,41.65728 C107.6216,42.05408 107.0952,42.28128 106.5448,42.28128 C105.4072,42.25568 104.4904,41.33888 104.464767,40.20128 L104.464767,13.12928 C104.4616,12.57728 104.6888,12.05088 105.0888,11.67328 C105.468,11.27648 105.9976,11.06208 106.5448,11.08128 Z M58.57664,11.00112 C59.11424,11.01712 59.62944,11.22032 60.03264,11.57712 C60.38944,11.98032 60.59264,12.49552 60.60864,13.03312 L60.60864,23.40112 C62.41824,22.00592 64.64384,21.25712 66.92864,21.27312 C72.66304,21.23632 77.34144,25.85712 77.37664,31.59152 L77.37664,31.80112 C77.42784,34.56912 76.32704,37.23472 74.33664,39.16112 C70.31744,43.23792 63.75264,43.28752 59.67424,39.26672 L59.62144,39.21452 L59.62144,39.21452 L59.56864,39.16112 C57.57504,37.23472 56.46304,34.57232 56.49664,31.80112 L56.49664,13.03312 C56.49824,12.48272 56.72224,11.95632 57.12064,11.57712 C57.50624,11.19152 58.03264,10.98352 58.57664,11.00112 Z M66.92864,25.40112 C63.45344,25.39152 60.62624,28.19792 60.60864,31.67312 L60.60864,31.80112 C60.57984,33.48112 61.25984,35.09552 62.48064,36.24912 C63.63584,37.46992 65.24864,38.14992 66.92864,38.12112 C68.62144,38.14672 70.25024,37.46832 71.42464,36.24912 C73.93504,33.83632 74.01344,29.84592 71.60224,27.33552 C70.38304,26.06672 68.68864,25.36592 66.92864,25.40112 Z M42.89696,25.48144 C40.20416,25.49104 37.80576,27.18704 36.89696,29.72144 L48.92896,29.72144 C48.54976,28.39024 47.68896,27.24944 46.51296,26.52144 C45.44256,25.81104 44.18016,25.44784 42.89696,25.48144 Z M85.53808,28.27824 C85.23888,28.72624 84.99568,29.21264 84.81648,29.72144 L96.81648,29.72144 C96.44368,28.39184 95.58768,27.25104 94.41648,26.52144 C91.48048,24.55504 87.50448,25.34064 85.53808,28.27824 Z"/>
    <path fill="#1A1A1A" d="M114.94448 42.2496C113.81488 42.2224 112.91088 41.2992 112.912478 40.168 112.93008 39.0656 113.84048 38.184 114.94448 38.2016 115.49328 38.1808 116.02288 38.3968 116.40048 38.7936 116.80208 39.1696 117.02768 39.6976 117.02448 40.2496 117.03888 40.7968 116.81008 41.3232 116.40048 41.688 116.02768 42.0896 115.49008 42.296 114.94448 42.2496M125.2648 40.20112C125.2504 40.73872 125.0472 41.25552 124.6888 41.65712 124.308 42.05232 123.7816 42.27792 123.2312 42.28112 122.6792 42.29712 122.148 42.06832 121.7768 41.65712 121.3704 41.28112 121.14 40.75472 121.1368 40.20112L121.1368 31.80112C121.1112 29.02832 122.2296 26.36592 124.2248 24.44112 126.1512 22.45072 128.8168 21.34992 131.5848 21.40112 132.1384 21.41072 132.6696 21.61552 133.0888 21.97712 133.444 22.38032 133.6488 22.89552 133.6648 23.43312 133.6536 23.97072 133.4488 24.48912 133.0888 24.88912 132.6952 25.29552 132.1512 25.52112 131.5848 25.51312 128.0824 25.55632 125.2648 28.40912 125.2648 31.91312L125.2648 40.26512 125.2648 40.20112zM152.0008 33.92928C151.9768 36.14528 151.0664 38.26048 149.4728 39.80128 146.1928 43.07648 140.8808 43.07648 137.6008 39.80128 136.0104 38.24768 135.1112 36.11968 135.1048 33.89568L135.1048 23.43328C135.1208 22.89568 135.324 22.38048 135.6808 21.97728 136.084 21.62048 136.5992 21.41728 137.1368 21.40128 137.6904 21.41088 138.2232 21.61568 138.6408 21.97728 138.9976 22.38048 139.2008 22.89568 139.2168 23.43328L139.2168 33.83168C139.1944 34.97408 139.6456 36.07648 140.4648 36.87328 141.2488 37.71328 142.3544 38.18528 143.5048 38.16768 144.6648 38.18528 145.7784 37.71648 146.5768 36.87328 147.4024 36.08128 147.8552 34.97568 147.8248 33.83168L147.8248 23.43328C147.8344 22.30208 148.7576 21.39168 149.8888 21.3996277 149.9 21.3996277 149.9096 21.3996277 149.9208 21.40128 150.46 21.41088 150.9752 21.61568 151.3768 21.97728 151.7432 22.37568 151.9528 22.89248 151.9688 23.43328L151.9688 33.92928 152.0008 33.92928z"/>
    <path fill="#A0A0A0" fill-rule="nonzero" d="M126.069252,15 C127.509695,15 128.686981,14.5325485 129.601108,13.5976454 C130.515235,12.6627424 130.972299,11.5235457 130.972299,10.1800554 C130.972299,8.78116343 130.584488,7.66620499 129.808864,6.83518006 C129.033241,6.00415512 128.001385,5.58864266 126.713296,5.58864266 C126.034626,5.58864266 125.390582,5.75138504 124.781163,6.07686981 C124.171745,6.40235457 123.721607,6.82132964 123.430748,7.33379501 L123.430748,7.33379501 L123.389197,7.33379501 C123.569252,5.54709141 124.240997,4.38365651 125.404432,3.8434903 C125.861496,3.62188366 126.405125,3.44529086 127.035319,3.31371191 C127.665512,3.18213296 128.216066,3.02977839 128.686981,2.8566482 C129.157895,2.68351801 129.573407,2.38227147 129.933518,1.95290859 L129.933518,1.95290859 L128.686981,0 C128.396122,0.332409972 128.067175,0.560941828 127.700139,0.685595568 C127.333102,0.810249307 126.844875,0.931440443 126.235457,1.04916898 C125.626039,1.16689751 125.058172,1.3365651 124.531856,1.55817175 C122.177285,2.56925208 121,5.07617729 121,9.07894737 C121,10.8933518 121.453601,12.333795 122.360803,13.400277 C123.268006,14.466759 124.504155,15 126.069252,15 Z M126.006925,12.7770083 C125.272853,12.7770083 124.684211,12.4757618 124.240997,11.8732687 C123.797784,11.2707756 123.569252,10.5055402 123.555402,9.57756233 C123.721607,9.06509695 124.029778,8.64265928 124.479917,8.31024931 C124.930055,7.97783934 125.473684,7.81163435 126.110803,7.81163435 C126.844875,7.81163435 127.412742,8.04362881 127.814404,8.50761773 C128.216066,8.97160665 128.416898,9.56371191 128.416898,10.2839335 C128.416898,10.9903047 128.198753,11.58241 127.762465,12.0602493 C127.326177,12.5380886 126.740997,12.7770083 126.006925,12.7770083 Z M137.633923,15 C139.102067,15 140.293203,14.6121884 141.20733,13.8365651 L141.20733,13.8365651 L140.521734,12.1537396 C139.815363,12.7216066 138.935862,13.0055402 137.88323,13.0055402 C137.135308,13.0055402 136.505114,12.815097 135.992649,12.4342105 C135.480183,12.0533241 135.175474,11.5166205 135.078521,10.8240997 L135.078521,10.8240997 L141.830599,10.8240997 C141.927552,10.4916898 141.976028,10.0623269 141.976028,9.53601108 C141.976028,8.26177285 141.546665,7.21952909 140.687939,6.40927978 C139.829214,5.59903047 138.783507,5.19390582 137.55082,5.19390582 C136.054975,5.19390582 134.856915,5.66135734 133.956638,6.59626039 C133.056361,7.53116343 132.606222,8.69806094 132.606222,10.0969529 C132.606222,11.565097 133.066748,12.7493075 133.987801,13.6495845 C134.908854,14.5498615 136.124228,15 137.633923,15 Z M139.586831,9.22437673 L134.995419,9.22437673 C135.272427,7.86703601 136.089602,7.18836565 137.446942,7.18836565 C138.111762,7.18836565 138.638078,7.38227147 139.02589,7.7700831 C139.413701,8.15789474 139.600682,8.64265928 139.586831,9.22437673 L139.586831,9.22437673 Z M148.429896,14.7714681 L148.429896,7.81163435 L151.483912,7.81163435 L151.483912,5.42243767 L142.965907,5.42243767 L142.965907,7.81163435 L146.040699,7.81163435 L146.040699,14.7714681 L148.429896,14.7714681 Z M155.652461,14.8961219 C156.926699,14.8961219 157.847752,14.4944598 158.415619,13.6911357 L158.415619,13.6911357 L158.415619,14.7714681 L160.493181,14.7714681 L160.493181,9.07894737 C160.493181,7.79085873 160.202323,6.82132964 159.620605,6.17036011 C159.038888,5.51939058 158.083209,5.19390582 156.753569,5.19390582 C155.562433,5.19390582 154.461325,5.49168975 153.450245,6.08725762 L153.450245,6.08725762 L154.052738,7.83240997 C154.994566,7.40304709 155.811741,7.18836565 156.504262,7.18836565 C157.169082,7.18836565 157.633071,7.38573407 157.896228,7.78047091 C158.159386,8.17520776 158.277115,8.78116343 158.249414,9.59833795 C157.695397,9.1966759 156.989026,8.99584488 156.1303,8.99584488 C155.133071,8.99584488 154.315896,9.25554017 153.678777,9.77493075 C153.041658,10.2943213 152.723098,11.0457064 152.723098,12.0290859 C152.723098,12.9155125 152.993181,13.6149584 153.533348,14.1274238 C154.073514,14.6398892 154.779885,14.8961219 155.652461,14.8961219 Z M156.441935,12.8808864 C156.054123,12.8808864 155.735564,12.7839335 155.486256,12.5900277 C155.236949,12.3961219 155.112295,12.1260388 155.112295,11.7797784 C155.112295,11.4058172 155.254262,11.1184211 155.538195,10.91759 C155.822129,10.716759 156.178777,10.6163435 156.60814,10.6163435 C157.300661,10.6163435 157.847752,10.7686981 158.249414,11.0734072 L158.249414,11.0734072 L158.249414,12.0290859 C157.847752,12.5969529 157.245259,12.8808864 156.441935,12.8808864 Z"/>
  </g>
</svg>
