<?xml version="1.0" encoding="UTF-8"?>
<svg width="160px" height="40px" viewBox="0 0 160 40" version="1.1" xmlns="http://www.w3.org/2000/svg" xmlns:xlink="http://www.w3.org/1999/xlink">
    <!-- Generator: sketchtool 53.2 (72643) - https://sketchapp.com -->
    <title>14EAFB1A-A6F7-4416-A75F-71871FF25F22</title>
    <desc>Created with sketchtool.</desc>
    <defs>
        <polygon id="path-1" points="0.0350885641 0.173616057 36.1401378 0.173616057 36.1401378 34.0497062 0.0350885641 34.0497062"></polygon>
    </defs>
    <g id="Symbols" stroke="none" stroke-width="1" fill="none" fill-rule="evenodd">
        <g id="Footer/mobile" transform="translate(-77.000000, -33.000000)">
            <g id="logotype" transform="translate(77.000000, 33.000000)">
                <text id="I-Love-Kitchen" font-family="Circe-Bold, Circe" font-size="20.0727273" font-weight="bold" letter-spacing="0.120436351" fill="#1A1A1A">
                    <tspan x="92.5575758" y="16">I </tspan>
                    <tspan x="104.019103" y="16" font-family="Circe-ExtraBold, Circe" font-weight="600">Love</tspan>
                    <tspan x="145.991176" y="16"></tspan>
                    <tspan x="92.5575758" y="37">Kitchen</tspan>
                </text>
                <path d="M5.19381579,3.78561209 C5.23914403,3.99989497 9.7239729,25.3796957 10.0423371,38.7335337 C10.0588686,39.423827 10.6374702,39.9717864 11.341391,39.9717864 C11.3515232,39.9717864 11.3621886,39.9717864 11.3723208,39.9717864 C12.0901068,39.9556239 12.6585761,39.3748182 12.6415114,38.6751403 C12.3178145,25.0918997 7.78605755,3.4910383 7.74019604,3.27414857 C7.59567896,2.58854763 6.91095598,2.14799037 6.20490207,2.28823877 C5.50151452,2.42952992 5.04876544,3.09948978 5.19381579,3.78561209 Z" id="Fill-1" fill="#1A1A1A"></path>
                <path d="M74.3915257,6.25487037 C73.5105581,1.62510885 66.7737159,0.922824085 66.4878814,0.895191499 L64.8437996,0.736695159 L65.0720406,2.33208595 C65.1035038,2.54897568 68.1740917,24.1618286 67.6136214,37.5114956 C67.5842914,38.2111736 68.1420953,38.8013639 68.859348,38.8300392 C68.8774793,38.8305606 68.8956105,38.8310819 68.9132086,38.8310819 C69.6069972,38.8310819 70.1823991,38.2971995 70.2117292,37.6152482 C70.6868757,26.29423 68.6076429,9.22615537 67.8861241,3.74239055 C69.419285,4.14749469 71.5097165,5.00723306 71.8355465,6.71732515 C72.6311904,10.9007943 71.0431023,12.9633322 70.0938758,14.1953285 L70.0469477,14.2563287 C69.6165961,14.8162796 69.7328497,15.6108468 70.3071851,16.0310706 C70.8820538,16.4512945 71.6963622,16.3376359 72.127247,15.777685 L72.1731086,15.7177275 C73.2193909,14.3590385 75.3962127,11.5326942 74.3915257,6.25487037" id="Fill-3" fill="#1A1A1A"></path>
                <path d="M11.0142278,0.930175396 C10.3193726,1.1063983 9.90288611,1.79877705 10.0841991,2.47603608 C10.6324041,4.52710385 12.0727754,10.2069036 12.155966,11.8325338 C12.1911621,12.5097929 12.7654975,13.0363761 13.4539534,13.0363761 C13.4758176,13.0363761 13.4976818,13.0358547 13.519546,13.034812 C14.2367986,12.9998802 14.7887365,12.4044762 14.7530072,11.7053197 C14.6410198,9.52547362 12.8086926,2.6178486 12.6001827,1.83735839 C12.4188698,1.15957799 11.7101495,0.752909752 11.0142278,0.930175396" id="Fill-5" fill="#1A1A1A"></path>
                <path d="M0.972530609,3.77424623 C0.277675433,3.95099051 -0.138811053,4.64284789 0.042501886,5.32062829 C0.590173617,7.37117469 2.03107821,13.0499317 2.11426885,14.6766047 C2.14893162,15.3538637 2.72326702,15.8804469 3.41172291,15.8804469 C3.43358712,15.8804469 3.45545133,15.8804469 3.47784881,15.8788828 C4.19510146,15.8439511 4.74703938,15.2490684 4.71131007,14.5499119 C4.59932266,12.3700658 2.76699543,5.46191943 2.55848555,4.68090786 C2.37717261,4.00364883 1.66578596,3.59698059 0.972530609,3.77424623" id="Fill-7" fill="#1A1A1A"></path>
                <g id="Group-11" transform="translate(21.330934, 0.347858)">
                    <mask id="mask-2" fill="white">
                        <use xlink:href="#path-1"></use>
                    </mask>
                    <g id="Clip-10"></g>
                    <path d="M32.3839308,3.30245894 C29.2525496,1.78840179 24.6194708,2.78056803 18.2212571,6.33578692 C13.5231189,8.9462842 10.9127459,11.7189274 10.4621299,14.5770752 C10.1544312,16.5264759 10.8530192,18.4127909 12.5370965,20.1838833 C15.0248167,22.7990729 18.4446987,23.8657949 21.9189745,23.1103305 C24.59654,22.5279607 26.7333663,20.9096297 27.3626289,18.9868188 C27.5807377,18.3199872 27.2031802,17.6067536 26.5195237,17.3940349 C25.8364006,17.1802733 25.103683,17.549403 24.8855742,18.2162346 C24.5426794,19.2631447 23.0905761,20.2579177 21.3531715,20.6359106 C20.1474405,20.8981595 17.0597878,21.2104599 14.4435487,18.4602356 C13.3103428,17.2683848 12.8485281,16.1245 13.0319741,14.9623673 C13.3466054,12.965522 15.6471467,10.6840089 19.508579,8.53805185 C26.3744734,4.72266956 29.6717025,4.82068704 31.2288607,5.57354465 C32.452723,6.16529908 33.1827742,7.44578267 33.4611429,9.48850852 C34.6055475,17.8846436 23.4739996,30.8286851 21.3099764,31.5200212 C21.3046436,31.5200212 21.2993109,31.5200212 21.2939782,31.5200212 C19.4915142,31.5200212 9.55343209,24.8444056 4.64945036,17.0196915 C2.17239565,13.067189 2.43156649,9.89830498 3.08482635,7.93587004 C3.79141354,5.81441738 5.39123359,3.97971797 7.16063456,3.26231348 C10.7383655,1.81082068 14.2521036,3.70130664 14.2830334,3.71851183 C14.9069632,4.06678668 15.700474,3.85667476 16.0572339,3.24980061 C16.414527,2.6424051 16.1990846,1.86764996 15.5762213,1.51937511 C15.3895756,1.4151012 10.9447423,-1.01813044 6.16234685,0.92136425 C3.68422559,1.92656472 1.55753147,4.31443721 0.612037824,7.15277299 C-0.210269682,9.62145776 -0.56169682,13.5666611 2.43103322,18.3418847 C7.19263097,25.9392816 17.6789181,34.0502275 21.3905006,34.0497062 C21.4886229,34.0497062 21.5819458,34.0439711 21.6694026,34.0330223 C24.0238044,33.7280212 28.3262538,28.4846077 30.6438598,25.0341841 C32.9907958,21.5404868 36.8122327,14.8315036 36.038453,9.15483202 C35.6427642,6.25288916 34.4130359,4.28367641 32.3839308,3.30245894" id="Fill-9" fill="#FF2626" mask="url(#mask-2)"></path>
                    <path d="M29.0722499,14.3728026 C28.9778605,13.6788598 28.3240674,13.1908579 27.6121475,13.2831403 C26.9007608,13.3754227 26.4000172,14.0125363 26.4949398,14.7070005 C26.5893292,15.400422 27.2431223,15.8884239 27.954509,15.7961415 C28.6664289,15.7038591 29.1666393,15.0667455 29.0722499,14.3728026" id="Fill-12" fill="#FF2626" mask="url(#mask-2)"></path>
                </g>
            </g>
        </g>
    </g>
</svg>