<svg xmlns="http://www.w3.org/2000/svg" width="96" height="24" viewBox="0 0 96 24">
  <g fill="none" fill-rule="evenodd">
    <path fill="#FD2624" d="M31.6199747,12.0766989 C32.9831747,13.3135832 33.7370274,15.0870568 33.6814484,16.9272253 C33.6713432,17.2667621 33.5419958,17.5921516 33.3176589,17.8468042 C33.0529011,18.0751832 32.7174063,18.20352 32.3677642,18.2095832 L23.3033432,18.2095832 C23.8500379,19.8436042 25.37088,20.9501305 27.0928168,20.9693305 C27.2676379,20.9824674 27.4434695,20.9824674 27.6182905,20.9693305 L28.3256589,20.9693305 C28.9309642,20.8217937 29.5079747,20.5762358 30.0334484,20.2417516 C30.3315537,20.0356042 30.7165642,20.0042779 31.0439747,20.1609095 C31.38048,20.2700463 31.6553432,20.5166147 31.8018695,20.8379621 C32.1252379,21.4937937 31.9130274,22.0708042 31.1753432,22.5760674 C30.4548379,23.0186779 29.6757221,23.3582147 28.8612379,23.5865937 L27.1332379,23.5865937 C25.37088,23.6108463 23.6772379,22.9044884 22.4545011,21.6362779 C21.1974063,20.4196042 20.5021642,18.7360674 20.5345011,16.9868463 C20.5122695,13.36512 23.4296589,10.4113516 27.0513853,10.38912 L27.1332379,10.38912 C28.7915116,10.3486989 30.3992589,10.9540042 31.6199747,12.0766989 Z M57.5265347,10.3657647 C59.1595453,10.3739621 60.7329347,10.9833095 61.9455663,12.0766989 C63.2976505,13.3196463 64.0393768,15.0910989 63.9767242,16.9272253 C63.9666189,17.2667621 63.8382821,17.5921516 63.6129347,17.8468042 C63.3491874,18.0751832 63.0126821,18.20352 62.66304,18.2095832 L53.5581979,18.2095832 C54.1089347,19.8537095 55.6459453,20.9632674 57.3789979,20.9693305 C57.5528084,20.9824674 57.72864,20.9824674 57.9034611,20.9693305 L58.6209347,20.9693305 C59.22624,20.8197726 59.80224,20.5742147 60.3287242,20.2417516 C60.6268295,20.0356042 61.01184,20.0042779 61.3392505,20.1609095 C61.6737347,20.2730779 61.9475874,20.5186358 62.0971453,20.8379621 C62.4104084,21.4937937 62.2083032,22.0708042 61.4706189,22.5760674 C60.7501137,23.0186779 59.9709979,23.3582147 59.1565137,23.5865937 L57.4194189,23.5865937 C55.6600926,23.6078147 53.9704926,22.9024674 52.7497768,21.6362779 C51.4926821,20.4196042 50.79744,18.7360674 50.8297768,16.9868463 C50.8509979,13.3095411 53.8482189,10.3446568 57.5265347,10.3657647 Z M9.24661895,12.1980632 C10.2197558,11.0137263 11.6860295,10.3457684 13.2179874,10.3892211 C14.6216084,10.3639579 15.9726821,10.9237895 16.9468295,11.9353263 C17.9533137,12.9044211 18.5131453,14.2464 18.4929347,15.6429474 C18.5010189,15.6762947 18.5010189,15.7116632 18.4929347,15.7450105 L18.4929347,22.2629053 C18.4989979,22.6115368 18.3555032,22.9460211 18.0988295,23.1814737 C17.8603453,23.4351158 17.5268716,23.5786105 17.1792505,23.5765895 C16.4648084,23.5705263 15.8908295,22.9874526 15.8958821,22.2730105 L15.8958821,15.6429474 C15.9191242,14.9365895 15.6523453,14.2504421 15.1581979,13.7441684 C14.6478821,13.2601263 13.97184,12.9893053 13.2685137,12.9862737 C12.5641768,12.9852632 11.8871242,13.2570947 11.3788295,13.7441684 C10.8664926,14.2413474 10.5805137,14.9285053 10.5906189,15.6429474 L10.5906189,22.2629053 C10.5946611,22.6064842 10.4602611,22.9379368 10.2167242,23.1814737 C9.73066105,23.6897684 8.92426105,23.7079579 8.41697684,23.2208842 C8.40384,23.2087579 8.39070316,23.1956211 8.37756632,23.1814737 C8.12089263,22.9460211 7.97739789,22.6115368 7.98346105,22.2629053 L7.98346105,15.6429474 C7.96931368,14.9295158 7.67929263,14.2494316 7.17504,13.7441684 C6.11398737,12.7336421 4.44762947,12.7336421 3.38556632,13.7441684 C2.87221895,14.2413474 2.58725053,14.9285053 2.59735579,15.6429474 L2.59735579,22.2629053 C2.60544,22.6054737 2.47407158,22.9369263 2.23356632,23.1814737 C1.99508211,23.4351158 1.66261895,23.5786105 1.31398737,23.5765895 C0.965355789,23.5836632 0.629861053,23.4391579 0.394408421,23.1814737 C0.137734737,22.9460211 -0.00576,22.6115368 0.000303157894,22.2629053 L0.000303157894,15.6429474 C-0.0188968421,14.2464 0.540934737,12.9044211 1.54640842,11.9353263 C2.52762947,10.9288421 3.87971368,10.3690105 5.28535579,10.3892211 C6.81630316,10.3397053 8.28156632,11.0086737 9.24661895,12.1980632 Z M67.2914526,3.84080842 C67.6330105,3.85091368 67.9594105,3.98329263 68.2110316,4.21470316 C68.4394105,4.46733474 68.5677474,4.79373474 68.5748211,5.13428211 L68.5748211,22.2323874 C68.5859368,22.5759663 68.4535579,22.9084295 68.2110316,23.1519663 C67.9715368,23.4025768 67.6390737,23.5460716 67.2914526,23.5460716 C66.5729684,23.5299032 65.9939368,22.9508716 65.9777474,22.2323874 L65.9777474,5.13428211 C65.9757474,4.78565053 66.1192421,4.45318737 66.3718737,4.21470316 C66.6113684,3.96409263 66.9458526,3.82868211 67.2914526,3.84080842 Z M36.9957726,3.79018105 C37.3353095,3.80028632 37.6606989,3.92862316 37.9153516,4.15397053 C38.1406989,4.40862316 38.2690358,4.73401263 38.2791411,5.07354947 L38.2791411,11.62176 C39.4220463,10.7405811 40.8276884,10.2676547 42.27072,10.27776 C45.8924463,10.2545179 48.8472253,13.1729179 48.8694568,16.7946442 L48.8694568,16.9270232 C48.9017937,18.6752337 48.2065516,20.3587705 46.9494568,21.5754442 C44.4110147,24.1502653 40.2648253,24.1815916 37.6889937,21.6421389 C37.6667621,21.6209179 37.6445305,21.5976758 37.6222989,21.5754442 C36.3631832,20.3587705 35.6608674,18.6772547 35.6820884,16.9270232 L35.6820884,5.07354947 C35.6830989,4.72592842 35.8245726,4.39346526 36.0761937,4.15397053 C36.3197305,3.91043368 36.6521937,3.77906526 36.9957726,3.79018105 Z M42.27072,12.8849179 C40.0758568,12.8788547 38.2902568,14.6513179 38.2791411,16.8461811 L38.2791411,16.9270232 C38.2609516,17.9880758 38.6904253,19.0076968 39.4614568,19.7362863 C40.1910568,20.5073179 41.2096674,20.9367916 42.27072,20.9186021 C43.3398568,20.9347705 44.3685726,20.5063074 45.1102989,19.7362863 C46.6958147,18.2124126 46.7453305,15.69216 45.2224674,14.1066442 C44.4524463,13.3052968 43.3822989,12.8626863 42.27072,12.8849179 Z M27.0928168,12.9356463 C25.3921011,12.9417095 23.8773221,14.0128674 23.3033432,15.6135411 L30.9025011,15.6135411 C30.6630063,14.7727832 30.1193432,14.0522779 29.3766063,13.5924884 C28.7005642,13.1438147 27.9032589,12.9144253 27.0928168,12.9356463 Z M54.0240505,14.7020463 C53.8350821,14.9849937 53.6814821,15.2921937 53.5683032,15.6135411 L61.1472505,15.6135411 C60.9117979,14.7737937 60.3711663,14.0532884 59.6314611,13.5924884 C57.7771453,12.3505516 55.2659874,12.84672 54.0240505,14.7020463 Z"/>
    <path fill="#1A1A1A" d="M72.5965137 23.5260632C71.8830821 23.5088842 71.3121347 22.9258105 71.3131439 22.2113684 71.3242611 21.5151158 71.8992505 20.9583158 72.5965137 20.9694316 72.9431242 20.9562947 73.2776084 21.0927158 73.5160926 21.3433263 73.7697347 21.5808 73.9122189 21.9142737 73.9101979 22.2629053 73.9192926 22.6085053 73.7747874 22.9409684 73.5160926 23.1713684 73.28064 23.4250105 72.9411032 23.5553684 72.5965137 23.5260632M79.1146105 22.2322863C79.1055158 22.5718232 78.9771789 22.8982232 78.7508211 23.1518653 78.5103158 23.4014653 78.1778526 23.5439495 77.8302316 23.5459705 77.4816 23.5560758 77.1461053 23.4115705 76.9116632 23.1518653 76.6549895 22.9143916 76.5094737 22.5819284 76.5074526 22.2322863L76.5074526 16.9270232C76.4912842 15.1757811 77.1976421 13.4942653 78.4577684 12.2786021 79.6744421 11.0215074 81.3579789 10.3262653 83.1061895 10.3586021 83.4558316 10.3646653 83.7913263 10.4940126 84.0560842 10.7223916 84.2804211 10.9770442 84.4097684 11.3024337 84.4198737 11.6419705 84.4128 11.9815074 84.2834526 12.3089179 84.0560842 12.5615495 83.8074947 12.8182232 83.4639158 12.9607074 83.1061895 12.9556547 80.8941474 12.9829389 79.1146105 14.7847074 79.1146105 16.99776L79.1146105 22.2727074 79.1146105 22.2322863zM96.0005053 18.2711242C95.9853474 19.6707032 95.4103579 21.0066189 94.4038737 21.9797558 92.3322947 24.0483032 88.9773474 24.0483032 86.9057684 21.9797558 85.9013053 20.9985347 85.3333895 19.6545347 85.3293474 18.2499032L85.3293474 11.6420716C85.3394526 11.3025347 85.4677895 10.9771453 85.6931368 10.7224926 85.9477895 10.4971453 86.2731789 10.3688084 86.6127158 10.3587032 86.9623579 10.3647663 87.2988632 10.4941137 87.5626105 10.7224926 87.7879579 10.9771453 87.9162947 11.3025347 87.9264 11.6420716L87.9264 18.2094821C87.9122526 18.9309979 88.1972211 19.6272505 88.7146105 20.1304926 89.2097684 20.6610189 89.9080421 20.9591242 90.6346105 20.9480084 91.3672421 20.9591242 92.0705684 20.66304 92.5748211 20.1304926 93.0962526 19.6302821 93.3822316 18.9320084 93.3630316 18.2094821L93.3630316 11.6420716C93.3690947 10.9276295 93.9521684 10.35264 94.6666105 10.3576596 94.6736842 10.3576596 94.6797474 10.3576596 94.6868211 10.3587032 95.0273684 10.3647663 95.3527579 10.4941137 95.6064 10.7224926 95.8378105 10.9741137 95.9701895 11.3005137 95.9802947 11.6420716L95.9802947 18.2711242 96.0005053 18.2711242z"/>
    <path fill="#A0A0A0" fill-rule="nonzero" d="M78.35078,7.57894737 C79.0785829,7.57894737 79.6734218,7.34276134 80.1352967,6.87038927 C80.5971716,6.3980172 80.8281091,5.82242309 80.8281091,5.14360694 C80.8281091,4.43679837 80.6321621,3.87345094 80.2402683,3.45356466 C79.8483744,3.03367838 79.3270156,2.82373524 78.6761919,2.82373524 C78.3332847,2.82373524 78.0078729,2.90596297 77.6999563,3.07041843 C77.3920397,3.23487389 77.1646013,3.44656655 77.0176411,3.70549643 L77.0176411,3.70549643 L76.9966467,3.70549643 C77.0876221,2.80274092 77.4270302,2.21490013 78.014871,1.94197405 C78.2458084,1.83000437 78.520484,1.74077854 78.8388978,1.67429654 C79.1573116,1.60781455 79.4354862,1.5308354 79.6734218,1.44335909 C79.9113573,1.35588278 80.1213005,1.203674 80.3032512,0.98673276 L80.3032512,0.98673276 L79.6734218,0 C79.5264616,0.167954512 79.3602566,0.28342324 79.1748068,0.346406182 C78.989357,0.409389124 78.7426739,0.47062254 78.4347573,0.53010643 C78.1268406,0.589590319 77.8399184,0.675317102 77.5739904,0.787286776 C76.3843126,1.29814842 75.7894737,2.56480537 75.7894737,4.58725762 C75.7894737,5.50400933 76.0186616,6.23181222 76.4770375,6.77066628 C76.9354133,7.30952034 77.5599942,7.57894737 78.35078,7.57894737 Z M78.3192885,6.45575157 C77.948389,6.45575157 77.6509695,6.30354279 77.4270302,5.99912524 C77.2030908,5.69470768 77.0876221,5.3080624 77.080624,4.83918939 C77.1646013,4.58025951 77.3203091,4.36681732 77.5477475,4.19886281 C77.7751859,4.0309083 78.0498615,3.94693104 78.3717743,3.94693104 C78.7426739,3.94693104 79.0295962,4.06414929 79.2325412,4.2985858 C79.4354862,4.53302231 79.5369587,4.83219128 79.5369587,5.19609272 C79.5369587,5.55299606 79.4267386,5.85216504 79.2062983,6.09359965 C78.985858,6.33503426 78.6901881,6.45575157 78.3192885,6.45575157 Z M84.1939821,7.57894737 C84.9357812,7.57894737 85.5376182,7.38300044 85.9994931,6.99110658 L85.9994931,6.99110658 L85.6530869,6.14083686 C85.2961836,6.42775915 84.8518039,6.57122029 84.319948,6.57122029 C83.9420503,6.57122029 83.6236365,6.47499636 83.3647067,6.28254848 C83.1057768,6.0901006 82.9518185,5.81892404 82.9028318,5.46901881 L82.9028318,5.46901881 L86.3144078,5.46901881 C86.3633945,5.3010643 86.3878879,5.08412305 86.3878879,4.81819507 C86.3878879,4.17436944 86.1709466,3.64776206 85.7370642,3.23837294 C85.3031817,2.82898382 84.7748248,2.62428925 84.1519934,2.62428925 C83.3961981,2.62428925 82.7908621,2.86047529 82.3359853,3.33284735 C81.8811085,3.80521942 81.6536701,4.39480974 81.6536701,5.10161831 C81.6536701,5.84341741 81.8863571,6.44175536 82.351731,6.89663216 C82.817105,7.35150897 83.4311887,7.57894737 84.1939821,7.57894737 Z M85.1807148,4.66073772 L82.8608431,4.66073772 C83.0008052,3.97492346 83.4136934,3.63201633 84.0995077,3.63201633 C84.4354167,3.63201633 84.7013447,3.72998979 84.8972916,3.92593673 C85.0932385,4.12188366 85.1877129,4.36681732 85.1807148,4.66073772 L85.1807148,4.66073772 Z M89.6487893,7.46347864 L89.6487893,3.94693104 L91.1918714,3.94693104 L91.1918714,2.73975798 L86.8880371,2.73975798 L86.8880371,3.94693104 L88.4416163,3.94693104 L88.4416163,7.46347864 L89.6487893,7.46347864 Z M93.2980856,7.52646158 C93.9419112,7.52646158 94.4072852,7.32351655 94.6942075,6.91762648 L94.6942075,6.91762648 L94.6942075,7.46347864 L95.7439232,7.46347864 L95.7439232,4.58725762 C95.7439232,3.93643388 95.596963,3.44656655 95.3030426,3.11765563 C95.0091222,2.78874471 94.526253,2.62428925 93.8544349,2.62428925 C93.2525979,2.62428925 92.6962486,2.77474851 92.185387,3.07566701 L92.185387,3.07566701 L92.4898045,3.9574282 C92.9656756,3.74048695 93.3785638,3.63201633 93.728469,3.63201633 C94.0643781,3.63201633 94.2988146,3.73173932 94.4317786,3.9311853 C94.5647426,4.13063129 94.6242264,4.43679837 94.6102302,4.84968654 C94.3303061,4.64674151 93.9734027,4.54526899 93.5395202,4.54526899 C93.0356567,4.54526899 92.6227685,4.67648345 92.3008557,4.93891238 C91.9789429,5.2013413 91.8179865,5.58098848 91.8179865,6.07785391 C91.8179865,6.52573261 91.9544495,6.8791369 92.2273756,7.13806677 C92.5003017,7.39699665 92.857205,7.52646158 93.2980856,7.52646158 Z M93.6969776,6.50823735 C93.5010306,6.50823735 93.3400742,6.45925062 93.2141084,6.36127715 C93.0881425,6.26330369 93.0251595,6.12684065 93.0251595,5.95188803 C93.0251595,5.7629392 93.0968901,5.61772853 93.2403512,5.51625601 C93.3838124,5.4147835 93.5640136,5.36404724 93.7809548,5.36404724 C94.1308601,5.36404724 94.4072852,5.44102639 94.6102302,5.59498469 L94.6102302,5.59498469 L94.6102302,6.07785391 C94.4072852,6.36477621 94.1028676,6.50823735 93.6969776,6.50823735 Z"/>
  </g>
</svg>
