<?xml version="1.0" encoding="UTF-8"?>
<svg width="92px" height="23px" viewBox="0 0 92 23" version="1.1" xmlns="http://www.w3.org/2000/svg" xmlns:xlink="http://www.w3.org/1999/xlink">
    <!-- Generator: sketchtool 53.2 (72643) - https://sketchapp.com -->
    <title>25FAD350-ED75-4BA0-9909-D4CCBC749F3D</title>
    <desc>Created with sketchtool.</desc>
    <defs>
        <polygon id="path-1" points="0.0200506081 0.0992091752 20.6515073 0.0992091752 20.6515073 19.456975 0.0200506081 19.456975"></polygon>
    </defs>
    <g id="Symbols" stroke="none" stroke-width="1" fill="none" fill-rule="evenodd">
        <g id="Header/mobile" transform="translate(-16.000000, -42.000000)">
            <g id="header" transform="translate(16.000000, 38.000000)">
                <g id="logotype" transform="translate(0.000000, 4.000000)">
                    <text id="I-Love-Kitchen" font-family="Circe-Bold, Circe" font-size="11.4701299" font-weight="bold" letter-spacing="0.0688207703" fill="#1A1A1A">
                        <tspan x="52.8900433" y="9">I </tspan>
                        <tspan x="59.4394874" y="9" font-family="Circe-ExtraBold, Circe" font-weight="600">Love</tspan>
                        <tspan x="83.423529" y="9"></tspan>
                        <tspan x="52.8900433" y="21">Kitchen</tspan>
                    </text>
                    <g id="symbol">
                        <path d="M2.96789474,2.16320691 C2.99379659,2.28565427 5.55655595,14.5026832 5.73847834,22.1334478 C5.7479249,22.5279011 6.07855437,22.8410208 6.48079484,22.8410208 C6.48658467,22.8410208 6.49267922,22.8410208 6.49846905,22.8410208 C6.90863243,22.8317851 7.23347209,22.4998961 7.2237208,22.1000802 C7.03875113,14.3382284 4.44917574,1.99487903 4.42296917,1.87094204 C4.34038798,1.47917007 3.9491177,1.22742307 3.54565832,1.30756501 C3.14372258,1.38830281 2.88500882,1.77113701 2.96789474,2.16320691 Z" id="Fill-1" fill="#1A1A1A"></path>
                        <path d="M42.5094433,3.57421164 C42.0060332,0.928633631 38.1564091,0.527328049 37.9930751,0.511538 L37.0535998,0.420968663 L37.1840232,1.33262054 C37.2020021,1.45655753 38.9566238,13.8067592 38.6363551,21.4351404 C38.6195951,21.8349563 38.9383402,22.1722079 39.3481988,22.1885938 C39.3585596,22.1888918 39.3689203,22.1891897 39.3789763,22.1891897 C39.775427,22.1891897 40.1042281,21.884114 40.1209881,21.4944275 C40.3925004,15.0252743 39.2043674,5.27208878 38.7920709,2.13850889 C39.6681628,2.36999696 40.8626951,2.86127603 41.0488837,3.83847151 C41.5035374,6.22902533 40.5960585,7.40761842 40.0536433,8.11161626 L40.0268273,8.14647354 C39.7809121,8.46644547 39.8473427,8.92048386 40.1755343,9.16061177 C40.5040307,9.40073969 40.9693498,9.33579194 41.2155697,9.01582 L41.2417763,8.98155858 C41.8396519,8.20516485 43.0835501,6.59011098 42.5094433,3.57421164" id="Fill-3" fill="#1A1A1A"></path>
                        <path d="M6.29384444,0.531528797 C5.89678434,0.6322276 5.65879206,1.0278726 5.76239946,1.41487776 C6.07565946,2.58691649 6.89872879,5.83251635 6.9462663,6.76144791 C6.96637832,7.14845307 7.29456998,7.44935777 7.68797334,7.44935777 C7.70046718,7.44935777 7.71296101,7.44905985 7.72545484,7.448464 C8.1353135,7.42850299 8.4507066,7.08827213 8.43028985,6.6887541 C8.36629705,5.44312779 7.31925291,1.49591348 7.20010441,1.04991908 C7.09649702,0.662615996 6.691514,0.430234144 6.29384444,0.531528797" id="Fill-5" fill="#1A1A1A"></path>
                        <path d="M0.555731776,2.15671213 C0.158671676,2.25770886 -0.0793206017,2.65305594 0.024286792,3.04035902 C0.337242067,4.21209982 1.16061612,7.45710384 1.20815363,8.38663124 C1.22796093,8.7736364 1.55615258,9.07454111 1.94955595,9.07454111 C1.96204978,9.07454111 1.97454362,9.07454111 1.98734218,9.07364733 C2.39720084,9.05368633 2.71259393,8.71375339 2.69217718,8.31423536 C2.62818438,7.06860905 1.58114025,3.12109682 1.46199174,2.67480449 C1.35838435,2.28779933 0.951877694,2.05541748 0.555731776,2.15671213" id="Fill-7" fill="#1A1A1A"></path>
                        <g id="Group-11" transform="translate(12.189105, 0.198776)">
                            <mask id="mask-2" fill="white">
                                <use xlink:href="#path-1"></use>
                            </mask>
                            <g id="Clip-10"></g>
                            <path d="M18.5051033,1.88711939 C16.7157427,1.02194388 14.068269,1.58889602 10.4121469,3.62044967 C7.72749652,5.1121624 6.23585477,6.69652995 5.97835993,8.32975727 C5.80253209,9.44370054 6.20172528,10.5215948 7.16405513,11.5336476 C8.58560952,13.0280416 10.5398278,13.6375971 12.5251283,13.2059031 C14.0551657,12.8731204 15.2762093,11.9483598 15.6357879,10.8496107 C15.7604215,10.4685641 15.5446744,10.0610021 15.1540136,9.93944849 C14.7636575,9.81729905 14.3449617,10.0282303 14.2203281,10.4092769 C14.0243882,11.0075112 13.1946149,11.575953 12.2018123,11.7919489 C11.5128231,11.9418054 9.74845015,12.1202628 8.2534564,10.548706 C7.60591019,9.86764845 7.34201607,9.21400001 7.44684237,8.54992418 C7.62663167,7.4088697 8.94122666,6.10514793 11.1477594,4.87888677 C15.0711276,2.69866832 16.9552586,2.75467831 17.8450632,3.18488266 C18.5444132,3.52302805 18.9615853,4.25473295 19.1206531,5.42200487 C19.7745986,10.2197963 13.4137141,17.6163915 12.1771294,18.0114407 C12.1740821,18.0114407 12.1710348,18.0114407 12.1679875,18.0114407 C11.1380081,18.0114407 5.45910405,14.1968032 2.65682878,9.72553801 C1.24136894,7.46696517 1.38946657,5.65617428 1.76275791,4.53478288 C2.16652202,3.32252422 3.08070491,2.27412455 4.09179118,1.86417913 C6.13620884,1.03475468 8.14405919,2.11503236 8.16173339,2.1248639 C8.51826471,2.3238781 8.97169943,2.20381415 9.17556221,1.85702892 C9.37972972,1.50994577 9.25661976,1.06722855 8.90069789,0.86821435 C8.79404322,0.80862926 6.25413843,-0.581788821 3.52134106,0.526493857 C2.10527177,1.10089413 0.890017985,2.46539269 0.349735899,4.08729885 C-0.120154104,5.49797586 -0.320969611,7.75237775 1.38916184,10.481077 C4.11007484,14.8224466 10.1022389,19.4572729 12.2231432,19.456975 C12.2792131,19.456975 12.3325404,19.4536978 12.3825158,19.4474413 C13.7278883,19.2731549 16.1864308,16.2769187 17.510777,14.305248 C18.8518833,12.3088496 21.0355615,8.47514489 20.5934017,5.23133258 C20.3672938,3.57307952 19.6645919,2.44781509 18.5051033,1.88711939" id="Fill-9" fill="#FF2626" mask="url(#mask-2)"></path>
                            <path d="M16.6127142,8.21303008 C16.5587775,7.81649131 16.1851814,7.53763308 15.77837,7.59036589 C15.3718633,7.64309869 15.0857241,8.0071636 15.1399656,8.4040003 C15.1939024,8.80024115 15.5674985,9.07909937 15.9740051,9.02636656 C16.3808165,8.97363376 16.666651,8.60956886 16.6127142,8.21303008" id="Fill-12" fill="#FF2626" mask="url(#mask-2)"></path>
                        </g>
                    </g>
                </g>
            </g>
        </g>
    </g>
</svg>