<?xml version="1.0" encoding="utf-8"?>
<svg width="98px" height="20px" viewBox="0 0 98 20" version="1.1" xmlns:xlink="http://www.w3.org/1999/xlink" xmlns="http://www.w3.org/2000/svg">
  <desc>Created with Lunacy</desc>
  <g id="Group-5">
    <path d="M36.0939 1.29682C36.0949 0.945733 36.238 0.609956 36.4925 0.368074C36.7389 0.12211 37.0752 -0.0105679 37.4227 0.000658703C37.7662 0.0108647 38.0953 0.140481 38.3529 0.368074C38.5808 0.625265 38.7106 0.953897 38.7209 1.29682L38.7209 7.91029C39.877 7.02033 41.2988 6.54269 42.7585 6.5529C46.422 6.52942 49.4109 9.47691 49.4333 13.1347L49.4333 13.2684C49.4661 15.0341 48.7628 16.7344 47.4912 17.9632C44.9235 20.5637 40.7295 20.5953 38.1239 18.0305C38.1014 18.0091 38.0789 17.9856 38.0564 17.9632C36.7828 16.7344 36.0724 15.0361 36.0939 13.2684L36.0939 1.29682ZM67.1377 0.429412C66.8821 0.670273 66.737 1.00605 66.739 1.35816L66.739 18.6267C66.7554 19.3523 67.3411 19.9371 68.0678 19.9535C68.4195 19.9535 68.7558 19.8085 68.998 19.5554C69.2434 19.3095 69.3773 18.9737 69.366 18.6267L69.366 1.35816C69.3589 1.01421 69.229 0.684561 68.998 0.429412C68.7435 0.195695 68.4133 0.0619966 68.0678 0.0517907C67.7183 0.0395435 67.3799 0.176304 67.1377 0.429412ZM58.041 17.351C56.288 17.3449 54.7333 16.2243 54.1762 14.5638L63.386 14.5638C63.7397 14.5577 64.0801 14.428 64.3469 14.1974C64.5748 13.9402 64.7047 13.6116 64.7149 13.2686C64.7783 11.4142 64.028 9.6251 62.6603 8.36977C61.4337 7.26548 59.8421 6.65006 58.1903 6.64189C54.4695 6.62046 51.4377 9.6149 51.4163 13.3289C51.3836 15.0955 52.0868 16.7958 53.3584 18.0246C54.5932 19.3034 56.3023 20.0158 58.0819 19.9944L59.8391 19.9944C60.6629 19.7637 61.451 19.4208 62.1799 18.9738C62.9261 18.4635 63.1305 17.8807 62.8136 17.2184C62.6623 16.8958 62.3853 16.6478 62.047 16.5345C61.7158 16.3764 61.3263 16.408 61.0248 16.6162C60.4922 16.952 59.9096 17.2 59.2973 17.351L58.5716 17.351C58.3947 17.3643 58.2169 17.3643 58.041 17.351ZM18.3078 19.5852C18.5674 19.3474 18.7126 19.0096 18.7064 18.6575L18.7064 12.0746C18.7146 12.041 18.7146 12.0052 18.7064 11.9716C18.7269 10.5611 18.1606 9.20574 17.1425 8.22698C16.1571 7.20537 14.7904 6.63995 13.3706 6.66547C11.821 6.62158 10.3378 7.2962 9.35346 8.49234C8.37727 7.2911 6.89511 6.61546 5.3465 6.66547C3.92464 6.64506 2.55696 7.21047 1.56442 8.22698C0.547351 9.20574 -0.0189379 10.5611 0.000483611 11.9716L0.000483611 18.6575C-0.00564949 19.0096 0.1395 19.3474 0.399135 19.5852C0.637304 19.8455 0.976668 19.9914 1.32932 19.9843C1.68197 19.9863 2.01827 19.8414 2.25951 19.5852C2.50279 19.3382 2.63567 19.0035 2.62749 18.6575L2.62749 11.9716C2.61727 11.25 2.90553 10.556 3.4248 10.0539C4.49911 9.03326 6.18469 9.03326 7.25798 10.0539C7.76805 10.5642 8.06142 11.251 8.07573 11.9716L8.07573 18.6575C8.06959 19.0096 8.21474 19.3474 8.47438 19.5852C8.48767 19.5995 8.50096 19.6128 8.51425 19.625C9.02738 20.117 9.84308 20.0986 10.3348 19.5852C10.5811 19.3393 10.717 19.0045 10.713 18.6575L10.713 11.9716C10.7027 11.25 10.992 10.556 11.5103 10.0539C12.0244 9.56193 12.7093 9.28739 13.4217 9.28841C14.1332 9.29147 14.817 9.56499 15.3332 10.0539C15.8331 10.5652 16.1029 11.2582 16.0794 11.9716L16.0794 18.6677C16.0743 19.3893 16.6549 19.9781 17.3776 19.9843C17.7292 19.9863 18.0665 19.8414 18.3078 19.5852ZM27.4055 17.351C25.6637 17.3316 24.1253 16.2141 23.5723 14.5638L32.7413 14.5638C33.095 14.5577 33.4343 14.428 33.7022 14.1974C33.9291 13.9402 34.0599 13.6116 34.0701 13.2686C34.1264 11.4101 33.3638 9.61898 31.9849 8.36977C30.7501 7.23588 29.1238 6.62454 27.4464 6.66537L27.3636 6.66537C23.7001 6.68782 20.7491 9.67103 20.7715 13.3289C20.7388 15.0955 21.4421 16.7958 22.7137 18.0246C23.9505 19.3055 25.6637 20.0189 27.4464 19.9944L29.1943 19.9944C30.0182 19.7637 30.8063 19.4208 31.5351 18.9738C32.2813 18.4635 32.496 17.8807 32.1689 17.2184C32.0207 16.8938 31.7426 16.6448 31.4022 16.5345C31.0711 16.3764 30.6816 16.408 30.3801 16.6162C29.8485 16.954 29.2649 17.202 28.6526 17.351L27.937 17.351C27.7602 17.3643 27.5823 17.3643 27.4055 17.351ZM38.7209 13.2684C38.7025 14.3401 39.1369 15.3698 39.9168 16.1057C40.6548 16.8844 41.6852 17.3182 42.7585 17.2998C43.84 17.3161 44.8805 16.8834 45.6308 16.1057C47.2346 14.5666 47.2847 12.0213 45.7443 10.4199C44.9654 9.61061 43.8829 9.16359 42.7585 9.18604C40.5383 9.17992 38.7321 10.97 38.7209 13.1868L38.7209 13.2684ZM60.3195 9.90066C61.0677 10.3661 61.6146 11.0937 61.8528 11.9419L54.1864 11.9419C54.3009 11.6173 54.4562 11.307 54.6474 11.0213C55.9037 9.14746 58.4438 8.64635 60.3195 9.90066ZM29.7156 9.90066C30.4669 10.365 31.0169 11.0927 31.2591 11.9419L23.5723 11.9419C24.1529 10.3252 25.6852 9.2434 27.4055 9.23728C28.2253 9.21584 29.0318 9.44752 29.7156 9.90066Z" id="Combined-Shape" fill="#FD2624" fill-rule="evenodd" stroke="none" />
    <path d="M1.29817 2.58299C0.576512 2.56564 -0.00102083 1.97675 1.35478e-06 1.25519C0.0112454 0.552 0.592867 -0.0103495 1.29817 0.000877109C1.64878 -0.0123907 1.98712 0.12539 2.22836 0.378498C2.48493 0.618339 2.62905 0.955136 2.62701 1.30724C2.63621 1.65629 2.49004 1.99206 2.22836 2.22476C1.99019 2.48093 1.64674 2.61259 1.29817 2.58299" transform="translate(72.13574 17.350098)" id="Fill-15" fill="#1A1A1A" stroke="none" />
    <path d="M2.63751 11.9931C2.62831 12.336 2.49849 12.6657 2.26952 12.9219C2.02624 13.1739 1.68994 13.3179 1.33831 13.3199C0.985659 13.3301 0.646294 13.1842 0.409148 12.9219C0.149513 12.682 0.00231909 12.3462 0.000274728 11.9931L0.000274728 6.63498C-0.0160802 4.86628 0.698426 3.16801 1.97309 1.94023C3.2038 0.670603 4.90675 -0.0315687 6.67513 0.00109048C7.0288 0.00721407 7.36817 0.137851 7.63598 0.368506C7.86291 0.625696 7.99375 0.954329 8.00397 1.29725C7.99681 1.64017 7.86597 1.97084 7.63598 2.22599C7.38452 2.48523 7.03698 2.62913 6.67513 2.62403C4.43757 2.65158 2.63751 4.47131 2.63751 6.70642L2.63751 12.0339L2.63751 11.9931Z" transform="translate(77.38965 6.633301)" id="Fill-17" fill="#1A1A1A" stroke="none" />
    <path d="M10.7943 7.99234C10.7789 9.40586 10.1973 10.7551 9.1792 11.7379C7.08373 13.8271 3.69008 13.8271 1.59461 11.7379C0.578555 10.7469 0.00408873 9.38953 0 7.9709L0 1.29721C0.0102218 0.954292 0.140039 0.62566 0.367986 0.368469C0.625576 0.140876 0.954719 0.01126 1.29817 0.00105397C1.65185 0.00717756 1.99223 0.137814 2.25902 0.368469C2.48697 0.62566 2.61679 0.954292 2.62701 1.29721L2.62701 7.93008C2.6127 8.65879 2.90095 9.36198 3.42431 9.87024C3.92518 10.4061 4.63151 10.7071 5.36646 10.6959C6.10754 10.7071 6.81898 10.4081 7.32905 9.87024C7.8565 9.36504 8.14577 8.65981 8.12635 7.93008L8.12635 1.29721C8.13249 0.575651 8.72229 -0.00506961 9.44497 3.33752e-05C9.45212 3.33752e-05 9.45826 3.33752e-05 9.46541 0.00105397C9.80989 0.00717756 10.139 0.137814 10.3956 0.368469C10.6297 0.622598 10.7636 0.952251 10.7738 1.29721L10.7738 7.99234L10.7943 7.99234Z" transform="translate(86.313965 6.633789)" id="Fill-19" fill="#1A1A1A" stroke="none" />
  </g>
</svg>