<svg xmlns="http://www.w3.org/2000/svg" width="103" height="20" viewBox="0 0 103 20">
  <g fill="none" fill-rule="evenodd">
    <path fill="#FD2624" d="M31.2906,8.2009 C32.6396,9.4249 33.3856,11.1799 33.3306,13.0009 C33.3206,13.3369 33.1926,13.6589 32.9706,13.9109 C32.7086,14.1369 32.3766,14.2639 32.0306,14.2699 L23.0606,14.2699 C23.6016,15.8869 25.1066,16.9819 26.8106,17.0009 C26.9836,17.0139 27.1576,17.0139 27.3306,17.0009 L28.0306,17.0009 C28.6296,16.8549 29.2006,16.6119 29.7206,16.2809 C30.0156,16.0769 30.3966,16.0459 30.7206,16.2009 C31.0536,16.3089 31.3256,16.5529 31.4706,16.8709 C31.7906,17.5199 31.5806,18.0909 30.8506,18.5909 C30.1376,19.0289 29.3666,19.3649 28.5606,19.5909 L26.8506,19.5909 C25.1066,19.6149 23.4306,18.9159 22.2206,17.6609 C20.9766,16.4569 20.2886,14.7909 20.3206,13.0599 C20.2986,9.4759 23.1856,6.5529 26.7696,6.5309 L26.8506,6.5309 C28.4916,6.4909 30.0826,7.0899 31.2906,8.2009 Z M56.9273,6.50778797 C58.5433,6.5159 60.1003,7.1189 61.3003,8.2009 C62.6383,9.4309 63.3723,11.1839 63.3103,13.0009 C63.3003,13.3369 63.1733,13.6589 62.9503,13.9109 C62.6893,14.1369 62.3563,14.2639 62.0103,14.2699 L53.0003,14.2699 C53.5453,15.8969 55.0663,16.9949 56.7813,17.0009 C56.9533,17.0139 57.1273,17.0139 57.3003,17.0009 L58.0103,17.0009 C58.6093,16.8529 59.1793,16.6099 59.7003,16.2809 C59.9953,16.0769 60.3763,16.0459 60.7003,16.2009 C61.0313,16.3119 61.3023,16.5549 61.4503,16.8709 C61.7603,17.5199 61.5603,18.0909 60.8303,18.5909 C60.1173,19.0289 59.3463,19.3649 58.5403,19.5909 L56.8213,19.5909 C55.0803,19.6119 53.4083,18.9139 52.2003,17.6609 C50.9563,16.4569 50.2683,14.7909 50.3003,13.0599 C50.3213,9.4209 53.2873,6.4869 56.9273,6.50778797 Z M9.1503,8.321 C10.1133,7.149 11.5643,6.488 13.0803,6.531 C14.4693,6.506 15.8063,7.06 16.7703,8.061 C17.7663,9.02 18.3203,10.348 18.3003,11.73 C18.3083,11.763 18.3083,11.798 18.3003,11.831 L18.3003,18.281 C18.3063,18.626 18.1643,18.957 17.9103,19.19 C17.6743,19.441 17.3443,19.583 17.0003,19.581 C16.2933,19.575 15.7253,18.998 15.7303,18.291 L15.7303,11.73 C15.7533,11.031 15.4893,10.352 15.0003,9.851 C14.4953,9.372 13.8263,9.104 13.1303,9.101 C12.4333,9.1 11.7633,9.369 11.2603,9.851 C10.7533,10.343 10.4703,11.023 10.4803,11.73 L10.4803,18.281 C10.4843,18.621 10.3513,18.949 10.1103,19.19 C9.6293,19.693 8.8313,19.711 8.3293,19.229 C8.3163,19.217 8.3033,19.204 8.2903,19.19 C8.0363,18.957 7.8943,18.626 7.9003,18.281 L7.9003,11.73 C7.8863,11.024 7.5993,10.351 7.1003,9.851 C6.0503,8.851 4.4013,8.851 3.3503,9.851 C2.8423,10.343 2.5603,11.023 2.5703,11.73 L2.5703,18.281 C2.5783,18.62 2.4483,18.948 2.2103,19.19 C1.9743,19.441 1.6453,19.583 1.3003,19.581 C0.9553,19.588 0.6233,19.445 0.3903,19.19 C0.1363,18.957 -0.0057,18.626 0.000299999999,18.281 L0.000299999999,11.73 C-0.0187,10.348 0.5353,9.02 1.5303,8.061 C2.5013,7.065 3.8393,6.511 5.2303,6.531 C6.7453,6.482 8.1953,7.144 9.1503,8.321 Z M66.5905,0.0508 C66.9285,0.0608 67.2515,0.1918 67.5005,0.4208 C67.7265,0.6708 67.8535,0.9938 67.8605,1.3308 L67.8605,18.2508 C67.8715,18.5908 67.7405,18.9198 67.5005,19.1608 C67.2635,19.4088 66.9345,19.5508 66.5905,19.5508 C65.8795,19.5348 65.3065,18.9618 65.2904792,18.2508 L65.2904792,1.3308 C65.2885,0.9858 65.4305,0.6568 65.6805,0.4208 C65.9175,0.1728 66.2485,0.0388 66.5905,0.0508 Z M36.6104,0.0007 C36.9464,0.0107 37.2684,0.1377 37.5204,0.3607 C37.7434,0.6127 37.8704,0.9347 37.8804,1.2707 L37.8804,7.7507 C39.0114,6.8787 40.4024,6.4107 41.8304,6.4207 C45.4144,6.3977 48.3384,9.2857 48.3604,12.8697 L48.3604,13.0007 C48.3924,14.7307 47.7044,16.3967 46.4604,17.6007 C43.9484,20.1487 39.8454,20.1797 37.2964,17.6667 C37.2744,17.6457 37.2524,17.6227 37.2304,17.6007 C35.9844,16.3967 35.2894,14.7327 35.3104,13.0007 L35.3104,1.2707 C35.3114,0.9267 35.4514,0.5977 35.7004,0.3607 C35.9414,0.1197 36.2704,-0.0103 36.6104,0.0007 Z M41.8304,9.0007 C39.6584,8.9947 37.8914,10.7487 37.8804,12.9207 L37.8804,13.0007 C37.8624,14.0507 38.2874,15.0597 39.0504,15.7807 C39.7724,16.5437 40.7804,16.9687 41.8304,16.9507 C42.8884,16.9667 43.9064,16.5427 44.6404,15.7807 C46.2094,14.2727 46.2584,11.7787 44.7514,10.2097 C43.9894,9.4167 42.9304,8.9787 41.8304,9.0007 Z M26.8106,9.0509 C25.1276,9.0569 23.6286,10.1169 23.0606,11.7009 L30.5806,11.7009 C30.3436,10.8689 29.8056,10.1559 29.0706,9.7009 C28.4016,9.2569 27.6126,9.0299 26.8106,9.0509 Z M53.4613,10.7989 C53.2743,11.0789 53.1223,11.3829 53.0103,11.7009 L60.5103,11.7009 C60.2773,10.8699 59.7423,10.1569 59.0103,9.7009 C57.1753,8.4719 54.6903,8.9629 53.4613,10.7989 Z"/>
    <path fill="#1A1A1A" d="M71.8403 19.531C71.1343 19.514 70.5693 18.937 70.5702987 18.23 70.5813 17.541 71.1503 16.99 71.8403 17.001 72.1833 16.988 72.5143 17.123 72.7503 17.371 73.0013 17.606 73.1423 17.936 73.1403 18.281 73.1493 18.623 73.0063 18.952 72.7503 19.18 72.5173 19.431 72.1813 19.56 71.8403 19.531M78.2905 18.2507C78.2815 18.5867 78.1545 18.9097 77.9305 19.1607 77.6925 19.4077 77.3635 19.5487 77.0195 19.5507 76.6745 19.5607 76.3425 19.4177 76.1105 19.1607 75.8565 18.9257 75.7125 18.5967 75.7105 18.2507L75.7105 13.0007C75.6945 11.2677 76.3935 9.6037 77.6405 8.4007 78.8445 7.1567 80.5105 6.4687 82.2405 6.5007 82.5865 6.5067 82.9185 6.6347 83.1805 6.8607 83.4025 7.1127 83.5305 7.4347 83.5405 7.7707 83.5335 8.1067 83.4055 8.4307 83.1805 8.6807 82.9345 8.9347 82.5945 9.0757 82.2405 9.0707 80.0515 9.0977 78.2905 10.8807 78.2905 13.0707L78.2905 18.2907 78.2905 18.2507zM95.0005 14.3308C94.9855 15.7158 94.4165 17.0378 93.4205 18.0008 91.3705 20.0478 88.0505 20.0478 86.0005 18.0008 85.0065 17.0298 84.4445 15.6998 84.4405 14.3098L84.4405 7.7708C84.4505 7.4348 84.5775 7.1128 84.8005 6.8608 85.0525 6.6378 85.3745 6.5108 85.7105 6.5008 86.0565 6.5068 86.3895 6.6348 86.6505 6.8608 86.8735 7.1128 87.0005 7.4348 87.0105 7.7708L87.0105 14.2698C86.9965 14.9838 87.2785 15.6728 87.7905 16.1708 88.2805 16.6958 88.9715 16.9908 89.6905 16.9798 90.4155 16.9908 91.1115 16.6978 91.6105 16.1708 92.1265 15.6758 92.4095 14.9848 92.3905 14.2698L92.3905 7.7708C92.3965 7.0638 92.9735 6.4948 93.6805 6.4997673 93.6875 6.4997673 93.6935 6.4997673 93.7005 6.5008 94.0375 6.5068 94.3595 6.6348 94.6105 6.8608 94.8395 7.1098 94.9705 7.4328 94.9805 7.7708L94.9805 14.3308 95.0005 14.3308z"/>
    <path fill="#1A1A19" fill-rule="nonzero" d="M98.5501066,10 L98.5501066,7.93896948 C98.9836532,8.07903952 99.4296375,8.14907454 99.8880597,8.14907454 C100.652097,8.14907454 101.278429,7.93646823 101.767058,7.51125563 C102.255686,7.08604302 102.5,6.54160414 102.5,5.87793897 C102.5,5.36434884 102.319652,4.90828748 101.958955,4.50975488 C101.598259,4.11122228 101.099858,3.81690845 100.463753,3.62681341 C100.943497,3.35667834 101.304193,3.05569451 101.545842,2.72386193 C101.787491,2.39202935 101.908316,2.02934801 101.908316,1.63581791 C101.908316,1.14557279 101.719972,0.750375188 101.343284,0.450225113 C100.966596,0.150075038 100.472637,0 99.8614072,0 C99.1186923,0 98.5394456,0.24178756 98.1236674,0.725362681 C97.7078891,1.2089378 97.5,1.88427547 97.5,2.75137569 L97.5,2.75137569 L97.5,10 L98.5501066,10 Z M99.8987207,7.40870435 C99.5078181,7.40870435 99.05828,7.30031683 98.5501066,7.08354177 L98.5501066,7.08354177 L98.5501066,2.59629815 C98.5501066,1.97932299 98.6531628,1.51575788 98.8592751,1.2056028 C99.0653873,0.895447724 99.3763326,0.740370185 99.7921109,0.740370185 C100.143923,0.740370185 100.408671,0.822077706 100.586354,0.985492746 C100.764037,1.14890779 100.852878,1.39236285 100.852878,1.71585793 C100.852878,2.17942304 100.681414,2.5854594 100.338486,2.93396698 C99.9955579,3.28247457 99.5948827,3.45672836 99.1364606,3.45672836 L99.1364606,3.45672836 L98.9445629,3.45672836 L98.9445629,4.19709855 L99.152452,4.19709855 C99.8489694,4.19709855 100.405117,4.35384359 100.820896,4.66733367 C101.236674,4.98082375 101.444563,5.39769885 101.444563,5.91795898 C101.444563,6.32816408 101.294421,6.67917292 100.994136,6.97098549 C100.693852,7.26279807 100.328714,7.40870435 99.8987207,7.40870435 Z"/>
  </g>
</svg>
