<svg xmlns="http://www.w3.org/2000/svg" width="164" height="32" viewBox="0 0 164 32">
  <g fill="none" fill-rule="evenodd">
    <path fill="#FD2624" d="M50.06496,13.12144 C52.22336,15.07984 53.41696,17.88784 53.32896,20.80144 C53.31296,21.33904 53.10816,21.85424 52.75296,22.25744 C52.33376,22.61904 51.80256,22.82224 51.24896,22.83184 L36.89696,22.83184 C37.76256,25.41904 40.17056,27.17104 42.89696,27.20144 C43.17376,27.22224 43.45216,27.22224 43.72896,27.20144 L44.84896,27.20144 C45.80736,26.96784 46.72096,26.57904 47.55296,26.04944 C48.02496,25.72304 48.63456,25.67344 49.15296,25.92144 C49.68576,26.09424 50.12096,26.48464 50.35296,26.99344 C50.86496,28.03184 50.52896,28.94544 49.36096,29.74544 C48.22016,30.44624 46.98656,30.98384 45.69696,31.34544 L42.96096,31.34544 C40.17056,31.38384 37.48896,30.26544 35.55296,28.25744 C33.56256,26.33104 32.46176,23.66544 32.51296,20.89584 C32.47776,15.16144 37.09696,10.48464 42.83136,10.44944 L42.96096,10.44944 C45.58656,10.38544 48.13216,11.34384 50.06496,13.12144 Z M91.08368,10.4124608 C93.66928,10.42544 96.16048,11.39024 98.08048,13.12144 C100.22128,15.08944 101.39568,17.89424 101.29648,20.80144 C101.28048,21.33904 101.07728,21.85424 100.72048,22.25744 C100.30288,22.61904 99.77008,22.82224 99.21648,22.83184 L84.80048,22.83184 C85.67248,25.43504 88.10608,27.19184 90.85008,27.20144 C91.12528,27.22224 91.40368,27.22224 91.68048,27.20144 L92.81648,27.20144 C93.77488,26.96464 94.68688,26.57584 95.52048,26.04944 C95.99248,25.72304 96.60208,25.67344 97.12048,25.92144 C97.65008,26.09904 98.08368,26.48784 98.32048,26.99344 C98.81648,28.03184 98.49648,28.94544 97.32848,29.74544 C96.18768,30.44624 94.95408,30.98384 93.66448,31.34544 L90.91408,31.34544 C88.12848,31.37904 85.45328,30.26224 83.52048,28.25744 C81.53008,26.33104 80.42928,23.66544 80.48048,20.89584 C80.51408,15.07344 85.25968,10.37904 91.08368,10.4124608 Z M14.64048,13.3136 C16.18128,11.4384 18.50288,10.3808 20.92848,10.4496 C23.0498618,10.4114182 25.0954354,11.2173322 26.6185018,12.6836529 L26.83248,12.8976 C28.42608,14.432 29.31248,16.5568 29.28048,18.768 C29.29328,18.8208 29.29328,18.8768 29.28048,18.9296 L29.28048,29.2496 C29.29008,29.8016 29.06288,30.3312 28.65648,30.704 C28.27888,31.1056 27.75088,31.3328 27.20048,31.3296 C26.06928,31.32 25.16048,30.3968 25.16848,29.2656 L25.16848,18.768 C25.20528,17.6496 24.78288,16.5632 24.00048,15.7616 C23.19248,14.9952 22.12208,14.5664 21.00848,14.5616 C19.89328,14.56 18.82128,14.9904 18.01648,15.7616 C17.20528,16.5488 16.75248,17.6368 16.76848,18.768 L16.76848,29.2496 C16.77488,29.7936 16.56208,30.3184 16.17648,30.704 C15.40688,31.5088 14.13008,31.5376 13.32688,30.7664 C13.30608,30.7472 13.28528,30.7264 13.26448,30.704 C12.85808,30.3312 12.63088,29.8016 12.64048,29.2496 L12.64048,18.768 C12.61808,17.6384 12.15888,16.5616 11.36048,15.7616 C9.68048,14.1616 7.04208,14.1616 5.36048,15.7616 C4.54768,16.5488 4.09648,17.6368 4.11248,18.768 L4.11248,29.2496 C4.12528,29.792 3.91728,30.3168 3.53648,30.704 C3.15888,31.1056 2.63248,31.3328 2.08048,31.3296 C1.52848,31.3408 0.99728,31.112 0.62448,30.704 C0.21808,30.3312 -0.00912,29.8016 0.000479999999,29.2496 L0.000479999999,18.768 C-0.02992,16.5568 0.85648,14.432 2.44848,12.8976 C4.00208,11.304 6.14288,10.4176 8.36848,10.4496 C10.79248,10.3712 13.11248,11.4304 14.64048,13.3136 Z M106.5448,0.08128 C107.0856,0.09728 107.6024,0.30688 108.0008,0.67328 C108.3624,1.07328 108.5656,1.59008 108.5768,2.12928 L108.5768,29.20128 C108.5944,29.74528 108.3848,30.27168 108.0008,30.65728 C107.6216,31.05408 107.0952,31.28128 106.5448,31.28128 C105.4072,31.25568 104.4904,30.33888 104.464767,29.20128 L104.464767,2.12928 C104.4616,1.57728 104.6888,1.05088 105.0888,0.67328 C105.468,0.27648 105.9976,0.06208 106.5448,0.08128 Z M58.57664,0.00112 C59.11424,0.01712 59.62944,0.22032 60.03264,0.57712 C60.38944,0.98032 60.59264,1.49552 60.60864,2.03312 L60.60864,12.40112 C62.41824,11.00592 64.64384,10.25712 66.92864,10.27312 C72.66304,10.23632 77.34144,14.85712 77.37664,20.59152 L77.37664,20.80112 C77.42784,23.56912 76.32704,26.23472 74.33664,28.16112 C70.31744,32.23792 63.75264,32.28752 59.67424,28.26672 L59.62144,28.21452 L59.62144,28.21452 L59.56864,28.16112 C57.57504,26.23472 56.46304,23.57232 56.49664,20.80112 L56.49664,2.03312 C56.49824,1.48272 56.72224,0.95632 57.12064,0.57712 C57.50624,0.19152 58.03264,-0.01648 58.57664,0.00112 Z M66.92864,14.40112 C63.45344,14.39152 60.62624,17.19792 60.60864,20.67312 L60.60864,20.80112 C60.57984,22.48112 61.25984,24.09552 62.48064,25.24912 C63.63584,26.46992 65.24864,27.14992 66.92864,27.12112 C68.62144,27.14672 70.25024,26.46832 71.42464,25.24912 C73.93504,22.83632 74.01344,18.84592 71.60224,16.33552 C70.38304,15.06672 68.68864,14.36592 66.92864,14.40112 Z M42.89696,14.48144 C40.20416,14.49104 37.80576,16.18704 36.89696,18.72144 L48.92896,18.72144 C48.54976,17.39024 47.68896,16.24944 46.51296,15.52144 C45.44256,14.81104 44.18016,14.44784 42.89696,14.48144 Z M85.53808,17.27824 C85.23888,17.72624 84.99568,18.21264 84.81648,18.72144 L96.81648,18.72144 C96.44368,17.39184 95.58768,16.25104 94.41648,15.52144 C91.48048,13.55504 87.50448,14.34064 85.53808,17.27824 Z"/>
    <path fill="#1A1A1A" d="M114.94448 31.2496C113.81488 31.2224 112.91088 30.2992 112.912478 29.168 112.93008 28.0656 113.84048 27.184 114.94448 27.2016 115.49328 27.1808 116.02288 27.3968 116.40048 27.7936 116.80208 28.1696 117.02768 28.6976 117.02448 29.2496 117.03888 29.7968 116.81008 30.3232 116.40048 30.688 116.02768 31.0896 115.49008 31.296 114.94448 31.2496M125.2648 29.20112C125.2504 29.73872 125.0472 30.25552 124.6888 30.65712 124.308 31.05232 123.7816 31.27792 123.2312 31.28112 122.6792 31.29712 122.148 31.06832 121.7768 30.65712 121.3704 30.28112 121.14 29.75472 121.1368 29.20112L121.1368 20.80112C121.1112 18.02832 122.2296 15.36592 124.2248 13.44112 126.1512 11.45072 128.8168 10.34992 131.5848 10.40112 132.1384 10.41072 132.6696 10.61552 133.0888 10.97712 133.444 11.38032 133.6488 11.89552 133.6648 12.43312 133.6536 12.97072 133.4488 13.48912 133.0888 13.88912 132.6952 14.29552 132.1512 14.52112 131.5848 14.51312 128.0824 14.55632 125.2648 17.40912 125.2648 20.91312L125.2648 29.26512 125.2648 29.20112zM152.0008 22.92928C151.9768 25.14528 151.0664 27.26048 149.4728 28.80128 146.1928 32.07648 140.8808 32.07648 137.6008 28.80128 136.0104 27.24768 135.1112 25.11968 135.1048 22.89568L135.1048 12.43328C135.1208 11.89568 135.324 11.38048 135.6808 10.97728 136.084 10.62048 136.5992 10.41728 137.1368 10.40128 137.6904 10.41088 138.2232 10.61568 138.6408 10.97728 138.9976 11.38048 139.2008 11.89568 139.2168 12.43328L139.2168 22.83168C139.1944 23.97408 139.6456 25.07648 140.4648 25.87328 141.2488 26.71328 142.3544 27.18528 143.5048 27.16768 144.6648 27.18528 145.7784 26.71648 146.5768 25.87328 147.4024 25.08128 147.8552 23.97568 147.8248 22.83168L147.8248 12.43328C147.8344 11.30208 148.7576 10.39168 149.8888 10.3996277 149.9 10.3996277 149.9096 10.3996277 149.9208 10.40128 150.46 10.41088 150.9752 10.61568 151.3768 10.97728 151.7432 11.37568 151.9528 11.89248 151.9688 12.43328L151.9688 22.92928 152.0008 22.92928z"/>
    <path fill="#1A1A19" fill-rule="nonzero" d="M157.680171,16 L157.680171,12.7023512 C158.373845,12.9264632 159.08742,13.0385193 159.820896,13.0385193 C161.043355,13.0385193 162.045487,12.6983492 162.827292,12.018009 C163.609097,11.3376688 164,10.4665666 164,9.40470235 C164,8.58295815 163.711443,7.85325996 163.134328,7.2156078 C162.557214,6.57795564 161.759773,6.10705353 160.742004,5.80290145 C161.509595,5.37068534 162.086709,4.88911122 162.473348,4.35817909 C162.859986,3.82724696 163.053305,3.24695681 163.053305,2.61730865 C163.053305,1.83291646 162.751955,1.2006003 162.149254,0.72036018 C161.546553,0.24012006 160.756219,0 159.778252,0 C158.589908,0 157.663113,0.386860097 156.997868,1.16058029 C156.332623,1.93430048 156,3.01484075 156,4.4022011 L156,4.4022011 L156,16 L157.680171,16 Z M159.837953,11.853927 C159.212509,11.853927 158.493248,11.6805069 157.680171,11.3336668 L157.680171,11.3336668 L157.680171,4.15407704 C157.680171,3.16691679 157.84506,2.42521261 158.17484,1.92896448 C158.50462,1.43271636 159.002132,1.1845923 159.667377,1.1845923 C160.230277,1.1845923 160.653873,1.31532433 160.938166,1.57678839 C161.222459,1.83825246 161.364606,2.22778056 161.364606,2.74537269 C161.364606,3.48707687 161.090263,4.13673503 160.541578,4.69434717 C159.992893,5.25195931 159.351812,5.53076538 158.618337,5.53076538 L158.618337,5.53076538 L158.311301,5.53076538 L158.311301,6.71535768 L158.643923,6.71535768 C159.758351,6.71535768 160.648188,6.96614974 161.313433,7.46773387 C161.978678,7.96931799 162.311301,8.63631816 162.311301,9.46873437 C162.311301,10.1250625 162.071073,10.6866767 161.590618,11.1535768 C161.110163,11.6204769 160.525942,11.853927 159.837953,11.853927 Z"/>
  </g>
</svg>
