<?xml version="1.0" encoding="UTF-8"?>
<svg width="38px" height="38px" viewBox="0 0 38 38" version="1.1" xmlns="http://www.w3.org/2000/svg" xmlns:xlink="http://www.w3.org/1999/xlink">
    <!-- Generator: Sketch 53.2 (72643) - https://sketchapp.com -->
    <title>map pin</title>
    <desc>Created with Sketch.</desc>
    <defs>
        <circle id="path-1" cx="19" cy="19" r="19"></circle>
        <filter x="-22.4%" y="-17.1%" width="144.7%" height="144.7%" filterUnits="objectBoundingBox" id="filter-2">
            <feOffset dx="0" dy="2" in="SourceAlpha" result="shadowOffsetOuter1"></feOffset>
            <feGaussianBlur stdDeviation="2.5" in="shadowOffsetOuter1" result="shadowBlurOuter1"></feGaussianBlur>
            <feComposite in="shadowBlurOuter1" in2="SourceAlpha" operator="out" result="shadowBlurOuter1"></feComposite>
            <feColorMatrix values="0 0 0 0 0   0 0 0 0 0   0 0 0 0 0  0 0 0 0.153277853 0" type="matrix" in="shadowBlurOuter1"></feColorMatrix>
        </filter>
        <polygon id="path-3" points="10.0171629 11.0849209 27.6772413 11.0849209 27.6772413 27.6547476 10.0171629 27.6547476"></polygon>
    </defs>
    <g id="map-pin" stroke="none" stroke-width="1" fill="none" fill-rule="evenodd">
        <g id="Group-11">
            <g id="Oval">
                <use fill="black" fill-opacity="1" filter="url(#filter-2)" xlink:href="#path-1"></use>
                <circle stroke="#FF2626" stroke-width="2" stroke-linejoin="square" fill="#FFFFFF" fill-rule="evenodd" cx="19" cy="19" r="18"></circle>
            </g>
            <mask id="mask-4" fill="white">
                <use xlink:href="#path-3"></use>
            </mask>
            <g id="Clip-10"></g>
            <path d="M25.8399661,12.6153332 C24.3083123,11.8747617 22.0421324,12.3600604 18.9125714,14.0990262 C16.614569,15.3758999 15.3377561,16.7320841 15.1173461,18.1300911 C14.9668413,19.0836024 15.308542,20.0062564 16.1322755,20.8725516 C17.3490951,22.1517204 19.0218635,22.6734867 20.7212375,22.303966 C22.0309163,22.0191112 23.0761031,21.2275362 23.3838946,20.2870309 C23.4905782,19.9608633 23.3059033,19.6119991 22.9715062,19.5079518 C22.6373698,19.4033946 22.2789754,19.5839471 22.1722917,19.9101148 C22.0045715,20.4221903 21.2943035,20.9087641 20.4444861,21.0936519 C19.8547263,21.2219259 18.3444614,21.3746815 17.0647793,20.029463 C16.5104938,19.4464926 16.2846061,18.8869837 16.3743352,18.3185492 C16.5282309,17.3418314 17.6534956,16.2258739 19.5422397,15.176221 C22.9005576,13.3100014 24.5133327,13.3579447 25.2749862,13.7261903 C25.8736145,14.0156354 26.2307048,14.6419589 26.3668634,15.6411183 C26.9266265,19.7479235 21.4818476,26.0792482 20.423358,26.4174017 C20.4207496,26.4174017 20.4181412,26.4174017 20.4155328,26.4174017 C19.5338928,26.4174017 14.6728744,23.1521549 12.2741877,19.3248491 C11.0625848,17.3915599 11.1893532,15.8415622 11.5088825,14.8816756 C11.8544958,13.8440085 12.6370164,12.9466012 13.5024843,12.5956968 C15.2524614,11.8857275 16.9711376,12.8104217 16.9862664,12.8188373 C17.2914494,12.9891891 17.6795797,12.886417 17.8540818,12.5895764 C18.0288447,12.2924808 17.9234653,11.9135244 17.6188039,11.7431726 C17.5275098,11.6921691 15.3534065,10.5020014 13.0141914,11.4506673 C11.8020669,11.9423414 10.761836,13.1103226 10.2993663,14.498639 C9.8971507,15.7061478 9.72525699,17.6358668 11.1890923,19.971574 C13.5181347,23.6876921 18.6472969,27.6550026 20.4627449,27.6547476 C20.5107395,27.6547476 20.5563865,27.6519424 20.5991643,27.646587 C21.7507739,27.4974017 23.8552329,24.9326885 24.9888445,23.2449813 C26.1368023,21.5361077 28.0059834,18.2545398 27.6275042,15.477907 C27.4339607,14.0584784 26.8324632,13.0952765 25.8399661,12.6153332" id="Fill-9" fill="#FF2626" mask="url(#mask-4)"></path>
            <path d="M24.2201222,18.0301752 C24.1739535,17.6907466 23.8541634,17.4520501 23.5059417,17.4971882 C23.1579808,17.5423263 22.9130519,17.853958 22.9594814,18.1936416 C23.0056502,18.5328151 23.3254403,18.7715117 23.6734011,18.7263736 C24.0216228,18.6812354 24.266291,18.3696038 24.2201222,18.0301752" id="Fill-12" fill="#FF2626" mask="url(#mask-4)"></path>
        </g>
    </g>
</svg>