<?xml version="1.0" encoding="UTF-8"?>
<svg width="38px" height="38px" viewBox="0 0 38 38" version="1.1" xmlns="http://www.w3.org/2000/svg" xmlns:xlink="http://www.w3.org/1999/xlink">
    <!-- Generator: Sketch 53.2 (72643) - https://sketchapp.com -->
    <title>map pin selected</title>
    <desc>Created with Sketch.</desc>
    <defs>
        <circle id="path-1" cx="19" cy="19" r="19"></circle>
        <filter x="-22.4%" y="-17.1%" width="144.7%" height="144.7%" filterUnits="objectBoundingBox" id="filter-2">
            <feOffset dx="0" dy="2" in="SourceAlpha" result="shadowOffsetOuter1"></feOffset>
            <feGaussianBlur stdDeviation="2.5" in="shadowOffsetOuter1" result="shadowBlurOuter1"></feGaussianBlur>
            <feComposite in="shadowBlurOuter1" in2="SourceAlpha" operator="out" result="shadowBlurOuter1"></feComposite>
            <feColorMatrix values="0 0 0 0 0   0 0 0 0 0   0 0 0 0 0  0 0 0 0.153277853 0" type="matrix" in="shadowBlurOuter1"></feColorMatrix>
        </filter>
        <path d="M5.60250002,16.11 C3.15000001,14.955 1.39500001,12.57 1.125,9.74999997 L6.21724894e-14,9.74999997 C0.382500002,14.37 4.24500002,18 8.96250004,18 L9.45750004,17.9775 L6.60000003,15.12 L5.60250002,16.11 L5.60250002,16.11 Z M6.27000003,11.22 C6.12750003,11.22 5.99250002,11.1975 5.88000002,11.16 C5.76000002,11.115 5.66250002,11.0625 5.58000002,10.98 C5.49750002,10.905 5.43000002,10.815 5.38500002,10.7025 C5.34000002,10.5975 5.31750002,10.4775 5.31750002,10.35 L4.34250002,10.35 C4.34250002,10.62 4.39500002,10.86 4.50000002,11.0625 C4.60500002,11.265 4.74750002,11.4375 4.92000002,11.58 C5.10000002,11.715 5.30250002,11.82 5.53500002,11.8875 C5.76000002,11.9625 6.00000003,12 6.25500003,12 C6.53250003,12 6.79500003,11.9625 7.02750003,11.8875 C7.26750003,11.8125 7.47750003,11.7 7.65000003,11.5575 C7.82250003,11.415 7.96500003,11.235 8.06250003,11.0175 C8.16000003,10.8 8.21250003,10.56 8.21250003,10.29 C8.21250003,10.1475 8.19750003,10.005 8.16000003,9.86999997 C8.12250003,9.73499997 8.07000003,9.60749997 7.98750003,9.48749996 C7.91250003,9.36749996 7.80750003,9.26249996 7.68750003,9.16499996 C7.56000003,9.06749996 7.41000003,8.99249996 7.23000003,8.93249996 C7.38000003,8.86499996 7.50750003,8.78249996 7.62000003,8.68499996 C7.73250003,8.58749996 7.82250003,8.48249996 7.89750003,8.36999996 C7.97250003,8.25749996 8.02500003,8.14499996 8.06250003,8.02499996 C8.10000003,7.90499996 8.11500003,7.78499996 8.11500003,7.66499996 C8.11500003,7.39499996 8.07000003,7.15499995 7.98000003,6.94499995 C7.89000003,6.73499995 7.76250003,6.56249995 7.59750003,6.42749995 C7.44750003,6.28499995 7.24500003,6.17999995 7.02000003,6.10499995 C6.78750003,6.03749995 6.53250003,5.99999995 6.25500003,5.99999995 C5.98500002,5.99999995 5.73750002,6.03749995 5.50500002,6.11999995 C5.28000002,6.20249995 5.07750002,6.31499995 4.91250002,6.45749995 C4.75500002,6.59999995 4.62750002,6.76499995 4.53000002,6.95999995 C4.44000002,7.15499995 4.39500002,7.36499996 4.39500002,7.59749996 L5.37000002,7.59749996 C5.37000002,7.46999996 5.39250002,7.35749996 5.43750002,7.25999996 C5.48250002,7.16249995 5.54250002,7.07249995 5.62500002,7.00499995 C5.70750002,6.93749995 5.79750002,6.87749995 5.91000002,6.83999995 C6.02250003,6.80249995 6.13500003,6.77999995 6.27000003,6.77999995 C6.57000003,6.77999995 6.79500003,6.85499995 6.93750003,7.01249995 C7.08000003,7.16249995 7.15500003,7.37999996 7.15500003,7.65749996 C7.15500003,7.79249996 7.13250003,7.91249996 7.09500003,8.02499996 C7.05750003,8.13749996 6.99000003,8.22749996 6.90750003,8.30249996 C6.82500003,8.37749996 6.72000003,8.43749996 6.60000003,8.48249996 C6.48000003,8.52749996 6.33000003,8.54999996 6.16500003,8.54999996 L5.58750002,8.54999996 L5.58750002,9.32249996 L6.16500003,9.32249996 C6.33000003,9.32249996 6.48000003,9.33749996 6.61500003,9.37499996 C6.75000003,9.41249996 6.86250003,9.47249996 6.95250003,9.54749996 C7.04250003,9.62999997 7.11750003,9.72749997 7.17000003,9.84749997 C7.22250003,9.96749997 7.24500003,10.11 7.24500003,10.275 C7.24500003,10.5825 7.15500003,10.815 6.98250003,10.9725 C6.81000003,11.145 6.57000003,11.22 6.27000003,11.22 L6.27000003,11.22 Z M12.6825001,6.77999995 C12.4425001,6.53249995 12.1575001,6.33749995 11.8275,6.20249995 C11.505,6.06749995 11.1375,5.99999995 10.7325,5.99999995 L8.96250004,5.99999995 L8.96250004,12 L10.6875,12 C11.1,12 11.4825,11.9325 11.82,11.7975 C12.1575001,11.6625 12.4500001,11.475 12.6900001,11.2275 C12.9300001,10.98 13.1175001,10.68 13.2450001,10.335 C13.3725001,9.98249997 13.4400001,9.59249996 13.4400001,9.15749996 L13.4400001,8.85749996 C13.4400001,8.42249996 13.3725001,8.03249996 13.2450001,7.67999996 C13.1100001,7.32749996 12.9225001,7.02749995 12.6825001,6.77999995 L12.6825001,6.77999995 Z M12.3900001,9.14999996 C12.3900001,9.46499996 12.3525001,9.74249997 12.2850001,9.99749997 C12.2100001,10.245 12.1050001,10.4625 11.9625,10.635 C11.82,10.8075 11.64,10.9425 11.43,11.0325 C11.2125,11.1225 10.965,11.1675 10.6875,11.1675 L10.005,11.1675 L10.005,6.83999995 L10.7325,6.83999995 C11.2725,6.83999995 11.685,7.01249995 11.9625,7.35749996 C12.2475001,7.70249996 12.3900001,8.19749996 12.3900001,8.84999996 L12.3900001,9.14999996 L12.3900001,9.14999996 Z M8.96250004,-7.49999876e-08 L8.46750004,0.0224999251 L11.325,2.87999994 L12.3225001,1.88249993 C14.7750001,3.04499994 16.5300001,5.42249995 16.7925001,8.24249996 L17.9175001,8.24249996 C17.5425001,3.62999994 13.6800001,-7.49999876e-08 8.96250004,-7.49999876e-08 L8.96250004,-7.49999876e-08 Z" id="path-3"></path>
        <filter x="-47.4%" y="-36.0%" width="194.9%" height="194.2%" filterUnits="objectBoundingBox" id="filter-5">
            <feOffset dx="0" dy="2" in="SourceAlpha" result="shadowOffsetOuter1"></feOffset>
            <feGaussianBlur stdDeviation="2.5" in="shadowOffsetOuter1" result="shadowBlurOuter1"></feGaussianBlur>
            <feColorMatrix values="0 0 0 0 0   0 0 0 0 0   0 0 0 0 0  0 0 0 0.05 0" type="matrix" in="shadowBlurOuter1"></feColorMatrix>
        </filter>
    </defs>
    <g id="map-pin-selected" stroke="none" stroke-width="1" fill="none" fill-rule="evenodd">
        <g id="Group-11">
            <g id="Oval">
                <use fill="black" fill-opacity="1" filter="url(#filter-2)" xlink:href="#path-1"></use>
                <circle stroke="#FFFFFF" stroke-width="2" stroke-linejoin="square" fill="#FF2626" fill-rule="evenodd" cx="19" cy="19" r="18"></circle>
            </g>
            <g id="icons/3d" transform="translate(10.000000, 10.000000)">
                <mask id="mask-4" fill="white">
                    <use xlink:href="#path-3"></use>
                </mask>
                <g id="Icon">
                    <use fill="black" fill-opacity="1" filter="url(#filter-5)" xlink:href="#path-3"></use>
                    <use fill="#FFFFFF" fill-rule="evenodd" xlink:href="#path-3"></use>
                </g>
            </g>
        </g>
    </g>
</svg>