<?xml version="1.0" encoding="UTF-8"?>
<svg width="56px" height="56px" viewBox="0 0 56 56" version="1.1" xmlns="http://www.w3.org/2000/svg" xmlns:xlink="http://www.w3.org/1999/xlink">
    <!-- Generator: sketchtool 53.2 (72643) - https://sketchapp.com -->
    <title>679F055E-FDB7-4736-9BB0-1D29A57E47B8</title>
    <desc>Created with sketchtool.</desc>
    <defs>
        <path d="M10.89375,31.325 C6.12500003,29.0791666 2.71250001,24.4416666 2.18750001,18.9583333 L6.21724894e-14,18.9583333 C0.743750003,27.9416666 8.2541667,35 17.4270834,35 L18.3895834,34.95625 L12.8333334,29.4 L10.89375,31.325 L10.89375,31.325 Z M12.1916667,21.8166666 C11.9145834,21.8166666 11.6520834,21.7729166 11.4333334,21.6999999 C11.2,21.6124999 11.0104167,21.5104166 10.85,21.3499999 C10.6895834,21.2041666 10.5583334,21.0291666 10.4708334,20.8104166 C10.3833334,20.6062499 10.3395834,20.3729166 10.3395834,20.1249999 L8.44375004,20.1249999 C8.44375004,20.6499999 8.54583337,21.1166666 8.75000004,21.5104166 C8.9541667,21.9041666 9.23125004,22.2395833 9.56666671,22.5166666 C9.91666671,22.7791666 10.3104167,22.9833333 10.7625,23.1145833 C11.2,23.2604166 11.6666667,23.3333333 12.1625001,23.3333333 C12.7020834,23.3333333 13.2125001,23.2604166 13.6645834,23.1145833 C14.1312501,22.9687499 14.5395834,22.7499999 14.8750001,22.4729166 C15.2104167,22.1958333 15.4875001,21.8458333 15.6770834,21.4229166 C15.8666667,20.9999999 15.9687501,20.5333333 15.9687501,20.0083333 C15.9687501,19.7312499 15.9395834,19.4541666 15.8666667,19.1916666 C15.7937501,18.9291666 15.6916667,18.6812499 15.5312501,18.4479166 C15.3854167,18.2145833 15.1812501,18.0104166 14.9479167,17.8208333 C14.7000001,17.6312499 14.4083334,17.4854166 14.0583334,17.3687499 C14.3500001,17.2374999 14.5979167,17.0770833 14.8166667,16.8874999 C15.0354167,16.6979166 15.2104167,16.4937499 15.3562501,16.2749999 C15.5020834,16.0562499 15.6041667,15.8374999 15.6770834,15.6041666 C15.7500001,15.3708333 15.7791667,15.1374999 15.7791667,14.9041666 C15.7791667,14.3791666 15.6916667,13.9124999 15.5166667,13.5041666 C15.3416667,13.0958332 15.0937501,12.7604166 14.7729167,12.4979166 C14.4812501,12.2208332 14.0875001,12.0166666 13.6500001,11.8708332 C13.1979167,11.7395832 12.7020834,11.6666666 12.1625001,11.6666666 C11.6375,11.6666666 11.15625,11.7395832 10.7041667,11.8999999 C10.2666667,12.0604166 9.87291671,12.2791666 9.55208337,12.5562499 C9.24583337,12.8333332 8.9979167,13.1541666 8.80833337,13.5333332 C8.63333337,13.9124999 8.54583337,14.3208332 8.54583337,14.7729166 L10.4416667,14.7729166 C10.4416667,14.5249999 10.4854167,14.3062499 10.5729167,14.1166666 C10.6604167,13.9270832 10.7770834,13.7520832 10.9375,13.6208332 C11.0979167,13.4895832 11.2729167,13.3729166 11.4916667,13.2999999 C11.7104167,13.2270832 11.9291667,13.1833332 12.1916667,13.1833332 C12.7750001,13.1833332 13.2125001,13.3291666 13.4895834,13.6354166 C13.7666667,13.9270832 13.9125001,14.3499999 13.9125001,14.8895832 C13.9125001,15.1520833 13.8687501,15.3854166 13.7958334,15.6041666 C13.7229167,15.8229166 13.5916667,15.9979166 13.4312501,16.1437499 C13.2708334,16.2895833 13.0666667,16.4062499 12.8333334,16.4937499 C12.6000001,16.5812499 12.3083334,16.6249999 11.9875,16.6249999 L10.8645834,16.6249999 L10.8645834,18.1270833 L11.9875,18.1270833 C12.3083334,18.1270833 12.6000001,18.1562499 12.8625001,18.2291666 C13.1250001,18.3020833 13.3437501,18.4187499 13.5187501,18.5645833 C13.6937501,18.7249999 13.8395834,18.9145833 13.9416667,19.1479166 C14.0437501,19.3812499 14.0875001,19.6583333 14.0875001,19.9791666 C14.0875001,20.5770833 13.9125001,21.0291666 13.5770834,21.3354166 C13.2416667,21.6708333 12.7750001,21.8166666 12.1916667,21.8166666 L12.1916667,21.8166666 Z M24.6604168,13.1833332 C24.1937501,12.7020832 23.6395834,12.3229166 22.9979168,12.0604166 C22.3708334,11.7979166 21.6562501,11.6666666 20.8687501,11.6666666 L17.4270834,11.6666666 L17.4270834,23.3333333 L20.7812501,23.3333333 C21.5833334,23.3333333 22.3270834,23.2020833 22.9833334,22.9395833 C23.6395834,22.6770833 24.2083334,22.3124999 24.6750001,21.8312499 C25.1416668,21.3499999 25.5062501,20.7666666 25.7541668,20.0958333 C26.0020834,19.4104166 26.1333334,18.6520833 26.1333334,17.8062499 L26.1333334,17.2229166 C26.1333334,16.3770833 26.0020834,15.6187499 25.7541668,14.9333332 C25.4916668,14.2479166 25.1270834,13.6645832 24.6604168,13.1833332 L24.6604168,13.1833332 Z M24.0916668,17.7916666 C24.0916668,18.4041666 24.0187501,18.9437499 23.8875001,19.4395833 C23.7416668,19.9208333 23.5375001,20.3437499 23.2604168,20.6791666 C22.9833334,21.0145833 22.6333334,21.2770833 22.2250001,21.4520833 C21.8020834,21.6270833 21.3208334,21.7145833 20.7812501,21.7145833 L19.4541667,21.7145833 L19.4541667,13.2999999 L20.8687501,13.2999999 C21.9187501,13.2999999 22.7208334,13.6354166 23.2604168,14.3062499 C23.8145834,14.9770832 24.0916668,15.9395833 24.0916668,17.2083333 L24.0916668,17.7916666 L24.0916668,17.7916666 Z M17.4270834,-1.45833309e-07 L16.4645834,0.0437498543 L22.0208334,5.59999988 L23.9604168,3.66041654 C28.7291668,5.92083321 32.1416668,10.5437499 32.6520835,16.0270833 L34.8395835,16.0270833 C34.1104168,7.05833322 26.6000001,-1.45833309e-07 17.4270834,-1.45833309e-07 L17.4270834,-1.45833309e-07 Z" id="path-1"></path>
    </defs>
    <g id="Desktop" stroke="none" stroke-width="1" fill="none" fill-rule="evenodd">
        <g id="Desktop/pcard-kitchen-photo" transform="translate(-384.000000, -3370.000000)">
            <g id="MAP" transform="translate(60.000000, 3160.000000)">
                <g id="map-pin-3d" transform="translate(324.000000, 210.000000)">
                    <g id="Group-11">
                        <circle id="Oval" stroke="#FF2626" stroke-width="2" fill="#FFFFFF" cx="28" cy="28" r="27"></circle>
                        <g id="icons/3d" transform="translate(10.315789, 10.315789)">
                            <mask id="mask-2" fill="white">
                                <use xlink:href="#path-1"></use>
                            </mask>
                            <use id="Icon" fill="#FF2626" fill-rule="evenodd" xlink:href="#path-1"></use>
                        </g>
                    </g>
                </g>
            </g>
        </g>
    </g>
</svg>