<svg xmlns="http://www.w3.org/2000/svg" xmlns:xlink="http://www.w3.org/1999/xlink" width="38" height="38" viewBox="0 0 38 38">
  <defs>
    <polygon id="map-pin-a" points="0 0 18.304 0 18.304 13.052 0 13.052"/>
  </defs>
  <g fill="none" fill-rule="evenodd">
    <circle cx="19" cy="19" r="18" fill="#FFF" stroke="#FF2626" stroke-width="2"/>
    <g transform="translate(10 12)">
      <mask id="map-pin-b" fill="#fff">
        <use xlink:href="#map-pin-a"/>
      </mask>
      <path fill="#FD2624" d="M18.3039,11.7519 C18.3039,12.1159 18.1739,12.4189 17.9139,12.6619 C17.6539,12.9219 17.3509,13.0519 17.0039,13.0519 C16.6569,13.0519 16.3539,12.9219 16.0939,12.6619 C15.8509,12.4189 15.7299,12.1159 15.7299,11.7519 L15.7299,5.1999 C15.7299,4.4709 15.4699,3.8469 14.9499,3.3279 C14.3949,2.8249 13.7709,2.5739 13.0779,2.5739 C12.3849,2.5739 11.7609,2.8249 11.2059,3.3279 C10.6859,3.8479 10.4259,4.4719 10.4259,5.1999 L10.4259,11.7519 C10.4259,12.1159 10.3039,12.4189 10.0619,12.6619 C9.8019,12.9219 9.4989,13.0519 9.1519,13.0519 C8.8049,13.0519 8.5019,12.9219 8.2419,12.6619 C7.9819,12.4189 7.8519,12.1159 7.8519,11.7519 L7.8519,5.1999 C7.8519,4.5069 7.6009,3.8829 7.0979,3.3279 C6.5429,2.8249 5.9189,2.5739 5.2259,2.5739 C4.5319,2.5739 3.9079,2.8249 3.3539,3.3279 C2.8339,3.8479 2.5739,4.4719 2.5739,5.1999 L2.5739,11.7519 C2.5739,12.1159 2.4519,12.4189 2.2099,12.6619 C1.9499,12.9219 1.6469,13.0519 1.2999,13.0519 C0.9359,13.0519 0.6329,12.9219 0.3899,12.6619 C0.1299,12.4189 -0.0001,12.1159 -0.0001,11.7519 L-0.0001,5.1999 C-0.0001,3.7779 0.5109,2.5569 1.5339,1.5339 C2.5559,0.5109 3.7869,-0.0001 5.2259,-0.0001 C6.8379,-0.0001 8.1459,0.5979 9.1519,1.7939 C10.1739,0.5979 11.4829,-0.0001 13.0779,-0.0001 C14.5169,-0.0001 15.7469,0.5109 16.7699,1.5339 C17.7919,2.5569 18.3039,3.7779 18.3039,5.1999 C18.3039,5.2519 18.2949,5.2869 18.2779,5.3039 C18.2949,5.3219 18.3039,5.3649 18.3039,5.4339 L18.3039,11.7519 Z" mask="url(#map-pin-b)"/>
    </g>
  </g>
</svg>
