<?xml version="1.0" encoding="UTF-8"?>
<svg width="66px" height="66px" viewBox="0 0 66 66" version="1.1" xmlns="http://www.w3.org/2000/svg" xmlns:xlink="http://www.w3.org/1999/xlink">
    <!-- Generator: sketchtool 53.2 (72643) - https://sketchapp.com -->
    <title>3810DB8B-3C76-4157-8A46-B7983E12530D</title>
    <desc>Created with sketchtool.</desc>
    <defs>
        <circle id="path-1" cx="28" cy="28" r="28"></circle>
        <filter x="-15.2%" y="-11.6%" width="130.4%" height="130.4%" filterUnits="objectBoundingBox" id="filter-2">
            <feOffset dx="0" dy="2" in="SourceAlpha" result="shadowOffsetOuter1"></feOffset>
            <feGaussianBlur stdDeviation="2.5" in="shadowOffsetOuter1" result="shadowBlurOuter1"></feGaussianBlur>
            <feComposite in="shadowBlurOuter1" in2="SourceAlpha" operator="out" result="shadowBlurOuter1"></feComposite>
            <feColorMatrix values="0 0 0 0 0   0 0 0 0 0   0 0 0 0 0  0 0 0 0.153277853 0" type="matrix" in="shadowBlurOuter1"></feColorMatrix>
        </filter>
        <path d="M8.40375004,24.165 C4.72500002,22.4325 2.09250001,18.855 1.68750001,14.6249999 L6.21724894e-14,14.6249999 C0.573750002,21.555 6.36750003,27 13.4437501,27 L14.1862501,26.96625 L9.90000004,22.68 L8.40375004,24.165 L8.40375004,24.165 Z M9.40500004,16.83 C9.19125004,16.83 8.98875004,16.79625 8.82000004,16.74 C8.64000004,16.6725 8.49375004,16.59375 8.37000003,16.47 C8.24625003,16.3575 8.14500003,16.2225 8.07750003,16.05375 C8.01000003,15.89625 7.97625003,15.71625 7.97625003,15.525 L6.51375003,15.525 C6.51375003,15.93 6.59250003,16.29 6.75000003,16.59375 C6.90750003,16.8975 7.12125003,17.15625 7.38000003,17.37 C7.65000003,17.5725 7.95375003,17.73 8.30250003,17.83125 C8.64000004,17.94375 9.00000004,18 9.38250004,18 C9.79875004,18 10.1925,17.94375 10.54125,17.83125 C10.90125,17.71875 11.21625,17.55 11.475,17.33625 C11.73375,17.1225 11.9475,16.8525 12.0937501,16.52625 C12.2400001,16.2 12.3187501,15.84 12.3187501,15.435 C12.3187501,15.22125 12.2962501,15.0075 12.2400001,14.8049999 C12.1837501,14.6024999 12.1050001,14.4112499 11.98125,14.2312499 C11.86875,14.0512499 11.71125,13.8937499 11.53125,13.7474999 C11.34,13.6012499 11.115,13.4887499 10.845,13.3987499 C11.07,13.2974999 11.26125,13.1737499 11.43,13.0274999 C11.59875,12.8812499 11.73375,12.7237499 11.84625,12.5549999 C11.95875,12.3862499 12.0375001,12.2174999 12.0937501,12.0374999 C12.1500001,11.8574999 12.1725001,11.6774999 12.1725001,11.4974999 C12.1725001,11.0924999 12.1050001,10.7324999 11.97,10.4174999 C11.835,10.1024999 11.64375,9.84374993 11.39625,9.64124993 C11.17125,9.42749993 10.8675,9.26999993 10.53,9.15749993 C10.18125,9.05624993 9.79875004,8.99999993 9.38250004,8.99999993 C8.97750004,8.99999993 8.60625004,9.05624993 8.25750003,9.17999993 C7.92000003,9.30374993 7.61625003,9.47249993 7.36875003,9.68624993 C7.13250003,9.89999993 6.94125003,10.1474999 6.79500003,10.4399999 C6.66000003,10.7324999 6.59250003,11.0474999 6.59250003,11.3962499 L8.05500003,11.3962499 C8.05500003,11.2049999 8.08875003,11.0362499 8.15625003,10.8899999 C8.22375003,10.7437499 8.31375003,10.6087499 8.43750004,10.5074999 C8.56125004,10.4062499 8.69625004,10.3162499 8.86500004,10.2599999 C9.03375004,10.2037499 9.20250004,10.1699999 9.40500004,10.1699999 C9.85500004,10.1699999 10.1925,10.2824999 10.40625,10.5187499 C10.62,10.7437499 10.7325,11.0699999 10.7325,11.4862499 C10.7325,11.6887499 10.69875,11.8687499 10.6425,12.0374999 C10.58625,12.2062499 10.485,12.3412499 10.36125,12.4537499 C10.2375,12.5662499 10.08,12.6562499 9.90000004,12.7237499 C9.72000004,12.7912499 9.49500004,12.8249999 9.24750004,12.8249999 L8.38125003,12.8249999 L8.38125003,13.9837499 L9.24750004,13.9837499 C9.49500004,13.9837499 9.72000004,14.0062499 9.92250004,14.0624999 C10.125,14.1187499 10.29375,14.2087499 10.42875,14.3212499 C10.56375,14.4449999 10.67625,14.5912499 10.755,14.7712499 C10.83375,14.9512499 10.8675,15.165 10.8675,15.4125 C10.8675,15.87375 10.7325,16.2225 10.47375,16.45875 C10.215,16.7175 9.85500004,16.83 9.40500004,16.83 L9.40500004,16.83 Z M19.0237501,10.1699999 C18.6637501,9.79874993 18.2362501,9.50624993 17.7412501,9.30374993 C17.2575001,9.10124993 16.7062501,8.99999993 16.0987501,8.99999993 L13.4437501,8.99999993 L13.4437501,18 L16.0312501,18 C16.6500001,18 17.2237501,17.89875 17.7300001,17.69625 C18.2362501,17.49375 18.6750001,17.2125 19.0350001,16.84125 C19.3950001,16.47 19.6762501,16.02 19.8675001,15.5025 C20.0587501,14.9737499 20.1600001,14.3887499 20.1600001,13.7362499 L20.1600001,13.2862499 C20.1600001,12.6337499 20.0587501,12.0487499 19.8675001,11.5199999 C19.6650001,10.9912499 19.3837501,10.5412499 19.0237501,10.1699999 L19.0237501,10.1699999 Z M18.5850001,13.7249999 C18.5850001,14.1974999 18.5287501,14.6137499 18.4275001,14.9962499 C18.3150001,15.3675 18.1575001,15.69375 17.9437501,15.9525 C17.7300001,16.21125 17.4600001,16.41375 17.1450001,16.54875 C16.8187501,16.68375 16.4475001,16.75125 16.0312501,16.75125 L15.0075001,16.75125 L15.0075001,10.2599999 L16.0987501,10.2599999 C16.9087501,10.2599999 17.5275001,10.5187499 17.9437501,11.0362499 C18.3712501,11.5537499 18.5850001,12.2962499 18.5850001,13.2749999 L18.5850001,13.7249999 L18.5850001,13.7249999 Z M13.4437501,-1.12499981e-07 L12.7012501,0.0337498876 L16.9875001,4.31999991 L18.4837501,2.8237499 C22.1625001,4.56749991 24.7950001,8.13374992 25.1887501,12.3637499 L26.8762501,12.3637499 C26.3137501,5.44499991 20.5200001,-1.12499981e-07 13.4437501,-1.12499981e-07 L13.4437501,-1.12499981e-07 Z" id="path-3"></path>
        <filter x="-31.6%" y="-24.1%" width="163.3%" height="163.0%" filterUnits="objectBoundingBox" id="filter-5">
            <feOffset dx="0" dy="2" in="SourceAlpha" result="shadowOffsetOuter1"></feOffset>
            <feGaussianBlur stdDeviation="2.5" in="shadowOffsetOuter1" result="shadowBlurOuter1"></feGaussianBlur>
            <feColorMatrix values="0 0 0 0 0   0 0 0 0 0   0 0 0 0 0  0 0 0 0.05 0" type="matrix" in="shadowBlurOuter1"></feColorMatrix>
        </filter>
    </defs>
    <g id="Desktop" stroke="none" stroke-width="1" fill="none" fill-rule="evenodd">
        <g id="Desktop/sale-page-map" transform="translate(-595.000000, -494.000000)">
            <g id="map" transform="translate(0.000000, 113.000000)">
                <g id="map-pin-selected" transform="translate(600.000000, 384.000000)">
                    <g id="Group-11">
                        <g id="Oval">
                            <use fill="black" fill-opacity="1" filter="url(#filter-2)" xlink:href="#path-1"></use>
                            <circle stroke="#FFFFFF" stroke-width="2" stroke-linejoin="square" fill="#FF2626" fill-rule="evenodd" cx="28" cy="28" r="27"></circle>
                        </g>
                        <g id="icons/3d" transform="translate(14.736842, 14.736842)">
                            <mask id="mask-4" fill="white">
                                <use xlink:href="#path-3"></use>
                            </mask>
                            <g id="Icon">
                                <use fill="black" fill-opacity="1" filter="url(#filter-5)" xlink:href="#path-3"></use>
                                <use fill="#FFFFFF" fill-rule="evenodd" xlink:href="#path-3"></use>
                            </g>
                        </g>
                    </g>
                </g>
            </g>
        </g>
    </g>
</svg>