<svg xmlns="http://www.w3.org/2000/svg" viewBox="0 0 94.98 19.58"><defs><style>.cls-1{fill:#fd2624;}.cls-2{fill:#1a1a1a;}</style></defs><title>mebel logo</title><g id="Слой_2" data-name="Слой 2"><g id="Слой_1-2" data-name="Слой 1"><path class="cls-1" d="M18.3,18.28a1.21,1.21,0,0,1-.39.91,1.24,1.24,0,0,1-.91.39,1.28,1.28,0,0,1-1.27-1.3V11.73A2.57,2.57,0,0,0,15,9.85a2.74,2.74,0,0,0-1.87-.75,2.7,2.7,0,0,0-1.87.75,2.57,2.57,0,0,0-.78,1.88v6.55a1.27,1.27,0,0,1-.37.91,1.26,1.26,0,0,1-1.82,0,1.21,1.21,0,0,1-.39-.91V11.73A2.74,2.74,0,0,0,7.1,9.85a2.72,2.72,0,0,0-3.75,0,2.57,2.57,0,0,0-.78,1.88v6.55a1.26,1.26,0,0,1-.36.91,1.24,1.24,0,0,1-.91.39,1.2,1.2,0,0,1-.91-.39A1.21,1.21,0,0,1,0,18.28V11.73A5,5,0,0,1,1.53,8.06a5.07,5.07,0,0,1,3.7-1.53A4.85,4.85,0,0,1,9.15,8.32a4.91,4.91,0,0,1,3.93-1.79,5,5,0,0,1,3.69,1.53,5,5,0,0,1,1.53,3.67.22.22,0,0,1,0,.1s0,.06,0,.13Z"/><path class="cls-1" d="M23.06,14.27A4,4,0,0,0,26.81,17a3.31,3.31,0,0,0,.52,0l.2,0,.21,0,.16,0,.13,0a5.61,5.61,0,0,0,1.69-.72,1,1,0,0,1,1-.08,1.25,1.25,0,0,1,.75.67c.32.65.11,1.22-.62,1.72a9,9,0,0,1-2.29,1l-.18,0-.21,0-.26,0-.28,0-.39,0h-.39a6.31,6.31,0,0,1-4.63-1.93,6.24,6.24,0,0,1-1.9-4.6,6.49,6.49,0,0,1,6.53-6.53,6.33,6.33,0,0,1,4.44,1.67A6.23,6.23,0,0,1,33.33,13a1.44,1.44,0,0,1-.36.91,1.48,1.48,0,0,1-.94.36Zm7.52-2.57a3.47,3.47,0,0,0-1.51-2,3.9,3.9,0,0,0-2.26-.65,4,4,0,0,0-3.75,2.65Z"/><path class="cls-1" d="M35.31,1.27A1.26,1.26,0,0,1,35.7.36,1.23,1.23,0,0,1,36.61,0a1.44,1.44,0,0,1,.91.36,1.44,1.44,0,0,1,.36.91V7.75a6.4,6.4,0,0,1,3.95-1.33A6.49,6.49,0,0,1,48.36,13a6.24,6.24,0,0,1-1.9,4.6,6.48,6.48,0,0,1-9.23,0A6.29,6.29,0,0,1,35.31,13ZM37.88,13a3.74,3.74,0,0,0,1.17,2.78,3.74,3.74,0,0,0,2.78,1.17,3.82,3.82,0,0,0,2.81-1.17A3.94,3.94,0,0,0,41.83,9a3.94,3.94,0,0,0-3.95,3.92Z"/><path class="cls-1" d="M53,14.27A4,4,0,0,0,56.78,17a3.2,3.2,0,0,0,.52,0l.21,0,.21,0,.16,0,.13,0a5.72,5.72,0,0,0,1.69-.72,1,1,0,0,1,1-.08,1.28,1.28,0,0,1,.75.67c.31.65.11,1.22-.62,1.72a9,9,0,0,1-2.29,1l-.18,0-.21,0-.26,0-.29,0-.39,0h-.39a6.31,6.31,0,0,1-4.62-1.93,6.24,6.24,0,0,1-1.9-4.6,6.59,6.59,0,0,1,11-4.86A6.23,6.23,0,0,1,63.31,13a1.44,1.44,0,0,1-.36.91,1.48,1.48,0,0,1-.94.36Zm7.51-2.57a3.46,3.46,0,0,0-1.5-2,4,4,0,0,0-6,2Z"/><path class="cls-1" d="M65.29,1.33a1.24,1.24,0,0,1,.39-.91,1.2,1.2,0,0,1,.91-.37,1.41,1.41,0,0,1,.91.37,1.4,1.4,0,0,1,.36.91V18.25a1.23,1.23,0,0,1-.36.91,1.26,1.26,0,0,1-.91.39,1.33,1.33,0,0,1-1.3-1.3Z"/><path class="cls-2" d="M71.84,19.53a1.3,1.3,0,0,1-1.27-1.3A1.25,1.25,0,0,1,71.84,17a1.2,1.2,0,0,1,.91.37,1.24,1.24,0,0,1,.39.91,1.17,1.17,0,0,1-.39.9A1.11,1.11,0,0,1,71.84,19.53Z"/><path class="cls-2" d="M78.29,18.25a1.42,1.42,0,0,1-.36.91,1.27,1.27,0,0,1-.91.39,1.18,1.18,0,0,1-.91-.39,1.25,1.25,0,0,1-.4-.91V13A6.31,6.31,0,0,1,77.64,8.4a6.24,6.24,0,0,1,4.6-1.9,1.48,1.48,0,0,1,.94.36,1.44,1.44,0,0,1,.36.91,1.4,1.4,0,0,1-.36.91,1.28,1.28,0,0,1-.94.39,4,4,0,0,0-3.95,4v5.22Z"/><path class="cls-2" d="M95,14.33A5.18,5.18,0,0,1,93.42,18,5.25,5.25,0,0,1,86,18a5.18,5.18,0,0,1-1.56-3.69V7.77a1.44,1.44,0,0,1,.36-.91,1.44,1.44,0,0,1,.91-.36,1.48,1.48,0,0,1,.94.36,1.44,1.44,0,0,1,.36.91v6.5a2.58,2.58,0,0,0,.78,1.9,2.55,2.55,0,0,0,1.9.81,2.59,2.59,0,0,0,1.92-.81,2.54,2.54,0,0,0,.78-1.9V7.77A1.28,1.28,0,0,1,93.7,6.5a1.4,1.4,0,0,1,.91.36,1.41,1.41,0,0,1,.37.91v6.56Z"/></g></g></svg>