<?xml version="1.0" encoding="utf-8"?>
<svg width="29px" height="29px" viewBox="0 0 29 29" version="1.1" xmlns:xlink="http://www.w3.org/1999/xlink" xmlns="http://www.w3.org/2000/svg">
  <desc>Created with Lunacy</desc>
  <path d="M10 20C15.5228 20 20 15.5228 20 10C20 4.47715 15.5228 0 10 0C4.47715 0 0 4.47715 0 10C0 15.5228 4.47715 20 10 20Z" transform="translate(0.2832031 8.392578)" id="Oval-2" fill="#F2F249" stroke="none" />
  <path d="M10.7505 9.24951L10.7505 0.498512Q10.7505 0.449364 10.7409 0.401162Q10.7313 0.352959 10.7125 0.307553Q10.6937 0.262147 10.6664 0.221282Q10.6391 0.180418 10.6043 0.145665Q10.5696 0.110913 10.5287 0.0836084Q10.4879 0.0563036 10.4424 0.0374958Q10.397 0.018688 10.3488 0.00909983Q10.3006 -0.000488319 10.2515 -0.000488323L9.74949 -0.000488366Q9.65023 -0.000488374 9.55853 0.0374958Q9.46683 0.07548 9.39664 0.145666Q9.32646 0.215851 9.28847 0.307553Q9.25049 0.399254 9.25049 0.498512L9.25049 9.24951L0.499488 9.24951Q0.450341 9.24951 0.402138 9.2591Q0.353935 9.26869 0.308529 9.28749Q0.263123 9.3063 0.222259 9.33361Q0.181394 9.36091 0.146642 9.39567Q0.11189 9.43042 0.0845849 9.47128Q0.0572802 9.51215 0.0384724 9.55755Q0.0196646 9.60296 0.0100764 9.65116Q0.000488281 9.69936 0.000488281 9.74851L0.000488281 10.2505Q0.000488281 10.2997 0.0100764 10.3479Q0.0196646 10.3961 0.0384724 10.4415Q0.0572802 10.4869 0.0845849 10.5277Q0.11189 10.5686 0.146642 10.6034Q0.181394 10.6381 0.222259 10.6654Q0.263123 10.6927 0.308529 10.7115Q0.353935 10.7303 0.402138 10.7399Q0.450341 10.7495 0.499488 10.7495L9.25049 10.7495L9.25049 19.5005Q9.25049 19.5497 9.26007 19.5979Q9.26966 19.6461 9.28847 19.6915Q9.30728 19.7369 9.33458 19.7777Q9.36189 19.8186 9.39664 19.8534Q9.43139 19.8881 9.47226 19.9154Q9.51312 19.9427 9.55853 19.9615Q9.60393 19.9803 9.65214 19.9899Q9.70034 19.9995 9.74949 19.9995L10.2515 19.9995Q10.3006 19.9995 10.3488 19.9899Q10.397 19.9803 10.4424 19.9615Q10.4879 19.9427 10.5287 19.9154Q10.5696 19.8881 10.6043 19.8534Q10.6391 19.8186 10.6664 19.7777Q10.6937 19.7369 10.7125 19.6915Q10.7313 19.6461 10.7409 19.5979Q10.7505 19.5497 10.7505 19.5005L10.7505 10.7495L19.5015 10.7495Q19.5506 10.7495 19.5988 10.7399Q19.647 10.7303 19.6924 10.7115Q19.7379 10.6927 19.7787 10.6654Q19.8196 10.6381 19.8543 10.6034Q19.8891 10.5686 19.9164 10.5277Q19.9437 10.4869 19.9625 10.4415Q19.9813 10.3961 19.9909 10.3479Q20.0005 10.2997 20.0005 10.2505L20.0005 9.74851Q20.0005 9.69936 19.9909 9.65116Q19.9813 9.60296 19.9625 9.55755Q19.9437 9.51215 19.9164 9.47128Q19.8891 9.43042 19.8543 9.39567Q19.8196 9.36091 19.7787 9.33361Q19.7379 9.3063 19.6924 9.28749Q19.647 9.26869 19.5988 9.2591Q19.5506 9.24951 19.5015 9.24951L10.7505 9.24951Z" transform="matrix(0.7071068 0.7071068 -0.7071068 0.7071068 14.14209 0)" id="Combined-Shape" fill="#1A1A1A" fill-rule="evenodd" stroke="none" />
</svg>