<?xml version="1.0" encoding="utf-8"?>
<svg width="23px" height="23px" viewBox="0 0 23 23" version="1.1" xmlns:xlink="http://www.w3.org/1999/xlink" xmlns="http://www.w3.org/2000/svg">
  <desc>Created with Lunacy</desc>
  <g id="Group" transform="matrix(-1 0 0 1 22.62744 0)">
    <path d="M10 20C15.5228 20 20 15.5228 20 10C20 4.47715 15.5228 0 10 0C4.47715 0 0 4.47715 0 10C0 15.5228 4.47715 20 10 20Z" transform="translate(1.313477 1.313721)" id="Oval-2" fill="#F2F249" stroke="none" />
    <path d="M8.6 7.4L8.6 0.499Q8.6 0.449853 8.59041 0.40165Q8.58082 0.353447 8.56201 0.308041Q8.54321 0.262635 8.5159 0.22177Q8.4886 0.180906 8.45385 0.146154Q8.41909 0.111401 8.37823 0.0840967Q8.33737 0.0567919 8.29196 0.0379841Q8.24655 0.0191763 8.19835 0.00958814Q8.15015 0 8.101 0L7.899 0Q7.84985 0 7.80165 0.00958814Q7.75345 0.0191763 7.70804 0.0379841Q7.66263 0.0567919 7.62177 0.0840966Q7.5809 0.111401 7.54615 0.146154Q7.5114 0.180906 7.4841 0.22177Q7.45679 0.262635 7.43798 0.308041Q7.41918 0.353447 7.40959 0.40165Q7.4 0.449853 7.4 0.499L7.4 7.4L0.499 7.4Q0.449853 7.4 0.40165 7.40959Q0.353447 7.41918 0.308041 7.43798Q0.262635 7.45679 0.22177 7.4841Q0.180906 7.5114 0.146154 7.54615Q0.111401 7.5809 0.0840967 7.62177Q0.0567919 7.66263 0.0379841 7.70804Q0.0191763 7.75345 0.00958814 7.80165Q0 7.84985 0 7.899L0 8.101Q0 8.15015 0.00958814 8.19835Q0.0191763 8.24655 0.0379841 8.29196Q0.0567919 8.33736 0.0840967 8.37823Q0.111401 8.41909 0.146154 8.45385Q0.180906 8.4886 0.22177 8.5159Q0.262635 8.54321 0.308041 8.56201Q0.353447 8.58082 0.40165 8.59041Q0.449853 8.6 0.499 8.6L7.4 8.6L7.4 15.501Q7.4 15.5501 7.40959 15.5983Q7.41918 15.6466 7.43798 15.692Q7.45679 15.7374 7.4841 15.7782Q7.5114 15.8191 7.54615 15.8538Q7.5809 15.8886 7.62177 15.9159Q7.66263 15.9432 7.70804 15.962Q7.75345 15.9808 7.80165 15.9904Q7.84985 16 7.899 16L8.101 16Q8.15015 16 8.19835 15.9904Q8.24655 15.9808 8.29196 15.962Q8.33736 15.9432 8.37823 15.9159Q8.41909 15.8886 8.45385 15.8538Q8.4886 15.8191 8.5159 15.7782Q8.54321 15.7374 8.56201 15.692Q8.58082 15.6466 8.59041 15.5983Q8.6 15.5501 8.6 15.501L8.6 8.6L15.501 8.6Q15.5501 8.6 15.5983 8.59041Q15.6466 8.58082 15.692 8.56201Q15.7374 8.54321 15.7782 8.5159Q15.8191 8.4886 15.8538 8.45385Q15.8886 8.41909 15.9159 8.37823Q15.9432 8.33737 15.962 8.29196Q15.9808 8.24655 15.9904 8.19835Q16 8.15015 16 8.101L16 7.899Q16 7.84985 15.9904 7.80165Q15.9808 7.75345 15.962 7.70804Q15.9432 7.66263 15.9159 7.62177Q15.8886 7.5809 15.8538 7.54615Q15.8191 7.5114 15.7782 7.4841Q15.7374 7.45679 15.692 7.43798Q15.6466 7.41918 15.5983 7.40959Q15.5501 7.4 15.501 7.4L8.6 7.4Z" transform="matrix(0.7071068 0.7071068 -0.7071068 0.7071068 11.31348 0)" id="Combined-Shape" fill="#1A1A1A" fill-rule="evenodd" stroke="none" />
  </g>
</svg>