<?xml version="1.0" encoding="utf-8"?>
<svg width="21px" height="21px" viewBox="0 0 21 21" version="1.1" xmlns:xlink="http://www.w3.org/1999/xlink" xmlns="http://www.w3.org/2000/svg">
  <desc>Created with Lunacy</desc>
  <path d="M6 2C6 3.10457 5.10457 4 4 4C2.89543 4 2 3.10457 2 2C2 0.895431 2.89543 0 4 0C5.10457 0 6 0.895431 6 2ZM8 7C8 8.10457 8.89543 9 10 9C11.1046 9 12 8.10457 12 7C12 5.89543 11.1046 5 10 5C8.89543 5 8 5.89543 8 7ZM4 14C5.10457 14 6 13.1046 6 12C6 10.8954 5.10457 10 4 10C2.89543 10 2 10.8954 2 12C2 13.1046 2.89543 14 4 14ZM6 2L14 2M0 2L2 2M6 12L14 12M0 12L2 12M14 7L12 7M8 7L0 7" transform="translate(3.319824 3.320007)" id="Combined-Shape" fill="none" fill-rule="evenodd" stroke="#FF2626" stroke-width="2" stroke-linecap="round" stroke-linejoin="round" />
</svg>