<?xml version="1.0" encoding="UTF-8"?>
<svg width="20px" height="20px" viewBox="0 0 20 20" version="1.1" xmlns="http://www.w3.org/2000/svg" xmlns:xlink="http://www.w3.org/1999/xlink">
    <!-- Generator: Sketch 53.2 (72643) - https://sketchapp.com -->
    <title>ok</title>
    <desc>Created with Sketch.</desc>
    <g id="Symbols" stroke="none" stroke-width="1" fill="none" fill-rule="evenodd">
        <g id="Footer-/-Desktop" transform="translate(-166.000000, -235.000000)" fill="#FF8126" fill-rule="nonzero">
            <g id="footer">
                <g id="social" transform="translate(60.000000, 195.000000)">
                    <g id="soc" transform="translate(96.000000, 30.000000)">
                        <path d="M28.9361702,10 L11.0638298,10 C10.476383,10 10,10.4761702 10,11.0638298 L10,28.9361702 C10,29.5238298 10.476383,30 11.0638298,30 L28.9361702,30 C29.5238298,30 30,29.5238298 30,28.9361702 L30,11.0638298 C30,10.4761702 29.5238298,10 28.9361702,10 Z M20.0170213,11.8651064 C22.2934043,11.8708511 24.1210638,13.7334043 24.1097872,16.0357447 C24.0976596,18.2846809 22.2402128,20.1076596 19.9674468,20.1 C17.717234,20.0923404 15.8721277,18.2270213 15.8848936,15.9731915 C15.8982979,13.6946809 17.7446809,11.8582979 20.0170213,11.8651064 Z M24.6282979,21.7174468 C24.1248936,22.2346809 23.5189362,22.6082979 22.8457447,22.8697872 C22.2093617,23.1157447 21.5121277,23.2404255 20.8219149,23.3229787 C20.9261702,23.4365957 20.9753191,23.4917021 21.04,23.5574468 C21.9770213,24.4989362 22.9178723,25.4365957 23.8517021,26.3808511 C24.1695745,26.7023404 24.2368085,27.1012766 24.0612766,27.4755319 C23.8695745,27.8851064 23.4408511,28.1538298 23.02,28.1248936 C22.753617,28.1061702 22.5459574,27.973617 22.3617021,27.7882979 C21.6544681,27.0765957 20.9338298,26.3782979 20.2414894,25.6540426 C20.04,25.4429787 19.9429787,25.4823404 19.7646809,25.6659574 C19.0534043,26.3982979 18.3310638,27.1193617 17.6040426,27.8361702 C17.2774468,28.1582979 16.8891489,28.2159574 16.5097872,28.0323404 C16.107234,27.837234 15.8514894,27.426383 15.8712766,27.0129787 C15.8848936,26.7338298 16.0223404,26.5206383 16.2140426,26.3291489 C17.1408511,25.4034043 18.0655319,24.4753191 18.9906383,23.5478723 C19.0521277,23.4865957 19.1091489,23.4208511 19.1982979,23.3255319 C17.9368085,23.1938298 16.7993617,22.883617 15.8259574,22.1219149 C15.7053191,22.027234 15.5804255,21.9357447 15.4697872,21.8297872 C15.0438298,21.4204255 15.0010638,20.9521277 15.3382979,20.4689362 C15.626383,20.0557447 16.1110638,19.9446809 16.6142553,20.1819149 C16.7119149,20.2276596 16.8046809,20.2853191 16.893617,20.3468085 C18.7080851,21.593617 21.2010638,21.6282979 23.0225532,20.4034043 C23.202766,20.2657447 23.3957447,20.1517021 23.6195745,20.0951064 C24.0546809,19.9834043 24.4593617,20.142766 24.6929787,20.5231915 C24.9604255,20.9565957 24.9568085,21.3804255 24.6282979,21.7174468 Z M20.0108511,17.9978723 C18.8910638,18.0025532 17.9919149,17.1178723 17.983617,16.0031915 C17.9748936,14.8740426 18.8742553,13.9668085 20.0004255,13.9678723 C21.117234,13.9687234 22.0078723,14.86 22.0123404,15.9789362 C22.016383,17.0978723 21.127234,17.9942553 20.0108511,17.9978723 Z" id="ok"></path>
                    </g>
                </g>
            </g>
        </g>
    </g>
</svg>