<?xml version="1.0" encoding="UTF-8"?>
<svg width="24px" height="24px" viewBox="0 0 24 24" version="1.1" xmlns="http://www.w3.org/2000/svg" xmlns:xlink="http://www.w3.org/1999/xlink">
    <!-- Generator: sketchtool 53.2 (72643) - https://sketchapp.com -->
    <title>1D4DD8A4-C501-4E05-94D2-99B3F81E533B</title>
    <desc>Created with sketchtool.</desc>
    <g id="Symbols" stroke="none" stroke-width="1" fill="none" fill-rule="evenodd">
        <g id="icons/parking-money">
            <rect id="Rectangle" fill="#A0A0A0" transform="translate(12.000000, 12.000000) scale(-1, 1) translate(-12.000000, -12.000000) " x="4" y="4" width="16" height="16" rx="3"></rect>
            <circle id="Oval" stroke="#FFFFFF" fill="#FF2626" cx="17.5" cy="18.5" r="4.5"></circle>
            <path d="M9,18 L9,7 L13,7 C14.6568542,7 16,8.34314575 16,10 L16,10 C16,11.6568542 14.6568542,13 13,13 L9,13 L9,18 Z" id="Path-6" stroke="#FFFFFF" stroke-width="2"></path>
            <path d="M17,21 L17,16 L18,16 C18.5522847,16 19,16.4477153 19,17 L19,17 C19,17.5522847 18.5522847,18 18,18 L17,18 L17,21 Z" id="Path-6" stroke="#FFFFFF"></path>
            <path d="M16,19.5 L19,19.5" id="Path-7" stroke="#FFFFFF"></path>
        </g>
    </g>
</svg>