<?xml version="1.0" encoding="utf-8"?>
<svg width="20px" height="20px" viewBox="0 0 20 20" version="1.1" xmlns:xlink="http://www.w3.org/1999/xlink" xmlns="http://www.w3.org/2000/svg">
  <desc>Created with Lunacy</desc>
  <path d="M0 4.6C0 13.092 6.908 20 15.4 20C17.936 20 20 17.937 20 15.4C20 15.142 19.978 14.886 19.936 14.639C19.895 14.388 19.833 14.144 19.751 13.908C19.639 13.583 19.366 13.339 19.031 13.262L13.066 11.893C12.74 11.821 12.394 11.912 12.15 12.146C12.008 12.282 12.004 12.286 11.354 13.527C9.224 12.557 7.479 10.818 6.475 8.644C7.715 7.995 7.718 7.992 7.854 7.85C8.088 7.606 8.183 7.262 8.107 6.934L6.738 0.97C6.661 0.634 6.416 0.361 6.091 0.248C5.853 0.166 5.609 0.104 5.366 0.065C5.117 0.022 4.86 0 4.6 0C2.063 0 0 2.063 0 4.6ZM2 4.6C2 3.166 3.166 2 4.6 2C4.709 2 4.817 2.007 4.928 2.021L5.988 6.642C5.815 6.732 5.626 6.831 5.451 6.923C4.589 7.373 3.909 7.729 4.266 8.514C5.441 11.86 8.14 14.56 11.446 15.72C12.287 16.0586 12.6172 15.4286 13.0723 14.5602L13.074 14.557C13.166 14.379 13.267 14.188 13.359 14.012L17.979 15.072C17.993 15.18 18 15.289 18 15.4C18 16.834 16.833 18 15.4 18C8.011 18 2 11.988 2 4.6Z" id="🎨-Icon-Сolor" fill="#4C7399" fill-rule="evenodd" stroke="none" />
</svg>