<svg xmlns="http://www.w3.org/2000/svg" width="20" height="20" viewBox="0 0 20 20">
  <path fill="#E60023" d="M10,20 C10,24.2691667 12.6758333,27.9141667 16.4416667,29.3483333 C16.35,28.5675 16.2525,27.28 16.4625,26.3766667 C16.6433333,25.6 17.63,21.4283333 17.63,21.4283333 C17.63,21.4283333 17.3325,20.8325 17.3325,19.95 C17.3325,18.5666667 18.1341667,17.5333333 19.1333333,17.5333333 C19.9833333,17.5333333 20.3933333,18.1708333 20.3933333,18.935 C20.3933333,19.7891667 19.8491667,21.0658333 19.5683333,22.25 C19.3341667,23.2408333 20.0658333,24.0491667 21.0425,24.0491667 C22.8116667,24.0491667 24.1725,22.1833333 24.1725,19.49 C24.1725,17.1058333 22.4591667,15.44 20.0133333,15.44 C17.1816667,15.44 15.5191667,17.5641667 15.5191667,19.76 C15.5191667,20.6158333 15.8483333,21.5325 16.26,22.0316667 C16.3313763,22.108335 16.3575941,22.2166809 16.3291667,22.3175 C16.2533333,22.6325 16.085,23.3083333 16.0525,23.4466667 C16.0083333,23.6283333 15.9083333,23.6675 15.7191667,23.5791667 C14.4758333,23.0008333 13.6991667,21.1833333 13.6991667,19.7233333 C13.6991667,16.5825 15.98,13.6991667 20.2758333,13.6991667 C23.7291667,13.6991667 26.4133333,16.16 26.4133333,19.4483333 C26.4133333,22.8791667 24.2508333,25.6408333 21.2475,25.6408333 C20.2383333,25.6408333 19.2908333,25.1158333 18.9658333,24.4966667 C18.9658333,24.4966667 18.4666667,26.3983333 18.3458333,26.8633333 C18.1108333,27.7666667 17.4591667,28.91 17.055,29.5591667 C17.9866667,29.8458333 18.975,30 20,30 C25.5225,30 30,25.5225 30,20 C30,14.4775 25.5225,10 20,10 C14.4775,10 10,14.4775 10,20" transform="translate(-10 -10)"/>
</svg>
