<?xml version="1.0" encoding="utf-8"?>
<svg width="64px" height="64px" viewBox="0 0 64 64" version="1.1" xmlns:xlink="http://www.w3.org/1999/xlink" xmlns="http://www.w3.org/2000/svg">
  <desc>Created with Lunacy</desc>
  <g id="play-button">
    <path d="M32 64C49.6731 64 64 49.6731 64 32C64 14.3269 49.6731 0 32 0C14.3269 0 0 14.3269 0 32C0 49.6731 14.3269 64 32 64Z" id="area" fill="#F2F249" stroke="none" />
    <path d="M1.61336 0.396603L11.6348 8.2122Q11.6796 8.24712 11.7201 8.28688Q11.7607 8.32665 11.7964 8.37076Q11.8322 8.41486 11.8627 8.46273Q11.8933 8.51061 11.9182 8.56163Q11.9431 8.61265 11.9621 8.66617Q11.981 8.71969 11.9938 8.77502Q12.0066 8.83034 12.013 8.88676Q12.0195 8.94317 12.0195 8.99996Q12.0195 9.05674 12.013 9.11315Q12.0066 9.16957 11.9938 9.22489Q11.981 9.28022 11.9621 9.33373Q11.9431 9.38725 11.9182 9.43828Q11.8933 9.4893 11.8627 9.53717Q11.8322 9.58505 11.7964 9.62915Q11.7607 9.67326 11.7201 9.71303Q11.6796 9.75279 11.6348 9.78771L1.61336 17.6033Q1.58586 17.6248 1.55694 17.6442Q1.52801 17.6637 1.49779 17.6811Q1.46758 17.6985 1.43622 17.7138Q1.40487 17.7291 1.37253 17.7421Q1.34018 17.7551 1.30701 17.7659Q1.27384 17.7766 1.23999 17.785Q1.20615 17.7935 1.17181 17.7995Q1.13746 17.8055 1.10278 17.8091Q1.06809 17.8128 1.03324 17.814Q0.998388 17.8152 0.963538 17.8139Q0.928688 17.8127 0.894009 17.809Q0.85933 17.8054 0.82499 17.7993Q0.790651 17.7932 0.756819 17.7847Q0.722987 17.7763 0.689827 17.7655Q0.656667 17.7547 0.62434 17.7416Q0.592013 17.7286 0.560677 17.7133Q0.52934 17.698 0.499147 17.6805Q0.468954 17.6631 0.440051 17.6435Q0.411148 17.624 0.383676 17.6026Q0.356204 17.5811 0.330296 17.5577Q0.304389 17.5344 0.280172 17.5093Q0.255955 17.4842 0.233547 17.4575Q0.211139 17.4308 0.190648 17.4025Q0.170158 17.3743 0.151685 17.3448Q0.133212 17.3152 0.116846 17.2844Q0.10048 17.2536 0.0863018 17.2217Q0.0721232 17.1899 0.0602006 17.1571Q0.0482781 17.1243 0.0386696 17.0908Q0.0290612 17.0573 0.0218136 17.0232Q0.014566 16.9891 0.00971464 16.9545Q0.00486324 16.92 0.00243162 16.8852Q0 16.8504 0 16.8156L0 1.18436Q0 1.14949 0.00243162 1.1147Q0.00486324 1.07991 0.00971464 1.04538Q0.014566 1.01085 0.0218136 0.976736Q0.0290612 0.942625 0.0386696 0.909103Q0.0482781 0.87558 0.0602006 0.84281Q0.0721232 0.810039 0.0863018 0.778179Q0.10048 0.74632 0.116846 0.715526Q0.133212 0.684732 0.151685 0.655155Q0.170158 0.625578 0.190648 0.59736Q0.211139 0.569143 0.233547 0.542423Q0.255955 0.515704 0.280172 0.490611Q0.304389 0.465519 0.330296 0.442177Q0.356204 0.418834 0.383676 0.397355Q0.411148 0.375876 0.440051 0.356364Q0.468954 0.336853 0.499147 0.319405Q0.52934 0.301956 0.560677 0.286656Q0.592013 0.271355 0.62434 0.258277Q0.656667 0.245198 0.689827 0.234406Q0.722987 0.223614 0.756819 0.21516Q0.790651 0.206706 0.82499 0.200632Q0.859329 0.194558 0.894009 0.190893Q0.928688 0.187228 0.963538 0.18599Q0.998388 0.184752 1.03324 0.185947Q1.06809 0.187142 1.10278 0.190765Q1.13746 0.194387 1.17181 0.20042Q1.20615 0.206452 1.23999 0.214864Q1.27384 0.223277 1.30701 0.234028Q1.34018 0.24478 1.37253 0.257819Q1.40487 0.270858 1.43622 0.28612Q1.46758 0.301382 1.49779 0.318794Q1.52801 0.336205 1.55694 0.355681Q1.58586 0.375157 1.61336 0.396603L1.61336 0.396603Z" transform="translate(27 23)" id="arr" fill="#FF2626" stroke="none" />
  </g>
</svg>