<svg xmlns="http://www.w3.org/2000/svg" width="40" height="40" viewBox="0 0 40 40">
    <g fill="none" fill-rule="evenodd">
        <circle cx="20" cy="20" r="19" fill="#FFF" stroke="#4D7399" stroke-width="2"/>
        <path fill="#FF2626" fill-rule="nonzero" d="M15.4 27.378l4.6-3.351 4.587 3.35c.319.23.523.243.701.115.178-.127.242-.344.115-.713l-1.759-5.403 4.6-3.326c.319-.216.382-.433.319-.65-.064-.203-.255-.33-.637-.33l-5.683.012-1.746-5.415c-.115-.357-.28-.485-.497-.485-.23 0-.395.128-.51.485l-1.733 5.415-5.695-.013c-.383 0-.586.128-.637.332-.051.216 0 .433.318.65l4.613 3.325-1.771 5.403c-.128.37-.064.573.114.713.179.14.395.115.701-.114z"/>
    </g>
</svg>
