<?xml version="1.0" encoding="utf-8"?>
<svg width="46px" height="46px" viewBox="0 0 46 46" version="1.1" xmlns:xlink="http://www.w3.org/1999/xlink" xmlns="http://www.w3.org/2000/svg">
  <desc>Created with Lunacy</desc>
  <g id="price-tag">
    <path d="M36.238 0L45.133 8.871L45.129 8.871L45.129 20.183L43.652 21.66C44.453 23.406 46.789 29.871 40.898 35.765C39.164 37.5 36.418 38.41 33.617 38.41C31.719 38.41 29.797 37.984 28.148 37.121L20.117 45.133L0 24.969L4.805 20.176L4.801 20.172L19.102 5.914C9.367 5.629 1.707 10.972 1.598 11.051C1.457 11.152 1.293 11.199 1.133 11.199C0.883 11.199 0.637 11.082 0.48 10.867C0.223 10.504 0.309 10.004 0.668 9.75C0.789 9.66 9.641 3.484 20.621 4.402L25.035 0L36.238 0ZM35.578 1.601L43.531 9.535L43.531 19.519L27.902 35.097C24.633 32.758 23.641 28.359 25.105 22.597C25.215 22.168 24.957 21.734 24.527 21.625C24.098 21.512 23.664 21.773 23.555 22.203C21.484 30.336 24.27 34.347 26.754 36.238L24.922 38.07L7.07 20.179L21.211 6.07C24.57 6.457 28.117 7.566 31.648 9.804C31.617 9.98 31.594 10.164 31.594 10.347C31.594 12.086 33.008 13.496 34.742 13.496C36.48 13.496 37.891 12.086 37.891 10.347C37.891 8.613 36.48 7.199 34.742 7.199C33.77 7.199 32.91 7.652 32.332 8.347C29.062 6.304 25.781 5.164 22.637 4.652L25.695 1.601L35.578 1.601ZM34.57 10.879C34.305 11.234 33.805 11.304 33.453 11.039C33.406 11.004 33.359 10.976 33.316 10.945C33.551 11.504 34.102 11.898 34.742 11.898C35.598 11.898 36.293 11.203 36.293 10.347C36.293 9.496 35.598 8.801 34.742 8.801C34.324 8.801 33.945 8.969 33.668 9.238C33.914 9.414 34.164 9.574 34.41 9.762C34.766 10.027 34.836 10.527 34.57 10.879ZM2.262 24.972L5.938 21.308L23.793 39.207L20.121 42.871L2.262 24.972ZM29.34 35.929C33.07 37.633 37.703 36.695 39.766 34.633C44.527 29.875 43.238 24.847 42.441 22.867L29.34 35.929Z" transform="translate(0 0.869)" id="Fill-1" fill="#FF2626" fill-rule="evenodd" stroke="none" />
  </g>
</svg>