<?xml version="1.0" encoding="UTF-8"?>
<svg width="71px" height="54px" viewBox="0 0 71 54" version="1.1" xmlns="http://www.w3.org/2000/svg" xmlns:xlink="http://www.w3.org/1999/xlink">
    <!-- Generator: Sketch 53.2 (72643) - https://sketchapp.com -->
    <title>price-tag</title>
    <desc>Created with Sketch.</desc>
    <g id="Desktop" stroke="none" stroke-width="1" fill="none" fill-rule="evenodd">
        <g id="Desktop/main" transform="translate(-1045.000000, -2176.000000)">
            <g id="advantages" transform="translate(60.000000, 2146.000000)">
                <g id="04" transform="translate(985.000000, 30.000000)">
                    <g id="price-tag">
                        <rect id="decor" fill="#F2F249" transform="translate(49.000000, 22.000000) rotate(45.000000) translate(-49.000000, -22.000000) " x="34" y="7" width="30" height="30"></rect>
                        <path d="M45.133,17.74 L36.238,8.869 L25.035,8.869 L20.621,13.271 C9.641,12.353 0.789,18.529 0.668,18.619 C0.309,18.873 0.223,19.373 0.48,19.736 C0.637,19.951 0.883,20.068 1.133,20.068 C1.293,20.068 1.457,20.021 1.598,19.92 C1.707,19.841 9.367,14.498 19.102,14.783 L4.801,29.041 L4.805,29.045 L0,33.838 L20.117,54.002 L28.148,45.99 C29.797,46.853 31.719,47.279 33.617,47.279 C36.418,47.279 39.164,46.369 40.898,44.634 C46.789,38.74 44.453,32.275 43.652,30.529 L45.129,29.052 L45.129,17.74 L45.133,17.74 Z M35.578,10.47 L43.531,18.404 L43.531,28.388 L27.902,43.966 C24.633,41.627 23.641,37.228 25.105,31.466 C25.215,31.037 24.957,30.603 24.527,30.494 C24.098,30.381 23.664,30.642 23.555,31.072 C21.484,39.205 24.27,43.216 26.754,45.107 L24.922,46.939 L7.07,29.048 L21.211,14.939 C24.57,15.326 28.117,16.435 31.648,18.673 C31.617,18.849 31.594,19.033 31.594,19.216 C31.594,20.955 33.008,22.365 34.742,22.365 C36.48,22.365 37.891,20.955 37.891,19.216 C37.891,17.482 36.48,16.068 34.742,16.068 C33.77,16.068 32.91,16.521 32.332,17.216 C29.062,15.173 25.781,14.033 22.637,13.521 L25.695,10.47 L35.578,10.47 Z M33.453,19.908 C33.805,20.173 34.305,20.103 34.57,19.748 C34.836,19.396 34.766,18.896 34.41,18.631 C34.164,18.443 33.914,18.283 33.668,18.107 C33.945,17.838 34.324,17.67 34.742,17.67 C35.598,17.67 36.293,18.365 36.293,19.216 C36.293,20.072 35.598,20.767 34.742,20.767 C34.102,20.767 33.551,20.373 33.316,19.814 C33.359,19.845 33.406,19.873 33.453,19.908 Z M2.262,33.841 L5.938,30.177 L23.793,48.076 L20.121,51.74 L2.262,33.841 Z M39.766,43.502 C37.703,45.564 33.07,46.502 29.34,44.798 L42.441,31.736 C43.238,33.716 44.527,38.744 39.766,43.502 Z" id="Fill-1" fill="#1A1A1A"></path>
                    </g>
                </g>
            </g>
        </g>
    </g>
</svg>