<?xml version="1.0" encoding="UTF-8"?>
<svg width="31px" height="24px" viewBox="0 0 31 24" version="1.1" xmlns="http://www.w3.org/2000/svg" xmlns:xlink="http://www.w3.org/1999/xlink">
    <!-- Generator: Sketch 53.2 (72643) - https://sketchapp.com -->
    <title>Combined Shape</title>
    <desc>Created with Sketch.</desc>
    <g id="Desktop" stroke="none" stroke-width="1" fill="none" fill-rule="evenodd" opacity="0.369349888">
        <g id="Desktop/news-article" transform="translate(-223.000000, -633.000000)" fill="#4D7399">
            <g id="quotation" transform="translate(60.000000, 597.000000)">
                <path d="M163,52.629641 C163,44.6091504 169.9451,38.5018044 174.700983,36 L176.663729,38.281057 C172.813728,40.8564438 170.02059,43.5789957 169.718629,48.2882746 C172.889218,48.2882746 176.135297,50.4221665 176.135297,54.1012907 C176.135297,57.2653374 173.342159,59.6935593 169.9451,59.6935593 C166.019609,59.6935593 163,57.1181724 163,52.629641 Z M180.336949,52.9360817 C180.336949,44.9155911 187.282049,38.8082451 192.037932,36.3064407 L194.000678,38.5874976 C190.150677,41.1628845 187.357539,43.8854364 187.055578,48.5947152 C190.226167,48.5947152 193.472246,50.7286072 193.472246,54.4077313 C193.472246,57.5717781 190.679109,60 187.282049,60 C183.356558,60 180.336949,57.4246131 180.336949,52.9360817 Z" id="Combined-Shape"></path>
            </g>
        </g>
    </g>
</svg>