<?xml version="1.0" encoding="UTF-8"?>
<svg width="56px" height="24px" viewBox="0 0 56 24" version="1.1" xmlns="http://www.w3.org/2000/svg" xmlns:xlink="http://www.w3.org/1999/xlink">
    <!-- Generator: sketchtool 53.2 (72643) - https://sketchapp.com -->
    <title>613FA2A7-8079-44CD-B1E8-15AAE03C57BD</title>
    <desc>Created with sketchtool.</desc>
    <g id="Symbols" stroke="none" stroke-width="1" fill="none" fill-rule="evenodd">
        <g id="item/small-sale" transform="translate(-112.000000, -267.000000)">
            <g id="item">
                <g id="sale-tag" transform="translate(112.000000, 267.000000)">
                    <path d="M43.5857864,1 L6,1 C3.23857625,1 1,3.23857625 1,6 L1,18 C1,20.7614237 3.23857625,23 6,23 L43.5857864,23 L54.5857864,12 L43.5857864,1 Z M44,14 C42.8954305,14 42,13.1045695 42,12 C42,10.8954305 42.8954305,10 44,10 C45.1045695,10 46,10.8954305 46,12 C46,13.1045695 45.1045695,14 44,14 Z" id="Combined-Shape" stroke="#FF2626" stroke-width="2" transform="translate(28.000000, 12.000000) scale(-1, 1) translate(-28.000000, -12.000000) "></path>
                </g>
            </g>
        </g>
    </g>
</svg>