<?xml version="1.0" encoding="UTF-8"?>
<svg width="41px" height="41px" viewBox="0 0 41 41" version="1.1" xmlns="http://www.w3.org/2000/svg" xmlns:xlink="http://www.w3.org/1999/xlink">
    <!-- Generator: Sketch 53.2 (72643) - https://sketchapp.com -->
    <title>Combined Shape</title>
    <desc>Created with Sketch.</desc>
    <g id="Desktop" stroke="none" stroke-width="1" fill="none" fill-rule="evenodd">
        <g id="Desktop/pcard-sale" transform="translate(-84.000000, -240.000000)" fill="#A0A0A0">
            <g id="small-banner" transform="translate(60.000000, 233.000000)">
                <path d="M25.8055156,25.3002268 C25.2977858,25.4629607 25.9552308,25.6647508 25.8055156,25.3002268 Z M25.7859875,26.270121 C25.922684,26.2961584 26.0203244,26.361252 26.0919273,26.4458736 C26.0723993,26.6541731 26.0593805,26.8689818 26.0528712,27.0837906 C26.0398525,26.9275661 25.8836279,26.7973789 25.5646694,26.5565327 C25.7664595,26.4784204 25.8640998,26.5109672 25.7859875,26.270121 Z M29.9975417,14.4946938 C30.7786645,14.188754 31.5662967,14.0585669 32.3213822,13.7786645 C30.9218704,15.0154424 29.7046206,16.467029 28.7347264,18.0813496 C28.8649135,17.3523016 28.8909509,16.4800478 28.4157679,16.3238232 C28.3832211,16.4865571 28.6501047,16.4149542 28.6435954,16.55816 C28.5589737,16.538632 28.4678427,16.5191039 28.3767117,16.5060852 C28.4743521,16.9812683 28.3571836,17.4694701 28.4483146,17.9446531 C28.454824,17.9902186 28.4613334,18.2766303 28.4808614,18.5239859 C28.4157679,18.6216263 28.363693,18.7127573 28.3116181,18.8103976 C28.2400152,18.6606824 28.1098281,18.5239859 28.0121877,18.4719111 C27.9861503,18.816907 28.0642626,18.8299257 28.1293561,19.1684123 C28.0903,19.2204871 28.0642626,19.2790714 28.0447345,19.3311462 C28.0317158,19.3441649 28.0252064,19.363693 28.0186971,19.3767117 C27.1464432,21.1082007 26.541073,22.989405 26.2481519,24.9682495 C26.1570209,24.9291934 26.0723993,24.8836279 25.9877776,24.8250437 C26.541073,24.629763 25.903156,24.4344823 25.7013659,24.3108045 C25.4865571,24.1806173 25.5191039,24.011374 25.3433513,23.8746775 C25.2326922,24.0178834 25.1285425,24.1675986 25.0309021,24.3108045 C25.6688191,20.639527 27.3091771,17.3132455 29.6525457,14.6183716 C29.7697142,14.5793155 29.8868826,14.5402593 29.9975417,14.4946938 Z M58.1505115,41.2741893 C58.1374928,41.6126759 58.5540917,41.2741893 58.6517321,41.4369233 C58.6582414,41.3392829 58.632204,41.2611706 58.5931478,41.2156051 C58.5996572,41.1635303 58.6061666,41.0789086 58.5996572,40.9552308 C58.26768,40.6818378 58.287208,40.9357028 58.378339,41.1309835 C58.287208,41.1440022 58.2025864,41.196077 58.1505115,41.2741893 Z M56.9462805,42.6476637 C57.0634489,42.9536035 57.3303325,42.9275661 57.5907068,42.7518134 C57.3693887,42.5565327 57.1545799,42.5044578 56.9462805,42.6476637 Z M56.3604383,11.4678427 C61.4312276,15.100064 64.737981,21.0365978 64.737981,27.7347264 C64.737981,28.2619843 64.718453,28.7827329 64.6793968,29.2969721 C64.6728875,29.3360282 64.6728875,29.3750844 64.6663781,29.4141405 C64.536191,31.008933 64.2172325,32.5451413 63.7290307,34.0097467 C63.6574277,33.7493724 63.5728061,33.5150356 63.5402593,33.5150356 C63.4491283,33.5866385 63.4556377,33.449942 63.3319599,33.5150356 C63.3645067,33.5996572 63.3970535,33.6842788 63.4296002,33.7623911 C63.2343195,33.9381438 62.8047019,34.2896491 62.9218704,34.4068175 C63.0195107,34.2571023 63.3645067,34.0683309 63.4686564,33.8600315 C63.5207312,33.9902186 63.5793155,34.1204058 63.644409,34.2571023 L63.644409,34.2636116 C62.4011218,37.8567768 60.1684123,40.9747589 57.265239,43.3181275 C57.2066548,43.363693 57.1545799,43.4092585 57.0894863,43.4613334 C57.082977,43.4613334 57.082977,43.4613334 57.0764676,43.4678427 C54.9869639,45.1082007 52.5589737,46.351488 49.9161747,47.0544985 C49.6427817,47.1326108 49.3693887,47.1977044 49.0959957,47.2562886 C48.6663781,47.353929 48.2237418,47.4385506 47.7811055,47.5036442 C47.7615775,47.5101535 47.7420494,47.5166629 47.716012,47.5166629 C47.644409,47.5296816 47.5793155,47.536191 47.5077125,47.5427003 C47.1822447,47.5947752 46.8567768,47.627322 46.5313089,47.6598687 C46.3555563,47.6728875 46.1732943,47.6859062 45.9975417,47.6989249 C45.8022609,47.7119436 45.6134896,47.718453 45.4182089,47.7249623 C45.1968907,47.7314717 44.9690632,47.737981 44.7412357,47.737981 C44.3246369,47.737981 43.9145473,47.7249623 43.5109672,47.6989249 L43.4588923,47.6989249 L43.452383,47.6924155 C43.3547426,47.6924155 43.2636116,47.6859062 43.1659713,47.6728875 L43.1138964,47.6728875 C41.2261828,47.5166629 39.4230909,47.1065734 37.7241487,46.462147 L37.7176393,46.462147 C37.6525457,46.442619 37.5939615,46.4165815 37.5353773,46.3970535 L37.5353773,46.3905441 C37.5158492,46.3905441 37.4963211,46.3840347 37.4833024,46.371016 C37.4247182,46.351488 37.366134,46.3319599 37.3075498,46.3059225 C33.1090144,44.6134896 29.6069802,41.5475823 27.3742707,37.6549867 C27.3742707,37.6484774 27.3742707,37.641968 27.3677613,37.6354587 C27.2766303,37.3555563 27.0813496,37.0431072 27.0097467,36.8022609 C26.9641812,36.8022609 26.8795596,36.6850925 26.7754098,36.5158492 C26.7623911,36.4963211 26.7493724,36.4767931 26.7428631,36.457265 C26.6972976,36.3596246 26.6517321,36.2554749 26.6061666,36.1578346 L26.5996572,36.1578346 C26.5866385,36.1317971 26.5736198,36.1057597 26.5671104,36.0732129 C25.3889168,33.5345636 24.737981,30.7095026 24.737981,27.7347264 C24.737981,27.6305766 24.737981,27.5329363 24.7444904,27.4287866 C25.0699583,27.6956702 25.4995758,27.9820819 25.720894,27.6956702 C25.9357028,27.4092585 26.0528712,27.2465246 26.0528712,27.1033187 C26.0398525,27.3116181 26.0398525,27.5264269 26.0398525,27.7347264 C26.0398525,29.3230095 26.2416425,30.8592178 26.6191853,32.3303325 C26.6126759,32.3368419 26.6126759,32.3368419 26.6191853,32.3433513 C26.6191853,32.3498606 26.6191853,32.35637 26.6256946,32.3628793 C26.7363537,32.812025 26.8665408,33.2481519 27.0162561,33.6777695 C27.0227654,33.7168256 27.0357841,33.7558818 27.0488028,33.7884286 C27.17899,34.1659713 27.3156865,34.543514 27.4719111,34.908038 C27.4849298,34.9470941 27.5044578,34.9861503 27.5174766,35.0252064 C28.4092585,37.1147101 29.6655644,39.0024237 31.2213008,40.6232536 C31.3124318,40.7339127 31.4165815,40.8445718 31.5272406,40.9487215 L31.53375,40.9552308 C31.9959143,41.4173952 32.4776067,41.8535221 32.9853366,42.2636116 C33.0634489,42.3287052 33.1415612,42.3872894 33.2196735,42.4458736 C33.3238232,42.5304953 33.4279729,42.6151169 33.5321226,42.6867198 C33.5841975,42.7322853 33.6362723,42.7713415 33.6883472,42.8038883 C35.2571023,43.9625539 37.0081194,44.8803732 38.8958329,45.4987622 L39.1301698,45.5768744 C40.4515693,45.9934733 41.8445718,46.2668663 43.2766303,46.371016 C43.2766303,46.371016 43.2831397,46.3775254 43.2896491,46.371016 C43.7648321,46.4165815 44.2530339,46.4361096 44.7412357,46.4361096 L44.8063293,46.4361096 C44.9430258,46.4361096 45.0862316,46.4361096 45.2229281,46.4230909 C45.4507556,46.4230909 45.6720738,46.4165815 45.8999013,46.3970535 C46.1667849,46.3840347 46.4271592,46.3645067 46.6875335,46.3319599 C47.0260201,46.2994131 47.3579973,46.2538476 47.6899745,46.2017727 C47.716012,46.2017727 47.7420494,46.1952634 47.7680868,46.188754 L47.7745962,46.188754 C48.3148728,46.1041324 48.8421308,45.9934733 49.3628793,45.8567768 C49.4735384,45.8307394 49.5841975,45.7981926 49.6883472,45.7656458 C51.4979485,45.277444 53.1968907,44.5158492 54.7396084,43.5264269 C54.7526271,43.5199176 54.7721552,43.5134082 54.7851739,43.4938801 C56.44506,42.4393643 57.9357028,41.1114554 59.1854993,39.5882658 C59.2440836,39.5231722 59.2896491,39.4580787 59.3417239,39.3929851 L59.3417239,39.3864757 C59.9536035,38.6313903 60.5003895,37.8307394 60.9755726,36.9910323 C61.0211381,36.9194294 61.0667036,36.8478264 61.0992504,36.7697142 C62.5898932,34.0943683 63.4361096,31.008933 63.4361096,27.7347264 C63.4361096,26.8494538 63.3775254,25.9837093 63.2538476,25.1309835 C63.3905441,25.176549 63.4816751,25.26768 63.4491283,25.5150356 C63.6574277,25.4889981 63.5597874,25.2416425 63.8331804,25.3848484 C63.8006336,25.2090958 63.6899745,25.1309835 63.5012032,25.1570209 C63.6509184,24.8575905 63.4035628,24.3368419 63.0650762,24.011374 C62.1993317,19.7542544 59.8820006,16.0178834 56.6598687,13.3425376 C56.5687377,13.2644253 56.4710974,13.186313 56.373457,13.1147101 C56.2758167,13.0300884 56.171667,12.9519762 56.0740266,12.8803732 C56.0349705,12.8413171 55.9959143,12.8152797 55.9503488,12.7762235 L55.9438395,12.7762235 C52.8258574,10.4328549 48.9397711,9.03985248 44.7412357,9.03985248 L44.6826515,9.03985248 C44.6240673,9.03985248 44.5719924,9.03985248 44.5134082,9.04636183 C43.6737011,9.05287119 42.8535221,9.11796476 42.0398525,9.23513319 L42.0333431,9.23513319 C41.740422,9.28069869 41.447501,9.32626419 41.1610893,9.38484841 C41.1155238,9.39135776 41.0764676,9.39786712 41.0374115,9.40437648 C40.9723179,9.42390455 40.9072243,9.43692326 40.8486401,9.44994198 C37.6525457,10.1269151 34.7558818,11.6240673 32.3864757,13.7265897 C31.917802,13.4141405 31.3449786,13.3815937 30.7786645,13.4336686 C32.9592992,11.2985994 35.6216263,9.66475077 38.5898932,8.70787526 C38.5964025,8.7013659 38.6094212,8.69485654 38.6224399,8.69485654 C39.097623,8.53863197 39.5858248,8.40844483 40.0740266,8.2912764 C40.080536,8.2912764 40.080536,8.2912764 40.0870453,8.28476704 C40.282326,8.23920154 40.4841161,8.19363604 40.6793968,8.14807054 C40.6924155,8.14807054 40.7054342,8.14807054 40.7119436,8.14156118 C41.2326922,8.03741147 41.7534408,7.95278982 42.287208,7.88769625 C42.3523016,7.88118689 42.4108858,7.87467754 42.4759794,7.86816818 C42.7168256,7.83562139 42.9576718,7.81609332 43.2050274,7.79656525 L43.2115368,7.79656525 C43.7127573,7.75750911 44.2269965,7.73798104 44.7412357,7.73798104 C47.0325294,7.73798104 49.2326922,8.12203311 51.2831397,8.8380624 C51.3352146,8.85759047 51.3872894,8.87060919 51.4393643,8.89664662 C53.1903814,9.51503555 54.82423,10.3742707 56.3083635,11.4287866 C56.3409102,11.4483146 56.3604383,11.4613334 56.3604383,11.4678427 Z M38.8696653,17.8666059 C38.9412683,17.9382089 39.0128712,18.0033024 39.0909835,18.068396 C39.045418,18.0944334 38.9998525,18.1204709 38.954287,18.1530177 C38.9087215,18.0618866 38.8696653,17.9707556 38.8696653,17.8666059 Z M51.7386645,17.8080868 C51.9274359,17.8861991 52.1292259,17.9252552 52.331016,17.938274 C52.3375254,18.0619517 52.2268663,18.211667 52.0836604,18.3353447 C50.6320738,17.2938476 48.9656783,16.6103651 47.1951332,16.3369721 C47.1300396,16.3304627 47.064946,16.317444 46.9998525,16.3109347 C46.4725945,16.2393317 45.9388273,16.2002756 45.3920412,16.2002756 C45.313929,16.2002756 45.242326,16.2002756 45.1642137,16.2067849 C45.0861015,16.2067849 45.0079892,16.2067849 44.9298769,16.2132943 C44.4481845,16.226313 43.9795107,16.2718785 43.510837,16.3565002 C43.4457434,16.3565002 43.3871592,16.3695189 43.3220657,16.3890469 C42.3391527,16.5582902 41.3952959,16.8577207 40.503514,17.2808289 C39.9046531,16.7275335 39.136549,16.5713089 38.6743846,17.3784692 C38.4856133,17.7039371 38.4335384,18.1140266 38.5767443,18.4264757 C38.042977,18.8170372 37.5352471,19.2596735 37.0665734,19.7478753 L36.1292259,18.8430746 C37.769584,17.1311137 39.7939941,15.9399013 42.0201942,15.3475498 C42.3391527,15.2564188 42.6646206,15.1783065 42.9965978,15.1197223 L43.0031072,15.1197223 C43.7777207,14.9765164 44.5718622,14.8984041 45.3790225,14.8984041 L45.3920412,14.8984041 C45.5743032,14.8984041 45.7500559,14.9049135 45.9323179,14.9114229 L45.9388273,14.9114229 C45.9453366,14.9114229 45.9583553,14.9114229 45.9648647,14.9179322 C46.153636,14.9179322 46.3489168,14.9309509 46.5376881,14.950479 C46.5572162,14.950479 46.5767443,14.950479 46.5962723,14.9569884 C48.1259713,15.0936849 49.597086,15.5037744 50.9510323,16.1547101 C51.0226352,16.1872569 51.0877288,16.2198037 51.1528224,16.2523504 C51.4262154,16.3890469 51.6865897,16.5322528 51.9469639,16.6884774 C51.8232862,16.8186645 51.78423,16.9879078 51.5368744,17.0139452 C51.7191364,17.1441324 52.0706417,16.9488517 52.1552634,17.2352634 C52.2594131,17.5607312 51.9144172,17.6323342 51.7386645,17.8080868 Z M53.7372325,17.9771999 C53.7046857,17.9837093 53.6721389,17.9771999 53.6461015,17.9771999 L53.6851576,17.9381438 C53.7046857,17.9511625 53.7177044,17.9641812 53.7372325,17.9771999 Z M54.7069965,18.9081682 L53.7631397,19.7999501 C53.4637093,19.487501 53.1577695,19.1880705 52.8323016,18.9146775 C53.1642788,18.5892097 53.5808777,18.3353447 54.023514,18.2377044 C54.2578508,18.4525132 54.4856783,18.6738313 54.7069965,18.9081682 Z M43.601968,39.2171674 C43.3220657,39.7053692 42.8468826,40.0633838 42.3326434,40.3367768 C42.3196246,40.3432862 42.3000966,40.3367768 42.2870779,40.3302674 C42.2545311,40.3302674 42.2219843,40.3237581 42.1829281,40.3107394 C42.1178346,40.30423 42.052741,40.2912113 41.9876474,40.2651739 C41.870479,40.2456458 41.7468012,40.2196084 41.6296328,40.1870616 C39.7549379,39.7183879 38.0104302,38.8200966 36.513278,37.5572813 C36.8322365,37.5507719 37.1642137,37.4986971 37.0275172,37.2513415 C36.8322365,37.3815286 36.5197874,37.2708696 36.5067687,37.0104953 C36.4481845,37.1081356 36.2919599,37.1732292 36.1682821,37.2448321 C35.9274359,37.0300233 35.693099,36.8021958 35.4717809,36.567859 L36.4156377,35.6695677 C36.9819517,36.2684286 37.60685,36.8021958 38.2708045,37.2578508 C38.3033513,37.2838883 38.3424074,37.3034163 38.3749542,37.3229444 C39.8330502,38.3123667 41.4864269,38.937265 43.2439534,39.1716019 C43.3611218,39.1911299 43.4782902,39.2041487 43.601968,39.2171674 Z M54.0560608,36.6264432 C52.7932455,37.9413334 51.3026027,38.9502837 49.6752634,39.6207475 C49.5580949,39.666313 49.4474359,39.7183879 49.3302674,39.757444 L49.3237581,39.757444 C47.8982089,40.2977207 46.3685099,40.577623 44.7932455,40.577623 C44.1423098,40.577623 43.4978834,40.5320575 42.8729851,40.4344172 C42.944588,40.3888517 43.0096816,40.3432862 43.0747752,40.2912113 C43.309112,40.1154587 43.5239208,39.9201779 43.7582577,39.7379159 C44.0641975,39.4970697 44.1618378,39.4059387 44.200894,39.2627329 C44.3961747,39.2692422 44.5979648,39.2757516 44.7932455,39.2757516 C45.2684286,39.2757516 45.7371023,39.2497142 46.1927573,39.1911299 C46.2513415,39.1846206 46.3034163,39.1781112 46.3554912,39.1716019 C48.0544334,38.9437744 49.6622447,38.3449135 51.0812845,37.4140754 C51.0877939,37.4075661 51.0877939,37.4140754 51.0877939,37.4140754 C51.2700559,37.296907 51.4523179,37.1667198 51.6280705,37.0365327 C51.7908045,37.1862479 51.9860852,37.2513415 52.220422,37.1081356 C52.0641975,37.0755888 51.9991039,36.9454017 51.9340103,36.8021958 L51.9340103,36.7956865 C52.3506092,36.476728 52.74768,36.1187133 53.1187133,35.7281519 L54.0560608,36.6264432 Z M32.5490795,32.5971511 C32.9721877,32.30423 33.3302024,32.0113089 33.1869965,31.6467849 C33.0047345,31.9657434 32.5490795,32.2521552 32.5490795,32.5971511 Z M30.1210893,23.8290469 C30.0234489,24.740357 31.0258899,24.030837 30.1210893,23.8290469 Z M33.8509509,29.2122853 C34.0852878,29.6223749 34.2089656,30.0975579 34.2089656,30.6508533 C34.2089656,31.5165978 33.870479,32.2326271 33.2000152,32.7859225 C32.9982251,32.9551657 32.7834163,33.0983716 32.5490795,33.2090307 C32.5555888,33.1699745 32.5555888,33.124409 32.5555888,33.0788435 C32.5490795,33.0788435 32.5490795,33.0853529 32.5425701,33.0853529 C32.5490795,33.0723342 32.5555888,33.0593155 32.5555888,33.0462967 C32.5490795,32.8705441 32.5165327,32.7143195 32.4579485,32.6492259 C32.3863456,32.7208289 32.2952146,32.759885 32.1975742,32.759885 C31.8981438,32.8705441 32.2431397,33.0202593 32.1194619,33.2415775 C32.0804058,33.306671 32.0608777,33.3652552 32.0543683,33.4173301 C31.6377695,33.5540266 31.1886238,33.6191202 30.6939127,33.6191202 C29.971374,33.6191202 29.2813822,33.469405 28.6174277,33.1764839 C27.9469639,32.8835628 27.4978183,32.4799827 27.2569721,31.9722528 L28.3049786,30.7094375 C28.5978997,31.0869802 28.9624237,31.3799013 29.4115693,31.5882007 C29.5352471,31.6467849 29.6524155,31.6923504 29.7760933,31.7248972 C29.8216588,31.7509347 29.8672243,31.7639534 29.9127898,31.7704627 C30.1861828,31.8550844 30.4530665,31.8941405 30.7264595,31.8941405 C31.1756051,31.8941405 31.5401291,31.7899908 31.8265408,31.5686727 C32.1129526,31.3538639 32.2561584,31.0544334 32.2561584,30.663872 C32.2561584,30.3839696 32.1650274,30.1366141 31.9892748,29.9218053 C31.8135221,29.7069965 31.5856946,29.5182251 31.3057923,29.3620006 C31.0258899,29.2122853 30.7199501,29.0625701 30.3879729,28.9128549 C30.0494863,28.7696491 29.7109997,28.6069151 29.3725132,28.4181438 C29.0340266,28.2358818 28.7215775,28.0275823 28.4416751,27.8062642 C28.1617727,27.5784367 27.9339452,27.2855156 27.7581926,26.9209916 C27.5824399,26.5499583 27.4978183,26.1398687 27.4978183,25.6777044 C27.4978183,25.651667 27.4978183,25.6191202 27.5043277,25.5930827 C27.5043277,25.5019517 27.5043277,25.4173301 27.5173464,25.3327085 C27.5889493,24.6622447 27.875361,24.0959306 28.3896002,23.6142382 C28.9819517,23.0609428 29.7760933,22.7810404 30.7655156,22.7810404 C32.0869151,22.7810404 33.0893561,23.1585832 33.7728386,23.9071592 L33.0503,24.9096002 L32.9656783,25.0202593 L32.776907,25.287143 C32.2366303,24.7663944 31.6182414,24.5125294 30.9217402,24.5125294 C30.4660852,24.5125294 30.1080705,24.6166792 29.8476963,24.8249786 C29.5808126,25.033278 29.4506255,25.3131804 29.4506255,25.6646857 C29.4506255,26.0031722 29.5677939,26.3026027 29.8021308,26.5499583 C30.0364676,26.8038232 30.3293887,26.9991039 30.680894,27.1423098 C31.0258899,27.2855156 31.409942,27.4612683 31.8265408,27.6630583 C32.0673871,27.7737174 32.3017239,27.8973952 32.5165327,28.0145636 C32.5425701,28.0275823 32.5620982,28.0406011 32.5816263,28.0536198 C32.7183228,28.1252227 32.8485099,28.203335 32.9721877,28.2814473 C33.323693,28.5027654 33.6166141,28.8087052 33.8509509,29.2122853 Z M45.437802,33.3196246 L45.4963862,33.4563211 L43.524051,33.4563211 L42.9967931,32.1739778 C43.0033024,32.1739778 42.9967931,32.1674684 42.9967931,32.1674684 L42.9056621,31.9461503 C42.886134,31.9070941 42.8731153,31.868038 42.8666059,31.8289818 L42.430479,30.7679566 L41.4410567,30.7679566 C41.428038,30.7093724 41.4085099,30.6442788 41.3889818,30.5791853 C41.1416263,29.8891934 40.5818216,29.4205197 39.9829607,29.042977 L41.7274684,29.042977 L41.4801128,28.4376067 L41.3954912,28.222798 C41.3824725,28.2032699 41.3759631,28.1837418 41.3629444,28.1577044 L41.2783228,27.9624237 C41.2848321,27.9559143 41.2783228,27.9559143 41.2783228,27.9559143 L41.2522853,27.877802 L40.1977695,25.3066059 L38.895898,28.4506255 C38.6485425,28.313929 38.440243,28.1577044 38.3751495,27.9949705 C38.2254342,28.0210079 37.6981763,27.5978997 37.6070453,27.513278 C37.5744985,27.5002593 37.5484611,27.4807312 37.5159143,27.4546938 L38.9284448,24.1023749 L39.0065571,23.9136035 L39.3645718,23.0673871 L39.3710811,23.0608777 L39.4296653,22.9176718 L41.0504953,22.9176718 L41.1611543,23.1845555 C40.7705929,23.1975742 40.3865408,23.2496491 40.2693724,23.230121 C40.3409753,23.4644578 40.8356865,23.6402105 41.0244578,23.7508696 C41.0114391,23.6792666 41.0114391,23.6141731 41.0504953,23.5425701 C41.0244578,23.6597386 41.2002105,23.8029444 41.4866222,23.9526596 L44.8845067,31.9982251 L45.0212032,32.323693 L45.3922365,33.2154749 L45.437802,33.3196246 Z M39.3971185,29.589763 C39.8918297,29.772025 40.1066385,30.318811 40.334466,30.7679566 L37.9455319,30.7679566 L37.9129851,30.8525783 L37.8153447,31.0804058 L36.8454505,33.4563211 L34.9837744,33.4563211 L37.437802,27.6369558 C37.6265734,27.767143 37.8088354,27.8908207 37.9390225,28.0014798 C38.1993968,28.222798 38.440243,28.6003407 38.694108,28.9323179 L38.6485425,29.042977 L38.7787296,29.042977 C38.9740103,29.2968419 39.1758004,29.5116507 39.3971185,29.589763 Z M47.0715205,25.287208 L47.0715205,24.5972162 C47.2212357,24.8055156 47.1951983,25.0463618 47.0715205,25.287208 Z M48.3409753,25.5802593 C47.878811,25.2678102 47.5403244,24.8381926 47.0716507,24.5517809 L47.0716507,22.950479 L48.9137988,22.950479 L48.9137988,26.7844904 C48.7966303,26.68685 48.5883309,26.6608126 48.2498443,26.6087377 C47.9959794,26.5696816 47.7095677,26.4980787 47.5207963,26.302798 C47.5533431,26.2246857 47.423156,25.8341242 47.6119273,25.8536523 C47.4491934,26.5696816 48.2563537,25.6518622 48.3409753,25.5802593 Z M48.9137337,27.0578834 L48.9137337,31.5102837 C48.3344009,31.6144334 47.7485587,31.6404709 47.1627166,31.5688679 C47.1366792,31.5623586 47.1106417,31.5493399 47.0715856,31.5428305 L47.0715856,27.051374 C47.2213008,27.0643928 47.371016,27.0578834 47.5077125,27.051374 C47.5272406,27.0578834 47.553278,27.0578834 47.5728061,27.051374 L47.6834652,27.051374 C47.807143,27.051374 47.9308207,27.0448647 48.0479892,27.0448647 C48.1651576,27.0904302 48.2953447,27.1359957 48.3409102,27.1815612 C48.373457,27.142505 48.3799664,27.0904302 48.3669477,27.031846 C48.4971348,27.0253366 48.627322,27.0253366 48.7575091,27.0253366 C48.829112,27.0253366 48.8746775,27.0383553 48.9137337,27.0578834 Z M47.956728,33.339348 C48.2171023,33.3849135 49.0828468,32.9292585 48.7964351,32.8641649 C48.6206824,32.8251088 48.6337011,32.9813334 48.5165327,33.0854831 C48.2691771,33.3068012 48.0608777,33.0919924 47.8330502,33.0334082 C47.6117321,33.0594456 47.9241812,33.3198199 47.956728,33.339348 Z M48.3863456,33.0529363 C48.3277613,32.7404871 48.13899,32.8446369 47.9371999,32.974824 C48.0218216,33.2026515 48.2105929,33.0985018 48.3863456,33.0529363 Z M49.6361421,31.7315368 L53.6459062,31.7315368 L53.6459062,33.4565164 L52.1747915,33.4565164 C52.0185669,33.2417076 51.4522528,33.1635954 51.1918785,33.2677451 C51.1853692,33.3458574 51.2114066,33.4109509 51.2504627,33.4565164 L47.0714554,33.4565164 L47.0714554,31.9072894 C47.4815449,31.881252 48.0869151,31.9333268 48.1715368,31.972383 C48.0543683,32.1220982 48.0673871,32.2522853 48.2040836,32.3759631 C48.3798362,31.5037093 49.0763374,31.9984204 49.6361421,31.7315368 Z M61.509405,31.7314066 L61.509405,33.4563862 L56.2758818,33.4563862 C56.4581438,33.3392178 56.6208777,33.2611055 56.7315368,33.3196897 C56.9072894,33.4108207 57.6884123,33.5475172 57.6623749,33.2025213 C57.6688842,33.0007312 57.7274684,32.8575254 57.7079404,32.6557353 C57.2197386,32.7729037 56.7120087,32.8965815 56.3474847,33.2611055 C56.3019192,33.306671 56.1912601,33.378274 56.0740917,33.4563862 L55.2799501,33.4563862 L55.2799501,22.9502837 L61.3596897,22.9502837 L61.3596897,24.6752634 L57.1286076,24.6752634 L57.1286076,27.2855156 L60.9105441,27.2855156 L60.9105441,29.0104953 L57.1286076,29.0104953 L57.1286076,31.7314066 L61.509405,31.7314066 Z" id="Combined-Shape"></path>
            </g>
        </g>
    </g>
</svg>