<?xml version="1.0" encoding="utf-8"?>
<svg width="22px" height="20px" viewBox="0 0 22 20" version="1.1" xmlns:xlink="http://www.w3.org/1999/xlink" xmlns="http://www.w3.org/2000/svg">
  <desc>Created with Lunacy</desc>
  <path d="M14 4L17 4C18.654 4 20 5.346 20 7L20 15C20 16.654 18.654 18 17 18L3 18C1.346 18 0 16.654 0 15L0 7C0 5.346 1.346 4 3 4L6 4L6 2.5C6 1.122 7.121 0 8.5 0L11.5 0C12.879 0 14 1.122 14 2.5L14 4ZM8 2.5C8 2.224 8.225 2 8.5 2L11.5 2C11.775 2 12 2.224 12 2.5L12 4L8 4L8 2.5ZM17 16C17.552 16 18 15.551 18 15L18 7C18 6.449 17.552 6 17 6L3 6C2.448 6 2 6.449 2 7L2 15C2 15.551 2.448 16 3 16L17 16ZM10 7.5C8.07 7.5 6.5 9.07 6.5 11C6.5 12.93 8.07 14.5 10 14.5C11.93 14.5 13.5 12.93 13.5 11C13.5 9.07 11.93 7.5 10 7.5ZM8.5 11C8.5 11.827 9.173 12.5 10 12.5C10.827 12.5 11.5 11.827 11.5 11C11.5 10.173 10.827 9.5 10 9.5C9.173 9.5 8.5 10.173 8.5 11Z" transform="translate(1 1)" id="🎨-Icon-Сolor" fill="#FF2626" fill-rule="evenodd" stroke="none" />
</svg>