<?xml version="1.0" encoding="utf-8"?>
<svg width="26px" height="26px" viewBox="0 0 26 26" version="1.1" xmlns:xlink="http://www.w3.org/1999/xlink" xmlns="http://www.w3.org/2000/svg">
  <desc>Created with Lunacy</desc>
  <path d="M10.6667 0L0 0L0 10.6667L10.6667 10.6667L10.6667 0ZM24.0002 0L13.3335 0L13.3335 10.6667L24.0002 10.6667L24.0002 0ZM2.6665 2.66669L2.6665 8.00002L7.99984 8.00002L7.99984 2.66669L2.6665 2.66669ZM16 2.66669L16 8.00002L21.3333 8.00002L21.3333 2.66669L16 2.66669ZM10.6667 13.3333L0 13.3333L0 24L10.6667 24L10.6667 13.3333ZM24.0002 13.3333L13.3335 13.3333L13.3335 24L24.0002 24L24.0002 13.3333ZM2.6665 16L2.6665 21.3333L7.99984 21.3333L7.99984 16L2.6665 16ZM16 16L16 21.3333L21.3333 21.3333L21.3333 16L16 16Z" transform="translate(1 1)" id="Shape" fill="#4C7399" fill-rule="evenodd" stroke="none" />
</svg>