<svg xmlns="http://www.w3.org/2000/svg" width="19" height="16" viewBox="0 0 19 16">
  <path fill="#FF2626" fill-rule="evenodd" d="M3,-1.5 L16,-1.5 C16.8284271,-1.5 17.5,-0.828427125 17.5,0 C17.5,0.828427125 16.8284271,1.5 16,1.5 L3,1.5 C2.17157288,1.5 1.5,0.828427125 1.5,0 C1.5,-0.828427125 2.17157288,-1.5 3,-1.5 Z M3,6.5 L12,6.5 C12.8284271,6.5 13.5,7.17157288 13.5,8 C13.5,8.82842712 12.8284271,9.5 12,9.5 L3,9.5 C2.17157288,9.5 1.5,8.82842712 1.5,8 C1.5,7.17157288 2.17157288,6.5 3,6.5 Z M3,14.5 L8,14.5 C8.82842712,14.5 9.5,15.1715729 9.5,16 C9.5,16.8284271 8.82842712,17.5 8,17.5 L3,17.5 C2.17157288,17.5 1.5,16.8284271 1.5,16 C1.5,15.1715729 2.17157288,14.5 3,14.5 Z" transform="matrix(0 -1 -1 0 17.5 17.5)"/>
</svg>
