<svg xmlns="http://www.w3.org/2000/svg" width="20" height="16" viewBox="0 0 20 16">
  <path fill="#F0F0F0" fill-rule="evenodd" d="M113.5,-1.5 L126.5,-1.5 C127.328427,-1.5 128,-0.828427125 128,-4.4408921e-16 C128,0.828427125 127.328427,1.5 126.5,1.5 L113.5,1.5 C112.671573,1.5 112,0.828427125 112,2.22044605e-16 C112,-0.828427125 112.671573,-1.5 113.5,-1.5 Z M113.5,6.5 L122.5,6.5 C123.328427,6.5 124,7.17157288 124,8 C124,8.82842712 123.328427,9.5 122.5,9.5 L113.5,9.5 C112.671573,9.5 112,8.82842712 112,8 C112,7.17157288 112.671573,6.5 113.5,6.5 Z M113.5,14.5 L118.5,14.5 C119.328427,14.5 120,15.1715729 120,16 C120,16.8284271 119.328427,17.5 118.5,17.5 L113.5,17.5 C112.671573,17.5 112,16.8284271 112,16 C112,15.1715729 112.671573,14.5 113.5,14.5 Z" transform="matrix(0 -1 -1 0 18 128)"/>
</svg>
