<?xml version="1.0" encoding="UTF-8"?>
<svg width="19px" height="16px" viewBox="0 0 19 16" version="1.1" xmlns="http://www.w3.org/2000/svg" xmlns:xlink="http://www.w3.org/1999/xlink">
    <!-- Generator: Sketch 53.2 (72643) - https://sketchapp.com -->
    <title>decrease-increase</title>
    <desc>Created with Sketch.</desc>
    <g id="Desktop" stroke="none" stroke-width="1" fill="none" fill-rule="evenodd">
        <g id="Desktop/salony-spisok" transform="translate(-221.000000, -611.000000)" fill="#F0F0F0">
            <g id="sorting" transform="translate(60.000000, 574.000000)">
                <path d="M164,35.5 L177,35.5 C177.828427,35.5 178.5,36.1715729 178.5,37 C178.5,37.8284271 177.828427,38.5 177,38.5 L164,38.5 C163.171573,38.5 162.5,37.8284271 162.5,37 C162.5,36.1715729 163.171573,35.5 164,35.5 Z M164,43.5 L173,43.5 C173.828427,43.5 174.5,44.1715729 174.5,45 C174.5,45.8284271 173.828427,46.5 173,46.5 L164,46.5 C163.171573,46.5 162.5,45.8284271 162.5,45 C162.5,44.1715729 163.171573,43.5 164,43.5 Z M164,51.5 L169,51.5 C169.828427,51.5 170.5,52.1715729 170.5,53 C170.5,53.8284271 169.828427,54.5 169,54.5 L164,54.5 C163.171573,54.5 162.5,53.8284271 162.5,53 C162.5,52.1715729 163.171573,51.5 164,51.5 Z" id="decrease-increase" transform="translate(170.500000, 45.000000) scale(-1, -1) rotate(90.000000) translate(-170.500000, -45.000000) "></path>
            </g>
        </g>
    </g>
</svg>