<?xml version="1.0" encoding="utf-8"?>
<svg width="13px" height="11px" viewBox="0 0 13 11" version="1.1" xmlns:xlink="http://www.w3.org/1999/xlink" xmlns="http://www.w3.org/2000/svg">
  <desc>Created with Lunacy</desc>
  <path d="M9.70722 0.294536L11.7072 2.29452L11.7082 2.29452C12.0987 2.68526 12.0985 3.31855 11.7077 3.70902C11.317 4.09948 10.6837 4.09925 10.2932 3.70852L10.0002 3.41552L10.0002 9.00148C10.0002 9.55376 9.5525 10.0015 9.00022 10.0015C8.44793 10.0015 8.00022 9.55376 8.00022 9.00148L8.00022 3.41552L7.70622 3.70852C7.31384 4.08749 6.69013 4.08207 6.3044 3.69633C5.91866 3.3106 5.91324 2.6869 6.29222 2.29452L8.29222 0.294536C8.47939 0.106021 8.73406 0 8.99972 0C9.26537 0 9.52004 0.106021 9.70722 0.294536ZM2.99923 0.000671389C3.55151 0.000671389 3.99923 0.448384 3.99923 1.00067L4.00023 6.58763L4.29223 6.29463C4.68297 5.90389 5.31648 5.90389 5.70723 6.29463C6.09797 6.68537 6.09797 7.31889 5.70723 7.70962L3.70723 9.70861C3.52035 9.89732 3.2658 10.0035 3.00023 10.0035C2.73465 10.0035 2.4801 9.89732 2.29323 9.70861L0.293225 7.70962C0.04046 7.45704 -0.0583514 7.08879 0.0340124 6.7436C0.126376 6.39841 0.395883 6.12871 0.741012 6.0361C1.08614 5.9435 1.45446 6.04205 1.70723 6.29463L1.99923 6.58763L1.99923 1.00067C1.99923 0.448384 2.44694 0.000671388 2.99923 0.000671389Z" id="sorting-arrows" fill="#F0F0F0" fill-rule="evenodd" stroke="none" />
  <path d="M3.99923 1C3.99923 0.447715 3.55151 3.38271e-17 2.99923 0C2.44694 -3.38271e-17 1.99923 0.447715 1.99923 1L1.99923 6.587L1.70723 6.294C1.45446 6.04141 1.08614 5.94286 0.741013 6.03547C0.395883 6.12808 0.126376 6.39778 0.0340124 6.74297C-0.0583514 7.08816 0.04046 7.45641 0.293225 7.709L2.29323 9.708C2.4801 9.89671 2.73465 10.0029 3.00023 10.0029C3.2658 10.0029 3.52036 9.89671 3.70723 9.708L5.70723 7.709C6.09797 7.31826 6.09797 6.68474 5.70723 6.294C5.31648 5.90326 4.68297 5.90326 4.29223 6.294L4.00023 6.587L3.99923 1Z" transform="translate(0 0.0005493164)" id="Path-Copy" fill="#FF2626" stroke="none" />
</svg>