<?xml version="1.0" encoding="utf-8"?>
<svg width="14px" height="17px" viewBox="0 0 14 17" version="1.1" xmlns:xlink="http://www.w3.org/1999/xlink" xmlns="http://www.w3.org/2000/svg">
  <desc>Created with Lunacy</desc>
  <path d="M0.0333012 6.12162C0.367809 2.75805 3.26415 0.122959 6.75043 0.00431857C10.7296 -0.131488 14 2.95328 14 6.78044C14 7.21953 13.9568 7.64826 13.874 8.06657C13.874 8.06657 13.8596 8.14317 13.8273 8.27915C13.7194 8.74974 13.561 9.19938 13.3559 9.62453C12.6508 11.2419 11.0283 13.9362 7.38725 16.8641C7.16063 17.0453 6.83314 17.0453 6.61003 16.8641C2.96903 13.9328 1.34646 11.2383 0.644841 9.62811C0.443318 9.20278 0.281551 8.74974 0.173481 8.28255C0.137638 8.14317 0.126755 8.06997 0.126755 8.06997C0.00451863 7.44605 -0.0350124 6.79421 0.0333012 6.12162ZM4 7.0001C4 8.65713 5.34279 10 6.99998 10C8.65701 10 10 8.65713 10 7.0001C10 5.34287 8.65701 4 6.99998 4C5.34279 4 4 5.34287 4 7.0001Z" id="location" fill="#FF2626" fill-rule="evenodd" stroke="none" />
</svg>