<?xml version="1.0" encoding="utf-8"?>
<svg width="13px" height="11px" viewBox="0 0 13 11" version="1.1" xmlns:xlink="http://www.w3.org/1999/xlink" xmlns="http://www.w3.org/2000/svg">
  <desc>Created with Lunacy</desc>
  <path d="M9.70722 0.294538L11.7072 2.29454L11.7082 2.29454C12.0987 2.68528 12.0985 3.31857 11.7077 3.70904C11.317 4.0995 10.6837 4.09928 10.2932 3.70854L10.0002 3.41554L10.0002 9.00154C10.0002 9.55382 9.5525 10.0015 9.00022 10.0015C8.44793 10.0015 8.00022 9.55382 8.00022 9.00154L8.00022 3.41554L7.70622 3.70854C7.31384 4.08751 6.69013 4.08209 6.3044 3.69636C5.91866 3.31062 5.91324 2.68692 6.29222 2.29454L8.29222 0.294538C8.47939 0.106021 8.73406 0 8.99972 0C9.26537 0 9.52004 0.106021 9.70722 0.294538ZM2.99923 0.000549316C3.55151 0.000549316 3.99923 0.448265 3.99923 1.00055L4.00023 6.58755L4.29223 6.29455C4.68297 5.90381 5.31648 5.90381 5.70723 6.29455C6.09797 6.68529 6.09797 7.31881 5.70723 7.70955L3.70723 9.70855C3.52035 9.89725 3.2658 10.0034 3.00023 10.0034C2.73465 10.0034 2.4801 9.89725 2.29323 9.70855L0.293225 7.70955C0.04046 7.45696 -0.0583514 7.08871 0.0340124 6.74352C0.126376 6.39832 0.395883 6.12863 0.741012 6.03602C1.08614 5.94341 1.45446 6.04196 1.70723 6.29455L1.99923 6.58755L1.99923 1.00055C1.99923 0.448265 2.44694 0.000549316 2.99923 0.000549316Z" id="sorting-arrows" fill="#F0F0F0" fill-rule="evenodd" stroke="none" />
</svg>