<?xml version="1.0" encoding="utf-8"?>
<svg width="16px" height="13px" viewBox="0 0 16 13" version="1.1" xmlns:xlink="http://www.w3.org/1999/xlink" xmlns="http://www.w3.org/2000/svg">
  <desc>Created with Lunacy</desc>
  <path d="M12.654 0.882L3.582 12.996L2.394 12.168L11.484 0L12.654 0.882ZM3.546 6.46201Q5.094 6.46201 6.093 5.57101Q7.092 4.68001 7.092 3.24001Q7.092 1.80001 6.093 0.918011Q5.094 0.0360107 3.546 0.0360107Q1.998 0.0360107 0.999 0.918011Q0 1.80001 0 3.24001Q0 4.68001 0.99 5.58001Q1.998 6.46201 3.546 6.46201ZM2.403 4.36502Q2.862 4.78802 3.546 4.78802Q4.266 4.78802 4.716 4.36502Q5.166 3.94202 5.166 3.24002Q5.166 2.55602 4.707 2.13302Q4.248 1.71002 3.546 1.71002Q2.862 1.71002 2.403 2.13302Q1.944 2.55602 1.944 3.24002Q1.944 3.94202 2.403 4.36502ZM11.502 12.978Q13.05 12.978 14.049 12.087Q15.048 11.196 15.048 9.756Q15.048 8.316 14.049 7.434Q13.05 6.552 11.502 6.552Q9.954 6.552 8.955 7.434Q7.956 8.316 7.956 9.756Q7.956 11.196 8.946 12.096Q9.954 12.978 11.502 12.978ZM10.359 10.881C10.665 11.163 11.046 11.304 11.502 11.304Q12.222 11.304 12.672 10.881C12.972 10.599 13.122 10.224 13.122 9.75601C13.122 9.30001 12.969 8.93101 12.663 8.64901C12.357 8.36701 11.97 8.22601 11.502 8.22601C11.046 8.22601 10.665 8.36701 10.359 8.64901C10.053 8.93101 9.9 9.30001 9.9 9.75601Q9.9 10.458 10.359 10.881Z" id="%" fill="#FF2626" fill-rule="evenodd" stroke="none" />
</svg>