<?xml version="1.0" encoding="UTF-8"?>
<svg width="66px" height="50px" viewBox="0 0 66 50" version="1.1" xmlns="http://www.w3.org/2000/svg" xmlns:xlink="http://www.w3.org/1999/xlink">
    <!-- Generator: Sketch 53.2 (72643) - https://sketchapp.com -->
    <title>spiral</title>
    <desc>Created with Sketch.</desc>
    <defs>
        <polygon id="path-1" points="0 3.77628913 47.984 3.77628913 47.984 49.998 0 49.998"></polygon>
    </defs>
    <g id="Desktop" stroke="none" stroke-width="1" fill="none" fill-rule="evenodd">
        <g id="Desktop/main" transform="translate(-120.000000, -2181.000000)">
            <g id="advantages" transform="translate(60.000000, 2146.000000)">
                <g id="01" transform="translate(60.000000, 35.000000)">
                    <g id="spiral">
                        <circle id="decor" fill="#F2F249" cx="46" cy="20" r="20"></circle>
                        <mask id="mask-2" fill="white">
                            <use xlink:href="#path-1"></use>
                        </mask>
                        <g id="Clip-2"></g>
                        <path d="M42.336,15.698 C39.391,12.756 35.48,11.135 31.316,11.135 C27.156,11.135 23.242,12.756 20.301,15.698 C17.914,18.084 16.602,21.256 16.602,24.627 C16.602,27.998 17.914,31.17 20.301,33.557 C22.238,35.495 24.816,36.561 27.555,36.561 C30.293,36.561 32.871,35.495 34.809,33.557 C38.074,30.291 38.074,24.983 34.809,21.721 C32.137,19.045 27.789,19.045 25.117,21.721 C22.914,23.92 22.914,27.502 25.117,29.702 C26.941,31.526 29.902,31.526 31.727,29.702 C32.039,29.389 32.039,28.885 31.727,28.573 C31.414,28.26 30.91,28.26 30.598,28.573 C29.398,29.768 27.445,29.772 26.246,28.573 C24.668,26.995 24.668,24.428 26.246,22.854 C28.297,20.803 31.629,20.803 33.68,22.854 C36.316,25.491 36.316,29.788 33.68,32.424 C32.043,34.061 29.867,34.963 27.555,34.963 C25.242,34.963 23.066,34.061 21.43,32.424 C19.348,30.342 18.199,27.573 18.199,24.627 C18.199,21.682 19.348,18.913 21.43,16.831 C24.07,14.19 27.582,12.737 31.316,12.737 C35.051,12.737 38.562,14.19 41.203,16.831 C44.543,20.17 46.383,24.608 46.383,29.331 C46.383,34.053 44.543,38.495 41.203,41.831 C36.965,46.069 31.34,48.401 25.355,48.401 L25.227,48.401 C19.305,48.366 13.781,46.038 9.676,41.838 C-0.027,31.913 -1.129,16.1 7.121,5.053 C7.383,4.702 7.312,4.198 6.957,3.936 C6.602,3.67 6.102,3.745 5.836,4.096 C-2.875,15.768 -1.719,32.475 8.531,42.956 C12.941,47.463 18.863,49.963 25.215,49.998 L25.355,49.998 C31.77,49.998 37.793,47.502 42.336,42.963 C45.977,39.323 47.984,34.479 47.984,29.331 C47.984,24.182 45.977,19.342 42.336,15.698 Z" id="Fill-1" fill="#1A1A1A" mask="url(#mask-2)"></path>
                    </g>
                </g>
            </g>
        </g>
    </g>
</svg>