<?xml version="1.0" encoding="UTF-8"?>
<svg viewBox="0 0 24 24" version="1.1" xmlns="http://www.w3.org/2000/svg" xmlns:xlink="http://www.w3.org/1999/xlink">
    <!-- Generator: sketchtool 53.2 (72643) - https://sketchapp.com -->
    <title>C21FEAF8-61DD-4E92-93C6-DAE1AF23040E</title>
    <desc>Created with sketchtool.</desc>
    <g id="Desktop" stroke="none" stroke-width="1" fill="none" fill-rule="evenodd">
        <g id="Desktop/salony-spisok" transform="translate(-205.000000, -300.000000)" fill="#A0A0A0">
            <g id="filter" transform="translate(60.000000, 198.000000)">
                <g id="author" transform="translate(40.000000, 102.000000)">
                    <g id="star" transform="translate(104.999435, 0.000008)">
                        <path d="M12.0011299,19.5045592 L5.33170175,23.8948089 C5.02706759,24.0960192 4.62594789,23.9993928 4.435145,23.681094 C4.34082767,23.5230814 4.31155677,23.3309653 4.35492106,23.1502171 L6.27595921,15.1438658 L0.234229182,9.85101165 C-0.0422181821,9.61001399 -0.0801619379,9.18031063 0.149668811,8.89043138 C0.263500079,8.74719692 0.429368497,8.65852797 0.607162096,8.64602338 L8.46151954,8.0890005 L11.396198,0.42709396 C11.5306273,0.0781020745 11.9100649,-0.091278352 12.2428858,0.0496825399 C12.406586,0.119026204 12.5366789,0.255439971 12.6028095,0.42709396 L15.5364038,8.0890005 L23.3918454,8.64602338 C23.7506849,8.67103257 24.0217117,8.99615205 23.9978614,9.3712899 C23.9859362,9.55772205 23.9024599,9.7316496 23.7647783,9.85101165 L17.7230483,15.1438658 L19.6440864,23.1502171 C19.7318991,23.5151239 19.5215823,23.8857146 19.1724998,23.9789307 C19.0001267,24.0255387 18.8179967,23.9937089 18.6673057,23.8948089 L12.0011299,19.5045592 Z" id="Fill-1"></path>
                    </g>
                </g>
            </g>
        </g>
    </g>
</svg>