<?xml version="1.0" encoding="UTF-8"?>
<svg width="10px" height="10px" viewBox="0 0 10 10" version="1.1" xmlns="http://www.w3.org/2000/svg" xmlns:xlink="http://www.w3.org/1999/xlink">
    <!-- Generator: Sketch 53.2 (72643) - https://sketchapp.com -->
    <title>star</title>
    <desc>Created with Sketch.</desc>
    <g id="star" stroke="none" stroke-width="1" fill="none" fill-rule="evenodd">
        <path d="M5.00047079,8.12689966 L2.22154239,9.95617037 C2.0946115,10.040008 1.92747829,9.99974699 1.84797708,9.86712249 C1.80867819,9.80128391 1.79648199,9.72123555 1.81455044,9.64592378 L2.614983,6.30994407 L0.0975954923,4.10458819 C-0.0175909092,4.0041725 -0.0334008075,3.82512943 0.0623620048,3.70434641 C0.1097917,3.64466538 0.17890354,3.60771999 0.252984206,3.60250974 L3.52563314,3.37041687 L4.74841585,0.177955817 C4.80442806,0.032542531 4.96252704,-0.0380326467 5.10120243,0.0207010583 C5.16941085,0.0495942518 5.22361622,0.106433321 5.25117061,0.177955817 L6.4735016,3.37041687 L9.74660225,3.60250974 C9.89611871,3.61293024 10.0090466,3.74839669 9.99910891,3.90470413 C9.99414008,3.98238419 9.95935831,4.054854 9.90199096,4.10458819 L7.38460345,6.30994407 L8.18503601,9.64592378 C8.22162463,9.79796829 8.13399263,9.9523811 7.98854156,9.99122113 C7.91671945,10.0106411 7.84083194,9.99737869 7.77804406,9.95617037 L5.00047079,8.12689966 Z" id="Fill-1" fill="#FF2626"></path>
    </g>
</svg>