<?xml version="1.0" encoding="utf-8"?>
<svg width="20px" height="20px" viewBox="0 0 20 20" version="1.1" xmlns:xlink="http://www.w3.org/1999/xlink" xmlns="http://www.w3.org/2000/svg">
  <desc>Created with Lunacy</desc>
  <path d="M4.04945 0L0 0L0 4L4.04945 4L4.04945 0ZM7.97528 0L12.0247 0L12.0247 4L7.97528 4L7.97528 0ZM20 0L15.9506 0L15.9506 4L20 4L20 0ZM0 8L4.04945 8L4.04945 12L0 12L0 8ZM12.0247 8L7.97528 8L7.97528 12L12.0247 12L12.0247 8ZM15.9506 8L20 8L20 12L15.9506 12L15.9506 8ZM4.04945 16L0 16L0 20L4.04945 20L4.04945 16ZM7.97528 16L12.0247 16L12.0247 20L7.97528 20L7.97528 16ZM20 16L15.9506 16L15.9506 20L20 20L20 16Z" id="view2" fill="#A0A0A0" fill-opacity="0.254901975" fill-rule="evenodd" stroke="none" />
</svg>