<svg xmlns="http://www.w3.org/2000/svg" width="24" height="24" viewBox="0 0 24 24">
    <path fill="#FF2626" fill-rule="evenodd" d="M19.714 9.429c-.74 0-1.445-.326-1.926-.89-.311-.357-.853-.393-1.21-.082-.028.026-.055.053-.08.082-.954 1.064-2.589 1.153-3.652.2-.07-.063-.138-.13-.2-.2-.336-.357-.897-.374-1.253-.038l-.038.038c-.953 1.064-2.588 1.153-3.652.2-.07-.063-.137-.13-.2-.2-.336-.357-.897-.374-1.253-.038l-.038.038c-.481.564-1.185.89-1.926.89-1.42 0-2.572-1.152-2.572-2.572h20.572c0 1.42-1.152 2.572-2.572 2.572zm.857 12c0 .473-.383.857-.857.857H15.43V14.57c0-.473-.384-.857-.858-.857H9.43c-.474 0-.858.384-.858.857v7.715H4.286c-.474 0-.857-.384-.857-.857V11.057c1.202.247 2.453-.04 3.428-.787 1.53 1.124 3.613 1.124 5.143 0 1.53 1.124 3.613 1.124 5.143 0 .975.747 2.226 1.034 3.428.787V21.43zm-10.285.857h3.428v-6.857h-3.428v6.857zM3.189 1.714H6v3.429H2.046l1.143-3.429zm4.525 3.429h3.429V1.714H7.714v3.429zm5.143 0h3.429V1.714h-3.429v3.429zM18 1.714h2.81l1.144 3.429H18V1.714zm5.956 4.015L22.242.586C22.125.236 21.798 0 21.429 0H2.57c-.369 0-.696.236-.813.586L.044 5.73c-.027.08-.041.164-.044.248v.88c.003 1.343.638 2.606 1.714 3.41v11.162c0 1.42 1.152 2.571 2.572 2.571h15.428c1.42 0 2.572-1.151 2.572-2.571V10.266C23.362 9.464 23.996 8.2 24 6.858v-.88c-.003-.084-.017-.168-.044-.248z"/>
</svg>
