<?xml version="1.0" encoding="UTF-8"?>
<svg width="26px" height="14px" viewBox="0 0 26 14" version="1.1" xmlns="http://www.w3.org/2000/svg" xmlns:xlink="http://www.w3.org/1999/xlink">
    <!-- Generator: Sketch 53.2 (72643) - https://sketchapp.com -->
    <title>vk</title>
    <desc>Created with Sketch.</desc>
    <g id="Symbols" stroke="none" stroke-width="1" fill="none" fill-rule="evenodd">
        <g id="Footer-/-Desktop" transform="translate(-67.000000, -238.000000)" fill="#4D7399">
            <g id="footer">
                <g id="social" transform="translate(60.000000, 195.000000)">
                    <g id="vk" transform="translate(0.000000, 30.000000)">
                        <path d="M32.8626867,25.6431878 C32.8311172,25.5788989 32.8018323,25.5261741 32.7744167,25.4832494 C32.3233052,24.716878 31.4607518,23.7758679 30.1886258,22.6604152 L30.1620409,22.6343468 L30.1481254,22.6219986 L30.1344176,22.6090624 L30.1213329,22.6090624 C29.5437357,22.0892627 29.1777788,21.7399854 29.0245006,21.5616228 C28.744529,21.2209697 28.68139,20.8756125 28.8346682,20.5265313 C28.9432922,20.2623193 29.3489187,19.705083 30.0532092,18.8528622 C30.4231123,18.4018595 30.7167917,18.0396461 30.9325859,17.767202 C32.4944451,15.8079567 33.1711124,14.5560859 32.9634183,14.0110018 L32.8830407,13.8837959 C32.8286249,13.8073547 32.6892622,13.7367937 32.4637064,13.6732887 C32.2381507,13.6089998 31.9492482,13.5982196 31.5972068,13.6411443 L27.6979587,13.6664286 C27.6354427,13.6458483 27.5446804,13.6472203 27.4277487,13.6732887 C27.3101939,13.6985731 27.2510011,13.7115093 27.2510011,13.7115093 L27.1837082,13.7438498 L27.1301231,13.7820704 C27.0846381,13.8073547 27.0352069,13.8516514 26.9807911,13.9159404 C26.927206,13.9796413 26.8819287,14.0545144 26.8462053,14.1395797 C26.4210556,15.1701631 25.9392054,16.1280295 25.3971239,17.0137667 C25.0629442,17.5419946 24.7561801,17.9998575 24.4764162,18.3873553 C24.1964446,18.7746571 23.961958,19.0604293 23.7729564,19.2433001 C23.5831241,19.4263668 23.4119842,19.573369 23.2584982,19.6835227 C23.1043893,19.7946563 22.9876652,19.841305 22.9064568,19.8244488 C22.8252485,19.8068085 22.748194,19.7899523 22.6761241,19.773096 C22.5494307,19.6966549 22.4480761,19.5923813 22.3718523,19.4600793 C22.2947978,19.3283654 22.2428743,19.1621549 22.2160818,18.9616439 C22.1892893,18.7617209 22.1730891,18.5894343 22.1681045,18.4447841 C22.1641583,18.300134 22.1664429,18.0949189 22.1753738,17.831491 C22.1843046,17.567279 22.1892893,17.3881323 22.1892893,17.2948349 C22.1892893,16.9708421 22.1957278,16.6194088 22.2088125,16.2405351 C22.2225203,15.8614655 22.2339435,15.561385 22.2428743,15.3400977 C22.2518052,15.1188104 22.2565821,14.8845869 22.2565821,14.6372312 C22.2565821,14.3906595 22.240382,14.1970086 22.2088125,14.0560825 C22.1778661,13.9159404 22.1300965,13.7797183 22.0667498,13.6472203 C22.0034031,13.5155064 21.9109792,13.4129968 21.7892705,13.3410638 C21.6675618,13.2683467 21.5167759,13.2109178 21.3364975,13.1679932 C20.8579704,13.0660716 20.248596,13.0109948 19.5087898,13.0017827 C17.8302065,12.9849264 16.7518589,13.087632 16.2731241,13.3089193 C16.0832918,13.4022167 15.9121519,13.5302066 15.7588736,13.691713 C15.5966646,13.8792878 15.5738182,13.9817973 15.69075,13.9986536 C16.2326238,14.0752907 16.6156116,14.2583575 16.8419981,14.5476578 L16.9229988,14.7015201 C16.9863455,14.8118698 17.0496922,15.0078727 17.1122081,15.2887449 C17.1753471,15.5698131 17.2160551,15.8806738 17.2337091,16.2213269 C17.2791941,16.8430482 17.2791941,17.3751961 17.2337091,17.8185548 C17.1892626,18.2609334 17.1462699,18.6062905 17.1055619,18.8528622 C17.0650616,19.1002179 17.0042072,19.2999449 16.9229988,19.4538072 C16.8419981,19.6070815 16.7875823,19.7003789 16.759959,19.7348754 C16.7331665,19.7685879 16.7105278,19.7899523 16.6926661,19.7983804 C16.5751113,19.841305 16.4534026,19.8626693 16.3267092,19.8626693 C16.2010543,19.8626693 16.0475684,19.8030845 15.8666669,19.6835227 C15.6865961,19.5641569 15.4992561,19.4002984 15.3052698,19.1911633 C15.1114913,18.9830082 14.8923741,18.6913558 14.6481258,18.3162062 C14.4047084,17.9416446 14.1525678,17.499266 13.8904579,16.9876983 L13.673833,16.6172528 C13.5382088,16.3791092 13.3533611,16.032184 13.1188745,15.5758892 C12.8843879,15.1203784 12.6766939,14.6801558 12.4966231,14.2536534 C12.4243456,14.0752907 12.3157216,13.9390687 12.1711666,13.8447913 L12.1038737,13.8065707 C12.0583887,13.7728582 11.9863189,13.7367937 11.8872488,13.6977891 C11.7875556,13.6595685 11.6845394,13.6319321 11.5757077,13.6150759 L7.86649959,13.6403602 C7.48766564,13.6403602 7.23033271,13.7215055 7.09491618,13.8830119 L7.04050034,13.959649 C7.01370781,14.0025737 7,14.0705867 7,14.1640801 C7,14.2583575 7.02679253,14.3730192 7.08120838,14.5094372 C7.62308216,15.7099552 8.21127172,16.8683325 8.84806169,17.9837852 C9.48422858,19.1002179 10.0366948,19.9983034 10.5056679,20.6796096 C10.9754719,21.3611118 11.4531682,22.0041974 11.9408339,22.6082784 C12.4284995,23.2131435 12.7512561,23.6006413 12.9086881,23.7713598 C13.066951,23.9420784 13.1911521,24.0690883 13.2810836,24.1541536 L13.6194172,24.4610942 C13.8360421,24.6655252 14.1540217,24.9105289 14.5743945,25.1953211 C14.9937288,25.4808974 15.4587557,25.7619656 15.9682293,26.0391138 C16.4785335,26.3154779 17.0715001,26.5412733 17.7489981,26.7159119 C18.4256653,26.8905505 19.0844708,26.9609156 19.7254147,26.926419 L21.2822893,26.926419 C21.5977766,26.9011347 21.8372478,26.8070533 21.9994569,26.6455468 L22.053042,26.5820419 C22.0893884,26.5306891 22.1234502,26.4516999 22.1543967,26.3452703 C22.1859662,26.2390368 22.2021663,26.121827 22.2021663,25.9940331 C22.1932354,25.6278996 22.2225203,25.2980267 22.2898132,25.0040223 C22.3571061,24.7108019 22.4341605,24.4895146 22.5203536,24.3401603 C22.6063389,24.1908061 22.702709,24.0653642 22.8115406,23.9634427 C22.9193339,23.8609332 22.996596,23.7995843 23.0418734,23.7782199 C23.0865276,23.7566596 23.1222509,23.7421554 23.1498743,23.7329433 C23.3664992,23.6649302 23.6211321,23.7315712 23.9148115,23.9312982 C24.2078678,24.1320052 24.4828547,24.3783809 24.7408107,24.6723853 C24.997936,24.9663897 25.3071924,25.2964587 25.6673339,25.6623961 C26.0291369,26.0283336 26.3448319,26.3009737 26.6148342,26.4801204 L26.8858749,26.6331987 C27.0667764,26.7359042 27.301263,26.8292016 27.5901654,26.9142669 C27.8788602,26.9999201 28.1312085,27.0214805 28.3478334,26.9785558 L31.8138317,26.9272031 C32.1561115,26.9272031 32.4229984,26.8736943 32.612,26.7672647 C32.8018323,26.6608351 32.9139871,26.5436253 32.9503336,26.4166154 C32.9868877,26.2886255 32.9885493,26.1439753 32.9576029,25.9816849 C32.9252026,25.8201785 32.8936331,25.7068888 32.8626867,25.6431878 Z"></path>
                    </g>
                </g>
            </g>
        </g>
    </g>
</svg>