<?xml version="1.0" encoding="UTF-8"?>
<svg width="20px" height="16px" viewBox="0 0 20 16" version="1.1" xmlns="http://www.w3.org/2000/svg" xmlns:xlink="http://www.w3.org/1999/xlink">
    <!-- Generator: Sketch 53.2 (72643) - https://sketchapp.com -->
    <title>yt</title>
    <desc>Created with Sketch.</desc>
    <g id="Symbols" stroke="none" stroke-width="1" fill="none" fill-rule="evenodd">
        <g id="Footer-/-Desktop" transform="translate(-262.000000, -238.000000)" fill="#D8362A">
            <g id="footer">
                <g id="social" transform="translate(60.000000, 195.000000)">
                    <g id="yt" transform="translate(192.000000, 30.000000)">
                        <path d="M29.793,16.2758 C29.793,16.2758 30,18.0348 30,19.7928 L30,21.4138 C30,23.1378 29.793,24.8968 29.793,24.8968 C29.793,24.8968 29.586,26.3798 29,27.0348 C28.241,27.8618 27.379,27.8968 27,27.9308 C24.207,28.1718 20,28.1718 20,28.1718 C20,28.1718 14.793,28.1378 13.207,27.9648 C12.759,27.8618 11.759,27.8968 11,27.0348 C10.414,26.3798 10.207,24.8968 10.207,24.8968 C10.207,24.8968 10,23.1718 10,21.4138 L10,19.7938 C10,18.0348 10.207,16.2758 10.207,16.2758 C10.207,16.2758 10.379,14.7938 11,14.1378 C11.759,13.3108 12.621,13.2758 13,13.2418 C15.793,13.0348 20,12.9998 20,12.9998 C20,12.9998 24.207,13.0348 27,13.2418 C27.379,13.2758 28.241,13.2758 29,14.1378 C29.586,14.7928 29.793,16.2758 29.793,16.2758 Z M17.5864,17.1034 L17.5864,24.5864 L24.1374,20.9314 L17.5864,17.1034 Z"></path>
                    </g>
                </g>
            </g>
        </g>
    </g>
</svg>