<?xml version="1.0" encoding="utf-8"?>
<svg width="32px" height="31px" viewBox="0 0 32 31" version="1.1" xmlns:xlink="http://www.w3.org/1999/xlink" xmlns="http://www.w3.org/2000/svg">
  <desc>Created with Lunacy</desc>
  <g id="Ванная-иконка">
    <path d="M29.9375 15.9862L31.0625 15.9862C31.5802 15.9862 32 16.4059 32 16.9237C32 17.4414 31.5802 17.8612 31.0625 17.8612L29.7824 17.8612L29.0421 21.933C28.4476 25.2024 26.0216 27.7416 22.9375 28.5715L22.9375 29.9237C22.9375 30.4414 22.5177 30.8612 22 30.8612C21.4823 30.8612 21.0625 30.4414 21.0625 29.9237L21.0625 28.8547C20.9556 28.8587 20.8484 28.8612 20.7406 28.8612L11.2593 28.8612C11.1516 28.8612 11.0444 28.8587 10.9375 28.8547L10.9375 29.9237C10.9375 30.4414 10.5177 30.8612 10 30.8612C9.48225 30.8612 9.0625 30.4414 9.0625 29.9237L9.0625 28.5715C5.97844 27.7416 3.55238 25.2025 2.95794 21.933L2.21756 17.8612L0.9375 17.8612C0.41975 17.8612 0 17.4414 0 16.9237C0 16.4059 0.41975 15.9862 0.9375 15.9862L2.99881 15.9862L3 15.9861L28.0625 15.9861L28.0625 4.26406C28.0625 3.62406 27.813 3.02312 27.3599 2.57187C26.9084 2.12225 26.3099 1.875 25.6737 1.875L25.6636 1.875C25.1161 1.87725 24.5815 2.06975 24.1583 2.417L23.6777 2.81131C24.3598 4.10875 24.1561 5.754 23.0664 6.84369L21.6522 8.25794C21.4764 8.43369 21.2379 8.5325 20.9893 8.5325C20.7406 8.5325 20.5022 8.43375 20.3264 8.25788L16.7909 4.72231C16.4248 4.35625 16.4247 3.76262 16.7908 3.3965L18.205 1.98225C19.3351 0.852313 21.0626 0.675062 22.3801 1.45056L22.9689 0.967437C23.7244 0.347625 24.6786 0.004 25.6558 0L25.6739 0C26.8095 0 27.8775 0.441125 28.683 1.24337C29.4919 2.049 29.9375 3.12175 29.9375 4.26406L29.9375 15.9862ZM21.7406 5.51787L20.9893 6.26919L18.7795 4.05944L19.5309 3.30813C20.14 2.69887 21.1313 2.69887 21.7406 3.30813C22.3498 3.91738 22.3498 4.90863 21.7406 5.51787ZM13.6629 9.58655C13.4799 9.76961 13.2399 9.86117 13 9.86117C12.76 9.86117 12.5201 9.76967 12.3371 9.58655C11.971 9.22042 11.971 8.62686 12.3371 8.26074L12.8371 7.76074C13.2032 7.39461 13.7968 7.39461 14.1629 7.76074C14.5291 8.12686 14.5291 8.72042 14.1629 9.08655L13.6629 9.58655ZM17 10.3612C17.2399 10.3612 17.4799 10.2696 17.6629 10.0865L18.1629 9.58655C18.5291 9.22042 18.5291 8.62686 18.1629 8.26074C17.7968 7.89461 17.2032 7.89461 16.8372 8.26074L16.3372 8.76074C15.971 9.12686 15.971 9.72042 16.3372 10.0865C16.5201 10.2697 16.76 10.3612 17 10.3612ZM13.6629 13.5866C13.4799 13.7696 13.2399 13.8612 13 13.8612C12.76 13.8612 12.5201 13.7697 12.3371 13.5866C11.971 13.2204 11.971 12.6269 12.3371 12.2607L12.8371 11.7607C13.2032 11.3946 13.7968 11.3946 14.1629 11.7607C14.5291 12.1269 14.5291 12.7204 14.1629 13.0866L13.6629 13.5866ZM20.7406 26.9862C23.9142 26.9862 26.6297 24.7199 27.1974 21.5976L27.8767 17.8612L4.12331 17.8612L4.80269 21.5976C5.37037 24.7199 8.08575 26.9862 11.2593 26.9862L20.7406 26.9862Z" id="Combined-Shape" fill="#4C7399" fill-rule="evenodd" stroke="none" />
  </g>
</svg>