<?xml version="1.0" encoding="utf-8"?>
<svg width="33px" height="33px" viewBox="0 0 33 33" version="1.1" xmlns:xlink="http://www.w3.org/1999/xlink" xmlns="http://www.w3.org/2000/svg">
  <desc>Created with Lunacy</desc>
  <g id="Гостиная-иконка" transform="translate(0.5 0.5)">
    <path d="M0 0L32 0L32 32L0 32L0 0Z" id="Rectangle" fill="none" stroke="none" />
    <path d="M28.9806 6.53516C29.7796 6.51286 30.5376 6.80965 31.1108 7.37039C31.6842 7.93112 32 8.68285 32 9.48691L32 19.1623C32 20.7124 30.7526 21.9751 29.2139 21.9894C29.2088 21.9895 29.2037 21.9895 29.1986 21.9895L27.9375 21.9895L27.9375 23.0576C27.9375 23.5781 27.5177 24 27 24C26.4823 24 26.0625 23.5781 26.0625 23.0576L26.0625 21.9895L5.9375 21.9895L5.9375 23.0576C5.9375 23.5781 5.51775 24 5 24C4.48225 24 4.0625 23.5781 4.0625 23.0576L4.0625 21.9895L2.8125 21.9895C1.26169 21.9895 0 20.7212 0 19.1623L0 9.48691C0 8.68279 0.315812 7.93112 0.88925 7.37033C1.4625 6.80972 2.21962 6.51229 3.01944 6.53522C3.38687 6.54534 3.73831 6.62387 4.0625 6.75707L4.0625 2.82723C4.0625 1.26829 5.32419 0 6.875 0L25.125 0C26.6758 0 27.9375 1.26829 27.9375 2.82723L27.9375 6.75701C28.2617 6.62381 28.6131 6.54528 28.9806 6.53516ZM5.9375 2.82723C5.9375 2.30758 6.35806 1.88482 6.875 1.88482L25.125 1.88482C25.6419 1.88482 26.0625 2.30758 26.0625 2.82723L26.0625 11.0576L17.875 11.0576C17.1552 11.0576 16.498 11.3311 16 11.7798C15.502 11.3311 14.8448 11.0576 14.125 11.0576L5.9375 11.0576L5.9375 2.82723ZM29.1875 20.1047C29.7044 20.1047 30.125 19.6819 30.125 19.1623L30.125 9.48691C30.125 9.19608 30.0107 8.92417 29.8034 8.72124C29.596 8.51843 29.3223 8.41018 29.032 8.41922C28.4489 8.43525 27.9375 8.95376 27.9375 9.52869L27.9375 17.0262C27.9375 17.5466 27.5177 17.9686 27 17.9686L5 17.9686C4.48225 17.9686 4.0625 17.5466 4.0625 17.0262L4.0625 9.52869C4.0625 8.95376 3.551 8.43537 2.968 8.41929C2.95788 8.41904 2.94775 8.41891 2.93769 8.41891C2.65887 8.41891 2.39675 8.52559 2.19675 8.7213C1.98925 8.9241 1.875 9.19608 1.875 9.48691L1.875 19.1623C1.875 19.6819 2.29556 20.1047 2.8125 20.1047L29.1875 20.1047ZM5.9375 16.0838L5.9375 12.9424L14.125 12.9424C14.6419 12.9424 15.0625 13.3652 15.0625 13.8848L15.0625 16.0838L5.9375 16.0838ZM17.875 12.9424C17.3581 12.9424 16.9375 13.3652 16.9375 13.8848L16.9375 16.0838L26.0625 16.0838L26.0625 12.9424L17.875 12.9424Z" transform="translate(0 4)" id="Fill-1" fill="#4C7399" fill-rule="evenodd" stroke="none" />
  </g>
</svg>