<?xml version="1.0" encoding="utf-8"?>
<svg width="32px" height="32px" viewBox="0 0 32 32" version="1.1" xmlns:xlink="http://www.w3.org/1999/xlink" xmlns="http://www.w3.org/2000/svg">
  <desc>Created with Lunacy</desc>
  <g id="детская-иконка">
    <path d="M16.9375 2.16125L16.9375 0.9375C16.9375 0.41975 16.5177 0 16 0C15.4822 0 15.0625 0.41975 15.0625 0.9375L15.0625 2.16125C13.9713 2.54825 13.1875 3.59031 13.1875 4.8125C13.1875 6.36331 14.4492 7.625 16 7.625C17.5507 7.625 18.8125 6.36331 18.8125 4.8125C18.8125 3.59031 18.0287 2.54825 16.9375 2.16125ZM16 5.75C15.483 5.75 15.0625 5.32944 15.0625 4.8125C15.0625 4.29556 15.483 3.875 16 3.875C16.5169 3.875 16.9375 4.29556 16.9375 4.8125C16.9375 5.32944 16.5169 5.75 16 5.75ZM30.125 23.7097L30.125 8.56248C30.125 7.01167 28.8633 5.74998 27.3125 5.74998C25.7617 5.74998 24.5 7.01167 24.5 8.56248L24.5 9.49998L7.5 9.49998L7.5 8.56248C7.5 7.01167 6.23831 5.74998 4.6875 5.74998C3.13669 5.74998 1.875 7.01167 1.875 8.56248L1.875 23.7095C0.744375 24.0525 0 25.0817 0 26.2344L0 26.2347C0 27.2583 0.592438 28.1998 1.50925 28.6333C6.43425 30.9617 10.9034 32 16 32C21.0958 32 25.5648 30.9617 30.4901 28.6335C31.4073 28.2 32 27.2583 32 26.2345C32 25.0777 31.2517 24.0515 30.125 23.7097ZM3.75 8.56248C3.75 8.04554 4.17056 7.62498 4.6875 7.62498C5.20444 7.62498 5.625 8.04554 5.625 8.56248L5.625 24.575C5.00244 24.3507 4.37806 24.1044 3.75 23.8361L3.75 8.56248ZM27.3125 7.62498C26.7955 7.62498 26.375 8.04554 26.375 8.56248L26.375 24.5752C26.9975 24.3509 27.6219 24.1045 28.25 23.8362L28.25 8.56248C28.25 8.04554 27.8294 7.62498 27.3125 7.62498ZM7.5 20.75L9.4375 20.75L9.4375 11.375L7.5 11.375L7.5 20.75ZM13.1875 20.75L11.3125 20.75L11.3125 11.375L13.1875 11.375L13.1875 20.75ZM15.0625 20.75L16.9375 20.75L16.9375 11.375L15.0625 11.375L15.0625 20.75ZM20.6875 20.75L18.8125 20.75L18.8125 11.375L20.6875 11.375L20.6875 20.75ZM22.5625 20.75L24.5 20.75L24.5 11.375L22.5625 11.375L22.5625 20.75ZM24.5 22.625L7.5 22.625L7.5 25.1863C10.2634 25.9916 13.0349 26.375 16 26.375C18.9655 26.375 21.737 25.9917 24.5 25.1865L24.5 22.625ZM16 30.125C20.8047 30.125 25.0265 29.1422 29.6888 26.9384C29.9537 26.813 30.125 26.5369 30.125 26.2346C30.125 25.6909 29.5692 25.3108 29.0471 25.5349C24.8009 27.3577 20.6526 28.25 16 28.25C11.3421 28.25 7.19419 27.3552 2.95263 25.5346C2.43106 25.3108 1.875 25.6908 1.875 26.2344L1.875 26.2347C1.875 26.5369 2.046 26.813 2.31075 26.9382C6.9725 29.1421 11.1944 30.125 16 30.125Z" id="Combined-Shape" fill="#4C7399" fill-rule="evenodd" stroke="none" />
  </g>
</svg>