<?xml version="1.0" encoding="utf-8"?>
<svg width="32px" height="32px" viewBox="0 0 32 32" version="1.1" xmlns:xlink="http://www.w3.org/1999/xlink" xmlns="http://www.w3.org/2000/svg">
  <desc>Created with Lunacy</desc>
  <g id="кабинет-иконка">
    <path d="M30.4375 12.5L30.4375 14.3566C31.3626 14.8176 32 15.7731 32 16.875L32 17.125C32 18.6758 30.7383 19.9375 29.1875 19.9375L28.9375 19.9375L28.9375 31.0625C28.9375 31.5802 28.5177 32 28 32L4 32C3.48225 32 3.0625 31.5802 3.0625 31.0625L3.0625 19.9375L2.8125 19.9375C1.26169 19.9375 0 18.6758 0 17.125L0 16.875C0 15.3242 1.26169 14.0625 2.8125 14.0625L7.0625 14.0625L7.0625 11.9375L2.5 11.9375C1.98225 11.9375 1.5625 11.5177 1.5625 11L1.5625 3C1.5625 2.48225 1.98225 2.0625 2.5 2.0625L13.5 2.0625C14.0177 2.0625 14.4375 2.48225 14.4375 3L14.4375 11C14.4375 11.5177 14.0177 11.9375 13.5 11.9375L8.9375 11.9375L8.9375 14.0625L17.5625 14.0625L17.5625 12.5C17.5625 9.96894 19.031 7.77475 21.1606 6.72363C20.4813 6.01575 20.0625 5.05613 20.0625 4C20.0625 2.94944 20.4688 1.95288 21.2064 1.194C21.9548 0.424062 22.9469 0 24 0C25.0531 0 26.0452 0.424062 26.7936 1.194C27.5313 1.95288 27.9375 2.94944 27.9375 4C27.9375 5.05613 27.5187 6.01575 26.8394 6.72363C28.969 7.77475 30.4375 9.96894 30.4375 12.5ZM24 1.875C22.882 1.875 21.9375 2.84812 21.9375 4C21.9375 5.13725 22.8628 6.0625 24 6.0625C25.1373 6.0625 26.0625 5.13725 26.0625 4C26.0625 2.84812 25.118 1.875 24 1.875ZM3.4375 10.0625L12.5625 10.0625L12.5625 3.9375L3.4375 3.9375L3.4375 10.0625ZM19.4375 12.5C19.4375 9.98425 21.4842 7.9375 24 7.9375C26.5158 7.9375 28.5625 9.98425 28.5625 12.5L28.5625 14.0625L19.4375 14.0625L19.4375 12.5ZM30.125 17.125C30.125 17.6419 29.7044 18.0625 29.1875 18.0625L2.8125 18.0625C2.29556 18.0625 1.875 17.6419 1.875 17.125L1.875 16.875C1.875 16.3581 2.29556 15.9375 2.8125 15.9375L29.1875 15.9375C29.7044 15.9375 30.125 16.3581 30.125 16.875L30.125 17.125ZM27.0625 30.125L4.9375 30.125L4.9375 19.9375L27.0625 19.9375L27.0625 30.125Z" id="Fill-1" fill="#4C7399" fill-rule="evenodd" stroke="none" />
  </g>
</svg>