<?xml version="1.0" encoding="utf-8"?>
<svg width="32px" height="33px" viewBox="0 0 32 33" version="1.1" xmlns:xlink="http://www.w3.org/1999/xlink" xmlns="http://www.w3.org/2000/svg">
  <desc>Created with Lunacy</desc>
  <g id="Кухня-иконка">
    <path d="M2.00785 1.875L0.941183 1.875C0.421402 1.875 6.27451e-06 1.45525 6.27451e-06 0.9375C6.27451e-06 0.41975 0.421402 0 0.941183 0L31.0588 0C31.5786 0 32 0.41975 32 0.9375C32 1.45525 31.5786 1.875 31.0588 1.875L29.9922 1.875L29.9922 6C29.9922 6.51775 29.5708 6.9375 29.051 6.9375L26.4784 6.9375L26.4784 9.21681C27.6442 9.60906 28.4863 10.7081 28.4863 12L28.4863 14.5C28.4863 15.0177 28.0649 15.4375 27.5451 15.4375L23.5294 15.4375C23.0096 15.4375 22.5882 15.0177 22.5882 14.5L22.5882 12C22.5882 10.7081 23.4303 9.60906 24.5961 9.21681L24.5961 6.9375L16.9412 6.9375L16.9412 9.21681C18.107 9.60906 18.949 10.7081 18.949 12L18.949 14.5C18.949 15.0177 18.5276 15.4375 18.0078 15.4375L13.9922 15.4375C13.4724 15.4375 13.051 15.0177 13.051 14.5L13.051 12C13.051 10.7081 13.893 9.60906 15.0588 9.21681L15.0588 6.9375L7.40393 6.9375L7.40393 9.21681C8.56979 9.60906 9.41177 10.7081 9.41177 12L9.41177 14.5C9.41177 15.0177 8.99037 15.4375 8.47059 15.4375L4.45491 15.4375C3.93513 15.4375 3.51373 15.0177 3.51373 14.5L3.51373 12C3.51373 10.7081 4.35577 9.60906 5.52157 9.21681L5.52157 6.9375L2.94903 6.9375C2.42924 6.9375 2.00785 6.51775 2.00785 6L2.00785 1.875ZM3.8902 5.0625L15.0588 5.0625L15.0588 1.875L3.8902 1.875L3.8902 5.0625ZM28.1098 5.0625L16.9412 5.0625L16.9412 1.875L28.1098 1.875L28.1098 5.0625ZM5.39608 13.5625L5.39608 12C5.39608 11.4141 5.87458 10.9375 6.46275 10.9375C7.05092 10.9375 7.52942 11.4141 7.52942 12L7.52942 13.5625L5.39608 13.5625ZM14.9333 13.5625L14.9333 12C14.9333 11.4141 15.4118 10.9375 16 10.9375C16.5882 10.9375 17.0667 11.4141 17.0667 12L17.0667 13.5625L14.9333 13.5625ZM24.4706 12L24.4706 13.5625L26.6039 13.5625L26.6039 12C26.6039 11.4141 26.1254 10.9375 25.5373 10.9375C24.9491 10.9375 24.4706 11.4141 24.4706 12ZM0.941176 18.0625L31.0588 18.0625C31.5786 18.0625 32 18.4822 32 19C32 19.5177 31.5786 19.9375 31.0588 19.9375L29.9922 19.9375L29.9922 31.0625C29.9922 31.5802 29.5708 32 29.051 32C28.5312 32 28.1098 31.5802 28.1098 31.0625L28.1098 19.9375L3.8902 19.9375L3.8902 31.0625C3.8902 31.5802 3.4688 32 2.94902 32C2.42924 32 2.00784 31.5802 2.00784 31.0625L2.00784 19.9375L0.941176 19.9375C0.421396 19.9375 0 19.5177 0 19C0 18.4822 0.421396 18.0625 0.941176 18.0625ZM14.4314 23C14.4314 23.4972 14.0423 23.9031 13.551 23.9344L13.9002 26.7386C13.9112 26.7896 13.9174 26.8422 13.9198 26.8959L14.4242 30.9471C14.4882 31.461 14.1219 31.9292 13.606 31.9929C13.5667 31.9977 13.5277 32.0001 13.489 32.0001C13.0209 32.0001 12.6153 31.6524 12.5562 31.1779L12.1449 27.875L8.31003 27.875L7.89873 31.1779C7.83473 31.6917 7.36446 32.0567 6.84888 31.9929C6.33306 31.9291 5.96669 31.4609 6.03069 30.9471L6.53616 26.8874C6.5388 26.8383 6.54426 26.7901 6.55411 26.7432L6.90391 23.9344C6.41262 23.9031 6.02353 23.4972 6.02353 23C6.02353 22.4822 6.44493 22.0625 6.96471 22.0625L13.4902 22.0625C14.01 22.0625 14.4314 22.4822 14.4314 23ZM25.0962 23.9344C25.5875 23.903 25.9765 23.4972 25.9765 23C25.9765 22.4822 25.5551 22.0625 25.0353 22.0625L18.5098 22.0625C17.99 22.0625 17.5686 22.4822 17.5686 23C17.5686 23.4973 17.9577 23.9031 18.449 23.9344L18.0993 26.7428C18.0894 26.79 18.0838 26.8387 18.0813 26.8882L17.5758 30.9471C17.5118 31.4609 17.8782 31.9291 18.394 31.9929C18.9104 32.0568 19.3799 31.6917 19.4438 31.1779L19.8551 27.875L23.69 27.875L24.1013 31.1779C24.1603 31.6524 24.566 32.0001 25.0341 32.0001C25.0728 32.0001 25.1118 31.9977 25.1512 31.9929C25.6671 31.9292 26.0334 31.461 25.9694 30.9471L25.4648 26.8951C25.4625 26.8419 25.4564 26.7896 25.4454 26.739L25.0962 23.9344ZM8.80032 23.9375L8.5435 26L11.9115 26L11.6547 23.9375L8.80032 23.9375ZM20.0886 26L20.3454 23.9375L23.1997 23.9375L23.4565 26L20.0886 26Z" id="Combined-Shape" fill="#4C7399" fill-rule="evenodd" stroke="none" />
  </g>
</svg>