<?xml version="1.0" encoding="utf-8"?>
<svg width="33px" height="33px" viewBox="0 0 33 33" version="1.1" xmlns:xlink="http://www.w3.org/1999/xlink" xmlns="http://www.w3.org/2000/svg">
  <desc>Created with Lunacy</desc>
  <g id="Прихожая-иконка" transform="translate(0.5 0.5)">
    <path d="M0 0L32 0L32 32L0 32L0 0Z" id="Rectangle" fill="none" stroke="none" />
    <path d="M2.82558 0L24.1744 0C25.7324 0 27 1.26169 27 2.8125L27 27.125C27 28.6758 25.7324 29.9375 24.1744 29.9375L22.4791 29.9375L22.4791 31.0625C22.4791 31.5802 22.0574 32 21.5372 32C21.0171 32 20.5953 31.5802 20.5953 31.0625L20.5953 29.9375L6.40465 29.9375L6.40465 31.0625C6.40465 31.5802 5.98295 32 5.46279 32C4.94263 32 4.52093 31.5802 4.52093 31.0625L4.52093 29.9375L2.82558 29.9375C1.26756 29.9375 0 28.6758 0 27.125L0 2.8125C0 1.26169 1.26756 0 2.82558 0ZM1.88372 2.8125L1.88372 27.125C1.88372 27.6419 2.30624 28.0625 2.82558 28.0625L12.5581 28.0625L12.5581 1.875L2.82558 1.875C2.30624 1.875 1.88372 2.29556 1.88372 2.8125ZM25.1163 2.8125L25.1163 20.0625L14.4419 20.0625L14.4419 1.875L24.1744 1.875C24.6938 1.875 25.1163 2.29556 25.1163 2.8125ZM9.4814 15.9375C10.0016 15.9375 10.4233 15.5177 10.4233 15L10.4233 13.5C10.4233 12.9823 10.0016 12.5625 9.4814 12.5625C8.96124 12.5625 8.53953 12.9823 8.53953 13.5L8.53953 15C8.53953 15.5177 8.96124 15.9375 9.4814 15.9375ZM18.4605 15C18.4605 15.5177 18.0388 15.9375 17.5186 15.9375C16.9984 15.9375 16.5767 15.5177 16.5767 15L16.5767 13.5C16.5767 12.9823 16.9984 12.5625 17.5186 12.5625C18.0388 12.5625 18.4605 12.9823 18.4605 13.5L18.4605 15ZM24.1744 28.0625L14.4419 28.0625L14.4419 21.9375L25.1163 21.9375L25.1163 27.125C25.1163 27.6419 24.6938 28.0625 24.1744 28.0625ZM19.0256 24.125L20.5326 24.125C21.0527 24.125 21.4744 24.5448 21.4744 25.0625C21.4744 25.5802 21.0527 26 20.5326 26L19.0256 26C18.5054 26 18.0837 25.5802 18.0837 25.0625C18.0837 24.5448 18.5054 24.125 19.0256 24.125Z" transform="translate(3 0)" id="Combined-Shape" fill="#4C7399" fill-rule="evenodd" stroke="none" />
  </g>
</svg>