<?xml version="1.0" encoding="utf-8"?>
<svg width="33px" height="33px" viewBox="0 0 33 33" version="1.1" xmlns:xlink="http://www.w3.org/1999/xlink" xmlns="http://www.w3.org/2000/svg">
  <desc>Created with Lunacy</desc>
  <g id="Спальня-иконка" transform="translate(0.5 0.5)">
    <path d="M0 0L32 0L32 32L0 32L0 0Z" id="Rectangle" fill="none" stroke="none" />
    <path d="M28.2507 2.79996L28.2507 8.26926C31.8332 20.8715 31.9926 21.1469 31.9997 21.4262C32 21.4393 32 21.4523 32 21.4667L32 27.0667C32 27.5821 31.5803 28 31.0627 28L0.943933 28C0.426308 28 0.00662011 27.5821 0.00662011 27.0667L0.00662011 21.4857C0.00616289 21.467 0.00378382 21.4571 0.0020077 21.4471C-0.018067 21.3338 0.0388824 21.2069 3.81831 8.2672L3.81831 2.80002C3.81831 1.25609 5.07974 0 6.63025 0L25.3763 0C26.1233 0 26.8352 0.286033 27.3808 0.805386C27.9418 1.33936 28.2507 2.04779 28.2507 2.79996ZM5.69293 2.79996C5.69293 2.28534 6.11343 1.86662 6.63025 1.86662L25.3763 1.86662C25.9089 1.86662 26.3761 2.30277 26.3761 2.79996L26.3761 7.46661L24.4391 7.46661L24.4391 6.53327C24.4391 4.98934 23.1776 3.73324 21.6271 3.73324L17.8779 3.73324C17.1582 3.73324 16.5011 4.00415 16.0032 4.44851C15.5054 4.00409 14.8483 3.73324 14.1286 3.73324L10.3794 3.73324C8.82887 3.73324 7.56743 4.98934 7.56743 6.53327L7.56743 7.46661L5.69293 7.46661L5.69293 2.79996ZM15.066 6.53333L15.066 8.40001C15.066 8.91464 14.6455 9.33335 14.1287 9.33335L10.3794 9.33335C9.86262 9.33335 9.44212 8.91464 9.44212 8.40001L9.44212 6.53333C9.44212 6.01871 9.86262 5.59999 10.3794 5.59999L14.1287 5.59999C14.6455 5.59999 15.066 6.01864 15.066 6.53333ZM22.5644 8.40001L22.5644 6.53333C22.5644 6.01864 22.144 5.59999 21.6271 5.59999L17.8779 5.59999C17.3611 5.59999 16.9406 6.01871 16.9406 6.53333L16.9406 8.40001C16.9406 8.91464 17.3611 9.33335 17.8779 9.33335L21.6271 9.33335C22.1439 9.33335 22.5644 8.91464 22.5644 8.40001ZM7.72881 9.33329L5.45943 9.33329L3.863 14.8061C4.97331 15.0645 6.14012 14.8566 7.09449 14.2231C9.11849 12.8795 11.7342 12.8795 13.7582 14.2231C15.1506 15.1474 16.9499 15.1474 18.3422 14.2231C20.3662 12.8795 22.9819 12.8795 25.0059 14.2231C25.9218 14.8311 27.0927 15.0513 28.184 14.831L26.6066 9.33329L24.2779 9.33329C23.8911 10.4197 22.8492 11.2 21.6272 11.2L17.878 11.2C17.1583 11.2 16.5012 10.9291 16.0034 10.4847C15.5054 10.9291 14.8484 11.2 14.1287 11.2L10.3795 11.2C9.15756 11.2 8.11575 10.4196 7.72881 9.33329ZM3.3395 16.6005C4.98256 17.0116 6.71912 16.7157 8.13431 15.7763C9.52656 14.852 11.3259 14.8519 12.7182 15.7763C13.7304 16.4481 14.8901 16.7841 16.0501 16.784C17.2099 16.784 18.37 16.448 19.3819 15.7763C20.7743 14.852 22.5736 14.852 23.9659 15.7763C25.3321 16.6831 27.0861 16.9958 28.6999 16.6296L29.82 20.5333L2.19225 20.5333L3.3395 16.6005ZM30.1254 26.1334L1.88125 26.1334L1.88125 22.4L30.1254 22.4L30.1254 26.1334Z" transform="translate(0 2)" id="Fill-1" fill="#4C7399" fill-rule="evenodd" stroke="none" />
  </g>
</svg>