<?xml version="1.0" encoding="utf-8"?>
<svg width="24px" height="24px" viewBox="0 0 24 24" version="1.1" xmlns:xlink="http://www.w3.org/1999/xlink" xmlns="http://www.w3.org/2000/svg">
  <desc>Created with Lunacy</desc>
  <path d="M24 12.0734C24 5.40543 18.6274 0 12 0C5.37258 0 0 5.40543 0 12.0734C0 18.0995 4.38823 23.0943 10.125 24L10.125 15.5633L7.07813 15.5633L7.07813 12.0734L10.125 12.0734L10.125 9.41346C10.125 6.38757 11.9165 4.71616 14.6576 4.71616C15.9705 4.71616 17.3438 4.95197 17.3438 4.95197L17.3438 7.92315L15.8306 7.92315C14.3399 7.92315 13.875 8.85381 13.875 9.8086L13.875 12.0734L17.2031 12.0734L16.6711 15.5633L13.875 15.5633L13.875 24C19.6118 23.0943 24 18.0995 24 12.0734" id="facebook" fill="#FFFFFF" stroke="none" />
</svg>