<?xml version="1.0" encoding="utf-8"?>
<svg width="778px" height="160px" viewBox="0 0 778 160" version="1.1" xmlns:xlink="http://www.w3.org/1999/xlink" xmlns="http://www.w3.org/2000/svg">
  <desc>Created with Lunacy</desc>
  <g id="logo" opacity="0.667340934">
    <path d="M288.823 10.3771C288.831 7.56776 289.977 4.88087 292.013 2.94533C293.985 0.977124 296.676 -0.0845642 299.457 0.00527094C302.205 0.0869392 304.839 1.12413 306.9 2.94533C308.724 5.00337 309.763 7.63309 309.845 10.3771L309.845 63.2982C319.096 56.1767 330.473 52.3547 342.154 52.4363C371.469 52.2485 395.386 75.8343 395.566 105.104L395.566 106.174C395.828 120.303 390.2 133.909 380.025 143.741C359.478 164.551 325.917 164.804 305.068 144.28C304.888 144.109 304.708 143.921 304.528 143.741C294.336 133.909 288.651 120.319 288.823 106.174L288.823 10.3771ZM537.236 3.43616C535.191 5.36353 534.029 8.05042 534.046 10.868L534.046 149.051C534.177 154.857 538.864 159.537 544.679 159.668C547.493 159.668 550.184 158.508 552.122 156.483C554.086 154.514 555.157 151.827 555.067 149.051L555.067 10.868C555.01 8.11575 553.971 5.47786 552.122 3.43616C550.086 1.56595 547.444 0.496097 544.679 0.414429C541.882 0.316427 539.174 1.41078 537.236 3.43616ZM640.38 149.05C640.306 151.794 639.267 154.432 637.435 156.482C635.488 158.499 632.797 159.65 629.983 159.667C627.161 159.748 624.446 158.581 622.548 156.482C620.471 154.563 619.293 151.876 619.276 149.05L619.276 106.174C619.146 92.021 624.863 78.4313 635.063 68.6066C644.911 58.4471 658.538 52.8283 672.689 53.0897C675.519 53.1387 678.234 54.184 680.377 56.0297C682.193 58.0878 683.24 60.7175 683.322 63.4615C683.265 66.2056 682.218 68.8517 680.377 70.8934C678.365 72.9677 675.584 74.1193 672.689 74.0784C654.784 74.2989 640.38 88.8604 640.38 106.746L640.38 149.05ZM764.135 147.009C772.282 139.144 776.936 128.348 777.059 117.037L776.896 117.037L776.896 63.4624C776.814 60.702 775.742 58.0641 773.869 56.0305C771.816 54.1848 769.182 53.1395 766.426 53.0905C766.369 53.0823 766.319 53.0823 766.262 53.0823C760.479 53.0415 755.76 57.6884 755.711 63.4624L755.711 116.539C755.866 122.378 753.551 128.021 749.331 132.064C745.249 136.368 739.556 138.761 733.626 138.671C727.745 138.761 722.093 136.351 718.085 132.064C713.897 127.997 711.59 122.37 711.705 116.539L711.705 63.4624C711.623 60.7183 710.584 58.0886 708.76 56.0305C706.625 54.1848 703.902 53.1395 701.071 53.0905C698.323 53.1722 695.689 54.2093 693.628 56.0305C691.804 58.0886 690.765 60.7183 690.683 63.4624L690.683 116.865C690.716 128.217 695.313 139.079 703.444 147.009C720.212 163.727 747.367 163.727 764.135 147.009ZM464.445 138.843C450.417 138.794 437.976 129.827 433.518 116.539L507.215 116.539C510.046 116.49 512.769 115.453 514.904 113.608C516.728 111.549 517.767 108.92 517.849 106.176C518.356 91.3366 512.352 77.0201 501.408 66.9749C491.593 58.1384 478.857 53.2138 465.639 53.1485C435.866 52.977 411.605 76.9384 411.433 106.658C411.172 120.794 416.799 134.4 426.974 144.233C436.855 154.466 450.531 160.167 464.772 159.995L478.833 159.995C485.425 158.149 491.732 155.405 497.564 151.828C503.535 147.745 505.171 143.082 502.635 137.781C501.424 135.201 499.208 133.216 496.5 132.31C493.85 131.044 490.734 131.297 488.321 132.963C484.059 135.65 479.397 137.634 474.497 138.843L468.69 138.843C467.275 138.949 465.852 138.949 464.445 138.843ZM146.499 156.721C148.577 154.818 149.738 152.115 149.689 149.297L149.689 96.6213C149.754 96.3518 149.754 96.066 149.689 95.7965C149.853 84.5099 145.321 73.6644 137.174 65.8324C129.289 57.6574 118.353 53.133 106.992 53.3371C94.5918 52.986 82.7233 58.3842 74.8464 67.9557C67.035 58.3434 55.1747 52.937 42.7827 53.3371C31.405 53.1738 20.4608 57.6982 12.5185 65.8324C4.37991 73.6644 -0.151541 84.5099 0.00386986 95.7965L0.00386986 149.297C-0.0452072 152.115 1.11628 154.818 3.19388 156.721C5.09971 158.804 7.8153 159.971 10.6372 159.914C13.4592 159.931 16.1502 158.771 18.0806 156.721C20.0273 154.745 21.0907 152.066 21.0252 149.297L21.0252 95.7965C20.9434 90.0225 23.25 84.4691 27.4052 80.451C36.0019 72.2842 49.4899 72.2842 58.0784 80.451C62.16 84.5344 64.5075 90.0307 64.622 95.7965L64.622 149.297C64.5729 152.115 65.7344 154.818 67.812 156.721C67.9184 156.835 68.0247 156.942 68.131 157.04C72.2371 160.976 78.7644 160.829 82.6987 156.721C84.67 154.753 85.7579 152.074 85.7252 149.297L85.7252 95.7965C85.6434 90.0225 87.9582 84.4691 92.1052 80.451C96.2195 76.5146 101.7 74.3177 107.401 74.3259C113.094 74.3504 118.566 76.5391 122.697 80.451C126.696 84.5426 128.856 90.0879 128.668 95.7965L128.668 149.379C128.627 155.153 133.273 159.865 139.056 159.914C141.869 159.931 144.569 158.771 146.499 156.721ZM219.299 138.843C205.361 138.688 193.051 129.745 188.626 116.539L261.996 116.539C264.826 116.49 267.542 115.453 269.685 113.608C271.501 111.549 272.548 108.92 272.629 106.176C273.079 91.3039 266.977 76.9711 255.943 66.9749C246.062 57.9016 233.049 53.0096 219.626 53.3363L218.964 53.3363C189.648 53.516 166.034 77.3876 166.214 106.658C165.952 120.794 171.58 134.4 181.755 144.233C191.652 154.483 205.361 160.191 219.626 159.995L233.613 159.995C240.206 158.149 246.512 155.405 252.344 151.828C258.315 147.745 260.033 143.082 257.416 137.781C256.23 135.184 254.005 133.192 251.281 132.31C248.631 131.044 245.514 131.297 243.101 132.963C238.848 135.666 234.178 137.651 229.278 138.843L223.552 138.843C222.137 138.949 220.714 138.949 219.299 138.843ZM309.845 106.174C309.697 114.749 313.174 122.99 319.415 128.878C325.32 135.109 333.565 138.58 342.154 138.433C350.808 138.564 359.134 135.101 365.138 128.878C377.972 116.562 378.373 96.1942 366.046 83.3804C359.813 76.9041 351.151 73.3271 342.154 73.5067C324.388 73.4577 309.935 87.7824 309.845 105.521L309.845 106.174ZM482.677 79.2252C488.664 82.9492 493.04 88.7722 494.946 95.5588L433.6 95.5588C434.516 92.9618 435.759 90.479 437.289 88.1923C447.341 73.198 467.667 69.1881 482.677 79.2252ZM237.785 79.2252C243.797 82.9411 248.197 88.764 250.136 95.5588L188.626 95.5588C193.272 82.6226 205.533 73.9657 219.299 73.9167C225.859 73.7452 232.313 75.5991 237.785 79.2252ZM577.232 148.881C577.224 154.655 581.845 159.367 587.62 159.506C590.409 159.743 593.158 158.689 595.063 156.639C597.157 154.777 598.327 152.09 598.253 149.297C598.27 146.48 597.116 143.785 595.063 141.866C593.133 139.84 590.426 138.738 587.62 138.844C581.976 138.754 577.322 143.254 577.232 148.881Z" id="Combined-Shape" fill="#F0F0F0" fill-opacity="0.667340934" fill-rule="evenodd" stroke="none" />
  </g>
</svg>