<?xml version="1.0" encoding="utf-8"?>
<svg width="48px" height="48px" viewBox="0 0 48 48" version="1.1" xmlns:xlink="http://www.w3.org/1999/xlink" xmlns="http://www.w3.org/2000/svg">
  <desc>Created with Lunacy</desc>
  <g id="spiral">
    <path d="M40.9705 7.02948C45.5036 11.5626 48 17.5896 48 24.0002C48 27.5342 47.2519 30.9283 45.7753 34.1002C47.1547 35.5777 48 37.5592 48 39.7353C48 44.2925 44.2925 48 39.7353 48C37.5592 48 35.5777 47.1547 34.1007 45.7758C31.7726 46.859 29.3252 47.55 26.7909 47.8413C25.8716 47.9471 24.9407 48 23.9998 48C23.8146 48 23.6295 47.9976 23.4449 47.9933C23.3901 47.9918 23.3358 47.9904 23.2814 47.9885C23.1478 47.9846 23.0151 47.9798 22.8824 47.9736C22.8237 47.9712 22.7655 47.9683 22.7073 47.9654C22.5717 47.9582 22.4366 47.95 22.302 47.9404L22.1534 47.9303C21.9852 47.9173 21.8169 47.9029 21.6491 47.887C21.6356 47.8856 21.6221 47.8846 21.6087 47.8832C21.225 47.8457 20.8442 47.7985 20.4643 47.7432C20.4422 47.7399 20.4196 47.736 20.3975 47.7327C20.2321 47.7081 20.0672 47.6817 19.9028 47.6533C19.8749 47.649 19.847 47.6437 19.8191 47.6389C19.6508 47.6101 19.4825 47.5783 19.3152 47.5456C19.2989 47.5423 19.2825 47.5394 19.2657 47.536C18.8902 47.461 18.5166 47.3773 18.1454 47.285C18.1305 47.2812 18.1161 47.2773 18.1016 47.2735C17.943 47.2336 17.7848 47.1918 17.6276 47.149C17.5771 47.135 17.5266 47.1206 17.4766 47.1067C17.3564 47.0725 17.2367 47.0384 17.1174 47.0028C17.0511 46.9831 16.9852 46.9634 16.9198 46.9432C16.8203 46.9124 16.7217 46.8811 16.6227 46.8489C16.5433 46.8239 16.4645 46.7985 16.3856 46.772C16.3231 46.7513 16.2611 46.7292 16.1986 46.7081C12.7848 45.5382 9.65616 43.5972 7.02948 40.9705C2.49638 36.4374 0 30.4109 0 24.0002C0 17.5896 2.49638 11.5626 7.02948 7.02948C11.5626 2.49638 17.5896 0 23.9998 0C30.4109 0 36.4374 2.49638 40.9705 7.02948ZM1.87805 24.0002C1.87805 18.0911 4.17922 12.5357 8.35748 8.35748C12.5357 4.17922 18.0911 1.87805 23.9998 1.87805C29.9089 1.87805 35.4643 4.17922 39.6425 8.35748C43.8213 12.5357 46.1219 18.0911 46.1219 24.0002C46.1219 27.0827 45.5051 30.0493 44.2857 32.8357C43.9208 32.5943 43.5376 32.3842 43.1409 32.2048C43.1318 32.201 43.1222 32.1967 43.1135 32.1923C43.0217 32.1515 42.9294 32.112 42.8366 32.0745C42.8053 32.062 42.774 32.049 42.7423 32.0365C42.7019 32.0212 42.6611 32.0053 42.6207 31.9904C42.5702 31.9712 42.5197 31.9534 42.4687 31.9356C42.4413 31.9255 42.4144 31.9159 42.3865 31.9062C42.3072 31.8793 42.2274 31.8538 42.1471 31.8293C42.1245 31.8231 42.1024 31.8163 42.0798 31.8096C42.0038 31.7865 41.9273 31.7649 41.8499 31.7447C41.8408 31.7428 41.8317 31.7399 41.8225 31.7375C41.7321 31.7139 41.6413 31.6918 41.5499 31.6711L41.5167 31.6639C41.4307 31.6447 41.3436 31.6269 41.2566 31.611L41.2364 31.6072C41.1422 31.5899 41.0475 31.574 40.9523 31.5601C40.9446 31.5591 40.9369 31.5577 40.9292 31.5567C40.8436 31.5442 40.7575 31.5331 40.671 31.523C40.6575 31.5221 40.6431 31.5201 40.6296 31.5187C40.5368 31.5086 40.4436 31.5 40.3498 31.4927C40.3407 31.4923 40.3325 31.4918 40.3233 31.4913C40.2416 31.4855 40.1594 31.4812 40.0767 31.4778L40.0089 31.475C39.9175 31.4721 39.8267 31.4701 39.7353 31.4701C35.7758 31.4701 32.4587 34.268 31.6557 37.9914C30.395 37.3553 29.3488 36.8105 28.818 36.4254C28.643 36.298 28.3468 36.0533 28.3295 35.8403C28.2925 35.3816 29.1891 34.4758 29.8452 33.813L29.8474 33.8107C30.4749 33.178 31.1235 32.5236 31.5985 31.7884C32.2447 30.7874 32.6808 29.8186 32.9727 28.7156C34.3065 28.4112 35.2138 27.6342 35.5585 26.4822C35.9994 25.0085 36.3076 22.9949 35.271 21.7702C34.8647 21.2904 34.3454 21.0365 33.8141 20.9178C34.9854 17.6473 34.5223 15.2696 34.1598 14.1744C36.0802 11.9588 35.8316 8.38537 35.8191 8.22334C35.7902 7.85119 35.5446 7.53145 35.1921 7.40836C34.8402 7.28575 34.4483 7.3824 34.1949 7.65598C33.9242 7.94735 33.0381 8.36229 31.7322 8.58347C30.2869 8.8282 28.7757 8.76714 27.476 8.41133C24.0858 7.4824 21.4317 9.35565 20.3927 10.2634C20.0028 10.148 19.4633 10.0403 18.8464 10.0596C17.7064 10.0956 16.099 10.575 14.9153 12.6535C13.3156 15.4634 13.8734 19.0378 14.3378 20.8918C13.7623 20.9971 13.1911 21.2514 12.7516 21.7707C11.7155 22.9949 12.0237 25.0085 12.4646 26.4822C12.8093 27.6342 13.7166 28.4112 15.0504 28.7156C15.3427 29.8186 15.7779 30.7874 16.4246 31.7884C16.8991 32.5236 17.5482 33.178 18.1757 33.8112L18.1798 33.8154C18.8353 34.4776 19.7305 35.382 19.6931 35.8403C19.6758 36.0533 19.3801 36.298 19.2051 36.4254C18.5608 36.8923 17.1588 37.5952 15.5355 38.4092C13.8253 39.2665 11.9092 40.2272 10.1634 41.2619C9.53692 40.7585 8.93398 40.2185 8.35748 39.6425C4.17922 35.4643 1.87805 29.9089 1.87805 24.0002ZM23.3641 46.1119C23.4098 46.1133 23.4555 46.1147 23.5012 46.1157C23.667 46.1195 23.8334 46.1219 23.9998 46.1219C25.7336 46.1219 27.4313 45.9267 29.08 45.5392C29.2382 45.5022 29.395 45.4623 29.5512 45.4219C29.5772 45.4152 29.6027 45.4089 29.6286 45.4027C29.7479 45.3709 29.8666 45.3373 29.9854 45.3041C30.0479 45.2863 30.1109 45.27 30.1729 45.2517C30.2869 45.219 30.4003 45.1829 30.5143 45.1478C30.5806 45.1272 30.647 45.1079 30.7133 45.0868C30.809 45.0565 30.9037 45.0238 30.9994 44.9916C31.0826 44.9642 31.1668 44.9367 31.2504 44.9079C31.3283 44.881 31.4057 44.8512 31.4836 44.8233C31.5836 44.7872 31.6836 44.7521 31.7827 44.7146C31.8538 44.6877 31.9231 44.6598 31.9937 44.6319C32.1 44.5906 32.2063 44.5502 32.312 44.5069C32.3808 44.4795 32.4481 44.4492 32.5169 44.4208C32.6231 44.3761 32.7294 44.3324 32.8357 44.2857C32.8116 44.2501 32.7895 44.2131 32.7659 44.1771L32.7462 44.1458C32.7438 44.142 32.7409 44.1372 32.738 44.1323C32.6794 44.0391 32.6227 43.9444 32.5674 43.8492C32.5616 43.8395 32.5558 43.8294 32.55 43.8198L32.5491 43.8174C32.4318 43.6111 32.3236 43.4006 32.2245 43.1852C32.2178 43.1707 32.2106 43.1563 32.2039 43.1419C32.1947 43.1217 32.1861 43.1 32.1774 43.0798C32.1486 43.0149 32.1212 42.95 32.0938 42.8846L32.0856 42.8659C32.0755 42.8414 32.0644 42.8164 32.0548 42.7909C32.0481 42.775 32.0428 42.7587 32.0365 42.7423C32.0207 42.7019 32.0048 42.6606 31.9894 42.6197C31.9779 42.5875 31.9659 42.5558 31.9548 42.5236L31.9505 42.512C31.9404 42.4846 31.9298 42.4577 31.9207 42.4298C31.9192 42.425 31.9178 42.4202 31.9159 42.4154C31.9125 42.4053 31.9091 42.3957 31.9058 42.386C31.8793 42.3072 31.8543 42.2279 31.8298 42.148C31.8245 42.1322 31.8202 42.1168 31.8154 42.1009C31.811 42.0879 31.8067 42.0754 31.8029 42.062C31.8005 42.0519 31.7976 42.0408 31.7947 42.0302C31.7774 41.9711 31.7615 41.912 31.7452 41.8523C31.7423 41.8418 31.7399 41.8321 31.737 41.8216C31.7298 41.7946 31.7231 41.7668 31.7163 41.7398C31.712 41.723 31.7072 41.7066 31.7033 41.6903C31.7009 41.6788 31.6985 41.6663 31.6956 41.6547C31.687 41.6201 31.6793 41.585 31.6716 41.5509C31.6687 41.5393 31.6663 41.5273 31.6634 41.5158C31.6509 41.4585 31.6394 41.4008 31.6274 41.3432C31.625 41.3316 31.6221 41.3196 31.6202 41.3081C31.6182 41.297 31.6163 41.285 31.6144 41.2739C31.6134 41.2681 31.612 41.2629 31.611 41.2576L31.6067 41.2359C31.5894 41.1417 31.574 41.0475 31.5601 40.9527C31.5596 40.9489 31.5591 40.945 31.5581 40.9412L31.5552 40.9239C31.5538 40.9128 31.5528 40.9013 31.5514 40.8907C31.5413 40.8181 31.5317 40.7445 31.523 40.6715C31.5221 40.6575 31.5201 40.6431 31.5187 40.6296C31.5158 40.6017 31.5125 40.5748 31.5101 40.5474C31.5096 40.5421 31.5086 40.5373 31.5081 40.532C31.5072 40.5224 31.5067 40.5133 31.5062 40.5041C31.5014 40.4527 31.4966 40.4012 31.4927 40.3498C31.4923 40.3407 31.4918 40.3325 31.4913 40.3233C31.487 40.2632 31.4831 40.2031 31.4802 40.143C31.4802 40.1402 31.4798 40.1378 31.4798 40.1354C31.4788 40.1094 31.4778 40.0829 31.4769 40.057L31.4754 40.0286C31.475 40.0195 31.4745 40.0108 31.4745 40.0017C29.7883 39.1564 28.4574 38.4842 27.715 37.9453C26.9399 37.3832 26.5168 36.7259 26.4572 35.9922C26.3505 34.6727 27.4005 33.6127 28.5128 32.4899L28.5136 32.489C29.0733 31.924 29.6522 31.3403 30.0205 30.7691C30.6657 29.7714 31.0427 28.8531 31.2826 27.6991C31.3663 27.2981 31.7 26.9976 32.1072 26.9563C33.0304 26.862 33.5857 26.5216 33.7593 25.9437C34.1752 24.5527 34.2055 23.4185 33.8377 22.9843C33.578 22.677 32.9962 22.679 32.5544 22.7343C32.2159 22.7771 31.8808 22.6323 31.6793 22.3573C31.4778 22.0818 31.4418 21.7188 31.5846 21.4087C32.6549 19.0902 32.7568 17.265 32.6539 16.1423C32.5515 15.0273 32.237 14.4032 32.2342 14.3975C32.025 14.0114 32.112 13.5325 32.4428 13.2435C33.3838 12.4228 33.7458 11.0419 33.88 9.95859C32.0692 10.6437 29.3801 10.8803 26.9798 10.2226C23.769 9.34315 21.3317 11.9549 21.3072 11.9818C21.023 12.2925 20.5668 12.3756 20.1908 12.1857L20.1897 12.1852C20.162 12.1724 19.5713 11.8992 18.843 11.9395C17.9117 11.991 17.139 12.5439 16.5476 13.583C14.759 16.7241 16.45 21.4322 16.4674 21.4793C16.5803 21.7871 16.5246 22.1308 16.3207 22.3876C16.1164 22.6439 15.7942 22.7756 15.4687 22.7343C15.0259 22.6785 14.4451 22.677 14.1854 22.9843C13.8176 23.4185 13.8474 24.5527 14.2638 25.9437C14.4369 26.5216 14.9927 26.862 15.9159 26.9563C16.3231 26.9976 16.6568 27.2981 16.74 27.6991C16.9799 28.8531 17.3573 29.7714 18.0021 30.7691C18.3709 31.3403 18.9498 31.924 19.5099 32.489L19.5119 32.4909C20.6233 33.6134 21.6726 34.6731 21.5654 35.9922C21.5058 36.7259 21.0827 37.3832 20.3081 37.9453C19.5402 38.5025 18.1444 39.2021 16.377 40.0882C14.9249 40.8162 13.3214 41.6201 11.8217 42.4707C13.0613 43.2914 14.3676 43.979 15.7255 44.5271C15.7356 44.5314 15.7447 44.5353 15.7543 44.5391C16.0668 44.6651 16.3827 44.7829 16.7005 44.8935C16.7828 44.9223 16.8645 44.9507 16.9467 44.9781C17.0087 44.9993 17.0713 45.0199 17.1333 45.0401C17.2477 45.0771 17.3617 45.1132 17.4766 45.1483C17.5107 45.1594 17.5453 45.1699 17.58 45.1805C17.7405 45.2286 17.9011 45.2757 18.0632 45.3204C18.0757 45.3243 18.0882 45.3272 18.1007 45.3305C18.2545 45.3728 18.4089 45.4132 18.5632 45.4522C18.5834 45.4575 18.6036 45.4628 18.6243 45.4676C19.133 45.594 19.647 45.7027 20.1662 45.7926C20.1768 45.7945 20.1879 45.7964 20.1985 45.7984C20.547 45.8585 20.8976 45.9099 21.2505 45.9537C21.2606 45.9551 21.2711 45.9561 21.2817 45.9575C21.4404 45.9767 21.5991 45.9941 21.7582 46.0099C21.7847 46.0123 21.8106 46.0152 21.8366 46.0181C22.1751 46.0503 22.515 46.0753 22.8564 46.0926C22.8953 46.0945 22.9338 46.096 22.9727 46.0979C23.103 46.1042 23.2333 46.108 23.3641 46.1119ZM39.7353 46.1219C37.6452 46.1219 35.7869 45.1132 34.6209 43.5568C34.619 43.5539 34.6171 43.5515 34.6151 43.5486C34.557 43.4707 34.5007 43.3914 34.4459 43.3106L34.4329 43.2919C34.381 43.2145 34.3305 43.1366 34.2824 43.0572C34.2762 43.0471 34.2704 43.0375 34.2646 43.0279C34.218 42.9505 34.1723 42.8717 34.129 42.7923L34.1117 42.7606C34.0694 42.6822 34.029 42.6034 33.9906 42.524C33.9838 42.5096 33.9766 42.4961 33.9699 42.4817C33.9329 42.4043 33.8978 42.3259 33.8641 42.2471C33.8603 42.2384 33.8559 42.2293 33.8521 42.2206C33.8458 42.2043 33.8396 42.1884 33.8324 42.1726C33.804 42.1033 33.7761 42.0336 33.7497 41.9629C33.7377 41.9297 33.7261 41.897 33.7141 41.8634C33.6929 41.8038 33.6727 41.7441 33.6535 41.684C33.6405 41.6432 33.6275 41.6018 33.6155 41.5605C33.5997 41.5066 33.5843 41.4533 33.5694 41.3994C33.5569 41.3528 33.5453 41.3066 33.5333 41.26C33.5213 41.2095 33.5093 41.1585 33.4982 41.1071C33.4872 41.058 33.4771 41.009 33.467 40.9595C33.4573 40.909 33.4487 40.858 33.44 40.8066C33.4314 40.7575 33.4232 40.708 33.416 40.6585C33.4078 40.6041 33.4016 40.5498 33.3948 40.4955C33.3895 40.4484 33.3833 40.4012 33.379 40.3546C33.3727 40.2911 33.3684 40.2272 33.3645 40.1632C33.3641 40.1575 33.3636 40.1507 33.3631 40.144L33.3626 40.1402L33.3621 40.1329C33.3602 40.1041 33.3573 40.0757 33.3564 40.0469C33.3511 39.9435 33.3482 39.8396 33.3482 39.7353C33.3482 39.6454 33.3511 39.5564 33.3549 39.468L33.3549 39.4617C33.4992 36.0667 36.3052 33.3482 39.7353 33.3482C39.8396 33.3482 39.9435 33.3511 40.0469 33.3564C40.0858 33.3583 40.1243 33.3617 40.1632 33.3645C40.2272 33.3684 40.2911 33.3727 40.3546 33.379C40.4012 33.3838 40.4484 33.3891 40.495 33.3948C40.5498 33.4016 40.6041 33.4078 40.6585 33.416C40.708 33.4232 40.7575 33.4314 40.8061 33.44C40.858 33.4482 40.909 33.4573 40.9599 33.467C41.009 33.4771 41.058 33.4872 41.1066 33.4982C41.158 33.5093 41.2095 33.5213 41.2604 33.5338C41.3066 33.5453 41.3528 33.5569 41.3984 33.5694C41.4533 33.5843 41.5071 33.5997 41.561 33.6155C41.6018 33.6275 41.6427 33.6405 41.6836 33.653C41.7441 33.6727 41.8042 33.6934 41.8643 33.7146C41.8975 33.7266 41.9297 33.7377 41.9624 33.7497C42.0336 33.7761 42.1038 33.8045 42.174 33.8333C42.1942 33.8415 42.2153 33.8497 42.236 33.8588C42.323 33.8958 42.4101 33.9353 42.4957 33.9766C42.4985 33.9776 42.5005 33.9785 42.5029 33.98C44.6425 35.0128 46.1219 37.2043 46.1219 39.7353C46.1219 43.2568 43.2568 46.1219 39.7353 46.1219ZM38.7343 40.1017L41.5177 37.3187C41.8841 36.9519 42.4788 36.9519 42.8457 37.3187C43.2121 37.6856 43.2121 38.2804 42.8457 38.6472L39.4136 42.0793C39.2305 42.262 38.9901 42.3538 38.7496 42.3538C38.516 42.3538 38.2823 42.2673 38.1005 42.0937L36.3951 40.4633C36.0201 40.1051 36.0066 39.5108 36.3653 39.1357C36.7235 38.7607 37.3178 38.7472 37.6928 39.1054L38.7343 40.1017Z" transform="translate(4.8E-05 4.8E-05)" id="Fill-1" fill="#FF2626" fill-rule="evenodd" stroke="none" />
  </g>
</svg>