<?xml version="1.0" encoding="utf-8"?>
<svg width="48px" height="48px" viewBox="0 0 48 48" version="1.1" xmlns:xlink="http://www.w3.org/1999/xlink" xmlns="http://www.w3.org/2000/svg">
  <desc>Created with Lunacy</desc>
  <g id="spiral">
    <path d="M0 24.0003C0 10.8279 10.6959 0 24.0084 0C37.3209 0 48 10.8279 48 24.0003C48 37.1726 37.3209 48 24.0084 48C10.6959 48 0 37.1726 0 24.0003ZM24.0085 2.09973C35.9379 2.09973 45.7382 11.8319 45.7382 24.0003C45.7382 36.1687 35.9379 45.9009 24.0085 45.9009C12.0791 45.9009 2.3125 36.1687 2.3125 24.0003C2.3125 11.8319 12.0791 2.09973 24.0085 2.09973ZM35.537 14.7826C35.7089 14.604 35.9369 14.4893 36.1828 14.4581C36.5359 14.4128 36.8896 14.5444 37.1285 14.8099C37.5316 15.2578 37.4963 15.9488 37.0501 16.353L19.6558 33.2179C19.227 33.6336 18.5447 33.6265 18.1252 33.201L10.967 26.0142C10.9567 26.0044 10.9469 25.9945 10.9371 25.9842C10.5181 25.5515 10.5274 24.86 10.9583 24.4394C11.3893 24.0188 12.0786 24.0286 12.4976 24.4607L18.9076 30.8964L35.537 14.7826Z" id="Fill-1" fill="#FF2626" fill-rule="evenodd" stroke="none" />
  </g>
</svg>