<?xml version="1.0" encoding="utf-8"?>
<svg width="53px" height="48px" viewBox="0 0 53 48" version="1.1" xmlns:xlink="http://www.w3.org/1999/xlink" xmlns="http://www.w3.org/2000/svg">
  <desc>Created with Lunacy</desc>
  <g id="spiral">
    <path d="M36.0036 8.27586C36.0036 12.8462 32.2985 16.5517 27.7278 16.5517C23.1591 16.5463 19.4573 12.8441 19.4519 8.27586C19.4519 3.7051 23.1574 0 27.7278 0C32.2985 0 36.0036 3.7051 36.0036 8.27586ZM34.3485 8.27586C34.3485 4.61959 31.3845 1.65517 27.7278 1.65517C24.0732 1.65931 21.1112 4.62083 21.1071 8.27586C21.1071 11.9321 24.0715 14.8966 27.7278 14.8966C31.3845 14.8966 34.3485 11.9321 34.3485 8.27586ZM26.4579 10.6224C26.0992 10.8587 25.6192 10.7805 25.3531 10.4428L23.767 8.42681C23.4844 8.06764 23.5465 7.5475 23.9057 7.26488C24.2648 6.98226 24.785 7.04433 25.068 7.4035L26.184 8.82199L30.5835 5.92916C30.5851 5.92833 30.5864 5.9275 30.588 5.92626C30.9704 5.67633 31.483 5.78433 31.733 6.16668C31.9829 6.54943 31.8753 7.06212 31.4926 7.31206L26.4579 10.6224ZM51.6702 25.3882C52.0463 25.1283 52.5619 25.2218 52.8222 25.598C53.0821 25.9737 52.9881 26.4889 52.6124 26.7492L42.7203 33.5983L42.0147 34.5322C43.0832 35.3805 43.348 36.8937 42.6313 38.0544C42.4608 38.3258 42.2407 38.5625 41.9825 38.7529C43.0769 39.5933 43.3571 41.126 42.6313 42.2995C42.6073 42.3384 42.5825 42.3761 42.5564 42.4133C41.7681 43.5463 40.2106 43.8252 39.078 43.0369L39.0478 43.0158C38.9862 43.3754 38.8558 43.7201 38.6626 44.03C38.6386 44.0681 38.6142 44.1061 38.5881 44.1434C37.7998 45.2759 36.2423 45.5552 35.1098 44.767L34.175 44.1434C34.1233 44.5034 33.9971 44.8489 33.8043 45.1576C33.7798 45.1973 33.7546 45.2362 33.7277 45.2738C32.939 46.4064 31.3815 46.6849 30.2498 45.8958L29.8939 45.6516L29.0527 46.8421C28.5487 47.5675 27.7211 47.9999 26.8372 47.9999C26.243 47.9995 25.6662 47.7992 25.1994 47.431L24.8018 47.1202C24.4198 46.8194 24.1227 46.4242 23.9403 45.9732C23.5546 46.1776 23.1247 46.2847 22.6881 46.2843C22.0939 46.2839 21.5167 46.0832 21.0503 45.7154C20.4727 45.2581 20.0945 44.5952 19.9956 43.8653C19.8735 43.8831 19.7498 43.8922 19.6265 43.8926C19.0318 43.8922 18.455 43.6915 17.9887 43.3232L17.4838 42.9293C16.9492 42.5064 16.5855 41.9047 16.4589 41.2352C16.4134 41.2443 16.3691 41.2551 16.3236 41.2621C16.1932 41.2816 16.0616 41.2911 15.93 41.2911C15.3354 41.2903 14.7586 41.09 14.2923 40.7217L13.9174 40.4292C12.7256 39.4683 12.4807 37.749 13.3575 36.494L14.3241 35.1256L10.1589 32.2241C8.62164 31.6059 7.1026 31.0807 5.62991 30.5759C3.97681 30.009 2.26701 29.4235 0.514187 28.6952C0.512945 28.6944 0.511704 28.694 0.510462 28.694C0.0888072 28.5173 -0.110227 28.0327 0.0660486 27.6111C0.242324 27.189 0.72729 26.99 1.14895 27.1667C2.55667 27.751 3.94826 28.2454 5.30839 28.7143L11.7867 16.0166C10.8987 15.5147 10.0066 15.0028 9.12357 14.4951C6.16867 12.7965 3.11363 11.0399 0.491428 9.85771C0.488945 9.85688 0.486876 9.85564 0.484393 9.85481C0.0685313 9.66488 -0.114779 9.17412 0.0747382 8.75826C0.264669 8.3424 0.755842 8.15909 1.17129 8.34902C3.86798 9.56474 6.95901 11.3416 9.94826 13.0601C12.7248 14.6561 15.5957 16.3067 18.0698 17.4562C18.1645 17.5005 18.2498 17.563 18.3218 17.6395L21.7914 18.8399C21.8614 18.8664 21.9272 18.9024 21.9872 18.9467C23.5306 18.2188 25.2694 18.0123 26.9407 18.3595L34.7249 19.6733L38.7338 17.2075C38.7843 17.1558 38.8414 17.1111 38.9034 17.0743C38.9539 17.0457 39.0073 17.0225 39.0627 17.0047L51.7078 9.22626C51.7087 9.22543 51.7091 9.22502 51.7099 9.22461C52.1001 8.98585 52.6095 9.10792 52.8483 9.49771C53.087 9.8875 52.9645 10.3973 52.5752 10.6361L40.4423 18.0996L46.6095 28.8922L51.6702 25.3882ZM16.3608 18.4712L10.1518 30.4394C9.0437 30.0098 7.95584 29.6263 6.88867 29.2588L13.2325 16.8247C14.3026 17.4148 15.354 17.9738 16.3608 18.4712ZM45.2163 29.7897C45.2254 29.8063 45.239 29.8179 45.2498 29.8332L42.4956 31.7403L36.1277 20.7537L39.0321 18.9674L45.2163 29.7897ZM41.2302 41.4181C41.1065 41.6205 40.9045 41.7636 40.672 41.8129C40.4448 41.8588 40.2077 41.8092 40.0182 41.6747L38.2269 40.4374C38.1594 40.3766 38.0883 40.3207 38.0142 40.269C37.967 40.2367 37.9174 40.209 37.8648 40.1871L29.7238 34.5632C29.3477 34.3034 28.8325 34.3977 28.5727 34.7734C28.3128 35.15 28.4072 35.6652 28.7833 35.925L37.1659 41.7161C37.492 42.127 37.5305 42.6972 37.2615 43.1482C37.0227 43.5483 36.5038 43.6795 36.1033 43.4403C36.0814 43.4267 36.0594 43.4122 36.0387 43.3973L31.3422 40.2641C31.1858 40.0389 30.9963 39.8387 30.7798 39.6694L30.3818 39.3587C29.8078 38.9064 29.0729 38.7107 28.35 38.8187C28.2619 38.8315 28.1754 38.8493 28.0898 38.8704C27.9433 38.2501 27.5907 37.6973 27.0905 37.3025C26.5232 36.8556 25.7982 36.6595 25.0832 36.7596C24.9838 36.0301 24.606 35.3676 24.0288 34.9108L23.524 34.5169C22.9509 34.0638 22.2152 33.8681 21.4923 33.9769C21.4467 33.9831 21.4025 33.9947 21.3574 34.0038C21.2303 33.3338 20.8666 32.7326 20.332 32.3093L19.9575 32.0167C19.384 31.5645 18.6487 31.3687 17.9262 31.4767C17.1888 31.5852 16.5296 31.994 16.1043 32.6056L15.2792 33.7737L11.6982 31.2794C11.68 31.2425 11.6593 31.2074 11.6353 31.1738L17.836 19.2227L20.3597 20.0958C19.7485 20.695 19.2574 21.405 18.9118 22.1879C18.8998 22.2148 18.8895 22.2417 18.8804 22.2694L17.5836 26.2348C17.387 26.8592 17.1243 27.4609 16.7994 28.0294C16.4593 28.5852 16.4767 29.289 16.8441 29.8274C17.3717 30.6657 18.2535 31.2173 19.2383 31.3245C20.4255 31.4167 21.6843 30.7704 22.9782 29.4053C22.9943 29.3883 23.0096 29.3705 23.0245 29.3519L25.2627 26.5464C25.2814 26.5232 25.2983 26.4992 25.314 26.4744C25.4142 26.3813 25.54 26.3205 25.6745 26.2985C25.9467 26.2493 26.5616 26.2874 27.6131 27.0852C27.628 27.0967 27.6437 27.1079 27.6594 27.1178L40.3529 35.45C40.4254 35.4967 40.5048 35.5323 40.588 35.5547L40.9579 35.8046C41.3903 36.1203 41.5091 36.7154 41.2302 37.173C41.1065 37.3754 40.9045 37.5185 40.672 37.5678C40.5234 37.5976 40.3699 37.5852 40.2276 37.533L32.1425 31.9468L32.1313 31.9394L32.1309 31.9389L32.1288 31.9377C32.1019 31.9207 32.0742 31.9054 32.0461 31.8922C32.0249 31.8806 32.0051 31.8665 31.9836 31.8578C31.938 31.8384 31.8913 31.8235 31.8425 31.8127C31.8383 31.8119 31.8338 31.8094 31.8292 31.8086C31.7274 31.7875 31.6223 31.7858 31.5201 31.8032L31.5123 31.8041C31.4709 31.8119 31.4303 31.8235 31.3914 31.838C31.3803 31.8413 31.3691 31.8425 31.3587 31.8471C31.3277 31.8599 31.2983 31.8752 31.2694 31.8922C31.2516 31.9013 31.2325 31.9083 31.2156 31.9191C31.194 31.9327 31.1754 31.9505 31.1556 31.9658C31.132 31.9824 31.1088 32.0006 31.0869 32.0196C31.0716 32.0341 31.0592 32.0527 31.0451 32.0685C31.0215 32.0929 30.9992 32.1185 30.9793 32.1458L30.9785 32.1475L30.9776 32.1483C30.9644 32.167 30.9565 32.1868 30.9454 32.2063C30.9276 32.2348 30.9114 32.2638 30.8969 32.2936C30.8883 32.3151 30.8837 32.3374 30.8767 32.3589C30.8651 32.3887 30.856 32.4185 30.8481 32.4487C30.8432 32.4732 30.8427 32.4976 30.8403 32.5224C30.8357 32.5505 30.8324 32.5791 30.8307 32.6076C30.8307 32.6329 30.8353 32.6573 30.8369 32.6821C30.8382 32.7098 30.8407 32.738 30.844 32.7661C30.8485 32.7889 30.8572 32.8112 30.863 32.834C30.8696 32.8625 30.8775 32.8911 30.8874 32.9188C30.8953 32.9403 30.9081 32.9598 30.918 32.9801C30.93 33.0082 30.9441 33.0351 30.9594 33.062C30.9714 33.081 30.9876 33.0976 31.0016 33.1162C31.0194 33.1414 31.0389 33.1663 31.0596 33.1898C31.0757 33.2064 31.0952 33.2201 31.1129 33.2354C31.1357 33.2573 31.1601 33.2784 31.1858 33.2978L39.078 38.7918C39.1902 38.8687 39.3081 38.9366 39.4314 38.9954L40.9575 40.0493C41.3957 40.3617 41.5153 40.9613 41.2302 41.4181ZM26.6415 19.9874C26.6254 19.9849 26.6088 19.9816 26.5927 19.9778C26.4143 19.9377 22.1746 19.0311 20.4392 22.8272L19.1622 26.7305C18.9272 27.4816 18.6098 28.2045 18.2158 28.886C18.4596 29.3093 18.882 29.599 19.3645 29.6743C20.0187 29.7256 20.8418 29.246 21.7529 28.2918L23.9552 25.5314C24.3044 25.0733 24.8146 24.765 25.3827 24.6694C26.3332 24.499 27.414 24.8618 28.5909 25.7494L40.6132 33.6413L41.219 32.839L34.5433 21.3214L26.6415 19.9874ZM9.27617 27.3101C9.74252 27.3101 10.1207 27.6809 10.1207 28.1377C10.1207 28.5946 9.74252 28.9653 9.27617 28.9653C8.80983 28.9653 8.43162 28.5946 8.43162 28.1377C8.43162 27.6809 8.80983 27.3101 9.27617 27.3101ZM43.8657 29.3791C43.8657 28.9223 43.495 28.5515 43.0381 28.5515C42.5813 28.5515 42.2105 28.9223 42.2105 29.3791C42.2105 29.8359 42.5813 30.2067 43.0381 30.2067C43.495 30.2067 43.8657 29.8359 43.8657 29.3791ZM15.311 39.4174C15.5287 39.5896 15.8076 39.6649 16.0823 39.6247C16.3707 39.5809 16.6281 39.4191 16.7936 39.1783L16.9219 38.9966L16.9236 38.9945L19.5412 35.2886C19.9087 34.7552 19.8102 34.0298 19.3132 33.614L18.9387 33.3214C18.7211 33.1489 18.4422 33.074 18.1674 33.1141C17.8786 33.158 17.6212 33.3198 17.4561 33.5606L14.7089 37.449C14.3407 37.9824 14.4387 38.7086 14.9361 39.1249L15.311 39.4174ZM19.007 42.019L18.5026 41.625C18.006 41.2087 17.9072 40.4834 18.2746 39.95L20.8927 36.2445L20.8939 36.242L21.0222 36.0607C21.1877 35.8199 21.4451 35.6581 21.7339 35.6143C22.0087 35.5745 22.2872 35.6494 22.5052 35.8216L23.0096 36.2155C23.5066 36.6318 23.6055 37.3576 23.2372 37.8914L20.49 41.7798C20.3249 42.0202 20.0672 42.1824 19.7783 42.2263C19.504 42.2664 19.2247 42.1911 19.007 42.019ZM22.0691 44.4107C22.2867 44.5828 22.5656 44.6581 22.8404 44.618C23.1288 44.5737 23.3866 44.4119 23.5517 44.1711L24.1765 43.2876C24.1985 43.2533 24.2179 43.2181 24.2415 43.185L26.3283 40.2305C26.6597 39.7013 26.5496 39.0086 26.0713 38.6068C25.8938 38.4661 25.674 38.3896 25.4473 38.3892C25.398 38.3892 25.3492 38.3925 25.3 38.3995C25.0116 38.4442 24.7542 38.6056 24.5891 38.846L21.8419 42.7348C21.4732 43.2682 21.5717 43.9948 22.0691 44.4107ZM27.7012 45.8875C27.5357 46.1279 27.2783 46.2893 26.9899 46.334C26.7152 46.3741 26.4358 46.2988 26.2182 46.1267L25.8205 45.8155C25.3422 45.4141 25.2325 44.7214 25.5636 44.1922L27.6512 41.2377C27.6743 41.2042 27.6938 41.1694 27.7157 41.1351L27.8804 40.9025C28.0455 40.6617 28.3033 40.4999 28.5917 40.4561C28.6401 40.4486 28.6894 40.4449 28.739 40.4449C28.9654 40.4457 29.1855 40.5227 29.3626 40.6634L29.7611 40.9741C30.258 41.3904 30.3565 42.1162 29.9883 42.65L27.7012 45.8875ZM31.8449 44.6722C32.0775 44.6229 32.279 44.4798 32.4027 44.277C32.6804 43.819 32.562 43.2243 32.1301 42.9082L31.7709 42.6636C31.6861 43.0009 31.54 43.3203 31.3401 43.605L30.8498 44.2985L31.1899 44.5336C31.3798 44.6681 31.6169 44.7185 31.8449 44.6722Z" transform="translate(-0.00013133865 0)" id="Combined-Shape" fill="#FF2626" fill-rule="evenodd" stroke="none" />
  </g>
</svg>