<?xml version="1.0" encoding="utf-8"?>
<svg width="152px" height="32px" viewBox="0 0 152 32" version="1.1" xmlns:xlink="http://www.w3.org/1999/xlink" xmlns="http://www.w3.org/2000/svg">
  <desc>Created with Lunacy</desc>
  <g id="logo">
    <path d="M56.4969 2.03303C56.4985 1.48263 56.7225 0.956233 57.1209 0.577033C57.5065 0.191433 58.0329 -0.0165673 58.5769 0.00103265C59.1145 0.0170327 59.6297 0.220233 60.0329 0.577033C60.3897 0.980233 60.5929 1.49543 60.6089 2.03303L60.6089 12.401C62.4185 11.0058 64.6441 10.257 66.9289 10.273C72.6633 10.2362 77.3417 14.857 77.3769 20.5914L77.3769 20.801C77.4281 23.569 76.3273 26.2346 74.3369 28.161C70.3177 32.2378 63.7529 32.2874 59.6745 28.2666C59.6393 28.233 59.6041 28.1962 59.5689 28.161C57.5753 26.2346 56.4633 23.5722 56.4969 20.801L56.4969 2.03303ZM105.089 0.673193C104.689 1.05079 104.462 1.57719 104.465 2.12919L104.465 29.2012C104.491 30.3388 105.407 31.2556 106.545 31.2812C107.095 31.2812 107.622 31.054 108.001 30.6572C108.385 30.2716 108.595 29.7452 108.577 29.2012L108.577 2.12919C108.566 1.58999 108.363 1.07319 108.001 0.673193C107.603 0.306793 107.086 0.0971927 106.545 0.0811926C105.998 0.0619927 105.468 0.276393 105.089 0.673193ZM90.8504 27.2014C88.1064 27.1918 85.6728 25.435 84.8008 22.8318L99.2168 22.8318C99.7704 22.8222 100.303 22.619 100.721 22.2574C101.078 21.8542 101.281 21.339 101.297 20.8014C101.396 17.8942 100.222 15.0894 98.0808 13.1214C96.1608 11.3902 93.6696 10.4254 91.084 10.4126C85.26 10.379 80.5144 15.0734 80.4808 20.8958C80.4296 23.6654 81.5304 26.331 83.5208 28.2574C85.4536 30.2622 88.1288 31.379 90.9144 31.3454L93.6648 31.3454C94.9544 30.9838 96.188 30.4462 97.3288 29.7454C98.4968 28.9454 98.8168 28.0318 98.3208 26.9934C98.084 26.4878 97.6504 26.099 97.1208 25.9214C96.6024 25.6734 95.9928 25.723 95.5208 26.0494C94.6872 26.5758 93.7752 26.9646 92.8168 27.2014L91.6808 27.2014C91.404 27.2222 91.1256 27.2222 90.8504 27.2014ZM28.6568 30.7039C29.0632 30.3311 29.2904 29.8015 29.2808 29.2495L29.2808 18.9295C29.2936 18.8767 29.2936 18.8207 29.2808 18.7679C29.3128 16.5567 28.4264 14.4319 26.8328 12.8975C25.2904 11.2959 23.1512 10.4095 20.9288 10.4495C18.5032 10.3807 16.1816 11.4383 14.6408 13.3135C13.1128 11.4303 10.7928 10.3711 8.36876 10.4495C6.14316 10.4175 4.00236 11.3039 2.44876 12.8975C0.856757 14.4319 -0.029643 16.5567 0.000756986 18.7679L0.000756986 29.2495C-0.00884301 29.8015 0.218357 30.3311 0.624757 30.7039C0.997557 31.1119 1.52876 31.3407 2.08076 31.3295C2.63276 31.3327 3.15916 31.1055 3.53676 30.7039C3.91756 30.3167 4.12556 29.7919 4.11276 29.2495L4.11276 18.7679C4.09676 17.6367 4.54796 16.5487 5.36076 15.7615C7.04236 14.1615 9.68076 14.1615 11.3608 15.7615C12.1592 16.5615 12.6184 17.6383 12.6408 18.7679L12.6408 29.2495C12.6312 29.8015 12.8584 30.3311 13.2648 30.7039C13.2856 30.7263 13.3064 30.7471 13.3272 30.7663C14.1304 31.5375 15.4072 31.5087 16.1768 30.7039C16.5624 30.3183 16.7752 29.7935 16.7688 29.2495L16.7688 18.7679C16.7528 17.6367 17.2056 16.5487 18.0168 15.7615C18.8216 14.9903 19.8936 14.5599 21.0088 14.5615C22.1224 14.5663 23.1928 14.9951 24.0008 15.7615C24.7832 16.5631 25.2056 17.6495 25.1688 18.7679L25.1688 29.2655C25.1608 30.3967 26.0696 31.3199 27.2008 31.3295C27.7512 31.3327 28.2792 31.1055 28.6568 30.7039ZM42.8972 27.2014C40.1708 27.171 37.7628 25.419 36.8972 22.8318L51.2492 22.8318C51.8028 22.8222 52.334 22.619 52.7532 22.2574C53.1084 21.8542 53.3132 21.339 53.3292 20.8014C53.4172 17.8878 52.2236 15.0798 50.0652 13.1214C48.1324 11.3438 45.5868 10.3854 42.9612 10.4494L42.8316 10.4494C37.0972 10.4846 32.478 15.1614 32.5132 20.8958C32.462 23.6654 33.5628 26.331 35.5532 28.2574C37.4892 30.2654 40.1708 31.3838 42.9612 31.3454L45.6972 31.3454C46.9868 30.9838 48.2204 30.4462 49.3612 29.7454C50.5292 28.9454 50.8652 28.0318 50.3532 26.9934C50.1212 26.4846 49.686 26.0942 49.1532 25.9214C48.6348 25.6734 48.0252 25.723 47.5532 26.0494C46.7212 26.579 45.8076 26.9678 44.8492 27.2014L43.7292 27.2014C43.4524 27.2222 43.174 27.2222 42.8972 27.2014ZM60.6089 20.801C60.5801 22.481 61.2601 24.0954 62.4809 25.249C63.6361 26.4698 65.2489 27.1498 66.9289 27.121C68.6217 27.1466 70.2505 26.4682 71.4249 25.249C73.9353 22.8362 74.0137 18.8458 71.6025 16.3354C70.3833 15.0666 68.6889 14.3658 66.9289 14.401C63.4537 14.3914 60.6265 17.1978 60.6089 20.673L60.6089 20.801ZM94.4168 15.5214C95.588 16.251 96.444 17.3918 96.8168 18.7214L84.8168 18.7214C84.996 18.2126 85.2392 17.7262 85.5384 17.2782C87.5048 14.3406 91.4808 13.555 94.4168 15.5214ZM46.5132 15.5214C47.6892 16.2494 48.55 17.3902 48.9292 18.7214L36.8972 18.7214C37.806 16.187 40.2044 14.491 42.8972 14.4814C44.1804 14.4478 45.4428 14.811 46.5132 15.5214Z" transform="translate(-0.0002769862 8.734602E-05)" id="Combined-Shape" fill="#FD2624" fill-rule="evenodd" stroke="none" />
    <path d="M12.3523 18.8017C12.3379 19.3393 12.1347 19.8561 11.7763 20.2577C11.3955 20.6529 10.8691 20.8785 10.3187 20.8817C9.76672 20.8977 9.23552 20.6689 8.86432 20.2577C8.45792 19.8817 8.22752 19.3553 8.22432 18.8017L8.22432 10.4017C8.19872 7.62891 9.31712 4.96651 11.3123 3.04171C13.2387 1.05131 15.9043 -0.0494904 18.6723 0.00170956C19.2259 0.0113096 19.7571 0.21611 20.1763 0.57771C20.5315 0.98091 20.7363 1.49611 20.7523 2.03371C20.7411 2.57131 20.5363 3.08971 20.1763 3.48971C19.7827 3.89611 19.2387 4.12171 18.6723 4.11371C15.1699 4.15691 12.3523 7.00971 12.3523 10.5137L12.3523 18.8017ZM36.5603 18.4019C38.1539 16.8611 39.0643 14.7459 39.0883 12.5299L39.0563 12.5299L39.0563 2.03387C39.0403 1.49307 38.8307 0.97627 38.4643 0.57787C38.0627 0.21627 37.5475 0.0114696 37.0083 0.00186956C36.9971 0.000269557 36.9875 0.000269557 36.9763 0.000269557C35.8451 -0.00773044 34.9219 0.90267 34.9123 2.03387L34.9123 12.4323C34.9427 13.5763 34.4899 14.6819 33.6643 15.4739C32.8659 16.3171 31.7523 16.7859 30.5923 16.7683C29.4419 16.7859 28.3363 16.3139 27.5523 15.4739C26.7331 14.6771 26.2819 13.5747 26.3043 12.4323L26.3043 2.03387C26.2883 1.49627 26.0851 0.98107 25.7283 0.57787C25.3107 0.21627 24.7779 0.0114696 24.2243 0.00186956C23.6867 0.0178696 23.1715 0.22107 22.7683 0.57787C22.4115 0.98107 22.2083 1.49627 22.1923 2.03387L22.1923 12.4963C22.1987 14.7203 23.0979 16.8483 24.6883 18.4019C27.9683 21.6771 33.2803 21.6771 36.5603 18.4019ZM4.23561e-06 18.7686C-0.00159576 19.8998 0.902404 20.823 2.032 20.8502C2.5776 20.8966 3.1152 20.6902 3.488 20.2886C3.8976 19.9238 4.1264 19.3974 4.112 18.8502C4.1152 18.2982 3.8896 17.7702 3.488 17.3942C3.1104 16.9974 2.5808 16.7814 2.032 16.8022C0.928004 16.7846 0.0176042 17.6662 4.23561e-06 18.7686Z" transform="translate(112.9125 10.39941)" id="Combined-Shape" fill="#FFFFFF" fill-rule="evenodd" stroke="none" />
  </g>
</svg>