<?xml version="1.0" encoding="utf-8"?>
<svg width="33px" height="47px" viewBox="0 0 33 47" version="1.1" xmlns:xlink="http://www.w3.org/1999/xlink" xmlns="http://www.w3.org/2000/svg">
  <desc>Created with Lunacy</desc>
  <g id="spiral">
    <path d="M32.1315 2.19092C31.3578 0.696407 29.9536 0 27.7123 0L5.20027 0C2.96054 0 1.55634 0.696407 0.781831 2.19092C0.130983 3.44868 0 5.17505 0 7.55227L0 35.0213C0 37.3985 0.130983 39.1249 0.781831 40.3818C1.55634 41.8772 2.96054 42.5736 5.20027 42.5736L11.8698 42.5736L11.8698 45.5471C11.8698 45.6594 11.9007 45.7708 11.9577 45.8668C12.0439 46.0092 12.179 46.1101 12.3401 46.15C12.502 46.1915 12.6696 46.1654 12.8127 46.08L16.4233 43.9021L20.147 46.0613C20.2503 46.1321 20.3723 46.1695 20.4984 46.1695C20.8418 46.1695 21.1216 45.8904 21.1216 45.5471L21.1216 42.5736L27.7123 42.5736C29.9536 42.5736 31.3578 41.8772 32.1315 40.3818C32.7824 39.1249 32.9134 37.3985 32.9134 35.0213L32.9134 7.55227C32.9134 5.17505 32.7824 3.44868 32.1315 2.19092ZM21.7668 37.2618C21.5471 37.3269 21.3323 37.3538 21.1216 37.3741L21.1216 41.328L27.7123 41.328C29.4606 41.328 30.4833 40.8602 31.0275 39.8107C31.5612 38.7791 31.6686 37.213 31.6686 35.0213L31.6686 7.55227C31.6686 5.36054 31.5612 3.79444 31.0275 2.76203C30.4841 1.71336 29.4614 1.24475 27.7123 1.24475L5.20027 1.24475C3.45193 1.24475 2.4301 1.71336 1.88664 2.76203C1.35295 3.79281 1.24556 5.35892 1.24556 7.55227L1.24556 35.0213C1.24556 37.2138 1.35295 38.7799 1.88664 39.8107C2.42929 40.8602 3.45112 41.328 5.20027 41.328L11.8682 41.328L11.8682 38.2918C11.7633 38.2723 11.6575 38.2544 11.5509 38.2438L11.5924 37.8492C11.6843 37.8582 11.7755 37.8753 11.8682 37.8915L11.8682 37.5393C11.6233 37.523 11.4028 37.4953 11.1873 37.4237C10.7089 37.2667 10.2582 36.8591 9.94902 36.3075C9.64149 35.7592 9.53329 35.1637 9.65044 34.6739C9.71146 34.416 9.81234 34.1931 9.90997 33.9783C10.0141 33.7489 10.1223 33.5113 10.1703 33.251C10.1972 33.1078 10.2028 32.8507 10.1866 32.5643C10.1703 32.2706 10.1313 31.9875 10.0849 31.824C10.0222 31.5978 9.92705 31.3944 9.83512 31.1976C9.70658 30.9242 9.59186 30.6777 9.53085 30.3807C9.42997 29.8877 9.55607 29.2946 9.87824 28.7536C10.2012 28.2126 10.6625 27.8205 11.1449 27.6781C11.4012 27.6008 11.6583 27.578 11.9056 27.5553C12.1212 27.5349 12.3384 27.5154 12.5548 27.4568C12.7037 27.4169 12.9372 27.3104 13.1797 27.1721C13.4278 27.0289 13.6483 26.8751 13.7687 26.7596C13.9582 26.5782 14.1022 26.3561 14.2405 26.1405C14.3984 25.8956 14.5611 25.6418 14.7986 25.4294C15.1664 25.1024 15.7269 24.9161 16.3403 24.9161C16.3542 24.9161 16.3688 24.9169 16.3826 24.9169C17.0132 24.925 17.5843 25.1284 17.9487 25.475C18.1399 25.6564 18.2823 25.8541 18.419 26.0453C18.5801 26.269 18.7436 26.4976 18.9681 26.6758C19.1113 26.7897 19.3643 26.9337 19.6426 27.0598C19.92 27.1859 20.1909 27.2803 20.3666 27.3128C20.5318 27.3429 20.7075 27.3576 20.8743 27.3722C21.1696 27.3974 21.4397 27.421 21.7253 27.5154C22.2037 27.674 22.6544 28.0808 22.9611 28.6332C23.2686 29.1807 23.3776 29.7763 23.2605 30.2652C23.2052 30.4946 23.1279 30.698 23.0424 30.9112C22.9432 31.165 22.8407 31.4262 22.7951 31.7239C22.7723 31.8728 22.7626 32.1332 22.7699 32.4033C22.7764 32.6758 22.7967 32.9199 22.826 33.0557C22.8805 33.3144 22.9879 33.5471 23.0921 33.7717C23.2027 34.0141 23.3182 34.2639 23.3801 34.5576C23.4818 35.0506 23.3548 35.6437 23.0319 36.1855C22.7113 36.7257 22.2492 37.1186 21.7668 37.2618ZM16.3641 24.0586C16.4869 24.061 16.6106 24.0716 16.7318 24.0903L16.7928 23.6982C16.6529 23.6754 16.5122 23.6648 16.3706 23.6616L16.3641 24.0586ZM15.5279 23.7658C15.6646 23.7275 15.8061 23.6999 15.9477 23.6828L15.9485 23.6828L15.9965 24.0766C15.8753 24.0904 15.7549 24.114 15.6369 24.1473L15.5279 23.7658ZM17.0863 24.1742C17.201 24.2116 17.3084 24.258 17.4133 24.3174L17.6094 23.9716L17.6094 23.9708C17.4809 23.8984 17.3482 23.8423 17.2091 23.7967L17.0863 24.1742ZM15.0229 24.4702L14.752 24.1797C14.8651 24.0756 14.9847 23.9942 15.1214 23.9234L15.3052 24.2757C15.2003 24.3302 15.1092 24.3904 15.0229 24.4702ZM17.9648 24.2449C18.0641 24.3449 18.1552 24.4532 18.2398 24.5662L18.2406 24.5662L17.9242 24.8071C17.8501 24.7086 17.7712 24.6134 17.6834 24.5247L17.9648 24.2449ZM14.2364 24.8435L14.5691 25.0591C14.6391 24.9517 14.7099 24.8443 14.7864 24.7418L14.4674 24.5051C14.3869 24.6149 14.3112 24.7288 14.2364 24.8435ZM18.7086 25.2015L18.7037 25.195C18.6256 25.0957 18.5516 24.994 18.4767 24.8915L18.1546 25.1234C18.2327 25.2316 18.3116 25.3381 18.3938 25.4423L18.3994 25.4488L18.7094 25.2015L18.7086 25.2015ZM14.1086 25.7272L13.7986 25.4807C13.8767 25.3814 13.9507 25.2773 14.0215 25.1723L14.351 25.3944C14.2745 25.5083 14.194 25.6198 14.1086 25.7272ZM18.6096 25.8542C18.7316 25.9773 18.8606 26.0942 18.9976 26.2003L19.2966 25.8162C19.1776 25.7233 19.0646 25.6213 18.9586 25.5133L18.6096 25.8542ZM19.2338 25.7313L19.2338 25.7305L19.233 25.7313L19.2338 25.7313ZM13.5309 26.3182L13.2624 26.0254C13.3576 25.9383 13.4487 25.8488 13.539 25.7569L13.8237 26.0335C13.7286 26.1303 13.6317 26.2263 13.5309 26.3182ZM19.6952 26.4792C19.574 26.4174 19.4544 26.3507 19.3365 26.2799L19.5423 25.9407C19.6521 26.0066 19.7636 26.0676 19.8775 26.127L19.6952 26.4792ZM17.9821 37.6117C18.1782 37.3652 18.4841 37.0959 18.842 36.8542C19.2033 36.6126 19.5751 36.4247 19.8899 36.3246C20.2649 36.205 20.5977 36.1749 20.8922 36.1481C21.085 36.1302 21.2673 36.1139 21.4121 36.0708C21.5927 36.0171 21.8034 35.817 21.9645 35.5493C22.1247 35.28 22.2004 34.9961 22.1614 34.809C22.1313 34.6633 22.0499 34.4868 21.9645 34.3005L21.9612 34.2932L22.2386 34.1654L21.9588 34.2875C21.8335 34.0141 21.6903 33.7041 21.6073 33.3104C21.565 33.107 21.5357 32.7864 21.526 32.4334C21.517 32.077 21.5308 31.7508 21.5634 31.5368C21.6293 31.1081 21.7619 30.7672 21.8791 30.467C21.9539 30.2758 22.0157 30.1196 22.0507 29.9764C22.0946 29.7925 22.0271 29.5094 21.875 29.2385C21.722 28.9643 21.5146 28.7577 21.3332 28.6975C21.1835 28.6479 20.9841 28.6308 20.7726 28.6129C20.5765 28.5958 20.3748 28.5787 20.1413 28.5356C19.8663 28.4852 19.4969 28.3591 19.1268 28.1906C18.7574 28.0231 18.4182 27.8262 18.1969 27.6504C17.8251 27.3551 17.6038 27.046 17.4085 26.7734C17.2979 26.6188 17.1929 26.4732 17.0913 26.3764C16.9554 26.2471 16.6772 26.1641 16.3656 26.1592L16.342 26.1592C16.0377 26.1592 15.7643 26.2348 15.6252 26.3585C15.5162 26.4561 15.4047 26.6286 15.2868 26.8117C15.1135 27.0785 14.9223 27.3746 14.6286 27.6561C14.4342 27.8424 14.1315 28.0597 13.7963 28.2525C13.4652 28.4428 13.13 28.5901 12.8754 28.6584C12.5662 28.7414 12.2791 28.7683 12.026 28.7919C11.8218 28.8106 11.6396 28.8277 11.4948 28.8708C11.3142 28.9245 11.1026 29.1246 10.9424 29.3923C10.7829 29.6616 10.7073 29.9455 10.7463 30.1326C10.778 30.2872 10.8626 30.4694 10.9538 30.6631C11.0636 30.8982 11.1889 31.1642 11.2808 31.4896C11.3508 31.7394 11.4037 32.1063 11.4256 32.4952C11.4378 32.7205 11.4508 33.1469 11.3906 33.4763C11.3142 33.888 11.1694 34.2077 11.0424 34.4892C10.9627 34.6641 10.8895 34.8277 10.8578 34.9619C10.813 35.1474 10.8805 35.4305 11.0319 35.7022C11.1848 35.9748 11.3923 36.1822 11.5737 36.2424C11.7161 36.2896 11.9219 36.3002 12.1399 36.3108C12.3848 36.323 12.6639 36.3368 12.9649 36.3986C13.2513 36.4589 13.6092 36.5996 13.9753 36.794C14.3374 36.9852 14.6677 37.2122 14.8824 37.4156C15.1477 37.6686 15.3299 37.9249 15.4894 38.1511C15.6057 38.3162 15.7106 38.4643 15.8156 38.5643C15.9523 38.6937 16.2305 38.7767 16.5413 38.7807C16.8529 38.7832 17.1401 38.7092 17.2824 38.5822C17.3931 38.483 17.5045 38.3105 17.6225 38.1266C17.7421 37.9428 17.8495 37.7776 17.9821 37.6117ZM12.6244 26.4151L12.818 26.7608C12.9376 26.6941 13.0531 26.6233 13.1679 26.5509L12.9539 26.2165C12.8457 26.2865 12.7359 26.3516 12.6244 26.4151ZM20.4403 26.8115C20.3134 26.7635 20.1864 26.7106 20.0628 26.6553L20.2247 26.2933C20.3426 26.3462 20.4614 26.3958 20.5818 26.4414L20.4403 26.8115ZM20.9427 26.5632L20.8312 26.9439C20.9679 26.9846 21.1013 27.0139 21.2429 27.0375L21.3056 26.6454L21.3047 26.6454C21.1795 26.625 21.0647 26.599 20.9427 26.5632ZM12.073 27.1137L11.9379 26.7411C12.0559 26.6988 12.1714 26.6468 12.2845 26.5922L12.4562 26.9502C12.3301 27.0112 12.2031 27.0665 12.073 27.1137ZM21.6867 26.6927L21.6485 27.0881C21.7803 27.1003 21.9121 27.1109 22.0447 27.1231L22.0821 26.7277L22.0813 26.7277C21.9495 26.7155 21.8185 26.7057 21.6867 26.6927ZM22.7655 27.2799C22.6403 27.2384 22.5142 27.1978 22.3889 27.1546L22.5158 26.7796C22.6419 26.8219 22.7672 26.8626 22.8925 26.9041L22.7655 27.2799ZM11.582 26.8401L11.582 26.8392L11.5828 26.8401L11.582 26.8401ZM11.255 27.2942L11.2078 26.9004C11.3331 26.885 11.4584 26.8663 11.5821 26.8402L11.6634 27.2283C11.5284 27.2568 11.3933 27.2779 11.255 27.2942ZM10.4141 26.9854L10.4711 27.3784C10.5988 27.3597 10.7273 27.3475 10.8551 27.3353L10.8185 26.9399C10.6842 26.9529 10.5475 26.9659 10.4141 26.9854ZM9.80908 27.6042L9.59104 27.2723C9.71633 27.1901 9.84975 27.1226 9.99375 27.077L10.1166 27.4537C10.0068 27.4895 9.90508 27.5408 9.80908 27.6042ZM23.6205 27.4086C23.5229 27.3028 23.4155 27.2052 23.2991 27.1189L23.0632 27.437C23.16 27.5094 23.2487 27.5916 23.33 27.6795L23.6205 27.4086ZM8.96973 27.865L9.28701 28.1033C9.36105 28.0057 9.44078 27.9146 9.52946 27.8284L9.25203 27.5452C9.14952 27.6445 9.05678 27.7503 8.96973 27.865ZM23.7458 28.2848L24.1005 28.1058C24.0379 27.9806 23.9655 27.8569 23.8858 27.7414L23.5587 27.9667C23.6279 28.0684 23.6913 28.1742 23.7458 28.2848ZM9.08395 28.4133C9.02374 28.5207 8.97168 28.6313 8.92693 28.7469L8.55676 28.6029C8.60802 28.4719 8.66985 28.3433 8.73818 28.2205L9.08395 28.4133ZM24.3659 28.915L23.9745 28.976C23.9574 28.8597 23.9249 28.7369 23.8883 28.6246L24.2633 28.4977C24.3081 28.6303 24.3471 28.7775 24.3667 28.9158L24.3659 28.915ZM8.43222 29.013L8.8211 29.096C8.7967 29.2123 8.78205 29.3295 8.78205 29.4475L8.38503 29.4491C8.38503 29.3018 8.40131 29.157 8.43222 29.013ZM14.1112 30.1731C14.7246 29.5605 15.5398 29.2221 16.4062 29.2221C17.2735 29.2221 18.0887 29.5605 18.7029 30.1739C19.3163 30.7882 19.654 31.6034 19.654 32.4698C19.654 33.3371 19.3163 34.1531 18.7021 34.7657C18.0887 35.3799 17.2727 35.7175 16.4062 35.7175C15.5382 35.7175 14.723 35.3791 14.1104 34.7657C13.4969 34.1531 13.1593 33.3371 13.1593 32.4698C13.1593 31.6017 13.4969 30.7857 14.1112 30.1731ZM24.2972 29.7871L23.9181 29.6716C23.9539 29.5569 23.9824 29.4487 23.9913 29.3275L24.3867 29.3551C24.3753 29.5081 24.3419 29.6431 24.298 29.7871L24.2972 29.7871ZM8.83114 29.7882C8.86368 29.907 8.90599 30.0233 8.95561 30.1364L8.59033 30.291C8.535 30.1624 8.48538 30.029 8.44877 29.894L8.83114 29.7882ZM8.44788 29.8937L8.44788 29.8929L8.44869 29.8937L8.44788 29.8937ZM23.7911 30.0322L24.1604 30.1746C24.1124 30.2974 24.0636 30.4211 24.0173 30.5439L24.0173 30.5431L23.6463 30.4024C23.6943 30.2787 23.7431 30.1559 23.7911 30.0322ZM14.9898 31.0534C14.6123 31.4317 14.4041 31.9345 14.4041 32.4698C14.4041 33.0051 14.6123 33.5079 14.9906 33.8862C15.7464 34.6412 17.0668 34.6404 17.8218 33.8862C18.2001 33.5087 18.4084 33.0059 18.4084 32.4698C18.4084 31.9337 18.2001 31.4309 17.8226 31.0534L17.8218 31.0534C17.4443 30.6759 16.9416 30.4676 16.4062 30.4676C15.8717 30.4676 15.3689 30.6759 14.9898 31.0534ZM8.75728 30.6587L9.11606 30.4903C9.17301 30.6123 9.23077 30.7352 9.28284 30.8589L8.91755 31.0134C8.8663 30.8938 8.8126 30.7767 8.75809 30.6587L8.75728 30.6587ZM23.8906 30.9063L23.5115 30.7883C23.4708 30.921 23.4342 31.0552 23.4073 31.1902L23.7954 31.2716L23.7954 31.2724C23.8214 31.1496 23.8532 31.0267 23.8906 30.9063ZM9.05238 31.3691C9.09225 31.4895 9.12235 31.6042 9.14594 31.7287L9.53645 31.6538C9.50879 31.5122 9.47462 31.3837 9.42988 31.2462L9.05238 31.3691ZM23.7408 31.6401C23.731 31.7678 23.7261 31.8964 23.7237 32.0241L23.7237 32.0249L23.3267 32.0176C23.3299 31.8809 23.334 31.7434 23.3454 31.6084L23.7408 31.6401ZM9.63449 32.4661L9.23828 32.4913C9.22933 32.3627 9.21876 32.2342 9.2033 32.1065L9.59788 32.0609C9.61333 32.1951 9.62635 32.3302 9.63449 32.4661ZM23.3282 32.4228L23.7252 32.413C23.7277 32.5415 23.735 32.6717 23.7431 32.8003L23.3469 32.8279C23.3372 32.6921 23.3331 32.5578 23.3282 32.4228ZM9.64165 33.284L9.24544 33.2588C9.25358 33.1319 9.2552 33.0042 9.25358 32.8772L9.64978 32.8724C9.65141 33.0098 9.64978 33.1481 9.64165 33.284ZM23.7827 33.1795C23.8014 33.3032 23.8283 33.4211 23.8633 33.5407L23.4817 33.6514C23.4418 33.5139 23.4117 33.3788 23.3898 33.2373L23.7827 33.1795ZM9.58543 33.7057L9.19655 33.6227L9.19655 33.6235C9.17214 33.7431 9.13634 33.866 9.09648 33.9823L9.47234 34.1108C9.5179 33.9799 9.55777 33.8415 9.58543 33.7057ZM23.7361 34.3154C23.7515 34.3488 23.7662 34.3821 23.7825 34.4163L24.1429 34.2511L24.1412 34.2511C24.0981 34.1576 24.0574 34.0632 24.0176 33.9688C24.007 33.9444 23.9972 33.92 23.9883 33.8964L23.6189 34.0429C23.6564 34.1348 23.6954 34.2251 23.7361 34.3154ZM9.15797 34.8599L8.79675 34.698L8.8 34.6906C8.85207 34.5735 8.90658 34.4563 8.95702 34.3376L9.3215 34.4954C9.30604 34.5296 9.29058 34.5645 9.27594 34.5987C9.23689 34.6858 9.19783 34.7736 9.15797 34.8599ZM24.452 35.0121L24.4528 35.0121C24.4138 34.8771 24.3634 34.7461 24.3072 34.6176L23.9427 34.7746C23.9924 34.8885 24.0363 35.004 24.0713 35.1236L24.452 35.0121ZM8.63929 35.0782L9.0127 35.2116L8.92566 35.5517L8.53027 35.5061C8.54899 35.3589 8.58966 35.2181 8.63929 35.079L8.63929 35.0782ZM24.0956 35.8146L24.4853 35.8903C24.5146 35.7455 24.5284 35.5999 24.5251 35.4526L24.1289 35.4632C24.1306 35.5812 24.1192 35.6983 24.0956 35.8146ZM8.92724 35.9004L8.53348 35.95C8.55056 36.0932 8.58148 36.2323 8.62378 36.3706L9.00371 36.2543C8.96873 36.138 8.94188 36.0208 8.92724 35.9004ZM24.1911 36.6874L23.8413 36.4987C23.8998 36.3913 23.9527 36.279 23.995 36.1635L24.3668 36.3018C24.3172 36.4344 24.2578 36.563 24.1911 36.6874ZM8.77893 36.768L9.13608 36.5964C9.18896 36.7095 9.24917 36.816 9.31669 36.9202L8.98395 37.1374C8.90666 37.0178 8.83913 36.8966 8.77812 36.768L8.77893 36.768ZM23.6849 37.3676L23.4042 37.0878C23.4896 37.0023 23.5701 36.9072 23.6426 36.8103L23.9631 37.0447C23.8785 37.1594 23.7857 37.2684 23.6849 37.3684L23.6849 37.3676ZM9.24093 37.4771C9.3353 37.5845 9.43781 37.6845 9.55089 37.7748L9.79822 37.4657C9.70222 37.3892 9.61842 37.3054 9.53706 37.2143L9.24093 37.4771ZM22.9543 37.8493L22.8217 37.4759C22.9315 37.4377 23.0324 37.3832 23.1284 37.3181L23.3513 37.646C23.2284 37.7298 23.0958 37.8005 22.9543 37.8493ZM9.23987 37.4775L9.24068 37.4775L9.23987 37.4767L9.23987 37.4775ZM22.1269 37.9968L22.0895 37.6015C22.2172 37.5892 22.3449 37.577 22.4718 37.5567L22.5337 37.9488C22.3986 37.97 22.2628 37.983 22.1269 37.996L22.1269 37.9968ZM21.3596 38.0925L21.2823 37.7028C21.4182 37.6759 21.5533 37.6564 21.6899 37.6401L21.7363 38.0347C21.6102 38.0493 21.4849 38.068 21.3604 38.0925L21.3596 38.0925ZM10.4228 37.7543C10.3073 37.7332 10.1983 37.7031 10.0917 37.6526L9.92492 38.0114C10.0616 38.0757 10.2023 38.1155 10.3496 38.144L10.4228 37.7543ZM13.1138 37.7548C13.2033 37.7947 13.2984 37.8411 13.3936 37.8915C13.6613 38.0339 13.898 38.1925 14.0282 38.3162C14.2007 38.4797 14.3365 38.6717 14.4748 38.867C14.6172 39.0679 14.7637 39.277 14.9622 39.4641C15.3266 39.8107 15.8978 40.0141 16.5283 40.0231C17.1449 40.0141 17.7364 39.8449 18.1123 39.5105C18.3474 39.2998 18.5117 39.0452 18.6785 38.7873C18.7639 38.6546 18.8526 38.5155 18.9567 38.3854C19.0755 38.2365 19.2871 38.0542 19.5368 37.8858C19.6483 37.8102 19.763 37.741 19.8761 37.6808L19.8761 44.4667L16.7276 42.6403C16.6316 42.5849 16.525 42.5573 16.4184 42.5573C16.307 42.5573 16.1947 42.5874 16.0955 42.6468L13.1138 44.4447L13.1138 37.7548ZM11.1658 38.2156L11.187 37.8194C11.056 37.812 10.925 37.808 10.794 37.7982L10.7672 38.1936C10.8974 38.2017 11.0275 38.2074 11.1577 38.2147L11.1658 38.2156ZM9.92395 38.0118L9.92395 38.0126L9.92476 38.0118L9.92395 38.0118ZM10.767 38.1941L10.767 38.1933L10.7662 38.1933L10.767 38.1941ZM13.5761 38.3125L13.3256 38.62C13.4232 38.6998 13.5159 38.7868 13.6046 38.8739L13.8845 38.5924C13.786 38.4947 13.6827 38.3996 13.5761 38.3125ZM19.6663 38.906L19.4157 38.5985C19.31 38.6855 19.2075 38.7807 19.1082 38.8783L19.3872 39.1598C19.4767 39.072 19.5695 38.9857 19.6663 38.906ZM14.083 38.9338L13.7495 39.1494C13.8243 39.2633 13.8975 39.3764 13.9781 39.487L14.2994 39.2544C14.2238 39.1502 14.153 39.042 14.083 38.9338ZM18.7964 39.2016L19.13 39.4164C19.056 39.5311 18.9811 39.6442 18.9014 39.7549L18.58 39.5214C18.6565 39.4172 18.7265 39.309 18.7964 39.2016ZM14.5378 39.515L14.2229 39.7558C14.3027 39.8591 14.3775 39.9649 14.4524 40.0714L14.7762 39.842C14.6981 39.7314 14.6208 39.6223 14.5378 39.515ZM18.6906 40.0699L18.3579 39.8543C18.2879 39.9625 18.2171 40.0707 18.1415 40.174L18.4628 40.4083C18.5418 40.2977 18.6166 40.1838 18.6906 40.0699ZM14.6901 40.3986L15.0041 40.1569C15.0415 40.2058 15.0798 40.2529 15.1196 40.2993C15.1595 40.3449 15.2018 40.3929 15.2465 40.4344L14.9691 40.7191C14.8731 40.6247 14.7853 40.5222 14.7031 40.4157L14.6901 40.3986ZM17.8203 40.999C17.9539 40.9284 18.0746 40.84 18.1831 40.7347L17.9065 40.4499C17.8252 40.5288 17.7332 40.5964 17.6324 40.65L17.8203 40.999ZM15.7333 41.1532C15.5934 41.11 15.4608 41.0555 15.3322 40.9856L15.5202 40.6365C15.6259 40.6935 15.7349 40.7382 15.8505 40.774L15.7333 41.1532ZM17.4157 41.1643C17.2806 41.205 17.1374 41.2343 16.9975 41.2522L16.9959 41.2513L16.9438 40.8592C17.0642 40.8429 17.1838 40.8193 17.3001 40.7844L17.4157 41.1643ZM16.2079 40.8538C16.3292 40.8717 16.4528 40.8807 16.5757 40.8815L16.574 41.2785C16.4317 41.2769 16.2917 41.2663 16.151 41.2468L16.1518 41.2468L16.2079 40.8538Z" id="Combined-Shape" fill="#FF2626" fill-rule="evenodd" stroke="none" />
  </g>
</svg>