<?xml version="1.0" encoding="utf-8"?>
<svg width="48px" height="47px" viewBox="0 0 48 47" version="1.1" xmlns:xlink="http://www.w3.org/1999/xlink" xmlns="http://www.w3.org/2000/svg">
  <desc>Created with Lunacy</desc>
  <g id="spiral">
    <path d="M42.3361 11.9217C39.3911 8.97971 35.4801 7.35871 31.3161 7.35871C27.1561 7.35871 23.2421 8.97971 20.3011 11.9217C17.9141 14.3077 16.6021 17.4797 16.6021 20.8507C16.6021 24.2217 17.9141 27.3937 20.3011 29.7807C22.2381 31.7187 24.8161 32.7847 27.5551 32.7847C30.2931 32.7847 32.8711 31.7187 34.8091 29.7807C38.0741 26.5147 38.0741 21.2067 34.8091 17.9447C32.1371 15.2687 27.7891 15.2687 25.1171 17.9447C22.9141 20.1437 22.9141 23.7257 25.1171 25.9257C26.9411 27.7497 29.9021 27.7497 31.7271 25.9257C32.0391 25.6127 32.0391 25.1087 31.7271 24.7967C31.4141 24.4837 30.9101 24.4837 30.5981 24.7967C29.3981 25.9917 27.4451 25.9957 26.2461 24.7967C24.6681 23.2187 24.6681 20.6517 26.2461 19.0777C28.2971 17.0267 31.6291 17.0267 33.6801 19.0777C36.3161 21.7147 36.3161 26.0117 33.6801 28.6477C32.0431 30.2847 29.8671 31.1867 27.5551 31.1867C25.2421 31.1867 23.0661 30.2847 21.4301 28.6477C19.3481 26.5657 18.1991 23.7967 18.1991 20.8507C18.1991 17.9057 21.4302 13.0547 21.4302 13.0547C21.4302 13.0547 27.5821 8.96071 31.3161 8.96071C35.0511 8.96071 38.5621 10.4137 41.2031 13.0547C44.5431 16.3937 46.3831 20.8317 46.3831 25.5547C46.3831 30.2767 44.5431 34.7187 41.2031 38.0547C36.9651 42.2927 31.3401 44.6247 25.3551 44.6247L25.2271 44.6247C19.3051 44.5897 13.7811 42.2617 9.6761 38.0617C-0.0268996 28.1367 -1.1289 12.3237 7.1211 1.27671C7.3831 0.925711 7.3121 0.421711 6.9571 0.159711C6.6021 -0.106289 6.1021 -0.0312891 5.8361 0.319711C-2.8749 11.9917 -1.7189 28.6987 8.5311 39.1797C12.9411 43.6867 18.8631 46.1867 25.2151 46.2217L25.3551 46.2217C31.7701 46.2217 37.7931 43.7257 42.3361 39.1867C45.9771 35.5467 47.9841 25.5547 47.9841 25.5547C47.9841 25.5547 45.9771 15.5657 42.3361 11.9217Z" id="Fill-1" fill="#FF2626" stroke="none" />
  </g>
</svg>