<?xml version="1.0" encoding="utf-8"?>
<svg width="48px" height="47px" viewBox="0 0 48 47" version="1.1" xmlns:xlink="http://www.w3.org/1999/xlink" xmlns="http://www.w3.org/2000/svg">
  <desc>Created with Lunacy</desc>
  <g id="installment">
    <path d="M15.086 10.971C15.543 10.971 15.943 10.571 15.943 10.114L15.943 0.857C15.943 0.4 15.543 0 15.086 0C14.629 0 14.229 0.4 14.229 0.857L14.229 10.114C14.229 10.628 14.629 10.971 15.086 10.971ZM34.058 10.114C34.058 10.571 33.657 10.971 33.2 10.971C32.686 10.971 32.343 10.628 32.343 10.114L32.343 0.857C32.343 0.4 32.743 0 33.2 0C33.657 0 34.058 0.4 34.058 0.857L34.058 10.114ZM43.143 4.571L35.714 4.571L35.714 6.286L43.143 6.286C44.858 6.286 46.286 7.714 46.286 9.429L46.286 36.571L42.515 36.571C39.828 36.571 37.657 38.743 37.657 41.429L37.657 45.143L4.857 45.143C3.143 45.143 1.715 43.714 1.715 42L1.715 9.429C1.715 7.714 3.143 6.286 4.857 6.286L12.571 6.286L12.571 4.571L4.857 4.571C2.172 4.571 0 6.743 0 9.429L0 42C0 44.686 2.172 46.857 4.857 46.857L39.371 46.857L39.429 46.8L47.772 38.571L48 38.343L48 9.429C48 6.743 45.828 4.571 43.143 4.571ZM30.629 6.285L17.657 6.285L17.657 4.571L30.629 4.571L30.629 6.285ZM21.486 36.457C21.657 36.628 21.886 36.743 22.114 36.743C22.4 36.743 22.629 36.628 22.8 36.4L36.686 18.743C36.972 18.343 36.914 17.829 36.515 17.543C36.172 17.257 35.6 17.314 35.315 17.714L22.114 34.571L14.343 25.143C14.057 24.8 13.486 24.743 13.143 25.028C12.8 25.314 12.743 25.886 13.029 26.228L21.486 36.457ZM39.371 41.429L39.371 44.4L45.6 38.286L42.515 38.286C40.8 38.286 39.371 39.714 39.371 41.429Z" id="Fill-1" fill="#FF2626" fill-rule="evenodd" stroke="none" />
  </g>
</svg>