<?xml version="1.0" encoding="utf-8"?>
<svg width="48px" height="47px" viewBox="0 0 48 47" version="1.1" xmlns:xlink="http://www.w3.org/1999/xlink" xmlns="http://www.w3.org/2000/svg">
  <desc>Created with Lunacy</desc>
  <g id="spiral">
    <path d="M0 6.58C0 2.942 2.942 0 6.581 0L7.355 0L7.355 5.806L48 5.806L48 46.064L6.581 46.064C2.942 46.064 0 43.122 0 39.484L0 6.58ZM5.80685 1.625L5.80685 32.941C4.10285 33.135 2.59385 33.987 1.54785 35.225L1.54785 6.58C1.54785 4.064 3.40585 1.973 5.80685 1.625ZM46.4509 7.354L7.35485 7.354L7.35485 34.451L6.58085 34.451C3.79285 34.451 1.54785 36.697 1.54785 39.484C1.54785 42.27 3.79285 44.515 6.58085 44.515L46.4509 44.515L46.4509 7.354ZM21.6769 10.451L21.6769 15.56C19.4709 15.948 17.8069 17.845 17.8069 20.129C17.8069 21.639 18.5419 23.032 19.7419 23.923L18.8509 29.032L15.4839 29.032L15.4839 30.58L18.5809 30.58L16.6449 41.303L18.1549 41.574L20.1289 30.58L24.7739 30.58L26.7479 41.574L28.2579 41.303L26.3219 30.58L29.4189 30.58L29.4189 29.032L26.0519 29.032L25.1609 23.923C26.3609 23.071 27.0969 21.639 27.0969 20.129C27.0969 17.845 25.4329 15.909 23.2259 15.56L23.2259 10.451L21.6769 10.451ZM34.4512 36.58L34.4512 10.451L39.0972 10.451L39.0972 36.58L36.7742 41.225L34.4512 36.58ZM36 16.258L37.549 16.258L37.549 12L36 12L36 16.258ZM25.549 20.129C25.549 18.426 24.155 17.032 22.452 17.032C20.749 17.032 19.355 18.426 19.355 20.129C19.355 21.251 19.974 22.296 20.98 22.838L21.445 23.109L20.4 29.032L24.503 29.032L23.419 23.109L23.923 22.838C24.929 22.296 25.549 21.251 25.549 20.129ZM37.549 17.806L36 17.806L36 36.193L36.774 37.742L37.549 36.193L37.549 17.806Z" id="Fill-1" fill="#FF2626" fill-rule="evenodd" stroke="none" />
  </g>
</svg>