<?xml version="1.0" encoding="utf-8"?>
<svg width="69px" height="51px" viewBox="0 0 69 51" version="1.1" xmlns:xlink="http://www.w3.org/1999/xlink" xmlns="http://www.w3.org/2000/svg">
  <desc>Created with Lunacy</desc>
  <g id="spiral">
    <path d="M0 0L30 0L30 30L0 30L0 0Z" transform="matrix(0.7071068 0.7071068 -0.7071068 0.7071068 47.2132 0)" id="decor" fill="#F2F249" stroke="none" />
    <path d="M0 6.58C0 2.942 2.942 0 6.581 0L7.355 0L7.355 5.806L48 5.806L48 46.064L6.581 46.064C2.942 46.064 0 43.122 0 39.484L0 6.58ZM5.807 1.625L5.807 32.941C4.103 33.135 2.594 33.987 1.548 35.225L1.548 6.58C1.548 4.064 3.406 1.973 5.807 1.625ZM46.451 7.354L7.355 7.354L7.355 34.451L6.581 34.451C3.793 34.451 1.548 36.697 1.548 39.484C1.548 42.27 3.793 44.515 6.581 44.515L46.451 44.515L46.451 7.354ZM21.677 10.451L21.677 15.56C19.471 15.948 17.807 17.845 17.807 20.129C17.807 21.639 18.542 23.032 19.742 23.923L18.851 29.032L15.484 29.032L15.484 30.58L18.581 30.58L16.645 41.303L18.155 41.574L20.129 30.58L24.774 30.58L26.748 41.574L28.258 41.303L26.322 30.58L29.419 30.58L29.419 29.032L26.052 29.032L25.161 23.923C26.361 23.071 27.097 21.639 27.097 20.129C27.097 17.845 25.433 15.909 23.226 15.56L23.226 10.451L21.677 10.451ZM34.451 36.58L34.451 10.451L39.097 10.451L39.097 36.58L36.774 41.225L34.451 36.58ZM36 16.258L37.549 16.258L37.549 12L36 12L36 16.258ZM25.549 20.129C25.549 18.426 24.155 17.032 22.452 17.032C20.749 17.032 19.355 18.426 19.355 20.129C19.355 21.251 19.974 22.296 20.98 22.838L21.445 23.109L20.4 29.032L24.503 29.032L23.419 23.109L23.923 22.838C24.929 22.296 25.549 21.251 25.549 20.129ZM36 17.806L37.549 17.806L37.549 36.193L36.774 37.742L36 36.193L36 17.806Z" transform="translate(0 4)" id="Fill-1" fill="#000000" fill-rule="evenodd" stroke="none" />
  </g>
</svg>