<?xml version="1.0" encoding="utf-8"?>
<svg width="65px" height="51px" viewBox="0 0 65 51" version="1.1" xmlns:xlink="http://www.w3.org/1999/xlink" xmlns="http://www.w3.org/2000/svg">
  <desc>Created with Lunacy</desc>
  <g id="spiral">
    <path d="M24 0L48 36L0 36L24 0Z" transform="translate(17 0)" id="decor" fill="#F2F249" stroke="none" />
    <path d="M32.1315 2.19092C31.3578 0.696407 29.9536 0 27.7123 0L5.20027 0C2.96054 0 1.55634 0.696407 0.781831 2.19092C0.130983 3.44868 0 5.17505 0 7.55227L0 35.0213C0 37.3985 0.130983 39.1249 0.781831 40.3818C1.55634 41.8772 2.96054 42.5736 5.20027 42.5736L11.8698 42.5736L11.8698 45.5471C11.8698 45.6594 11.9007 45.7708 11.9577 45.8668C12.0439 46.0092 12.179 46.1101 12.3401 46.15C12.502 46.1915 12.6696 46.1654 12.8127 46.08L16.4233 43.9021L20.147 46.0613C20.2503 46.1321 20.3723 46.1695 20.4984 46.1695C20.8418 46.1695 21.1216 45.8904 21.1216 45.5471L21.1216 42.5736L27.7123 42.5736C29.9536 42.5736 31.3578 41.8772 32.1315 40.3818C32.7824 39.1249 32.9134 37.3985 32.9134 35.0213L32.9134 7.55227C32.9134 5.17505 32.7824 3.44868 32.1315 2.19092ZM21.7668 37.2618C21.5471 37.3269 21.3323 37.3538 21.1216 37.3741L21.1216 41.328L27.7123 41.328C29.4606 41.328 30.4833 40.8602 31.0275 39.8107C31.5612 38.7791 31.6686 37.213 31.6686 35.0213L31.6686 7.55227C31.6686 5.36054 31.5612 3.79444 31.0275 2.76203C30.4841 1.71336 29.4614 1.24475 27.7123 1.24475L5.20027 1.24475C3.45193 1.24475 2.4301 1.71336 1.88664 2.76203C1.35295 3.79281 1.24556 5.35892 1.24556 7.55227L1.24556 35.0213C1.24556 37.2138 1.35295 38.7799 1.88664 39.8107C2.42929 40.8602 3.45112 41.328 5.20027 41.328L11.8682 41.328L11.8682 38.2918C11.7633 38.2723 11.6575 38.2544 11.5509 38.2438L11.5924 37.8492C11.6843 37.8582 11.7755 37.8753 11.8682 37.8915L11.8682 37.5393C11.6233 37.523 11.4028 37.4953 11.1873 37.4237C10.7089 37.2667 10.2582 36.8591 9.94902 36.3075C9.64149 35.7592 9.53329 35.1637 9.65044 34.6739C9.71146 34.416 9.81234 34.1931 9.90997 33.9783C10.0141 33.7489 10.1223 33.5113 10.1703 33.251C10.1972 33.1078 10.2028 32.8507 10.1866 32.5643C10.1703 32.2706 10.1313 31.9875 10.0849 31.824C10.0222 31.5978 9.92705 31.3944 9.83512 31.1976C9.70658 30.9242 9.59186 30.6777 9.53085 30.3807C9.42997 29.8877 9.55607 29.2946 9.87824 28.7536C10.2012 28.2126 10.6625 27.8205 11.1449 27.6781C11.4012 27.6008 11.6583 27.578 11.9056 27.5553C12.1212 27.5349 12.3384 27.5154 12.5548 27.4568C12.7037 27.4169 12.9372 27.3104 13.1797 27.1721C13.4278 27.0289 13.6483 26.8751 13.7687 26.7596C13.9582 26.5782 14.1022 26.3561 14.2405 26.1405C14.3984 25.8956 14.5611 25.6418 14.7986 25.4294C15.1664 25.1024 15.7269 24.9161 16.3403 24.9161C16.3542 24.9161 16.3688 24.9169 16.3826 24.9169C17.0132 24.925 17.5843 25.1284 17.9487 25.475C18.1399 25.6564 18.2823 25.8541 18.419 26.0453C18.5801 26.269 18.7436 26.4976 18.9681 26.6758C19.1113 26.7897 19.3643 26.9337 19.6426 27.0598C19.92 27.1859 20.1909 27.2803 20.3666 27.3128C20.5318 27.3429 20.7075 27.3576 20.8743 27.3722C21.1696 27.3974 21.4397 27.421 21.7253 27.5154C22.2037 27.674 22.6544 28.0808 22.9611 28.6332C23.2686 29.1807 23.3776 29.7763 23.2605 30.2652C23.2052 30.4946 23.1279 30.698 23.0424 30.9112C22.9432 31.165 22.8407 31.4262 22.7951 31.7239C22.7723 31.8728 22.7626 32.1332 22.7699 32.4033C22.7764 32.6758 22.7967 32.9199 22.826 33.0557C22.8805 33.3144 22.9879 33.5471 23.0921 33.7717C23.2027 34.0141 23.3182 34.2639 23.3801 34.5576C23.4818 35.0506 23.3548 35.6437 23.0319 36.1855C22.7113 36.7257 22.2492 37.1186 21.7668 37.2618ZM16.364 24.0586C16.4869 24.061 16.6105 24.0716 16.7317 24.0903L16.7928 23.6982C16.6528 23.6754 16.5121 23.6648 16.3705 23.6616L16.364 24.0586ZM15.5278 23.7658C15.6645 23.7275 15.8061 23.6999 15.9476 23.6828L15.9484 23.6828L15.9964 24.0766C15.8752 24.0904 15.7548 24.114 15.6369 24.1473L15.5278 23.7658ZM17.0862 24.1742C17.2009 24.2116 17.3083 24.258 17.4133 24.3174L17.6093 23.9716L17.6093 23.9708C17.4808 23.8984 17.3482 23.8423 17.2091 23.7967L17.0862 24.1742ZM15.0229 24.4702L14.7519 24.1797C14.865 24.0756 14.9846 23.9942 15.1213 23.9234L15.3052 24.2757C15.2002 24.3302 15.1091 24.3904 15.0229 24.4702ZM17.9648 24.2449C18.064 24.3449 18.1551 24.4532 18.2398 24.5662L18.2406 24.5662L17.9241 24.8071C17.8501 24.7086 17.7711 24.6134 17.6833 24.5247L17.9648 24.2449ZM14.2363 24.8435L14.5691 25.0591C14.639 24.9517 14.7098 24.8443 14.7863 24.7418L14.4674 24.5051C14.3868 24.6149 14.3112 24.7288 14.2363 24.8435ZM18.7085 25.2015L18.7036 25.195C18.6255 25.0957 18.5515 24.994 18.4767 24.8915L18.1545 25.1234C18.2326 25.2316 18.3115 25.3381 18.3937 25.4423L18.3994 25.4488L18.7093 25.2015L18.7085 25.2015ZM14.1085 25.7272L13.7985 25.4807C13.8766 25.3814 13.9507 25.2773 14.0215 25.1723L14.3509 25.3944C14.2745 25.5083 14.1939 25.6198 14.1085 25.7272ZM18.6735 25.7615C18.7728 25.8616 18.8778 25.9568 18.9892 26.043L19.2325 25.7306C19.1356 25.6549 19.0437 25.572 18.9575 25.4841L18.6735 25.7615ZM19.2337 25.7313L19.2337 25.7305L19.2329 25.7313L19.2337 25.7313ZM13.5308 26.3182L13.2623 26.0254C13.3575 25.9383 13.4486 25.8488 13.5389 25.7569L13.8237 26.0335C13.7285 26.1303 13.6317 26.2263 13.5308 26.3182ZM19.695 26.4792C19.5737 26.4174 19.4542 26.3507 19.3362 26.2799L19.542 25.9407C19.6519 26.0066 19.7633 26.0676 19.8772 26.127L19.695 26.4792ZM17.9821 37.6117C18.1782 37.3652 18.4841 37.0959 18.842 36.8542C19.2033 36.6126 19.5751 36.4247 19.8899 36.3246C20.2649 36.205 20.5977 36.1749 20.8922 36.1481C21.085 36.1302 21.2673 36.1139 21.4121 36.0708C21.5927 36.0171 21.8034 35.817 21.9645 35.5493C22.1247 35.28 22.2004 34.9961 22.1614 34.809C22.1313 34.6633 22.0499 34.4868 21.9645 34.3005L21.9612 34.2932L22.2386 34.1654L21.9588 34.2875C21.8335 34.0141 21.6903 33.7041 21.6073 33.3104C21.565 33.107 21.5357 32.7864 21.526 32.4334C21.517 32.077 21.5308 31.7508 21.5634 31.5368C21.6293 31.1081 21.7619 30.7672 21.8791 30.467C21.9539 30.2758 22.0157 30.1196 22.0507 29.9764C22.0946 29.7925 22.0271 29.5094 21.875 29.2385C21.722 28.9643 21.5146 28.7577 21.3332 28.6975C21.1835 28.6479 20.9841 28.6308 20.7726 28.6129C20.5765 28.5958 20.3748 28.5787 20.1413 28.5356C19.8663 28.4852 19.4969 28.3591 19.1268 28.1906C18.7574 28.0231 18.4182 27.8262 18.1969 27.6504C17.8251 27.3551 17.6038 27.046 17.4085 26.7734C17.2979 26.6188 17.1929 26.4732 17.0913 26.3764C16.9554 26.2471 16.6772 26.1641 16.3656 26.1592L16.342 26.1592C16.0377 26.1592 15.7643 26.2348 15.6252 26.3585C15.5162 26.4561 15.4047 26.6286 15.2868 26.8117C15.1135 27.0785 14.9223 27.3746 14.6286 27.6561C14.4342 27.8424 14.1315 28.0597 13.7963 28.2525C13.4652 28.4428 13.13 28.5901 12.8754 28.6584C12.5662 28.7414 12.2791 28.7683 12.026 28.7919C11.8218 28.8106 11.6396 28.8277 11.4948 28.8708C11.3142 28.9245 11.1026 29.1246 10.9424 29.3923C10.7829 29.6616 10.7073 29.9455 10.7463 30.1326C10.778 30.2872 10.8626 30.4694 10.9538 30.6631C11.0636 30.8982 11.1889 31.1642 11.2808 31.4896C11.3508 31.7394 11.4037 32.1063 11.4256 32.4952C11.4378 32.7205 11.4508 33.1469 11.3906 33.4763C11.3142 33.888 11.1694 34.2077 11.0424 34.4892C10.9627 34.6641 10.8895 34.8277 10.8578 34.9619C10.813 35.1474 10.8805 35.4305 11.0319 35.7022C11.1848 35.9748 11.3923 36.1822 11.5737 36.2424C11.7161 36.2896 11.9219 36.3002 12.1399 36.3108C12.3848 36.323 12.6639 36.3368 12.9649 36.3986C13.2513 36.4589 13.6092 36.5996 13.9753 36.794C14.3374 36.9852 14.6677 37.2122 14.8824 37.4156C15.1477 37.6686 15.3299 37.9249 15.4894 38.1511C15.6057 38.3162 15.7106 38.4643 15.8156 38.5643C15.9523 38.6937 16.2305 38.7767 16.5413 38.7807C16.8529 38.7832 17.1401 38.7092 17.2824 38.5822C17.3931 38.483 17.5045 38.3105 17.6225 38.1266C17.7421 37.9428 17.8495 37.7776 17.9821 37.6117ZM12.6243 26.4151L12.818 26.7608C12.9375 26.6941 13.0531 26.6233 13.1678 26.5509L12.9538 26.2165C12.8456 26.2865 12.7358 26.3516 12.6243 26.4151ZM20.4399 26.8116C20.313 26.7636 20.186 26.7107 20.0624 26.6554L20.2243 26.2933C20.3422 26.3462 20.461 26.3959 20.5814 26.4414L20.4399 26.8116ZM20.9426 26.5632L20.8312 26.9439C20.9679 26.9846 21.1013 27.0139 21.2428 27.0375L21.3055 26.6454L21.3047 26.6454C21.1794 26.625 21.0647 26.599 20.9426 26.5632ZM12.0729 27.1137L11.9378 26.7411C12.0558 26.6988 12.1713 26.6468 12.2844 26.5922L12.4561 26.9502C12.33 27.0112 12.2031 27.0665 12.0729 27.1137ZM21.6863 26.6927L21.6481 27.0881C21.7799 27.1003 21.9117 27.1109 22.0443 27.1231L22.0817 26.7277L22.0809 26.7277C21.9491 26.7155 21.8181 26.7057 21.6863 26.6927ZM22.7653 27.2799C22.64 27.2385 22.5139 27.1978 22.3886 27.1547L22.5155 26.7796C22.6416 26.8219 22.7669 26.8626 22.8922 26.9041L22.7653 27.2799ZM11.5819 26.8401L11.5819 26.8392L11.5827 26.8401L11.5819 26.8401ZM11.2549 27.2942L11.2078 26.9004C11.333 26.885 11.4583 26.8663 11.582 26.8402L11.6633 27.2283C11.5283 27.2568 11.3932 27.2779 11.2549 27.2942ZM10.414 26.9854L10.471 27.3784C10.5987 27.3597 10.7273 27.3475 10.855 27.3353L10.8184 26.9399C10.6841 26.9529 10.5475 26.9659 10.414 26.9854ZM9.809 27.6042L9.59097 27.2723C9.71626 27.1901 9.84968 27.1226 9.99368 27.077L10.1165 27.4537C10.0067 27.4895 9.905 27.5408 9.809 27.6042ZM23.6201 27.4086C23.5224 27.3028 23.4151 27.2052 23.2987 27.1189L23.0628 27.437C23.1596 27.5095 23.2483 27.5916 23.3296 27.6795L23.6201 27.4086ZM8.96965 27.865L9.28694 28.1033C9.36098 28.0057 9.44071 27.9146 9.52938 27.8284L9.25196 27.5452C9.14945 27.6445 9.05671 27.7503 8.96965 27.865ZM23.7456 28.2849L24.1003 28.1059C24.0377 27.9806 23.9653 27.8569 23.8855 27.7414L23.5585 27.9668C23.6276 28.0684 23.6911 28.1742 23.7456 28.2849ZM9.0838 28.4133C9.02359 28.5207 8.97153 28.6313 8.92678 28.7469L8.55661 28.6029C8.60786 28.4719 8.66969 28.3433 8.73803 28.2205L9.0838 28.4133ZM24.3658 28.915L23.9745 28.9761C23.9574 28.8597 23.9248 28.7369 23.8882 28.6246L24.2633 28.4977C24.308 28.6303 24.3471 28.7775 24.3666 28.9159L24.3658 28.915ZM8.43222 29.0131L8.8211 29.0961C8.79669 29.2124 8.78205 29.3295 8.78205 29.4475L8.38503 29.4491C8.38503 29.3019 8.4013 29.1571 8.43222 29.0131ZM14.1111 30.1731C14.7245 29.5605 15.5397 29.2221 16.4062 29.2221C17.2734 29.2221 18.0886 29.5605 18.7028 30.1739C19.3163 30.7882 19.6539 31.6034 19.6539 32.4698C19.6539 33.3371 19.3163 34.1531 18.702 34.7657C18.0886 35.3799 17.2726 35.7175 16.4062 35.7175C15.5381 35.7175 14.7229 35.3791 14.1103 34.7657C13.4969 34.1531 13.1592 33.3371 13.1592 32.4698C13.1592 31.6017 13.4969 30.7857 14.1111 30.1731ZM24.2971 29.7872L23.918 29.6716C23.9538 29.5569 23.9823 29.4487 23.9912 29.3275L24.3866 29.3552C24.3752 29.5081 24.3419 29.6432 24.2979 29.7872L24.2971 29.7872ZM8.83086 29.7882C8.8634 29.907 8.90571 30.0233 8.95534 30.1364L8.59005 30.291C8.53473 30.1625 8.4851 30.029 8.44849 29.894L8.83086 29.7882ZM8.44767 29.8937L8.44767 29.8929L8.44849 29.8937L8.44767 29.8937ZM23.791 30.0322L24.1604 30.1746C24.1124 30.2974 24.0635 30.4211 24.0172 30.5439L24.0172 30.5431L23.6462 30.4024C23.6942 30.2787 23.743 30.1559 23.791 30.0322ZM14.9897 31.0534C14.6123 31.4317 14.404 31.9345 14.404 32.4698C14.404 33.0051 14.6123 33.5079 14.9906 33.8862C15.7464 34.6412 17.0668 34.6404 17.8218 33.8862C18.2001 33.5087 18.4083 33.0059 18.4083 32.4698C18.4083 31.9337 18.2001 31.4309 17.8226 31.0534L17.8218 31.0534C17.4443 30.6759 16.9415 30.4676 16.4062 30.4676C15.8716 30.4676 15.3689 30.6759 14.9897 31.0534ZM8.75707 30.6587L9.11585 30.4903C9.1728 30.6124 9.23056 30.7352 9.28263 30.8589L8.91734 31.0135C8.86609 30.8939 8.81239 30.7767 8.75788 30.6587L8.75707 30.6587ZM23.8902 30.9063L23.5111 30.7883C23.4704 30.9209 23.4338 31.0552 23.4069 31.1902L23.795 31.2716L23.795 31.2724C23.821 31.1496 23.8527 31.0267 23.8902 30.9063ZM9.05231 31.3691C9.09218 31.4895 9.12228 31.6042 9.14587 31.7287L9.53638 31.6538C9.50872 31.5122 9.47455 31.3837 9.4298 31.2462L9.05231 31.3691ZM23.7405 31.6401C23.7307 31.7679 23.7258 31.8964 23.7234 32.0241L23.7234 32.0249L23.3264 32.0176C23.3296 31.881 23.3337 31.7435 23.3451 31.6084L23.7405 31.6401ZM9.63441 32.4661L9.23821 32.4913C9.22926 32.3627 9.21869 32.2342 9.20323 32.1065L9.5978 32.0609C9.61326 32.1951 9.62628 32.3302 9.63441 32.4661ZM23.3279 32.4228L23.7249 32.413C23.7274 32.5416 23.7347 32.6717 23.7428 32.8003L23.3466 32.8279C23.3369 32.6921 23.3328 32.5578 23.3279 32.4228ZM9.64157 33.284L9.24537 33.2588C9.25351 33.1319 9.25513 33.0042 9.25351 32.8772L9.64971 32.8724C9.65134 33.0098 9.64971 33.1481 9.64157 33.284ZM23.7826 33.1796C23.8013 33.3032 23.8282 33.4212 23.8632 33.5408L23.4816 33.6514C23.4417 33.5139 23.4116 33.3789 23.3897 33.2373L23.7826 33.1796ZM9.58536 33.7057L9.19648 33.6227L9.19648 33.6235C9.17207 33.7431 9.13627 33.866 9.09641 33.9823L9.47227 34.1108C9.51783 33.9799 9.5577 33.8415 9.58536 33.7057ZM23.7361 34.3154C23.7515 34.3488 23.7662 34.3822 23.7825 34.4163L24.1429 34.2512L24.1412 34.2512C24.0981 34.1576 24.0574 34.0632 24.0176 33.9689C24.007 33.9445 23.9972 33.9201 23.9883 33.8965L23.6189 34.0429C23.6564 34.1348 23.6954 34.2251 23.7361 34.3154ZM9.15767 34.8599L8.79645 34.698L8.7997 34.6907C8.85177 34.5735 8.90628 34.4564 8.95672 34.3376L9.32119 34.4954C9.30574 34.5296 9.29028 34.5646 9.27563 34.5987C9.23658 34.6858 9.19753 34.7736 9.15767 34.8599ZM24.4519 35.0122L24.4527 35.0122C24.4137 34.8771 24.3633 34.7461 24.3071 34.6176L23.9426 34.7746C23.9923 34.8885 24.0362 35.004 24.0712 35.1236L24.4519 35.0122ZM8.6391 35.0782L9.01253 35.2117C8.97429 35.3215 8.93931 35.4354 8.92548 35.5517L8.53009 35.5062C8.5488 35.3589 8.58948 35.2182 8.6391 35.0791L8.6391 35.0782ZM24.0952 35.8147L24.4849 35.8903C24.5142 35.7455 24.528 35.5999 24.5247 35.4526L24.1285 35.4632C24.1302 35.5812 24.1188 35.6983 24.0952 35.8147ZM8.92678 35.9004L8.53302 35.95C8.5501 36.0932 8.58102 36.2324 8.62332 36.3707L9.00325 36.2543C8.96827 36.138 8.94142 36.0208 8.92678 35.9004ZM24.1908 36.6875L23.841 36.4987C23.8995 36.3913 23.9524 36.2791 23.9947 36.1635L24.3665 36.3018C24.3169 36.4344 24.2575 36.563 24.1908 36.6875ZM8.77855 36.7681L9.1357 36.5964C9.18858 36.7095 9.24879 36.8161 9.31631 36.9202L8.98357 37.1374C8.90628 37.0178 8.83875 36.8966 8.77774 36.7681L8.77855 36.7681ZM23.6847 37.3677L23.404 37.0878C23.4894 37.0024 23.57 36.9072 23.6424 36.8104L23.9629 37.0447C23.8783 37.1594 23.7855 37.2684 23.6847 37.3685L23.6847 37.3677ZM9.24057 37.4771C9.33494 37.5845 9.43745 37.6846 9.55054 37.7749L9.79786 37.4657C9.70186 37.3892 9.61806 37.3054 9.53671 37.2143L9.24057 37.4771ZM22.9543 37.8494L22.8216 37.476C22.9315 37.4377 23.0324 37.3832 23.1284 37.3181L23.3513 37.646C23.2284 37.7298 23.0958 37.8006 22.9543 37.8494ZM9.23976 37.4775L9.24057 37.4775L9.23976 37.4767L9.23976 37.4775ZM22.1265 37.9969L22.0891 37.6015C22.2168 37.5893 22.3446 37.5771 22.4715 37.5567L22.5333 37.9489C22.3983 37.97 22.2624 37.9831 22.1265 37.9961L22.1265 37.9969ZM21.3592 38.0925L21.2819 37.7028C21.4178 37.6759 21.5528 37.6564 21.6895 37.6401L21.7359 38.0347C21.6098 38.0494 21.4845 38.0681 21.36 38.0925L21.3592 38.0925ZM10.4228 37.7544C10.3072 37.7332 10.1982 37.7031 10.0916 37.6527L9.92485 38.0114C10.0615 38.0757 10.2023 38.1156 10.3495 38.1441L10.4228 37.7544ZM13.1138 37.7548C13.2033 37.7947 13.2984 37.8411 13.3936 37.8915C13.6613 38.0339 13.898 38.1925 14.0282 38.3162C14.2007 38.4797 14.3365 38.6717 14.4748 38.867C14.6172 39.0679 14.7637 39.277 14.9622 39.4641C15.3266 39.8107 15.8978 40.0141 16.5283 40.0231C17.1449 40.0141 17.7364 39.8449 18.1123 39.5105C18.3474 39.2998 18.5117 39.0452 18.6785 38.7873C18.7639 38.6546 18.8526 38.5155 18.9567 38.3854C19.0755 38.2365 19.2871 38.0542 19.5368 37.8858C19.6483 37.8102 19.763 37.741 19.8761 37.6808L19.8761 44.4667L16.7276 42.6403C16.6316 42.5849 16.525 42.5573 16.4184 42.5573C16.307 42.5573 16.1947 42.5874 16.0955 42.6468L13.1138 44.4447L13.1138 37.7548ZM11.1656 38.2156L11.1868 37.8194C11.0558 37.812 10.9248 37.808 10.7938 37.7982L10.767 38.1936C10.8971 38.2017 11.0273 38.2074 11.1575 38.2148L11.1656 38.2156ZM9.9238 38.0119L9.9238 38.0127L9.92461 38.0119L9.9238 38.0119ZM10.7668 38.1942L10.7668 38.1934L10.766 38.1934L10.7668 38.1942ZM13.5761 38.3125L13.3255 38.6201C13.4232 38.6998 13.5159 38.7868 13.6046 38.8739L13.8844 38.5924C13.786 38.4948 13.6827 38.3996 13.5761 38.3125ZM19.6659 38.906L19.4153 38.5985C19.3096 38.6856 19.2071 38.7807 19.1078 38.8784L19.3869 39.1599C19.4764 39.072 19.5691 38.9858 19.6659 38.906ZM14.083 38.9339L13.7494 39.1495C13.8242 39.2634 13.8975 39.3764 13.978 39.4871L14.2994 39.2544C14.2237 39.1503 14.1529 39.0421 14.083 38.9339ZM18.7961 39.2017L19.1296 39.4165C19.0556 39.5312 18.9807 39.6443 18.901 39.7549L18.5797 39.5214C18.6561 39.4173 18.7261 39.3091 18.7961 39.2017ZM14.5374 39.515L14.2226 39.7558C14.3023 39.8591 14.3771 39.9649 14.452 40.0715L14.7758 39.842C14.6977 39.7314 14.6204 39.6224 14.5374 39.515ZM18.6902 40.0699L18.3575 39.8543C18.2875 39.9625 18.2167 40.0707 18.1411 40.174L18.4624 40.4084C18.5413 40.2977 18.6162 40.1838 18.6902 40.0699ZM14.6898 40.3986L15.0038 40.157C15.0412 40.2058 15.0795 40.253 15.1193 40.2993C15.1592 40.3449 15.2015 40.3929 15.2463 40.4344L14.9688 40.7191C14.8728 40.6248 14.785 40.5223 14.7028 40.4157L14.6898 40.3986ZM17.8203 40.999C17.9539 40.9284 18.0746 40.84 18.1831 40.7347L17.9065 40.4499C17.8252 40.5288 17.7332 40.5964 17.6324 40.6501L17.8203 40.999ZM15.733 41.1532C15.5931 41.11 15.4605 41.0555 15.3319 40.9856L15.5199 40.6366C15.6256 40.6935 15.7346 40.7383 15.8502 40.774L15.733 41.1532ZM17.4154 41.1643C17.2803 41.205 17.1371 41.2343 16.9972 41.2522L16.9956 41.2514L16.9435 40.8592C17.0639 40.843 17.1835 40.8194 17.2999 40.7844L17.4154 41.1643ZM16.2076 40.8539C16.3288 40.8718 16.4524 40.8807 16.5753 40.8815L16.5737 41.2785C16.4313 41.2769 16.2914 41.2663 16.1506 41.2468L16.1514 41.2468L16.2076 40.8539Z" transform="translate(0.813722 4.81356)" id="Combined-Shape" fill="#000000" fill-rule="evenodd" stroke="none" />
  </g>
</svg>