<?xml version="1.0" encoding="utf-8"?>
<svg width="46px" height="48px" viewBox="0 0 46 48" version="1.1" xmlns:xlink="http://www.w3.org/1999/xlink" xmlns="http://www.w3.org/2000/svg">
  <desc>Created with Lunacy</desc>
  <g id="spiral">
    <path d="M18.3739 28.6796L15.4804 28.6796L13.6118 14.9979C13.7516 14.8808 13.8863 14.7579 14.0143 14.6291C15.1343 13.5107 15.7507 12.0227 15.7507 10.4396C15.7507 8.85726 15.1343 7.36926 14.0143 6.25011C13.2177 5.45347 12.2324 4.90947 11.1478 4.66274L11.1478 0.752C11.1478 0.337684 10.8109 0 10.3958 0L9.10484 0C8.68968 0 8.35284 0.337684 8.35284 0.752L8.35284 4.69979C7.32632 4.96253 6.39326 5.49474 5.63537 6.25095C4.51621 7.37095 3.90063 8.85895 3.90063 10.4404C3.90063 12.0227 4.51621 13.5107 5.63705 14.6316C5.72547 14.7192 5.81642 14.8042 5.90905 14.8867L4.02526 28.6804L0.751158 28.6804C0.336842 28.6804 0 29.0181 0 29.4324C0 29.8476 0.336842 30.1853 0.751158 30.1853L3.81895 30.1853L2.27958 41.4568L2.27284 41.584L2.88421 47.2455C2.92211 47.5983 3.20589 47.8787 3.54358 47.9124L4.13642 47.9924C4.17095 47.9975 4.20632 48 4.24084 48C4.40337 48 4.56084 47.9469 4.69221 47.8467C4.85305 47.7246 4.95579 47.5478 4.98189 47.3499L7.32632 30.1853L8.98526 30.1853L8.98526 33.5975C8.98526 34.0118 9.32211 34.3495 9.73726 34.3495C10.1524 34.3495 10.4901 34.0118 10.4901 33.5975L10.4901 30.1844L12.1777 30.1844L14.5213 47.3465C14.5752 47.7575 14.9491 48.0413 15.3676 47.9924L15.9436 47.9133C16.2989 47.8796 16.5836 47.5983 16.6198 47.2446L17.2261 41.6396L17.232 41.5057L15.6859 30.1844L18.3739 30.1844C18.7891 30.1844 19.1267 29.8467 19.1267 29.4316C19.1267 29.0173 18.7891 28.6796 18.3739 28.6796ZM41.497 13.631C38.7752 10.5742 35.0898 8.58005 31.0855 7.98973L31.0855 3.65879C31.0855 3.24363 30.7507 2.90594 30.3399 2.90594L22.6903 2.90594C22.2787 2.90594 21.9438 3.24363 21.9438 3.65879L21.9438 47.1443C21.9438 47.5594 22.2787 47.8963 22.6903 47.8963L30.3399 47.8963C30.7507 47.8963 31.0855 47.5594 31.0855 47.1443L31.0855 42.7022C35.104 42.1093 38.8002 40.1043 41.5246 37.028C44.375 33.8104 45.9438 29.6613 45.9438 25.3455C45.9438 21.0129 44.365 16.8521 41.497 13.631ZM26.1334 43.9173C26.4795 43.9173 26.7607 44.1994 26.7607 44.5455C26.7607 44.8924 26.4795 45.1737 26.1334 45.1737L23.4487 45.1737L23.4487 46.3922L29.6593 46.3922L29.6593 4.41077L23.4487 4.41077L23.4487 5.45077L26.1334 5.45077C26.4795 5.45077 26.7607 5.73287 26.7607 6.07898C26.7607 6.42592 26.4795 6.70719 26.1334 6.70719L23.4487 6.70719L23.4487 11.8617L26.1334 11.8617C26.4795 11.8617 26.7607 12.1438 26.7607 12.4908C26.7607 12.8369 26.4795 13.1181 26.1334 13.1181L23.4487 13.1181L23.4487 18.2735L26.1334 18.2735C26.4795 18.2735 26.7607 18.5548 26.7607 18.9009C26.7607 19.2478 26.4795 19.5291 26.1334 19.5291L23.4487 19.5291L23.4487 24.6845L26.1334 24.6845C26.4795 24.6845 26.7607 24.9657 26.7607 25.3127C26.7607 25.6588 26.4795 25.9409 26.1334 25.9409L23.4487 25.9409L23.4487 31.0954L26.1334 31.0954C26.4795 31.0954 26.7607 31.3767 26.7607 31.7236C26.7607 32.0706 26.4795 32.3518 26.1334 32.3518L23.4487 32.3518L23.4487 37.5063L26.1334 37.5063C26.4795 37.5063 26.7607 37.7884 26.7607 38.1346C26.7607 38.4807 26.4795 38.7628 26.1334 38.7628L23.4487 38.7628L23.4487 43.9173L26.1334 43.9173ZM12.4303 14.016L12.3352 14.0808C11.5966 14.5912 10.7293 14.8615 9.82568 14.8615C8.64421 14.8615 7.53432 14.4017 6.70063 13.5663C5.86526 12.7326 5.40547 11.6227 5.40547 10.4413C5.40547 9.26147 5.86526 8.15158 6.70063 7.31621C7.53432 6.48084 8.64337 6.02105 9.82568 6.02105C11.0063 6.02105 12.1162 6.48168 12.9507 7.31705C13.7861 8.15074 14.2459 9.26063 14.2459 10.4413C14.2459 11.6219 13.7861 12.7318 12.9507 13.5672C12.7764 13.7415 12.5886 13.9006 12.4303 14.016ZM9.82605 6.88184C10.7759 6.88184 11.6703 7.25236 12.3431 7.92436C13.0159 8.5972 13.3856 9.49068 13.3856 10.4414C13.3856 11.3922 13.0159 12.2865 12.3431 12.9585C11.6703 13.6313 10.7759 14.0018 9.82605 14.0018C8.87531 14.0018 7.98099 13.6313 7.30815 12.9585C6.63531 12.2865 6.26563 11.3922 6.26563 10.4414C6.26563 9.49068 6.63531 8.5972 7.30815 7.92436C7.98099 7.25236 8.87531 6.88184 9.82605 6.88184ZM11.2778 11.8932C11.666 11.505 11.8799 10.9888 11.8799 10.4406C11.8799 9.89236 11.666 9.37615 11.2778 8.98794C10.8896 8.59973 10.3743 8.38668 9.82605 8.38668C9.27615 8.38668 8.76078 8.59973 8.37257 8.98794C7.9852 9.37531 7.77131 9.89152 7.77131 10.4406C7.77131 10.9896 7.9852 11.5058 8.37257 11.8932C9.14731 12.6679 10.4997 12.6688 11.2778 11.8932ZM37.2045 38.8891L35.8116 36.4756C35.7274 36.3308 35.5927 36.2263 35.431 36.1834C35.2685 36.1388 35.0975 36.1615 34.9535 36.2465C34.8079 36.3308 34.7043 36.4663 34.6613 36.6297C34.6175 36.7914 34.6403 36.9606 34.7245 37.1038L36.1199 39.5206C34.5662 40.3459 32.903 40.9025 31.1641 41.1804L31.1641 35.4693C33.2996 34.9312 35.2373 33.7093 36.6504 32.0049C38.1982 30.1388 39.0504 27.7733 39.0504 25.3447C39.0504 22.9152 38.1965 20.5489 36.6453 18.6811C35.2314 16.9783 33.2946 15.759 31.1641 15.2209L31.1641 9.5097C32.871 9.7817 34.5072 10.3257 36.0415 11.1291L34.6462 13.5451C34.4744 13.844 34.5771 14.228 34.8761 14.4015C35.0226 14.4857 35.1902 14.5084 35.3535 14.4638C35.5152 14.4209 35.6508 14.3173 35.7333 14.1724L37.1304 11.7539C38.3961 12.5489 39.5447 13.5164 40.5476 14.6339C41.1388 15.2924 41.6777 16.0023 42.1527 16.7493L39.7384 18.143C39.4394 18.3164 39.3367 18.7013 39.511 19.0019C39.6862 19.3017 40.0685 19.4028 40.3674 19.2301L42.7843 17.8356C43.8992 19.9383 44.5333 22.2853 44.6327 24.6726L41.8487 24.6726C41.5026 24.6726 41.2205 24.9539 41.2205 25.3009C41.2205 25.6478 41.5026 25.9291 41.8487 25.9291L44.6361 25.9291C44.5493 28.3198 43.9287 30.6701 42.8255 32.7771L40.4121 31.3834C40.2647 31.2983 40.0954 31.2756 39.9354 31.3202C39.7729 31.364 39.6373 31.4676 39.5548 31.6099C39.4706 31.7548 39.447 31.9232 39.49 32.0857C39.5329 32.2482 39.6356 32.3847 39.783 32.4705L42.2007 33.8659C41.7215 34.6289 41.175 35.3548 40.5737 36.0276C39.5868 37.1333 38.455 38.0941 37.2045 38.8891ZM7.30105 15.8021L5.54189 28.6804L6.01432 28.6804L7.74905 15.9916C7.59663 15.9343 7.44758 15.8712 7.30105 15.8021ZM13.9621 28.6804L12.2122 15.8653C12.0648 15.9301 11.9141 15.9891 11.7625 16.0421L13.488 28.6804L13.9621 28.6804ZM10.4901 27.4602L10.4901 28.6804L11.9714 28.6804L10.2863 16.3478C9.93516 16.3756 9.57389 16.3714 9.21768 16.3352L7.53179 28.6804L8.98526 28.6804L8.98526 27.4602C8.98526 27.0451 9.32211 26.7082 9.73726 26.7082C10.1524 26.7082 10.4901 27.0451 10.4901 27.4602ZM35.4908 31.0458C36.8154 29.4483 37.5455 27.423 37.5455 25.3447C37.5455 23.2647 36.8146 21.2386 35.4891 19.6411C34.3624 18.2828 32.8424 17.2799 31.1641 16.7788L31.1641 33.9106C32.8432 33.4087 34.3641 32.4049 35.4908 31.0458ZM5.81053 30.1853L3.99158 43.5006L3.78274 41.563L5.33642 30.1853L5.81053 30.1853ZM15.7229 41.563L14.1693 30.1853L13.6952 30.1853L15.5141 43.5006L15.7229 41.563Z" id="Combined-Shape" fill="#FF2626" fill-rule="evenodd" stroke="none" />
  </g>
</svg>