<?xml version="1.0" encoding="utf-8"?>
<svg width="64px" height="52px" viewBox="0 0 64 52" version="1.1" xmlns:xlink="http://www.w3.org/1999/xlink" xmlns="http://www.w3.org/2000/svg">
  <desc>Created with Lunacy</desc>
  <g id="spiral">
    <path d="M0 0L40 0L40 40L0 40L0 0Z" id="decor" fill="#F2F249" stroke="none" />
    <path d="M18.3739 28.6796L15.4804 28.6796L13.6118 14.9979C13.7516 14.8808 13.8863 14.7579 14.0143 14.6291C15.1343 13.5107 15.7507 12.0227 15.7507 10.4396C15.7507 8.85726 15.1343 7.36926 14.0143 6.25011C13.2177 5.45347 12.2324 4.90947 11.1478 4.66274L11.1478 0.752C11.1478 0.337684 10.8109 0 10.3958 0L9.10484 0C8.68968 0 8.35284 0.337684 8.35284 0.752L8.35284 4.69979C7.32632 4.96253 6.39326 5.49474 5.63537 6.25095C4.51621 7.37095 3.90063 8.85895 3.90063 10.4404C3.90063 12.0227 4.51621 13.5107 5.63705 14.6316C5.72547 14.7192 5.81642 14.8042 5.90905 14.8867L4.02526 28.6804L0.751158 28.6804C0.336842 28.6804 0 29.0181 0 29.4324C0 29.8476 0.336842 30.1853 0.751158 30.1853L3.81895 30.1853L2.27958 41.4568L2.27284 41.584L2.88421 47.2455C2.92211 47.5983 3.20589 47.8787 3.54358 47.9124L4.13642 47.9924C4.17095 47.9975 4.20632 48 4.24084 48C4.40337 48 4.56084 47.9469 4.69221 47.8467C4.85305 47.7246 4.95579 47.5478 4.98189 47.3499L7.32632 30.1853L8.98526 30.1853L8.98526 33.5975C8.98526 34.0118 9.32211 34.3495 9.73726 34.3495C10.1524 34.3495 10.4901 34.0118 10.4901 33.5975L10.4901 30.1844L12.1777 30.1844L14.5213 47.3465C14.5752 47.7575 14.9491 48.0413 15.3676 47.9924L15.9436 47.9133C16.2989 47.8796 16.5836 47.5983 16.6198 47.2446L17.2261 41.6396L17.232 41.5057L15.6859 30.1844L18.3739 30.1844C18.7891 30.1844 19.1267 29.8467 19.1267 29.4316C19.1267 29.0173 18.7891 28.6796 18.3739 28.6796ZM41.6649 13.631C38.9197 10.5741 35.2026 8.58004 31.1639 7.98973L31.1639 3.65878C31.1639 3.24362 30.8262 2.90594 30.4119 2.90594L22.6965 2.90594C22.2813 2.90594 21.9437 3.24362 21.9437 3.65878L21.9437 47.1443C21.9437 47.5594 22.2813 47.8963 22.6965 47.8963L30.4119 47.8963C30.8262 47.8963 31.1639 47.5594 31.1639 47.1443L31.1639 42.7021C35.2169 42.1093 38.9449 40.1043 41.6927 37.028C44.5677 33.8104 46.15 29.6613 46.15 25.3455C46.15 21.0129 44.5576 16.852 41.6649 13.631ZM26.1331 43.9173C26.4792 43.9173 26.7605 44.1994 26.7605 44.5455C26.7605 44.8925 26.4792 45.1737 26.1331 45.1737L23.4485 45.1737L23.4485 46.3923L29.659 46.3923L29.659 4.41078L23.4485 4.41078L23.4485 5.45078L26.1331 5.45078C26.4792 5.45078 26.7605 5.73288 26.7605 6.07899C26.7605 6.42594 26.4792 6.7072 26.1331 6.7072L23.4485 6.7072L23.4485 11.8617L26.1331 11.8617C26.4792 11.8617 26.7605 12.1438 26.7605 12.4908C26.7605 12.8369 26.4792 13.1181 26.1331 13.1181L23.4485 13.1181L23.4485 18.2735L26.1331 18.2735C26.4792 18.2735 26.7605 18.5548 26.7605 18.9009C26.7605 19.2478 26.4792 19.5291 26.1331 19.5291L23.4485 19.5291L23.4485 24.6845L26.1331 24.6845C26.4792 24.6845 26.7605 24.9657 26.7605 25.3127C26.7605 25.6588 26.4792 25.9409 26.1331 25.9409L23.4485 25.9409L23.4485 31.0954L26.1331 31.0954C26.4792 31.0954 26.7605 31.3767 26.7605 31.7236C26.7605 32.0706 26.4792 32.3518 26.1331 32.3518L23.4485 32.3518L23.4485 37.5064L26.1331 37.5064C26.4792 37.5064 26.7605 37.7885 26.7605 38.1346C26.7605 38.4807 26.4792 38.7628 26.1331 38.7628L23.4485 38.7628L23.4485 43.9173L26.1331 43.9173ZM12.4303 14.016L12.3352 14.0808C11.5966 14.5912 10.7293 14.8615 9.82568 14.8615C8.64421 14.8615 7.53432 14.4017 6.70063 13.5663C5.86526 12.7326 5.40547 11.6227 5.40547 10.4413C5.40547 9.26147 5.86526 8.15158 6.70063 7.31621C7.53432 6.48084 8.64337 6.02105 9.82568 6.02105C11.0063 6.02105 12.1162 6.48168 12.9507 7.31705C13.7861 8.15074 14.2459 9.26063 14.2459 10.4413C14.2459 11.6219 13.7861 12.7318 12.9507 13.5672C12.7764 13.7415 12.5886 13.9006 12.4303 14.016ZM9.82585 6.88185C10.7757 6.88185 11.6701 7.25238 12.3429 7.92438C13.0157 8.59722 13.3854 9.49069 13.3854 10.4414C13.3854 11.3922 13.0157 12.2865 12.3429 12.9585C11.6701 13.6313 10.7757 14.0019 9.82585 14.0019C8.87512 14.0019 7.9808 13.6313 7.30796 12.9585C6.63512 12.2865 6.26543 11.3922 6.26543 10.4414C6.26543 9.49069 6.63512 8.59722 7.30796 7.92438C7.9808 7.25238 8.87512 6.88185 9.82585 6.88185ZM11.2776 11.8932C11.6659 11.505 11.8797 10.9888 11.8797 10.4406C11.8797 9.89238 11.6659 9.37617 11.2776 8.98796C10.8894 8.59975 10.3741 8.38669 9.82585 8.38669C9.27596 8.38669 8.76059 8.59975 8.37238 8.98796C7.98501 9.37533 7.77112 9.89154 7.77112 10.4406C7.77112 10.9896 7.98501 11.5059 8.37238 11.8932C9.14712 12.668 10.4995 12.6688 11.2776 11.8932ZM37.2043 38.8891L35.8115 36.4756C35.7272 36.3308 35.5925 36.2264 35.4308 36.1834C35.2683 36.1388 35.0973 36.1615 34.9533 36.2466C34.8077 36.3308 34.7041 36.4664 34.6611 36.6297C34.6173 36.7914 34.6401 36.9607 34.7243 37.1038L36.1197 39.5207C34.566 40.3459 32.9028 40.9026 31.1639 41.1805L31.1639 35.4693C33.2995 34.9312 35.2371 33.7093 36.6502 32.0049C38.198 30.1388 39.0502 27.7733 39.0502 25.3447C39.0502 22.9152 38.1963 20.5489 36.6451 18.6811C35.2312 16.9784 33.2944 15.759 31.1639 15.2209L31.1639 9.50973C32.8708 9.78173 34.507 10.3257 36.0413 11.1291L34.646 13.5451C34.4742 13.844 34.5769 14.228 34.8759 14.4015C35.0224 14.4857 35.19 14.5085 35.3533 14.4638C35.515 14.4209 35.6506 14.3173 35.7331 14.1725L37.1302 11.7539C38.3959 12.5489 39.5445 13.5165 40.5475 14.6339C41.1386 15.2925 41.6776 16.0024 42.1525 16.7493L39.7382 18.143C39.4392 18.3165 39.3365 18.7013 39.5108 19.0019C39.686 19.3017 40.0683 19.4028 40.3672 19.2301L42.7841 17.8356C43.899 19.9384 44.5331 22.2853 44.6325 24.6727L41.8485 24.6727C41.5024 24.6727 41.2203 24.9539 41.2203 25.3009C41.2203 25.6478 41.5024 25.9291 41.8485 25.9291L44.6359 25.9291C44.5491 28.3198 43.9285 30.6701 42.8253 32.7771L40.4119 31.3834C40.2645 31.2984 40.0952 31.2756 39.9352 31.3203C39.7727 31.364 39.6371 31.4676 39.5546 31.6099C39.4704 31.7548 39.4468 31.9232 39.4898 32.0857C39.5327 32.2482 39.6355 32.3847 39.7828 32.4706L42.2005 33.8659C41.7213 34.6289 41.1748 35.3548 40.5736 36.0276C39.5866 37.1333 38.4548 38.0941 37.2043 38.8891ZM7.30105 15.8021L5.54189 28.6804L6.01432 28.6804L7.74905 15.9916C7.59663 15.9343 7.44758 15.8712 7.30105 15.8021ZM13.9621 28.6804L12.2122 15.8653C12.0648 15.9301 11.9141 15.9891 11.7625 16.0421L13.488 28.6804L13.9621 28.6804ZM10.4901 27.4602L10.4901 28.6804L11.9714 28.6804L10.2863 16.3478C9.93516 16.3756 9.57389 16.3714 9.21768 16.3352L7.53179 28.6804L8.98526 28.6804L8.98526 27.4602C8.98526 27.0451 9.32211 26.7082 9.73726 26.7082C10.1524 26.7082 10.4901 27.0451 10.4901 27.4602ZM35.4906 31.0457C36.8152 29.4483 37.5453 27.423 37.5453 25.3447C37.5453 23.2647 36.8144 21.2386 35.4889 19.6411C34.3622 18.2828 32.8422 17.2798 31.1639 16.7788L31.1639 33.9106C32.843 33.4087 34.3639 32.4049 35.4906 31.0457ZM5.81053 30.1853L3.99158 43.5006L3.78274 41.563L5.33642 30.1853L5.81053 30.1853ZM14.1693 30.1853L15.7229 41.563L15.5141 43.5006L13.6952 30.1853L14.1693 30.1853Z" transform="translate(17.00017 3.999916)" id="Combined-Shape" fill="#000000" fill-rule="evenodd" stroke="none" />
  </g>
</svg>