<?xml version="1.0" encoding="utf-8"?>
<svg width="68px" height="40px" viewBox="0 0 68 40" version="1.1" xmlns:xlink="http://www.w3.org/1999/xlink" xmlns="http://www.w3.org/2000/svg">
  <desc>Created with Lunacy</desc>
  <g id="spiral">
    <path d="M20 40C31.0457 40 40 31.0457 40 20C40 8.9543 31.0457 0 20 0C8.9543 0 0 8.9543 0 20C0 31.0457 8.9543 40 20 40Z" transform="translate(14 0)" id="decor" fill="#F2F249" stroke="none" />
    <path d="M66.4533 15.3033L67.4061 17.9229C67.5725 18.2136 67.5858 18.5682 67.4411 18.8709C67.1974 19.3787 66.5884 19.5909 66.0818 19.3485L64.3643 18.7298C64.0749 18.6261 63.8469 18.3957 63.7468 18.1038L62.2404 13.739C62.0523 13.271 61.5481 13.0105 61.0572 13.1299C60.5109 13.2614 60.1744 13.8114 60.3058 14.3577L60.968 16.6203C61.0765 16.9954 60.9607 17.3995 60.6701 17.66L57.3967 20.5703C57.2014 20.7464 57.0807 20.9912 57.0627 21.2542L56.7491 25.7348C56.7129 26.2667 57.094 26.7358 57.6211 26.8118L57.8683 26.8118C58.194 26.8577 58.522 26.7443 58.7488 26.5055L59.0985 26.1859C59.1239 26.1605 59.1492 26.1352 59.1757 26.1123C59.6051 25.7481 60.2467 25.8011 60.6122 26.2293L62.6782 28.6885C62.7904 28.8296 62.8627 28.9973 62.8893 29.1758L63.5285 35.3727C63.5623 35.7116 63.426 36.0445 63.1643 36.2616L62.3284 36.9876C61.9316 37.3193 61.3491 37.3 60.9752 36.9442L60.9318 36.9008C60.5543 36.5305 60.5229 35.9335 60.8582 35.5258L61.091 35.2352C61.3491 34.9312 61.4058 34.5055 61.2369 34.1437L60.7641 33.2704C60.7497 33.2451 60.7352 33.2198 60.7195 33.1957C60.412 32.7241 59.78 32.5926 59.3096 32.9002L58.9454 33.133C58.6354 33.3283 58.2434 33.3428 57.919 33.1691L53.9111 31.038C53.606 30.8691 53.2357 30.8691 52.9306 31.038L50.9731 32.1295C50.6125 32.3357 50.4135 32.7422 50.4714 33.1547L50.7476 35.082C50.803 35.5331 50.5546 35.9661 50.1361 36.1446L45.3201 38.0864C45.1416 38.1599 44.945 38.1805 44.7533 38.1443L39.3705 37.148C39.1667 37.1106 38.9556 37.1348 38.7674 37.2216L32.743 39.9124C32.3908 40.0692 31.9795 40.0125 31.6816 39.7665L23.5055 32.9955C23.3463 32.8616 23.151 32.7808 22.9447 32.7615L18.0866 32.3249C17.7718 32.3285 17.4763 32.4756 17.2857 32.7253L16.2678 33.9181C15.918 34.3246 15.315 34.3921 14.8856 34.0713L11.6328 31.6265C11.4579 31.4951 11.2432 31.4227 11.0225 31.4227L8.9854 31.4227C8.53311 31.4203 8.13269 31.717 8.00364 32.1512L7.44401 34.2824C7.34994 34.6382 7.07254 34.9168 6.71553 35.0096L5.17415 35.4679C4.81835 35.5608 4.53974 35.8394 4.44687 36.1952L4.3733 36.5004C4.31058 36.7609 4.14776 36.9852 3.92102 37.1275C3.4434 37.4242 2.81503 37.2771 2.51833 36.7995L0.408875 33.3645C0.350982 33.268 0.308769 33.1631 0.285853 33.0534L0.0241314 31.8895C0.00845223 31.8183 9.5786e-06 31.7484 9.5786e-06 31.676C-0.00240261 31.114 0.451088 30.6544 1.01313 30.652L1.92252 30.652C2.28555 30.6508 2.62085 30.4578 2.80297 30.1443L3.61708 28.6885C3.74372 28.4678 3.78232 28.2085 3.72684 27.96L2.91875 23.9823C2.87292 23.8099 2.87292 23.6302 2.91875 23.4577L4.25028 19.3039C4.32747 19.0651 4.4915 18.8625 4.70859 18.737L6.68056 17.5876C6.83855 17.496 6.96881 17.3621 7.05806 17.2029C7.21727 16.9158 7.50432 16.7241 7.82875 16.6855L9.67649 16.4672C9.9165 16.4382 10.1384 16.3249 10.3025 16.1476L13.5107 12.7066C13.6542 12.551 13.8423 12.4436 14.0498 12.4002C14.5998 12.2832 15.1401 12.6366 15.2559 13.1866L15.7142 15.3696C15.7359 15.4758 15.7757 15.5795 15.8312 15.6748L16.5585 17.0497C16.7321 17.3199 17.0228 17.4923 17.3436 17.5153L21.3587 17.9736C21.5456 17.9917 21.7338 17.9579 21.9014 17.8783C22.408 17.6335 22.6215 17.0256 22.3778 16.519L21.7302 15.325C21.5034 14.8775 21.6349 14.3312 22.0426 14.0381L25.2508 11.7538C25.4389 11.6187 25.6681 11.5523 25.8984 11.5644L28.459 11.7103L28.1321 12.2772L25.2218 13.2083C25.135 13.236 25.0518 13.2758 24.9746 13.3253L23.52 14.2926C23.0919 14.576 22.9423 15.1344 23.1702 15.5952L24.1894 17.66C24.275 17.8313 24.4089 17.976 24.5741 18.0749C25.0554 18.3644 25.6813 18.2088 25.9708 17.7263L26.8223 16.2718C27.008 15.9546 27.3506 15.7628 27.7172 15.7688L30.3501 15.8267C30.572 15.8328 30.7879 15.7664 30.9688 15.6386L36.0598 12.001C36.3106 11.8225 36.629 11.7658 36.9257 11.849L38.3019 12.241C38.3272 12.2483 38.3537 12.2567 38.3779 12.2663C38.9073 12.4593 39.1775 13.0443 38.9845 13.5725L38.847 13.9501C38.8024 14.0731 38.7807 14.2033 38.7855 14.3336C38.8036 14.8944 39.2728 15.3359 39.836 15.3178L45.1682 15.1875C45.5023 15.1754 45.8086 15.0018 45.9907 14.722L48.0483 11.5355C48.1569 11.369 48.3112 11.2376 48.4922 11.1567L54.115 8.67702C54.3357 8.57812 54.513 8.40565 54.6167 8.18855L57.258 2.75511C57.3292 2.60555 57.4377 2.4765 57.5704 2.3776L60.5314 0.194572C60.9451 -0.105745 61.518 -0.0538833 61.8701 0.318799L62.5094 0.979738C62.6408 1.11723 62.7325 1.2885 62.7723 1.47424L64.263 8.87241C64.3076 9.09433 64.2775 9.32469 64.1762 9.52731L63.2306 11.4112C63.0183 11.8334 63.1245 12.3447 63.4851 12.6487L66.1469 14.8739C66.2844 14.9885 66.3906 15.1369 66.4533 15.3033ZM61.9365 10.7575C61.8002 11.0012 61.7061 11.2677 61.6591 11.5427C61.5288 11.5318 61.3961 11.5318 61.2659 11.5427C60.3818 11.5379 59.5641 12.0107 59.1275 12.7801C58.7898 13.3651 58.7066 14.0646 58.8947 14.7147L59.4833 16.7144L56.421 19.4715C55.9434 19.8997 55.6515 20.4967 55.6057 21.1372L55.2945 25.619C55.2077 26.9095 56.1303 28.0505 57.4112 28.2374L57.6512 28.2374C58.434 28.3484 59.224 28.0782 59.7752 27.5101L61.4335 29.4893L61.717 32.1946C60.9282 31.2141 59.5279 30.9825 58.4665 31.6555L58.3194 31.7508L54.5383 29.7366C53.7966 29.3289 52.8992 29.3289 52.1587 29.7366L50.282 30.8703C49.3943 31.366 48.9058 32.3586 49.053 33.3645L49.293 34.9445L44.9282 36.6897L39.6612 35.6935C39.1703 35.603 38.6625 35.6645 38.2066 35.8684L32.4379 38.4422L24.4366 31.846C24.0567 31.5373 23.5924 31.3503 23.1051 31.3069L18.2168 30.8703L18.013 30.8703C17.2881 30.8679 16.5995 31.1851 16.1291 31.7363L15.4018 32.6155L12.4915 30.4349C12.0718 30.1189 11.5616 29.9452 11.037 29.9404L8.99987 29.9404C7.877 29.9392 6.89403 30.6942 6.60698 31.7797L6.11249 33.6709L4.80991 34.0568C4.18997 34.245 3.66774 34.6671 3.35536 35.2352L1.68974 32.6457L1.55828 32.0559L1.91528 32.0559C2.80176 32.0535 3.61949 31.5807 4.06092 30.8124L4.87503 29.3579C5.17535 28.8332 5.27425 28.2181 5.15244 27.6259L4.33712 23.793L5.58904 19.9081L7.37768 18.8673C7.70573 18.6767 7.98434 18.4126 8.193 18.0966L9.84414 17.9C10.4291 17.8313 10.9718 17.5551 11.3723 17.1221L13.9762 14.2926L14.2596 15.6531C14.3151 15.9087 14.4104 16.1536 14.5431 16.3803L15.3367 17.777C15.7299 18.4476 16.4173 18.895 17.1904 18.9843L21.2067 19.4426L21.4902 19.4426C22.1209 19.4438 22.7288 19.2014 23.1847 18.766C24.0362 19.8346 25.5921 20.0107 26.6607 19.1604C26.8898 18.977 27.0852 18.7551 27.2372 18.5043L27.9645 17.2825L30.3429 17.3331C30.8808 17.3331 31.4042 17.1595 31.8348 16.8386L36.7448 13.3096L37.4721 13.5074C37.0343 14.8003 37.7278 16.2042 39.0219 16.6421C39.2836 16.7313 39.5598 16.7759 39.836 16.7735L45.249 16.5986C46.0571 16.5721 46.8024 16.1512 47.2414 15.4709L49.2267 12.3942L54.7265 9.96392C55.2595 9.72752 55.6937 9.31022 55.9494 8.78557L58.5461 3.45343L61.1055 1.58399L61.3973 1.88913L62.8519 9.01111L61.9365 10.7575ZM64.3499 15.2671L65.0783 17.3042L65.6669 17.537L65.0783 15.9003L64.3499 15.2671Z" id="Fill-1" fill="#000000" fill-rule="evenodd" stroke="none" />
  </g>
</svg>