<?xml version="1.0" encoding="utf-8"?>
<svg width="68px" height="40px" viewBox="0 0 68 40" version="1.1" xmlns:xlink="http://www.w3.org/1999/xlink" xmlns="http://www.w3.org/2000/svg">
  <desc>Created with Lunacy</desc>
  <g id="spiral">
    <path d="M66.4532 15.3033L67.406 17.9229C67.5724 18.2136 67.5857 18.5682 67.441 18.8709C67.1973 19.3787 66.5883 19.5909 66.0817 19.3485L64.3643 18.7298C64.0748 18.6261 63.8468 18.3957 63.7467 18.1038L62.2403 13.739C62.0522 13.271 61.548 13.0105 61.0571 13.1299C60.5108 13.2614 60.1743 13.8114 60.3058 14.3577L60.9679 16.6203C61.0764 16.9954 60.9607 17.3995 60.67 17.66L57.3967 20.5703C57.2013 20.7464 57.0807 20.9912 57.0626 21.2542L56.749 25.7348C56.7128 26.2667 57.0939 26.7358 57.621 26.8118L57.8682 26.8118C58.1939 26.8577 58.5219 26.7443 58.7487 26.5055L59.0985 26.1859C59.1238 26.1605 59.1491 26.1352 59.1756 26.1123C59.605 25.7481 60.2467 25.8011 60.6121 26.2293L62.6781 28.6885C62.7903 28.8296 62.8627 28.9973 62.8892 29.1758L63.5284 35.3727C63.5622 35.7116 63.4259 36.0445 63.1642 36.2616L62.3284 36.9876C61.9316 37.3193 61.349 37.3 60.9751 36.9442L60.9317 36.9008C60.5542 36.5305 60.5228 35.9335 60.8581 35.5258L61.0909 35.2352C61.349 34.9312 61.4057 34.5055 61.2369 34.1437L60.7641 33.2704C60.7496 33.2451 60.7351 33.2198 60.7194 33.1957C60.4119 32.7241 59.7799 32.5926 59.3095 32.9002L58.9453 33.133C58.6353 33.3283 58.2433 33.3428 57.9189 33.1691L53.9111 31.038C53.606 30.8691 53.2356 30.8691 52.9305 31.038L50.973 32.1295C50.6124 32.3357 50.4134 32.7422 50.4713 33.1547L50.7475 35.082C50.803 35.5331 50.5545 35.9661 50.136 36.1446L45.3201 38.0864C45.1416 38.1599 44.945 38.1805 44.7532 38.1443L39.3705 37.148C39.1666 37.1106 38.9556 37.1348 38.7674 37.2216L32.743 39.9124C32.3908 40.0692 31.9795 40.0125 31.6816 39.7665L23.5056 32.9955C23.3464 32.8616 23.151 32.7808 22.9447 32.7615L18.0866 32.3249C17.7718 32.3285 17.4763 32.4756 17.2857 32.7253L16.2678 33.9181C15.918 34.3246 15.315 34.3921 14.8856 34.0713L11.6328 31.6265C11.4579 31.4951 11.2432 31.4227 11.0225 31.4227L8.98543 31.4227C8.53315 31.4203 8.13273 31.717 8.00368 32.1512L7.44405 34.2824C7.34998 34.6382 7.07258 34.9168 6.71557 35.0096L5.17419 35.4679C4.81839 35.5608 4.53979 35.8394 4.44692 36.1952L4.37335 36.5004C4.31063 36.7609 4.14781 36.9852 3.92106 37.1275C3.44345 37.4242 2.81508 37.2771 2.51838 36.7995L0.40893 33.3645C0.351038 33.268 0.308825 33.1631 0.285909 33.0534L0.0241873 31.8895C0.00850812 31.8183 6.54902e-05 31.7484 6.54902e-05 31.676C-0.00234669 31.114 0.451143 30.6544 1.01318 30.652L1.92257 30.652C2.28561 30.6508 2.6209 30.4578 2.80302 30.1443L3.61713 28.6885C3.74377 28.4678 3.78236 28.2085 3.72688 27.96L2.9188 23.9823C2.87297 23.8099 2.87297 23.6302 2.9188 23.4577L4.25033 19.3039C4.32752 19.0651 4.49154 18.8625 4.70864 18.737L6.6806 17.5876C6.83859 17.496 6.96885 17.3621 7.0581 17.2029C7.21731 16.9158 7.50436 16.7241 7.82879 16.6855L9.67652 16.4672C9.91654 16.4382 10.1385 16.3249 10.3025 16.1476L13.5107 12.7066C13.6542 12.551 13.8424 12.4436 14.0498 12.4002C14.5998 12.2832 15.1401 12.6366 15.2559 13.1866L15.7142 15.3696C15.7359 15.4758 15.7757 15.5795 15.8312 15.6748L16.5585 17.0497C16.7321 17.3199 17.0228 17.4923 17.3436 17.5153L21.3587 17.9736C21.5457 17.9917 21.7338 17.9579 21.9015 17.8783C22.408 17.6335 22.6215 17.0256 22.3779 16.519L21.7302 15.325C21.5035 14.8775 21.6349 14.3312 22.0426 14.0381L25.2508 11.7538C25.4389 11.6187 25.6681 11.5523 25.8984 11.5644L28.459 11.7103L28.1321 12.2772L25.2218 13.2083C25.135 13.236 25.0518 13.2758 24.9746 13.3253L23.52 14.2926C23.0919 14.576 22.9423 15.1344 23.1703 15.5952L24.1894 17.66C24.275 17.8313 24.4089 17.976 24.5742 18.0749C25.0554 18.3644 25.6813 18.2088 25.9708 17.7263L26.8223 16.2718C27.008 15.9546 27.3506 15.7628 27.7172 15.7688L30.3501 15.8267C30.572 15.8328 30.7879 15.7664 30.9688 15.6386L36.0597 12.001C36.3106 11.8225 36.629 11.7658 36.9257 11.849L38.3019 12.241C38.3272 12.2483 38.3537 12.2567 38.3778 12.2663C38.9073 12.4593 39.1775 13.0443 38.9845 13.5725L38.847 13.9501C38.8024 14.0731 38.7807 14.2033 38.7855 14.3336C38.8036 14.8944 39.2728 15.3359 39.836 15.3178L45.1681 15.1875C45.5022 15.1754 45.8086 15.0018 45.9907 14.722L48.0483 11.5355C48.1568 11.369 48.3112 11.2376 48.4921 11.1567L54.1149 8.67702C54.3356 8.57812 54.5129 8.40565 54.6166 8.18855L57.258 2.75511C57.3291 2.60555 57.4377 2.4765 57.5703 2.3776L60.5313 0.194572C60.945 -0.105745 61.5179 -0.0538833 61.8701 0.318799L62.5093 0.979738C62.6407 1.11723 62.7324 1.2885 62.7722 1.47424L64.2629 8.87241C64.3076 9.09433 64.2774 9.32469 64.1761 9.52731L63.2305 11.4112C63.0182 11.8334 63.1244 12.3447 63.485 12.6487L66.1469 14.8739C66.2843 14.9885 66.3905 15.1369 66.4532 15.3033ZM61.9363 10.7575C61.8 11.0012 61.7059 11.2677 61.6589 11.5427C61.5286 11.5318 61.396 11.5318 61.2657 11.5427C60.3816 11.5379 59.5639 12.0107 59.1273 12.7801C58.7896 13.3651 58.7064 14.0646 58.8945 14.7147L59.4831 16.7144L56.4208 19.4715C55.9432 19.8997 55.6513 20.4967 55.6055 21.1371L55.2943 25.619C55.2075 26.9095 56.1302 28.0505 57.411 28.2374L57.6511 28.2374C58.4338 28.3484 59.2238 28.0782 59.775 27.5101L61.4334 29.4893L61.7168 32.1946C60.928 31.2141 59.5277 30.9825 58.4664 31.6555L58.3192 31.7508L54.5381 29.7366C53.7964 29.3289 52.899 29.3289 52.1585 29.7366L50.2818 30.8703C49.3941 31.366 48.9057 32.3586 49.0528 33.3645L49.2928 34.9445L44.928 36.6897L39.661 35.6935C39.1701 35.603 38.6623 35.6645 38.2064 35.8684L32.4377 38.4422L24.4365 31.846C24.0566 31.5373 23.5922 31.3503 23.1049 31.3069L18.2167 30.8703L18.0128 30.8703C17.288 30.8679 16.5993 31.1851 16.1289 31.7363L15.4016 32.6155L12.4913 30.4349C12.0716 30.1189 11.5614 29.9452 11.0368 29.9404L8.99969 29.9404C7.87682 29.9392 6.89386 30.6942 6.60681 31.7797L6.11231 33.6709L4.80973 34.0568C4.1898 34.245 3.66756 34.6671 3.35518 35.2352L1.68957 32.6457L1.55811 32.0559L1.91511 32.0559C2.80159 32.0535 3.61932 31.5807 4.06075 30.8124L4.87486 29.3579C5.17518 28.8332 5.27408 28.2181 5.15226 27.6259L4.33694 23.793L5.58887 19.9081L7.3775 18.8673C7.70556 18.6767 7.98417 18.4126 8.19282 18.0966L9.84396 17.9C10.4289 17.8313 10.9717 17.5551 11.3721 17.1221L13.976 14.2926L14.2595 15.653C14.3149 15.9087 14.4102 16.1536 14.5429 16.3803L15.3365 17.777C15.7297 18.4476 16.4172 18.895 17.1903 18.9843L21.2066 19.4426L21.49 19.4426C22.1208 19.4438 22.7286 19.2014 23.1845 18.766C24.036 19.8346 25.5919 20.0107 26.6605 19.1604C26.8897 18.977 27.0851 18.7551 27.237 18.5043L27.9643 17.2825L30.3427 17.3331C30.8806 17.3331 31.4041 17.1595 31.8346 16.8386L36.7446 13.3096L37.4719 13.5074C37.0341 14.8003 37.7276 16.2042 39.0217 16.642C39.2835 16.7313 39.5597 16.7759 39.8359 16.7735L45.2488 16.5986C46.0569 16.5721 46.8022 16.1512 47.2413 15.4709L49.2265 12.3942L54.7263 9.96391C55.2594 9.72752 55.6936 9.31021 55.9493 8.78556L58.546 3.45343L61.1053 1.58398L61.3972 1.88913L62.8517 9.0111L61.9363 10.7575ZM65.0786 17.3042L64.3501 15.2671L65.0786 15.9003L65.6672 17.537L65.0786 17.3042Z" id="Fill-1" fill="#FF2626" fill-rule="evenodd" stroke="none" />
  </g>
</svg>