<?xml version="1.0" encoding="utf-8"?>
<svg width="20px" height="20px" viewBox="0 0 20 20" version="1.1" xmlns:xlink="http://www.w3.org/1999/xlink" xmlns="http://www.w3.org/2000/svg">
  <desc>Created with Lunacy</desc>
  <path d="M0.0831947 9.91058C0.0854132 4.44469 4.55241 0 10.0422 0C12.7055 0.001104 15.2058 1.03334 17.086 2.90572C18.9651 4.7803 20 7.26982 20 9.9161C19.9978 15.3809 15.5297 19.8278 10.0422 19.8278L10.0366 19.8278C8.37049 19.8267 6.73322 19.4105 5.27787 18.6211L0 20L1.41098 14.8642C0.540211 13.3606 0.0831947 11.656 0.0831947 9.91058ZM9.99995 17.7777C14.2955 17.7777 17.7777 14.2955 17.7777 9.99995C17.7777 5.7044 14.2955 2.22217 9.99995 2.22217C5.7044 2.22217 2.22217 5.7044 2.22217 9.99995C2.22217 11.4396 2.61331 12.7879 3.29512 13.9444C3.61668 14.4898 2.22217 17.7777 2.22217 17.7777C2.22217 17.7777 5.47052 16.3613 6.0674 16.7118C7.22122 17.3893 8.56522 17.7777 9.99995 17.7777ZM12.8819 11.1792C13.1104 11.262 14.3317 11.8603 14.5824 11.9851C14.8297 12.1076 14.9961 12.1716 15.0593 12.2754C15.1203 12.3781 15.1203 12.8749 14.914 13.4523C14.7055 14.0319 13.7127 14.5596 13.2335 14.6303C12.8042 14.6921 12.2618 14.7208 11.6661 14.532C11.3067 14.4161 10.8419 14.2637 10.2474 14.0098C7.75152 12.9356 6.12201 10.4362 5.99777 10.2706C5.87243 10.1039 4.98169 8.9259 4.98169 7.70709C4.98169 6.48828 5.62284 5.88991 5.85135 5.64151C6.07986 5.39532 6.35052 5.3335 6.51691 5.3335C6.68108 5.3335 6.84747 5.3357 6.99278 5.34122C7.01044 5.34212 7.02882 5.34205 7.04782 5.34198C7.1924 5.34142 7.37342 5.34072 7.55185 5.76516C7.75928 6.25975 8.25623 7.47856 8.31946 7.60442C8.38269 7.72806 8.42373 7.87158 8.34054 8.03718C8.25623 8.20389 8.2163 8.30545 8.09095 8.45008C7.96782 8.59581 7.83138 8.77465 7.71935 8.88395C7.594 9.0087 7.46422 9.14118 7.60842 9.38958C7.75485 9.63908 8.2529 10.4483 8.99278 11.1052C9.94342 11.9497 10.7465 12.2103 10.995 12.3339C11.2424 12.4587 11.3877 12.4377 11.5341 12.2732C11.6794 12.1065 12.1553 11.549 12.3228 11.3028C12.4881 11.0544 12.6545 11.0953 12.8819 11.1792Z" id="Combined-Shape" fill="#FF2626" fill-rule="evenodd" stroke="none" />
</svg>