<?xml version="1.0" encoding="UTF-8"?>
<svg width="24px" height="24px" viewBox="0 0 24 24" version="1.1" xmlns="http://www.w3.org/2000/svg" xmlns:xlink="http://www.w3.org/1999/xlink">
    <!-- Generator: Sketch 53.2 (72643) - https://sketchapp.com -->
    <title>icons/3d</title>
    <desc>Created with Sketch.</desc>
    <defs>
        <path d="M7.47000003,21.48 C4.20000002,19.94 1.86000001,16.76 1.50000001,13 L6.21724894e-14,13 C0.510000002,19.16 5.66000002,24 11.95,24 L12.6100001,23.97 L8.80000004,20.16 L7.47000003,21.48 L7.47000003,21.48 Z M8.36000003,14.96 C8.17000003,14.96 7.99000003,14.93 7.84000003,14.88 C7.68000003,14.82 7.55000003,14.75 7.44000003,14.64 C7.33000003,14.54 7.24000003,14.42 7.18000003,14.27 C7.12000003,14.13 7.09000003,13.97 7.09000003,13.8 L5.79000002,13.8 C5.79000002,14.16 5.86000002,14.48 6.00000003,14.75 C6.14000003,15.02 6.33000003,15.25 6.56000003,15.44 C6.80000003,15.62 7.07000003,15.76 7.38000003,15.85 C7.68000003,15.95 8.00000003,16 8.34000003,16 C8.71000004,16 9.06000004,15.95 9.37000004,15.85 C9.69000004,15.75 9.97000004,15.6 10.2,15.41 C10.43,15.22 10.62,14.98 10.75,14.69 C10.88,14.4 10.95,14.08 10.95,13.72 C10.95,13.53 10.93,13.34 10.88,13.16 C10.83,12.98 10.76,12.81 10.65,12.65 C10.55,12.49 10.41,12.35 10.25,12.22 C10.08,12.09 9.88000004,11.9899999 9.64000004,11.9099999 C9.84000004,11.8199999 10.01,11.7099999 10.16,11.5799999 C10.31,11.4499999 10.43,11.3099999 10.53,11.1599999 C10.63,11.0099999 10.7,10.8599999 10.75,10.6999999 C10.8,10.5399999 10.82,10.3799999 10.82,10.2199999 C10.82,9.85999994 10.76,9.53999994 10.64,9.25999994 C10.52,8.97999994 10.35,8.74999994 10.13,8.56999994 C9.93000004,8.37999993 9.66000004,8.23999993 9.36000004,8.13999993 C9.05000004,8.04999993 8.71000004,7.99999993 8.34000003,7.99999993 C7.98000003,7.99999993 7.65000003,8.04999993 7.34000003,8.15999993 C7.04000003,8.26999993 6.77000003,8.41999994 6.55000003,8.60999994 C6.34000003,8.79999994 6.17000003,9.01999994 6.04000003,9.27999994 C5.92000002,9.53999994 5.86000002,9.81999994 5.86000002,10.1299999 L7.16000003,10.1299999 C7.16000003,9.95999994 7.19000003,9.80999994 7.25000003,9.67999994 C7.31000003,9.54999994 7.39000003,9.42999994 7.50000003,9.33999994 C7.61000003,9.24999994 7.73000003,9.16999994 7.88000003,9.11999994 C8.03000003,9.06999994 8.18000003,9.03999994 8.36000003,9.03999994 C8.76000004,9.03999994 9.06000004,9.13999994 9.25000004,9.34999994 C9.44000004,9.54999994 9.54000004,9.83999994 9.54000004,10.2099999 C9.54000004,10.3899999 9.51000004,10.5499999 9.46000004,10.6999999 C9.41000004,10.8499999 9.32000004,10.9699999 9.21000004,11.0699999 C9.10000004,11.1699999 8.96000004,11.2499999 8.80000004,11.3099999 C8.64000004,11.3699999 8.44000004,11.3999999 8.22000003,11.3999999 L7.45000003,11.3999999 L7.45000003,12.43 L8.22000003,12.43 C8.44000004,12.43 8.64000004,12.45 8.82000004,12.5 C9.00000004,12.55 9.15000004,12.63 9.27000004,12.73 C9.39000004,12.84 9.49000004,12.97 9.56000004,13.13 C9.63000004,13.29 9.66000004,13.48 9.66000004,13.7 C9.66000004,14.11 9.54000004,14.42 9.31000004,14.63 C9.08000004,14.86 8.76000004,14.96 8.36000003,14.96 L8.36000003,14.96 Z M16.9100001,9.03999994 C16.5900001,8.70999994 16.2100001,8.44999994 15.7700001,8.26999993 C15.3400001,8.08999993 14.8500001,7.99999993 14.3100001,7.99999993 L11.95,7.99999993 L11.95,16 L14.2500001,16 C14.8000001,16 15.3100001,15.91 15.7600001,15.73 C16.2100001,15.55 16.6000001,15.3 16.9200001,14.97 C17.2400001,14.64 17.4900001,14.24 17.6600001,13.78 C17.8300001,13.31 17.9200001,12.79 17.9200001,12.21 L17.9200001,11.8099999 C17.9200001,11.2299999 17.8300001,10.7099999 17.6600001,10.2399999 C17.4800001,9.76999994 17.2300001,9.36999994 16.9100001,9.03999994 L16.9100001,9.03999994 Z M16.5200001,12.2 C16.5200001,12.62 16.4700001,12.99 16.3800001,13.33 C16.2800001,13.66 16.1400001,13.95 15.9500001,14.18 C15.7600001,14.41 15.5200001,14.59 15.2400001,14.71 C14.9500001,14.83 14.6200001,14.89 14.2500001,14.89 L13.3400001,14.89 L13.3400001,9.11999994 L14.3100001,9.11999994 C15.0300001,9.11999994 15.5800001,9.34999994 15.9500001,9.80999994 C16.3300001,10.2699999 16.5200001,10.9299999 16.5200001,11.7999999 L16.5200001,12.2 L16.5200001,12.2 Z M11.95,-9.99999834e-08 L11.29,0.0299999001 L15.1000001,3.83999992 L16.4300001,2.50999991 C19.7000001,4.05999992 22.0400001,7.22999993 22.3900001,10.9899999 L23.8900001,10.9899999 C23.3900001,4.83999992 18.2400001,-9.99999834e-08 11.95,-9.99999834e-08 L11.95,-9.99999834e-08 Z" id="path-1"></path>
    </defs>
    <g id="icons/3d" stroke="none" stroke-width="1" fill="none" fill-rule="evenodd">
        <mask id="mask-2" fill="white">
            <use xlink:href="#path-1"></use>
        </mask>
        <use id="Icon" fill="#FF2626" xlink:href="#path-1"></use>
    </g>
</svg>