<?xml version="1.0" encoding="UTF-8"?>
<svg width="24px" height="24px" viewBox="0 0 24 24" version="1.1" xmlns="http://www.w3.org/2000/svg" xmlns:xlink="http://www.w3.org/1999/xlink">
    <!-- Generator: Sketch 53.2 (72643) - https://sketchapp.com -->
    <title>icons/claim</title>
    <desc>Created with Sketch.</desc>
    <defs>
        <path d="M12.0004342,3.00000205 C13.0618664,3.00124494 14.0421212,3.56828474 14.5693444,4.48254409 L21.5748635,16.4623252 C22.1216972,17.3870202 22.1334901,18.5332508 21.6057975,19.469001 C21.0781049,20.4047512 20.0911494,20.987763 19.0071095,20.9983464 L4.98197452,20.9983133 C3.90559172,20.9895567 2.91604934,20.4059225 2.3876035,19.4681477 C1.85915765,18.5303729 1.87247884,17.3816146 2.41887447,16.4625441 L9.42603375,4.47998176 C9.95868096,3.56277758 10.9396827,2.99875995 12.0004342,3.00000205 Z M11.1552101,5.48494478 L4.14169005,17.4783466 C3.95760811,17.7880006 3.95314999,18.1724487 4.13000179,18.4862881 C4.3068536,18.8001276 4.63801781,18.995449 4.99010945,18.9983464 L18.9973026,18.9983945 C19.3568098,18.9948687 19.6871082,18.7997556 19.863708,18.4865937 C20.0403077,18.1734318 20.036361,17.7898297 19.8508745,17.4761487 L12.8398365,5.48691741 C12.6662933,5.18598758 12.3454766,5.00040745 11.9980923,5.00000068 C11.650708,4.9995939 11.3294576,5.1844222 11.1552101,5.48494478 Z M11.9901095,17.9983464 C11.4378247,17.9983464 10.9901095,17.5506311 10.9901095,16.9983464 C10.9901095,16.4460616 11.4378247,15.9983464 11.9901095,15.9983464 C12.5423942,15.9983464 12.9901095,16.4460616 12.9901095,16.9983464 C12.9901095,17.5506311 12.5423942,17.9983464 11.9901095,17.9983464 Z M10.9901095,7.99834639 L12.9901095,7.99834639 L12.9901095,14.9983464 L10.9901095,14.9983464 L10.9901095,7.99834639 Z" id="path-1"></path>
    </defs>
    <g id="icons/claim" stroke="none" stroke-width="1" fill="none" fill-rule="evenodd">
        <mask id="mask-2" fill="white">
            <use xlink:href="#path-1"></use>
        </mask>
        <use id="Shape" fill="#A0A0A0" fill-rule="nonzero" xlink:href="#path-1"></use>
    </g>
</svg>