<?xml version="1.0" encoding="utf-8"?>
<svg width="20px" height="19px" viewBox="0 0 20 19" version="1.1" xmlns:xlink="http://www.w3.org/1999/xlink" xmlns="http://www.w3.org/2000/svg">

  <path d="M3 0L17 0C18.654 0 20 1.346 20 3L20 13C20 14.654 18.654 16 17 16L6.554 16C6.373 16 6.195 16.049 6.039 16.143L1.515 18.857C1.356 18.953 1.178 19 1 19C0.83 19 0.66 18.957 0.507 18.87C0.194 18.693 0 18.36 0 18L0 3C0 1.346 1.346 0 3 0ZM18 13C18 13.551 17.551 14 17 14L6.554 14C6.011 14 5.477 14.148 5.01 14.428L2 16.234L2 3C2 2.449 2.449 2 3 2L17 2C17.551 2 18 2.449 18 3L18 13ZM5 8C5 7.448 5.448 7 6 7C6.552 7 7 7.448 7 8C7 8.552 6.552 9 6 9C5.448 9 5 8.552 5 8ZM10 7C9.448 7 9 7.448 9 8C9 8.552 9.448 9 10 9C10.552 9 11 8.552 11 8C11 7.448 10.552 7 10 7ZM14 7C13.448 7 13 7.448 13 8C13 8.552 13.448 9 14 9C14.552 9 15 8.552 15 8C15 7.448 14.552 7 14 7Z" id="??-Icon-?olor" fill="#FFFFFF" fill-rule="evenodd" stroke="none" />
</svg>