<svg xmlns="http://www.w3.org/2000/svg" width="24" height="24" viewBox="0 0 24 24">
    <path fill="#4D7399" fill-rule="evenodd" d="M12 10c.552 0 1 .448 1 1s-.448 1-1 1-1-.448-1-1 .448-1 1-1zm4 0c.552 0 1 .448 1 1s-.448 1-1 1-1-.448-1-1 .448-1 1-1zm-8 0c.552 0 1 .448 1 1s-.448 1-1 1-1-.448-1-1 .448-1 1-1zm12 6c0 .551-.449 1-1 1H8.554c-.543 0-1.077.148-1.544.428L4 19.234V6c0-.551.449-1 1-1h14c.551 0 1 .449 1 1v10zM19 3H5C3.346 3 2 4.346 2 6v15c0 .36.194.693.507.87.153.087.323.13.493.13.178 0 .356-.047.515-.143l4.524-2.714c.156-.094.334-.143.515-.143H19c1.654 0 3-1.346 3-3V6c0-1.654-1.346-3-3-3z"/>
</svg>
