<?xml version="1.0" encoding="UTF-8"?>
<svg width="24px" height="24px" viewBox="0 0 24 24" version="1.1" xmlns="http://www.w3.org/2000/svg" xmlns:xlink="http://www.w3.org/1999/xlink">
    <!-- Generator: Sketch 53.2 (72643) - https://sketchapp.com -->
    <title>icons/copy</title>
    <desc>Created with Sketch.</desc>
    <g id="icons/copy" stroke="none" stroke-width="1" fill="none" fill-rule="evenodd">
        <g id="Group" transform="translate(4.000000, 4.000000)" fill="#A0A0A0">
            <rect id="Rectangle" x="0" y="0" width="2" height="12" rx="1"></rect>
            <rect id="Rectangle" x="0" y="0" width="12" height="2" rx="1"></rect>
            <path d="M6,14 L14,14 L14,6 L6,6 L6,14 Z M5,16 C4.44771525,16 4,15.5522847 4,15 L4,5 C4,4.44771525 4.44771525,4 5,4 L15,4 C15.5522847,4 16,4.44771525 16,5 L16,15 C16,15.5522847 15.5522847,16 15,16 L5,16 Z" id="Combined-Shape" transform="translate(10.000000, 10.000000) scale(-1, -1) translate(-10.000000, -10.000000) "></path>
        </g>
    </g>
</svg>