<?xml version="1.0" encoding="utf-8"?>
<svg width="16px" height="16px" viewBox="0 0 16 16" version="1.1" xmlns:xlink="http://www.w3.org/1999/xlink" xmlns="http://www.w3.org/2000/svg">
  <desc>Created with Lunacy</desc>
  <g id="delete">
    <path d="M8 16C12.4183 16 16 12.4183 16 8C16 3.58172 12.4183 0 8 0C3.58172 0 0 3.58172 0 8C0 12.4183 3.58172 16 8 16Z" id="area" fill="#CDCDCD" fill-rule="evenodd" stroke="none" />
    <path d="M5.01378 4.42905C4.94267 4.36168 4.94267 4.26147 5.01378 4.19368L7.68044 1.66737C7.75156 1.6 7.78667 1.49811 7.78667 1.43242C7.78667 1.36505 7.75156 1.26316 7.68044 1.19537L7.18222 0.723368C7.11111 0.656 7.00533 0.623158 6.93422 0.623158C6.82622 0.623158 6.75511 0.656 6.684 0.723368L4.01733 3.24968C3.94622 3.31705 3.84044 3.31705 3.76889 3.24968L1.10222 0.723368C1.03111 0.656 0.923556 0.623158 0.854222 0.623158C0.783111 0.623158 0.675556 0.656 0.604 0.723368L0.105778 1.19537C0.0346667 1.26316 0 1.36505 0 1.43242C0 1.49811 0.0346667 1.6 0.105778 1.66737L2.77244 4.19368C2.84356 4.26147 2.84356 4.36168 2.77244 4.42905L0.105778 6.95537C0.0346667 7.02274 0 7.12463 0 7.19242C0 7.25979 0.0346667 7.36 0.105778 7.42737L0.604 7.89937C0.675556 7.96674 0.783111 8 0.854222 8C0.923556 8 1.03111 7.96674 1.10222 7.89937L3.76889 5.37305C3.84044 5.30568 3.94622 5.30568 4.01733 5.37305L6.684 7.89937C6.75511 7.96674 6.86267 8 6.93422 8C7.00533 8 7.11111 7.96674 7.18222 7.89937L7.68044 7.42737C7.75156 7.36 7.78667 7.25979 7.78667 7.19242C7.78667 7.12463 7.75156 7.02274 7.68044 6.95537L5.01378 4.42905Z" transform="translate(4 4)" id="delete" fill="#FFFFFF" fill-rule="evenodd" stroke="none" />
  </g>
</svg>