<?xml version="1.0" encoding="UTF-8"?>
<svg width="24px" height="24px" viewBox="0 0 24 24" version="1.1" xmlns="http://www.w3.org/2000/svg" xmlns:xlink="http://www.w3.org/1999/xlink">
    <!-- Generator: Sketch 53.2 (72643) - https://sketchapp.com -->
    <title>icons/delete</title>
    <desc>Created with Sketch.</desc>
    <g id="icons/delete" stroke="none" stroke-width="1" fill="none" fill-rule="evenodd">
        <path d="M10,5 L14,5 L14.2763932,5.5527864 C14.4134342,5.82686844 14.693567,6 15,6 L9,6 C9.30643303,6 9.58656578,5.82686844 9.7236068,5.5527864 L10,5 Z M6.69478543,6 L17.3052146,6 C17.483414,6 17.5952759,6.02784768 17.6930537,6.08013981 C17.7908315,6.13243194 17.8675681,6.20916851 17.9198602,6.30694629 C17.9721523,6.40472407 18,6.51658596 18,6.69478543 L18,6.80521457 C18,6.98341404 17.9721523,7.09527593 17.9198602,7.19305371 C17.8675681,7.29083149 17.7908315,7.36756806 17.6930537,7.41986019 C17.5952759,7.47215232 17.483414,7.5 17.3052146,7.5 L6.69478543,7.5 C6.51658596,7.5 6.40472407,7.47215232 6.30694629,7.41986019 C6.20916851,7.36756806 6.13243194,7.29083149 6.08013981,7.19305371 C6.02784768,7.09527593 6,6.98341404 6,6.80521457 L6,6.69478543 C6,6.51658596 6.02784768,6.40472407 6.08013981,6.30694629 C6.13243194,6.20916851 6.20916851,6.13243194 6.30694629,6.08013981 C6.40472407,6.02784768 6.51658596,6 6.69478543,6 Z M7.69999981,8.5 L16.3000002,8.5 L15.2622486,17.2809741 C15.168066,18.077903 15.059464,18.3587963 14.880275,18.6393517 C14.7010859,18.919907 14.4589982,19.1350691 14.1593513,19.2800924 C13.8597043,19.4251156 13.5680063,19.5 12.7655313,19.5 L11.2344687,19.5 C10.4319937,19.5 10.1402957,19.4251156 9.84064873,19.2800924 C9.54100178,19.1350691 9.29891408,18.919907 9.11972503,18.6393517 C8.94053599,18.3587963 8.83193397,18.077903 8.73775144,17.2809741 L7.69999981,8.5 Z" id="Style" fill="#A0A0A0"></path>
    </g>
</svg>