<?xml version="1.0" encoding="UTF-8"?>
<svg width="24px" height="24px" viewBox="0 0 24 24" version="1.1" xmlns="http://www.w3.org/2000/svg" xmlns:xlink="http://www.w3.org/1999/xlink">
    <!-- Generator: Sketch 53.2 (72643) - https://sketchapp.com -->
    <title>icons/gift</title>
    <desc>Created with Sketch.</desc>
    <g id="icons/gift" stroke="none" stroke-width="1" fill="none" fill-rule="evenodd">
        <path d="M17.2361065,7 L19.5,7 C20.8807119,7 22,8.11928813 22,9.5 C22,10.709479 21.1411202,11.7183558 20,11.9499909 L20,19 C20,20.6568542 18.6568542,22 17,22 L7,22 C5.34314575,22 4,20.6568542 4,19 L4,11.9499909 C2.85887984,11.7183558 2,10.709479 2,9.5 C2,8.11928813 3.11928813,7 4.5,7 L6.76389349,7 C6.28885357,6.46924351 6,5.76835444 6,5 C6,3.34314575 7.34314575,2 9,2 L9.5,2 C10.4793441,2 11.3647415,2.40223361 12,3.05050863 C12.6352585,2.40223361 13.5206559,2 14.5,2 L15,2 C16.6568542,2 18,3.34314575 18,5 C18,5.76835444 17.7111464,6.46924351 17.2361065,7 Z M11,6 L11,5.5 C11,4.67157288 10.3284271,4 9.5,4 L9,4 C8.44771525,4 8,4.44771525 8,5 C8,5.55228475 8.44771525,6 9,6 L11,6 Z M13,6 L15,6 C15.5522847,6 16,5.55228475 16,5 C16,4.44771525 15.5522847,4 15,4 L14.5,4 C13.6715729,4 13,4.67157288 13,5.5 L13,6 Z M17.2361065,7 L6.76389349,7 L17.2348299,7.00142545 C17.2352556,7.00095044 17.2356811,7.00047529 17.2361065,7 Z M15.4,10 L19.5,10 C19.7761424,10 20,9.77614237 20,9.5 C20,9.22385763 19.7761424,9 19.5,9 L15.4,9 C15.1790861,9 15,9.1790861 15,9.4 L15,9.6 C15,9.8209139 15.1790861,10 15.4,10 Z M15.4,20 L17,20 C17.5522847,20 18,19.5522847 18,19 L18,12.2 C18,12.0895431 17.9104569,12 17.8,12 L15.4,12 C15.1790861,12 15,12.1790861 15,12.4 L15,19.6 C15,19.8209139 15.1790861,20 15.4,20 Z M13,9 L11,9 L11,19.6 C11,19.8209139 11.1790861,20 11.4,20 L12.6,20 C12.8209139,20 13,19.8209139 13,19.6 L13,9 Z M8.6,12 L6.2,12 C6.08954305,12 6,12.0895431 6,12.2 L6,19 C6,19.5522847 6.44771525,20 7,20 L8.6,20 C8.8209139,20 9,19.8209139 9,19.6 L9,12.4 C9,12.1790861 8.8209139,12 8.6,12 Z M8.6,9 L4.5,9 C4.22385763,9 4,9.22385763 4,9.5 C4,9.77614237 4.22385763,10 4.5,10 L8.6,10 C8.8209139,10 9,9.8209139 9,9.6 L9,9.4 C9,9.1790861 8.8209139,9 8.6,9 Z" id="gift" fill="#FF2626"></path>
    </g>
</svg>