<svg xmlns="http://www.w3.org/2000/svg" width="40" height="40" viewBox="0 0 40 40">
    <g fill="none" fill-rule="evenodd">
        <circle cx="20" cy="20" r="20" fill="#F9FAFC"/>
        <rect width="40" height="40" fill="#F9FAFC" fill-rule="nonzero" rx="12"/>
        <path fill="#4D7399" d="M27 16c.513 0 .936.386.993.883L28 17v10c0 .513-.386.936-.883.993L27 28H17c-.513 0-.936-.386-.993-.883L16 27V17c0-.513.386-.936.883-.993L17 16h10zm-1 2h-8v8h8v-8zm-3-6c.552 0 1 .448 1 1s-.448 1-1 1h-9v9c0 .552-.448 1-1 1s-1-.448-1-1V13c0-.552.448-1 1-1h10z"/>
    </g>
</svg>
