<?xml version="1.0" encoding="utf-8"?>
<svg width="24px" height="24px" viewBox="0 0 24 24" version="1.1" xmlns:xlink="http://www.w3.org/1999/xlink" xmlns="http://www.w3.org/2000/svg">
  <desc>Created with Lunacy</desc>
  <g id="icons/edit">
    <path d="M10.6059 0.7064L9.19239 2.11995L12.0172 4.94481L13.4308 3.53126Q13.5713 3.39075 13.6473 3.20716Q13.7234 3.02357 13.7234 2.82486Q13.7234 2.62615 13.6473 2.44256Q13.5713 2.25897 13.4308 2.11846L12.0187 0.7064Q11.9492 0.636825 11.8673 0.582161Q11.7855 0.527497 11.6946 0.489844Q11.6037 0.45219 11.5072 0.432995Q11.4107 0.413799 11.3123 0.413799Q11.2139 0.413799 11.1174 0.432995Q11.0209 0.45219 10.93 0.489844Q10.8391 0.527497 10.7573 0.582161Q10.6755 0.636825 10.6059 0.7064ZM3.12103 13.8509L10.6066 6.36533L7.77817 3.53691L0.2926 11.0225Q0.152089 11.163 0.0760443 11.3466Q0 11.5302 0 11.7289L0 13.1445Q0 13.2429 0.0191955 13.3394Q0.038391 13.4359 0.0760443 13.5268Q0.113698 13.6177 0.168362 13.6995Q0.223026 13.7813 0.2926 13.8509Q0.362175 13.9205 0.443985 13.9751Q0.525796 14.0298 0.616699 14.0675Q0.707602 14.1051 0.804105 14.1243Q0.900607 14.1435 0.999 14.1435L2.41463 14.1435Q2.61334 14.1435 2.79693 14.0675Q2.98052 13.9914 3.12103 13.8509Z" transform="translate(4.9301414 4.926012)" id="Combined-Shape" fill="#4C7399" fill-rule="evenodd" stroke="none" />
  </g>
</svg>