<?xml version="1.0" encoding="utf-8"?>
<svg width="32px" height="32px" viewBox="0 0 32 32" version="1.1" xmlns:xlink="http://www.w3.org/1999/xlink" xmlns="http://www.w3.org/2000/svg">
  <desc>Created with Lunacy</desc>
  <g id="Icon-bg">
    <path d="M16 32C24.8366 32 32 24.8366 32 16C32 7.16344 24.8366 0 16 0C7.16344 0 0 7.16344 0 16C0 24.8366 7.16344 32 16 32Z" id="Oval" fill="#F0F0F0" fill-rule="evenodd" stroke="none" />
  </g>
  <g id="icons/call" transform="translate(6 6)">
    <path d="M0 3.83333C0 10.91 5.75667 16.6667 12.8333 16.6667C14.9467 16.6667 16.6667 14.9475 16.6667 12.8333C16.6667 12.6183 16.6483 12.405 16.6133 12.1992C16.5792 11.99 16.5275 11.7867 16.4592 11.59C16.3658 11.3192 16.1383 11.1158 15.8592 11.0517L10.8883 9.91083C10.6167 9.85083 10.3283 9.92667 10.125 10.1217C10.0067 10.235 10.0033 10.2383 9.46167 11.2725C7.68667 10.4642 6.2325 9.015 5.39583 7.20333C6.42917 6.6625 6.43167 6.66 6.545 6.54167C6.74 6.33833 6.81917 6.05167 6.75583 5.77833L5.615 0.808333C5.55083 0.528333 5.34667 0.300833 5.07583 0.206667C4.8775 0.138333 4.67417 0.0866667 4.47167 0.0541667C4.26417 0.0183333 4.05 0 3.83333 0C1.71917 0 0 1.71917 0 3.83333ZM1.66667 3.83333C1.66667 2.63833 2.63833 1.66667 3.83333 1.66667C3.92417 1.66667 4.01417 1.6725 4.10667 1.68417L4.99 5.535C4.84583 5.61 4.68833 5.6925 4.5425 5.76917C3.82417 6.14417 3.2575 6.44083 3.555 7.095C4.53417 9.88333 6.78333 12.1333 9.53833 13.1C10.2391 13.3822 10.5143 12.8571 10.8936 12.1335L10.895 12.1308C10.9717 11.9825 11.0558 11.8233 11.1325 11.6767L14.9825 12.56C14.9942 12.65 15 12.7408 15 12.8333C15 14.0283 14.0275 15 12.8333 15C6.67583 15 1.66667 9.99 1.66667 3.83333Z" transform="translate(1.6666666 1.6666666)" id="🎨-Icon-Сolor" fill="#4C7399" fill-rule="evenodd" stroke="none" />
  </g>
</svg>