<?xml version="1.0" encoding="utf-8"?>
<svg width="24px" height="24px" viewBox="0 0 24 24" version="1.1" xmlns:xlink="http://www.w3.org/1999/xlink" xmlns="http://www.w3.org/2000/svg">
  <desc>Created with Lunacy</desc>
  <g id="icons/edit">
    <path d="M10.6089 0.292581L9.19531 1.70613L12.0202 4.53099L13.4337 3.11744Q13.5742 2.97693 13.6503 2.79334Q13.7263 2.60975 13.7263 2.41104Q13.7263 2.21233 13.6503 2.02874Q13.5742 1.84515 13.4337 1.70464L12.0217 0.292581Q11.9521 0.223007 11.8703 0.168343Q11.7885 0.113679 11.6976 0.0760253Q11.6067 0.038372 11.5102 0.0191765Q11.4136 -1.90115e-05 11.3153 -1.90115e-05Q11.2169 -1.90115e-05 11.1204 0.0191765Q11.0239 0.038372 10.933 0.0760253Q10.8421 0.113679 10.7602 0.168343Q10.6784 0.223007 10.6089 0.292581ZM3.12103 13.4371L10.6066 5.95154L7.77817 3.12311L0.2926 10.6087Q0.152089 10.7492 0.0760443 10.9328Q0 11.1164 0 11.3151L0 12.7307Q0 12.8291 0.0191955 12.9256Q0.038391 13.0221 0.0760443 13.113Q0.113698 13.2039 0.168362 13.2857Q0.223026 13.3675 0.2926 13.4371Q0.362175 13.5067 0.443985 13.5613Q0.525796 13.616 0.616699 13.6537Q0.707602 13.6913 0.804105 13.7105Q0.900607 13.7297 0.999 13.7297L2.41463 13.7297Q2.61334 13.7297 2.79693 13.6537Q2.98052 13.5776 3.12103 13.4371Z" transform="translate(4.9296875 5.3398438)" id="Combined-Shape" fill="#FF2626" fill-rule="evenodd" stroke="none" />
  </g>
</svg>