<?xml version="1.0" encoding="UTF-8"?>
<svg width="24px" height="24px" viewBox="0 0 24 24" version="1.1" xmlns="http://www.w3.org/2000/svg" xmlns:xlink="http://www.w3.org/1999/xlink">
    <!-- Generator: Sketch 53.2 (72643) - https://sketchapp.com -->
    <title>icons/info</title>
    <desc>Created with Sketch.</desc>
    <g id="icons/info" stroke="none" stroke-width="1" fill="none" fill-rule="evenodd">
        <path d="M12,20 C7.57142857,20 4,16.4285714 4,12 C4,7.57142857 7.57142857,4 12,4 C16.4285714,4 20,7.57142857 20,12 C20,16.4285714 16.4285714,20 12,20 Z M12,18.5 C15.5982143,18.5 18.5,15.5982143 18.5,12 C18.5,8.40178571 15.5982143,5.5 12,5.5 C8.40178571,5.5 5.5,8.40178571 5.5,12 C5.5,15.5982143 8.40178571,18.5 12,18.5 Z M12,10 C11.3125,10 10.75,9.4375 10.75,8.75 C10.75,8.0625 11.3125,7.5 12,7.5 C12.6875,7.5 13.25,8.0625 13.25,8.75 C13.25,9.4375 12.6875,10 12,10 Z M10.7325155,11 L12.487223,11 C12.6655267,11 12.730184,11.0185651 12.7953691,11.0534265 C12.8605543,11.088288 12.911712,11.1394457 12.9465735,11.2046309 C12.9814349,11.269816 13,11.3344733 13,11.512777 L13,14.7217747 C13,14.8641217 13.0108202,14.9157421 13.0329328,14.9702439 C13.0550454,15.0247458 13.0884504,15.0705091 13.1336199,15.1081805 C13.1787894,15.1458519 13.2246562,15.17189 13.3602309,15.2152739 L13.9698204,15.4103425 C14.0752674,15.4440856 14.1109415,15.4643374 14.1460734,15.4936374 C14.1812053,15.5229374 14.2071869,15.558531 14.2243856,15.6009214 C14.2415843,15.6433117 14.25,15.6834609 14.25,15.7941752 L14.25,16.0368097 C14.25,16.1556094 14.2314349,16.230184 14.1965735,16.2953691 C14.161712,16.3605543 14.1105543,16.411712 14.0453691,16.4465735 C13.980184,16.4814349 13.9056094,16.5 13.7868097,16.5 L10.7325155,16.5 C10.5905256,16.5 10.519816,16.4814349 10.4546309,16.4465735 C10.3894457,16.411712 10.338288,16.3605543 10.3034265,16.2953691 C10.2685651,16.230184 10.25,16.1594744 10.25,16.0174845 L10.25,15.71391 C10.25,15.5978021 10.2595945,15.5556181 10.2787876,15.5115275 C10.2979806,15.4674369 10.3267721,15.4309178 10.3651662,15.4019652 C10.4035602,15.3730125 10.4423402,15.3538383 10.5552421,15.3267419 L11.0930105,15.1976775 C11.2435463,15.1615489 11.2952531,15.1359833 11.3464451,15.0973798 C11.3976372,15.0587763 11.4360259,15.0100842 11.4616166,14.9512967 C11.4872073,14.8925092 11.5,14.8362639 11.5,14.6814533 L11.5,12.8185467 C11.5,12.6637361 11.4872073,12.6074908 11.4616166,12.5487033 C11.4360259,12.4899158 11.3976372,12.4412237 11.3464451,12.4026202 C11.2952531,12.3640167 11.2435463,12.3384511 11.0930105,12.3023225 L10.5552421,12.1732581 C10.4423402,12.1461617 10.4035602,12.1269875 10.3651662,12.0980348 C10.3267721,12.0690822 10.2979806,12.0325631 10.2787876,11.9884725 C10.2595945,11.9443819 10.25,11.9021979 10.25,11.78609 L10.25,11.4825155 C10.25,11.3405256 10.2685651,11.269816 10.3034265,11.2046309 C10.338288,11.1394457 10.3894457,11.088288 10.4546309,11.0534265 C10.519816,11.0185651 10.5905256,11 10.7325155,11 Z" id="Style" fill="#A0A0A0"></path>
    </g>
</svg>