<?xml version="1.0" encoding="UTF-8"?>
<svg width="20px" height="20px" viewBox="0 0 20 20" version="1.1" xmlns="http://www.w3.org/2000/svg" xmlns:xlink="http://www.w3.org/1999/xlink">
    <!-- Generator: Sketch 53.2 (72643) - https://sketchapp.com -->
    <title>login</title>
    <desc>Created with Sketch.</desc>
    <defs>
        <path d="M70,10 C64.48,10 60,14.48 60,20 C60,25.52 64.48,30 70,30 C75.52,30 80,25.52 80,20 C80,14.48 75.52,10 70,10 L70,10 Z M70,13 C71.66,13 73,14.34 73,16 C73,17.66 71.66,19 70,19 C68.34,19 67,17.66 67,16 C67,14.34 68.34,13 70,13 L70,13 Z M70,27.2 C67.5,27.2 65.29,25.92 64,23.98 C64.03,21.99 68,20.9 70,20.9 C71.99,20.9 75.97,21.99 76,23.98 C74.71,25.92 72.5,27.2 70,27.2 L70,27.2 Z" id="path-1"></path>
    </defs>
    <g id="Symbols" stroke="none" stroke-width="1" fill="none" fill-rule="evenodd">
        <g id="Header-/-Desktop-v3" transform="translate(-60.000000, -10.000000)">
            <mask id="mask-2" fill="white">
                <use xlink:href="#path-1"></use>
            </mask>
            <use id="login" fill="#CDCDCD" fill-rule="nonzero" xlink:href="#path-1"></use>
        </g>
    </g>
</svg>