<svg xmlns="http://www.w3.org/2000/svg" width="40" height="40" viewBox="0 0 40 40">
    <g fill="none" fill-rule="evenodd">
        <circle cx="20" cy="20" r="20" fill="#F9FAFC"/>
        <rect width="40" height="40" fill="#4D7399" fill-rule="nonzero" rx="12"/>
        <path fill="#FFF" fill-rule="nonzero" d="M20 12c4.411 0 8 3.589 8 8 0 .625-.052 1.13-.169 1.639-.002.01-.06.244-.091.346-.198.632-.556 1.159-1.036 1.523-.465.353-1.041.547-1.623.547-.072 0-.145-.002-.215-.008-.827-.066-1.554-.501-2-1.195-.765.77-1.782 1.195-2.866 1.195-2.231 0-4.047-1.816-4.047-4.047S17.77 15.953 20 15.953 24.047 17.77 24.047 20v1.304c.003.762.514 1.073.95 1.108.434.033 1.012-.22 1.213-1.045.1-.452.15-.913.15-1.367 0-3.507-2.853-6.36-6.36-6.36s-6.36 2.853-6.36 6.36 2.853 6.36 6.36 6.36c1.22 0 2.408-.349 3.433-1.008l.019-.012 1.077 1.253-.023.016C23.174 27.519 21.616 28 20 28c-4.411 0-8-3.589-8-8s3.589-8 8-8zm0 5.594c-1.327 0-2.406 1.08-2.406 2.406 0 1.327 1.08 2.406 2.406 2.406 1.327 0 2.406-1.079 2.406-2.406 0-1.327-1.08-2.406-2.406-2.406z"/>
    </g>
</svg>
