<?xml version="1.0" encoding="UTF-8"?>
<svg width="24px" height="24px" viewBox="0 0 24 24" version="1.1" xmlns="http://www.w3.org/2000/svg" xmlns:xlink="http://www.w3.org/1999/xlink">
    <!-- Generator: Sketch 53.2 (72643) - https://sketchapp.com -->
    <title>icons/map</title>
    <desc>Created with Sketch.</desc>
    <defs>
        <path d="M20.5000001,3 L20.3400001,3.03 L15,5.10000001 L9.00000002,3 L3.36,4.90000001 C3.15,4.97000001 3,5.15000001 3,5.38000001 L3,20.5000001 C3,20.7800001 3.22,21.0000001 3.5,21.0000001 L3.66,20.9700001 L9.00000002,18.9000001 L15,21.0000001 L20.6400001,19.1000001 C20.8500001,19.0300001 21.0000001,18.8500001 21.0000001,18.6200001 L21.0000001,3.5 C21.0000001,3.22 20.7800001,3 20.5000001,3 L20.5000001,3 Z M15.0000001,19.0000001 L9.00000003,16.8900001 L9.00000003,5.00000001 L15.0000001,7.11000002 L15.0000001,19.0000001 L15.0000001,19.0000001 Z" id="path-1"></path>
    </defs>
    <g id="icons/map" stroke="none" stroke-width="1" fill="none" fill-rule="evenodd">
        <mask id="mask-2" fill="white">
            <use xlink:href="#path-1"></use>
        </mask>
        <use id="Icon" fill="#CDCDCD" xlink:href="#path-1"></use>
    </g>
</svg>
