<?xml version="1.0" encoding="UTF-8"?>
<svg width="24px" height="24px" viewBox="0 0 24 24" version="1.1" xmlns="http://www.w3.org/2000/svg" xmlns:xlink="http://www.w3.org/1999/xlink">
    <!-- Generator: Sketch 53.2 (72643) - https://sketchapp.com -->
    <title>icons/measure</title>
    <desc>Created with Sketch.</desc>
    <g id="icons/measure" stroke="none" stroke-width="1" fill="none" fill-rule="evenodd">
        <path d="M21.8284618,5.9370998 L18.0627476,2.17138552 C17.8339804,1.94281409 17.4630607,1.94297065 17.2340196,2.17138552 L15.765683,3.63987867 L17.6483053,5.52254012 C17.8767202,5.75154207 17.8770333,6.12250098 17.6483053,6.35169863 C17.4194599,6.5801135 17.048501,6.58042661 16.8194599,6.35138552 L14.936681,4.46876321 L13.8827476,5.52285323 L15.137816,6.77784344 C15.366818,7.00688454 15.366818,7.37753033 15.137816,7.60657143 C14.9087358,7.83545597 14.53809,7.83545597 14.3094012,7.60688454 L13.0540196,6.35138552 L11.9999687,7.40547554 L13.8827476,9.28809785 C14.1111624,9.51713894 14.1111624,9.88837182 13.8827476,10.1172564 C13.6537065,10.3458278 13.2827476,10.3459843 13.0537456,10.1170998 L11.1711233,8.23432094 L10.1170333,9.28837182 L11.3725323,10.5437534 C11.6012603,10.7724423 11.6012603,11.1432446 11.3722192,11.3721292 C11.1431781,11.6011703 10.7722583,11.6014834 10.5438043,11.3724423 L9.28818787,10.1172564 L8.23441096,11.1710333 L10.1170333,13.0538121 C10.3454481,13.2826967 10.3454481,13.6539295 10.1170333,13.8829706 C9.8886184,14.1107984 9.51765949,14.1121683 9.28818787,13.8826575 L7.405409,12.0000352 L6.35147554,13.0539687 L7.60666145,14.3091546 C7.83554599,14.5381957 7.83554599,14.9088415 7.60666145,15.1378434 C7.37762035,15.366728 7.00666145,15.3670411 6.77793346,15.1378434 L5.522591,13.8828141 L4.46869667,14.9367084 L6.35147554,16.8193699 C6.57989041,17.048411 6.57989041,17.4196438 6.35147554,17.6485675 C6.12290411,17.8765127 5.75194521,17.8778826 5.52243444,17.6482544 L3.63981213,15.765593 L2.17147554,17.2339687 C1.94306067,17.4629706 1.94274755,17.8339295 2.17116243,18.0628141 L5.93687671,21.8285284 C6.05147554,21.9431272 6.20176908,22.0000352 6.35147554,22.0000352 C6.50176908,22.0000352 6.65159295,21.9428141 6.76603523,21.8285284 L21.828775,6.76594521 C22.0570333,6.5370998 22.0570333,6.16567123 21.8284618,5.9370998" id="Fill-1" fill="#FF2626"></path>
    </g>
</svg>