<?xml version="1.0" encoding="UTF-8"?>
<svg width="24px" height="24px" viewBox="0 0 24 24" version="1.1" xmlns="http://www.w3.org/2000/svg" xmlns:xlink="http://www.w3.org/1999/xlink">
    <!-- Generator: Sketch 53.2 (72643) - https://sketchapp.com -->
    <title>icons/more dots</title>
    <desc>Created with Sketch.</desc>
    <g id="icons/more-dots" stroke="none" stroke-width="1" fill="none" fill-rule="evenodd">
        <path d="M12,14 C11.1715729,14 10.5,13.3284271 10.5,12.5 C10.5,11.6715729 11.1715729,11 12,11 C12.8284271,11 13.5,11.6715729 13.5,12.5 C13.5,13.3284271 12.8284271,14 12,14 Z M5.5,14 C4.67157288,14 4,13.3284271 4,12.5 C4,11.6715729 4.67157288,11 5.5,11 C6.32842712,11 7,11.6715729 7,12.5 C7,13.3284271 6.32842712,14 5.5,14 Z M18.5,14 C17.6715729,14 17,13.3284271 17,12.5 C17,11.6715729 17.6715729,11 18.5,11 C19.3284271,11 20,11.6715729 20,12.5 C20,13.3284271 19.3284271,14 18.5,14 Z" id="Combined-Shape" fill="#A0A0A0"></path>
    </g>
</svg>