<svg xmlns="http://www.w3.org/2000/svg" width="40" height="40" viewBox="0 0 40 40">
    <g fill="none">
        <rect width="40" height="40" fill="#ED721F" rx="12"/>
        <path fill="#FFF" d="M19.688 12.382c-1.241 0-2.25 1.01-2.25 2.25s1.009 2.25 2.25 2.25c1.239 0 2.25-1.01 2.25-2.25s-1.011-2.25-2.25-2.25zm0 7.683c-3-.003-5.431-2.433-5.435-5.433.003-3 2.434-5.432 5.434-5.435 3 .002 5.433 2.434 5.436 5.435-.003 3-2.435 5.43-5.435 5.433zm-2.2 4.435c-1.118-.255-2.184-.698-3.155-1.308-.744-.468-.969-1.452-.5-2.196.468-.745 1.45-.97 2.195-.501 2.239 1.4 5.08 1.4 7.319 0 .481-.303 1.088-.326 1.592-.06.503.265.826.78.848 1.348.021.569-.262 1.106-.744 1.409-.983.616-2.05 1.055-3.156 1.308l3.038 3.038c.573.63.55 1.598-.052 2.2-.602.601-1.57.623-2.2.05l-2.985-2.983-2.986 2.983c-.4.41-.99.572-1.544.426-.554-.146-.986-.578-1.133-1.132-.146-.553.016-1.143.425-1.544l3.038-3.038"/>
    </g>
</svg>
