<?xml version="1.0" encoding="UTF-8"?>
<svg width="24px" height="24px" viewBox="0 0 24 24" version="1.1" xmlns="http://www.w3.org/2000/svg" xmlns:xlink="http://www.w3.org/1999/xlink">
    <!-- Generator: Sketch 53.2 (72643) - https://sketchapp.com -->
    <title>icons/share</title>
    <desc>Created with Sketch.</desc>
    <g id="icons/share" stroke="none" stroke-width="1" fill="none" fill-rule="evenodd">
        <path d="M16,20 L7.769,20 C5,20 5,17.415 5,16.565 L5,12 C5,11.448 5.448,11 6,11 L7.769,11 C8.321,11 8.769,11.448 8.769,12 C8.769,12.552 8.321,13 7.769,13 L7,13 L7,16.565 C7,18 7.257,18 7.769,18 L16,18 C16.932,18 17,17.861 17,17 L17,13 L16,13 C15.447,13 15,12.552 15,12 C15,11.448 15.447,11 16,11 L18,11 C18.553,11 19,11.448 19,12 L19,17 C19,18.99 17.99,20 16,20 Z M11,7.47348372 L10.366,8.1296 C10.17,8.3326 9.909,8.4346 9.647,8.4346 C9.397,8.4346 9.146,8.3416 8.952,8.1536 C8.555,7.7696 8.544,7.1366 8.928,6.7396 L11.2670922,4.31998654 C11.2864605,4.29912606 11.3067078,4.27909282 11.3277748,4.25994593 C11.5109356,4.09260116 11.7508177,3.9996 12,3.9996 C12.0938614,3.9996 12.1860557,4.0128178 12.2743228,4.03814393 C12.4560777,4.08982382 12.6166204,4.19158534 12.7401869,4.32752555 L15.071,6.7396 C15.455,7.1366 15.444,7.7696 15.048,8.1536 C14.651,8.5386 14.019,8.5276 13.634,8.1296 L13,7.47348372 L13,12.9131 C13,13.4661 12.553,13.9131 12,13.9131 C11.448,13.9131 11,13.4661 11,12.9131 L11,7.47348372 Z" id="Combined-Shape" fill="#A0A0A0"></path>
    </g>
</svg>