<svg xmlns="http://www.w3.org/2000/svg" width="24" height="24" viewBox="0 0 24 24">
    <path fill="#1A1A1A" fill-rule="evenodd" d="M7.769 11c.552 0 1 .448 1 1s-.448 1-1 1H7v3.565c0 1.373.235 1.432.704 1.435H16c.932 0 1-.139 1-1v-4h-1c-.553 0-1-.448-1-1s.447-1 1-1h2c.553 0 1 .448 1 1v5c0 1.99-1.01 3-3 3H7.769C5.154 20 5.009 17.694 5 16.722V12c0-.552.448-1 1-1h1.769zM12 4l.118.008.044.005c.033.006.065.012.097.02l.02.007c.032.009.062.02.092.031l.039.017c.029.013.057.027.084.042l.022.014c.03.018.059.037.086.058.007.005.014.01.021.017.034.026.065.054.095.085l.001.002 2.352 2.434c.384.397.373 1.03-.023 1.414-.397.385-1.029.374-1.414-.024L13 7.474v5.44c0 .552-.447 1-1 1-.552 0-1-.448-1-1v-5.44l-.634.656c-.196.203-.457.305-.719.305-.25 0-.501-.093-.695-.281-.397-.384-.408-1.017-.024-1.414l2.353-2.434.001-.003.083-.075.05-.04.057-.037c.02-.012.039-.024.059-.034l.052-.026c.016-.008.032-.015.049-.021.024-.01.048-.018.072-.025.016-.006.032-.01.048-.014l.08-.017.044-.007c.04-.004.082-.007.124-.007z"/>
</svg>
