<?xml version="1.0" encoding="UTF-8"?>
<svg width="18px" height="22px" viewBox="0 0 18 22" version="1.1" xmlns="http://www.w3.org/2000/svg" xmlns:xlink="http://www.w3.org/1999/xlink">
    <!-- Generator: Sketch 53.2 (72643) - https://sketchapp.com -->
    <title>support</title>
    <desc>Created with Sketch.</desc>
    <g id="Symbols" stroke="none" stroke-width="1" fill="none" fill-rule="evenodd">
        <g id="Header-/-Desktop-v3" transform="translate(-1146.000000, -9.000000)" fill="#CDCDCD">
            <path d="M1146,18 L1146,25 C1146,26.66 1147.34,28 1149,28 L1152,28 L1152,20 L1148,20 L1148,18 C1148,14.13 1151.13,11 1155,11 C1158.87,11 1162,14.13 1162,18 L1162,20 L1158,20 L1158,28 L1162,28 L1162,29 L1155,29 L1155,31 L1161,31 C1162.66,31 1164,29.66 1164,28 L1164,18 C1164,13.03 1159.97,9 1155,9 C1150.03,9 1146,13.03 1146,18 Z" id="support"></path>
        </g>
    </g>
</svg>