<svg xmlns="http://www.w3.org/2000/svg" width="40" height="40" viewBox="0 0 40 40">
    <g fill="none">
        <rect width="40" height="40" fill="#64A9DC" rx="12"/>
        <path fill="#FFF" d="M28.425 10.127l-20.668 7.81c-1.412.553-1.404 1.325-.259 1.666l5.155 1.579 1.974 5.923c.238.648.121.905.816.905.535 0 .774-.24 1.072-.525l2.578-2.457 5.362 3.882c.987.533 1.7.257 1.945-.898l3.52-16.247c.36-1.417-.55-2.058-1.495-1.638zM13.463 20.818l11.619-7.18c.58-.345 1.111-.16.675.22l-9.95 8.794-.387 4.046-1.957-5.88z"/>
    </g>
</svg>
