<svg xmlns="http://www.w3.org/2000/svg" width="40" height="40" viewBox="0 0 40 40">
    <g fill="none">
        <rect width="40" height="40" fill="#48729E" rx="12"/>
        <path fill="#FFF" d="M20.393 27.195s.45-.05.682-.29c.212-.223.205-.642.205-.642s-.03-1.956.9-2.245c.918-.283 2.097 1.892 3.345 2.729.945.633 1.662.493 1.662.493l3.338-.045s1.747-.105.918-1.445c-.066-.11-.483-.992-2.481-2.803-2.094-1.897-1.814-1.59.708-4.87 1.535-1.999 2.15-3.217 1.958-3.74-.183-.497-1.313-.367-1.313-.367l-3.758.023s-.279-.036-.485.084c-.204.118-.334.393-.334.393s-.595 1.547-1.388 2.862c-1.673 2.773-2.342 2.92-2.617 2.748-.635-.402-.476-1.613-.476-2.473 0-2.689.416-3.81-.814-4.1-.408-.097-.71-.16-1.755-.17-1.341-.014-2.476.003-3.118.311-.428.205-.758.66-.557.685.249.034.81.15 1.109.545.385.512.371 1.66.371 1.66s.222 3.165-.516 3.559c-.507.268-1.202-.282-2.694-2.799-.766-1.288-1.341-2.715-1.341-2.715s-.112-.266-.31-.408c-.242-.172-.579-.227-.579-.227l-3.571.022s-.537.017-.734.243c-.175.202-.013.62-.013.62s2.795 6.387 5.962 9.605c2.905 2.95 6.201 2.757 6.201 2.757h1.495z"/>
    </g>
</svg>
