<svg xmlns="http://www.w3.org/2000/svg" width="40" height="40" viewBox="0 0 40 40">
    <g fill="none">
        <rect width="40" height="40" fill="#62BE4E" rx="12"/>
        <path fill="#FFF" d="M31.667 19.7c0 6.277-5.129 11.367-11.455 11.367-1.936.002-3.84-.485-5.537-1.417l-6.342 2.017 2.067-6.099C9.323 23.801 8.754 21.77 8.757 19.7c0-6.278 5.128-11.367 11.455-11.367 6.326 0 11.455 5.089 11.455 11.367zm-11.455-9.557c-5.31 0-9.63 4.287-9.63 9.557 0 2.09.681 4.027 1.833 5.602l-1.202 3.55 3.7-1.177c1.574 1.034 3.417 1.583 5.3 1.58 5.309 0 9.63-4.287 9.63-9.555 0-5.27-4.321-9.557-9.631-9.557zm5.783 12.174c-.07-.117-.257-.185-.537-.325-.281-.139-1.661-.814-1.918-.905-.258-.094-.447-.14-.633.138-.28.377-.577.741-.889 1.092-.165.186-.328.21-.608.07-.28-.139-1.185-.434-2.258-1.384-.613-.562-1.14-1.211-1.562-1.928-.165-.278-.017-.428.123-.567.125-.126.28-.326.42-.488.142-.163.189-.28.282-.467.093-.185.047-.346-.023-.486s-.634-1.51-.867-2.069c-.233-.558-.467-.465-.632-.465-.163 0-.35-.023-.538-.023-.287.008-.558.135-.748.35-.257.278-.984.95-.984 2.322 0 1.371 1.007 2.696 1.147 2.883.142.183 1.943 3.088 4.797 4.205 2.855 1.115 2.855.743 3.37.697.515-.047 1.661-.674 1.895-1.325.233-.65.233-1.209.165-1.325h-.002z"/>
    </g>
</svg>
