<?xml version="1.0" encoding="UTF-8"?>
<svg width="20px" height="18px" viewBox="0 0 20 18" version="1.1" xmlns="http://www.w3.org/2000/svg" xmlns:xlink="http://www.w3.org/1999/xlink">
    <!-- Generator: Sketch 53.2 (72643) - https://sketchapp.com -->
    <title>list</title>
    <desc>Created with Sketch.</desc>
    <g id="Desktop" stroke="none" stroke-width="1" fill="none" fill-rule="evenodd">
        <g id="Desktop/catalog-1-v-ryad" transform="translate(-1265.000000, -1779.000000)" fill="#D1D1D1">
            <g id="sorting" transform="translate(59.000000, 1741.000000)">
                <g id="icon" transform="translate(1216.000000, 47.000000) rotate(90.000000) translate(-1216.000000, -47.000000) translate(1191.000000, 22.000000)">
                    <path d="M22,31 L25,31 C25.5522847,31 26,30.5522847 26,30 L26,28 C26,27.4477153 25.5522847,27 25,27 L22,27 L17,27 C16.4477153,27 16,26.5522847 16,26 L16,24 C16,23.4477153 16.4477153,23 17,23 L19,23 L20,23 C20.5522847,23 21,22.5522847 21,22 L21,20 C21,19.4477153 20.5522847,19 20,19 L19,19 L17,19 C16.4477153,19 16,18.5522847 16,18 L16,16 C16,15.4477153 16.4477153,15 17,15 L33,15 C33.5522847,15 34,15.4477153 34,16 L34,18 C34,18.5522847 33.5522847,19 33,19 L27,19 L24,19 C23.4477153,19 23,19.4477153 23,20 L23,22 C23,22.5522847 23.4477153,23 24,23 L27,23 L33,23 C33.5522847,23 34,23.4477153 34,24 L34,26 C34,26.5522847 33.5522847,27 33,27 L32,27 L29,27 C28.4477153,27 28,27.4477153 28,28 L28,30 C28,30.5522847 28.4477153,31 29,31 L32,31 L33,31 C33.5522847,31 34,31.4477153 34,32 L34,34 C34,34.5522847 33.5522847,35 33,35 L17,35 C16.4477153,35 16,34.5522847 16,34 L16,32 C16,31.4477153 16.4477153,31 17,31 L22,31 Z" id="list"></path>
                </g>
            </g>
        </g>
    </g>
</svg>