<?xml version="1.0" encoding="utf-8"?>
<svg width="40px" height="40px" viewBox="0 0 40 40" version="1.1" xmlns:xlink="http://www.w3.org/1999/xlink" xmlns="http://www.w3.org/2000/svg">
  <desc>Created with Lunacy</desc>
  <path d="M31.5704 3.69081C31.6029 3.71033 31.6225 3.72335 31.6225 3.72986C36.6932 7.36208 40 13.2986 40 19.9967C40 20.524 39.9805 21.0448 39.9414 21.559C39.9349 21.598 39.9349 21.6371 39.9284 21.6762C39.7982 23.271 39.4793 24.8072 38.9911 26.2718C38.9194 26.0114 38.8348 25.7771 38.8023 25.7771C38.758 25.8119 38.7367 25.7974 38.7124 25.7809C38.6867 25.7634 38.6575 25.7436 38.594 25.7771C38.6265 25.8617 38.6591 25.9463 38.6916 26.0244C38.6699 26.0439 38.6453 26.0656 38.6189 26.0889C38.4076 26.2754 38.0797 26.5647 38.1839 26.6688C38.2815 26.5191 38.6265 26.3303 38.7307 26.1221C38.7827 26.2522 38.8413 26.3824 38.9064 26.5191L38.9064 26.5256C37.6631 30.1188 35.4304 33.2368 32.5273 35.5801C32.4687 35.6257 32.4166 35.6713 32.3515 35.7234C32.345 35.7234 32.345 35.7234 32.3385 35.7299C30.249 37.3702 27.821 38.6135 25.1782 39.3165C24.9048 39.3946 24.6314 39.4597 24.358 39.5183C23.9284 39.6159 23.4858 39.7006 23.0431 39.7657C23.0236 39.7722 23.0041 39.7787 22.978 39.7787C22.9064 39.7917 22.8413 39.7982 22.7697 39.8047C22.4443 39.8568 22.1188 39.8893 21.7933 39.9219C21.6176 39.9349 21.4353 39.9479 21.2596 39.9609C21.0643 39.974 20.8755 39.9805 20.6802 39.987C20.4589 39.9935 20.2311 40 20.0033 40C19.5867 40 19.1766 39.987 18.773 39.9609L18.7209 39.9609L18.7144 39.9544C18.6168 39.9544 18.5256 39.9479 18.428 39.9349L18.3759 39.9349C16.4882 39.7787 14.6851 39.3686 12.9862 38.7242L12.9797 38.7242C12.9146 38.7046 12.856 38.6786 12.7974 38.6591L12.7974 38.6526C12.7779 38.6526 12.7583 38.6461 12.7453 38.633C12.6867 38.6135 12.6282 38.594 12.5696 38.5679C8.37103 36.8755 4.869 33.8096 2.63629 29.917C2.63629 29.9105 2.63629 29.904 2.62978 29.8975C2.53865 29.6176 2.34337 29.3051 2.27177 29.0643C2.2262 29.0643 2.14158 28.9471 2.03743 28.7779C2.02441 28.7583 2.01139 28.7388 2.00488 28.7193C1.95932 28.6216 1.91375 28.5175 1.86819 28.4199L1.86168 28.4199C1.84866 28.3938 1.83564 28.3678 1.82913 28.3352C0.650936 25.7966 0 22.9715 0 19.9967C0 19.8926 0 19.795 0.00650936 19.6908C0.331977 19.9577 0.761595 20.2441 0.982913 19.9577C1.18192 19.6923 1.29712 19.5332 1.313 19.3973C1.30187 19.5956 1.30187 19.7991 1.30187 19.9967C1.30187 21.585 1.50366 23.1212 1.8812 24.5924C1.87795 24.5956 1.87632 24.5972 1.87632 24.5989C1.87632 24.6005 1.87795 24.6021 1.8812 24.6054C1.8812 24.6119 1.8812 24.6184 1.88771 24.6249C1.99837 25.074 2.12856 25.5102 2.27828 25.9398C2.28478 25.9788 2.2978 26.0179 2.31082 26.0504C2.44101 26.428 2.57771 26.8055 2.73393 27.1701C2.74695 27.2091 2.76648 27.2482 2.7795 27.2872C3.67128 29.3767 4.92758 31.2644 6.48332 32.8853C6.57445 32.9959 6.6786 33.1066 6.78926 33.2107L6.79577 33.2172C7.25793 33.6794 7.73963 34.1155 8.24736 34.5256C8.32547 34.5907 8.40358 34.6493 8.48169 34.7079C8.58584 34.7925 8.68999 34.8771 8.79414 34.9487C8.84622 34.9943 8.89829 35.0334 8.95037 35.0659C10.5191 36.2246 12.2701 37.1424 14.1579 37.7608L14.3922 37.8389C15.7136 38.2555 17.1066 38.5289 18.5386 38.633C18.5386 38.633 18.5452 38.6395 18.5517 38.633C19.0269 38.6786 19.5151 38.6981 20.0033 38.6981L20.0683 38.6981C20.205 38.6981 20.3483 38.6981 20.4849 38.6851C20.7128 38.6851 20.9341 38.6786 21.1619 38.6591C21.4288 38.6461 21.6892 38.6265 21.9496 38.594C22.288 38.5614 22.62 38.5159 22.952 38.4638C22.978 38.4638 23.0041 38.4573 23.0301 38.4508L23.0366 38.4508C23.5769 38.3661 24.1041 38.2555 24.6249 38.1188C24.7356 38.0928 24.8462 38.0602 24.9504 38.0277C26.76 37.5395 28.4589 36.7779 30.0016 35.7884C30.0146 35.7819 30.0342 35.7754 30.0472 35.7559C31.7071 34.7014 33.1977 33.3735 34.4475 31.8503C34.5061 31.7852 34.5517 31.7201 34.6037 31.655L34.6037 31.6485C35.2156 30.8934 35.7624 30.0928 36.2376 29.2531C36.2832 29.1814 36.3287 29.1098 36.3613 29.0317C37.8519 26.3564 38.6981 23.271 38.6981 19.9967C38.6981 19.1115 38.6395 18.2457 38.5159 17.393C38.6526 17.4386 38.7437 17.5297 38.7111 17.7771C38.7981 17.7662 38.8318 17.7167 38.8613 17.6732C38.9026 17.6125 38.936 17.5635 39.0952 17.6469C39.0627 17.4711 38.952 17.393 38.7632 17.419C38.9129 17.1196 38.6656 16.5989 38.3271 16.2734C37.4613 12.0163 35.144 8.2799 31.9219 5.60456C31.8308 5.52644 31.7331 5.44833 31.6355 5.37673C31.5378 5.29211 31.4337 5.21399 31.336 5.14239C31.297 5.10334 31.2579 5.0773 31.2124 5.03824L31.2059 5.03824C28.0879 2.69487 24.2018 1.30187 20.0033 1.30187L19.9447 1.30187C19.8861 1.30187 19.834 1.30187 19.7754 1.30838C18.9357 1.31489 18.1155 1.37998 17.3019 1.49715L17.2954 1.49715C17.0024 1.54272 16.7095 1.58828 16.4231 1.64687C16.3775 1.65338 16.3385 1.65989 16.2994 1.6664C16.2343 1.68592 16.1692 1.69894 16.1107 1.71196C12.9146 2.38893 10.0179 3.88609 7.64849 5.98861C7.17982 5.67616 6.607 5.64361 6.04068 5.69569C8.22132 3.56062 10.8836 1.92677 13.8519 0.969894C13.8584 0.963385 13.8714 0.956876 13.8845 0.956876C14.3596 0.800651 14.8478 0.670464 15.336 0.553295C15.3426 0.553295 15.3426 0.553295 15.3491 0.546786C15.5443 0.50122 15.7461 0.455655 15.9414 0.410089C15.9544 0.410089 15.9675 0.410089 15.974 0.40358C16.4947 0.29943 17.0155 0.214809 17.5492 0.149715C17.6143 0.143206 17.6729 0.136697 17.738 0.130187C17.9788 0.0976404 18.2197 0.0781123 18.467 0.0585842L18.4736 0.0585842C18.9748 0.0195281 19.489 0 20.0033 0C22.2945 0 24.4947 0.384052 26.5452 1.10008C26.5972 1.11961 26.6493 1.13263 26.7014 1.15867C28.4524 1.77705 30.0862 2.63629 31.5704 3.69081ZM1.313 19.3973C1.31359 19.3866 1.31423 19.376 1.31489 19.3653C1.31489 19.3759 1.31426 19.3865 1.313 19.3973ZM5.25956 6.75671C5.1489 6.80228 5.03173 6.84133 4.91457 6.88039C2.5712 9.57526 0.930838 12.9015 0.292921 16.5728C0.390561 16.4296 0.494711 16.2799 0.60537 16.1367C0.781123 16.2734 0.748576 16.4426 0.963385 16.5728C1.00257 16.5968 1.05819 16.6236 1.11835 16.6524C1.36799 16.7723 1.69566 16.9297 1.2498 17.0871C1.33442 17.1456 1.41904 17.1912 1.51017 17.2303C1.80309 15.2514 2.40846 13.3702 3.28072 11.6387C3.28723 11.6257 3.29373 11.6062 3.30675 11.5932C3.32628 11.5411 3.35232 11.4825 3.39138 11.4304C3.36822 11.31 3.34341 11.2308 3.32223 11.1631C3.28388 11.0407 3.25743 10.9562 3.27421 10.7339C3.37185 10.786 3.50203 10.9227 3.57364 11.0724C3.62571 10.9748 3.67779 10.8836 3.74288 10.786C3.72335 10.5386 3.71684 10.2522 3.71033 10.2067C3.66547 9.97274 3.67109 9.73565 3.67671 9.49852C3.68251 9.25396 3.6883 9.00936 3.63873 8.7681C3.72986 8.78112 3.82099 8.80065 3.90561 8.82018C3.90873 8.75173 3.84938 8.73236 3.79012 8.71301C3.7254 8.69188 3.6608 8.67079 3.67779 8.58584C4.15297 8.74207 4.12693 9.61432 3.99675 10.3434C4.96664 8.72905 6.18389 7.27746 7.5834 6.04068C6.82832 6.32059 6.04068 6.45077 5.25956 6.75671ZM27.0007 10.0701C27.1895 10.1482 27.3912 10.1873 27.593 10.2003C27.5995 10.324 27.4889 10.4737 27.3457 10.5974C25.8941 9.55587 24.2277 8.87238 22.4572 8.59899C22.3921 8.59248 22.327 8.57946 22.2619 8.57295C21.7346 8.50135 21.2008 8.46229 20.6541 8.46229C20.5759 8.46229 20.5043 8.46229 20.4262 8.4688C20.3481 8.4688 20.27 8.4688 20.1919 8.47531C19.7102 8.48833 19.2415 8.5339 18.7729 8.61852C18.7078 8.61852 18.6492 8.63154 18.5841 8.65107C17.6012 8.82031 16.6573 9.11974 15.7655 9.54285C15.1667 8.98955 14.3986 8.83333 13.9364 9.64049C13.7476 9.96596 13.6956 10.376 13.8388 10.6885C13.305 11.0791 12.7973 11.5217 12.3286 12.0099L11.3912 11.1051C13.0316 9.39313 15.056 8.20192 17.2822 7.60957C17.6012 7.51844 17.9266 7.44033 18.2586 7.38174L18.2651 7.38174C19.0397 7.23854 19.8339 7.16042 20.641 7.16042L20.6541 7.16042C20.8363 7.16042 21.0121 7.16693 21.1943 7.17344L21.2008 7.17344C21.2074 7.17344 21.2204 7.17344 21.2269 7.17995C21.4157 7.17995 21.6109 7.19297 21.7997 7.2125C21.8192 7.2125 21.8388 7.2125 21.8583 7.21901C23.388 7.3557 24.8591 7.76579 26.2131 8.41673C26.2847 8.44928 26.3497 8.48182 26.4148 8.51437C26.6882 8.65107 26.9486 8.79427 27.209 8.9505C27.0853 9.08068 27.0462 9.24993 26.7989 9.27596C26.8724 9.32846 26.9734 9.32804 27.0734 9.32761C27.2213 9.32699 27.3668 9.32637 27.4173 9.49728C27.4921 9.73104 27.3352 9.83385 27.1757 9.93834C27.1132 9.97933 27.0502 10.0206 27.0007 10.0701ZM14.353 10.3304C14.2749 10.2653 14.2033 10.2002 14.1317 10.1286C14.1317 10.2328 14.1707 10.3239 14.2163 10.415C14.2619 10.3825 14.3074 10.3565 14.353 10.3304ZM28.9346 10.2406C28.9548 10.242 28.977 10.2437 28.9993 10.2392C28.9797 10.2262 28.9667 10.2132 28.9472 10.2002L28.9081 10.2392C28.9164 10.2392 28.9253 10.2399 28.9346 10.2406ZM29.969 11.1702L29.0252 12.062C28.7257 11.7495 28.4198 11.4501 28.0943 11.1767C28.4263 10.8512 28.8429 10.5974 29.2855 10.4997C29.5199 10.7145 29.7477 10.9359 29.969 11.1702ZM9.11297 21.4743C8.87863 21.0707 8.58571 20.7648 8.23421 20.5435C8.11053 20.4654 7.98034 20.3872 7.84365 20.3156C7.82412 20.3026 7.80459 20.2896 7.77855 20.2766C7.56374 20.1594 7.32941 20.0357 7.08856 19.9251C6.67196 19.7233 6.28791 19.5475 5.94291 19.4043C5.59141 19.2611 5.29849 19.0658 5.06415 18.812C4.82981 18.5646 4.71264 18.2652 4.71264 17.9267C4.71264 17.5752 4.84283 17.2953 5.10972 17.087Q5.50028 16.7745 6.18376 16.7745C6.88026 16.7745 7.49865 17.0284 8.03893 17.5492L8.2277 17.2823L8.31232 17.1716L9.03486 16.1692C8.35138 15.4206 7.34893 15.0431 6.02753 15.0431C5.03811 15.0431 4.24397 15.323 3.65162 15.8763C3.13738 16.358 2.85097 16.9243 2.77937 17.5947C2.76635 17.6793 2.76635 17.764 2.76635 17.8551C2.75984 17.8811 2.75984 17.9137 2.75984 17.9397C2.75984 18.4019 2.84446 18.812 3.02021 19.183C3.19596 19.5475 3.42379 19.8405 3.70369 20.0683C3.9836 20.2896 4.29605 20.4979 4.63453 20.6802C4.97302 20.8689 5.31151 21.0317 5.64999 21.1749Q6.14796 21.3994 6.56781 21.624C6.84771 21.7802 7.07554 21.969 7.25129 22.1838C7.42705 22.3986 7.51818 22.646 7.51818 22.9259C7.51818 23.3165 7.37497 23.6159 7.08856 23.8307C6.80215 24.052 6.43762 24.1562 5.98848 24.1562C5.71509 24.1562 5.4482 24.1171 5.17481 24.0325C5.12924 24.026 5.08368 24.013 5.03811 23.9869C4.91443 23.9544 4.79727 23.9088 4.67359 23.8502C4.22444 23.6419 3.85992 23.349 3.567 22.9715L2.51899 24.2343C2.75984 24.742 3.20898 25.1456 3.87945 25.4385C4.5434 25.7314 5.23339 25.8811 5.95593 25.8811C6.45064 25.8811 6.89979 25.816 7.31639 25.6793C7.3229 25.6273 7.34242 25.5687 7.38148 25.5036C7.43638 25.4053 7.39893 25.3212 7.36649 25.2483C7.32585 25.1571 7.29308 25.0834 7.45959 25.0219C7.55723 25.0219 7.64836 24.9828 7.71997 24.9112C7.77855 24.9763 7.8111 25.1326 7.81761 25.3083C7.81761 25.3213 7.8111 25.3344 7.80459 25.3474C7.8111 25.3474 7.8111 25.3409 7.81761 25.3409C7.81761 25.3864 7.81761 25.432 7.8111 25.4711C8.04543 25.3604 8.26024 25.2172 8.46203 25.0479C9.1325 24.4946 9.47098 23.7786 9.47098 22.9129C9.47098 22.3596 9.34731 21.8844 9.11297 21.4743ZM20.6543 25.4775L20.6998 25.5816L20.7584 25.7183L18.7861 25.7183L18.2588 24.436C18.2653 24.436 18.2588 24.4295 18.2588 24.4295L18.1677 24.2082C18.1482 24.1691 18.1351 24.1301 18.1286 24.091L17.6925 23.03L16.7031 23.03C16.6901 22.9714 16.6705 22.9063 16.651 22.8412C16.4036 22.1512 15.8438 21.6825 15.245 21.305L16.9895 21.305L16.7421 20.6996L16.6575 20.4848C16.6445 20.4653 16.638 20.4458 16.625 20.4197L16.5403 20.2244C16.5469 20.2179 16.5403 20.2179 16.5403 20.2179L16.5143 20.1398L15.4598 17.5686L14.1579 20.7126C13.9106 20.5759 13.7023 20.4197 13.6372 20.257C13.4875 20.283 12.9602 19.8599 12.8691 19.7753C12.8365 19.7623 12.8105 19.7428 12.7779 19.7167L14.1905 16.3644L14.2686 16.1756L14.6266 15.3294L14.6331 15.3229L14.6917 15.1797L16.3125 15.1797L16.4232 15.4466C16.2523 15.4523 16.0827 15.4654 15.9362 15.4768C15.7477 15.4915 15.5973 15.5031 15.5314 15.4921C15.603 15.7265 16.0977 15.9022 16.2865 16.0129C16.2735 15.9413 16.2735 15.8762 16.3125 15.8046C16.2865 15.9218 16.4622 16.065 16.7486 16.2147L20.1465 24.2602L20.2832 24.5857L20.6543 25.4775ZM36.7714 25.7184L36.7714 23.9934L32.3906 23.9934L32.3906 21.2725L36.1726 21.2725L36.1726 19.5475L32.3906 19.5475L32.3906 16.9373L36.6217 16.9373L36.6217 15.2123L30.542 15.2123L30.542 25.7184L31.3361 25.7184C31.4533 25.6403 31.5639 25.5687 31.6095 25.5231C31.974 25.1586 32.4818 25.0349 32.97 24.9178C32.9814 25.0363 32.9659 25.1347 32.9499 25.2366C32.9386 25.3081 32.9271 25.3813 32.9244 25.4645C32.9504 25.8095 32.1693 25.6728 31.9936 25.5817C31.8829 25.5231 31.7202 25.6012 31.5379 25.7184L36.7714 25.7184ZM23.603 17.8423C23.1408 17.5298 22.8023 17.1002 22.3337 16.8138L22.3337 15.2125L24.1758 15.2125L24.1758 19.0465C24.0586 18.9489 23.8503 18.9228 23.5119 18.8708C23.258 18.8317 22.9716 18.7601 22.7828 18.5648C22.7932 18.5399 22.787 18.4831 22.7799 18.4179C22.7647 18.2791 22.7455 18.1024 22.8739 18.1157C22.7343 18.7299 23.3085 18.1418 23.528 17.917C23.5643 17.8797 23.591 17.8525 23.603 17.8423ZM5.68579 16.5085C5.8111 16.4198 5.83551 16.192 5.38311 16.0911C5.33429 16.5467 5.56049 16.5972 5.68579 16.5085ZM22.3335 16.8592L22.3335 17.5492C22.4572 17.3084 22.4833 17.0675 22.3335 16.8592ZM1.06753 17.5622C0.81367 17.6436 0.851098 17.7347 0.933279 17.76C1.01546 17.7852 1.14239 17.7445 1.06753 17.5622ZM0.930951 18.7831C1.05951 18.7429 1.11111 18.7267 1.04801 18.5321C1.1847 18.5582 1.28234 18.6233 1.35395 18.7079C1.33442 18.9162 1.3214 19.131 1.31489 19.3458C1.30187 19.1896 1.14565 19.0594 0.826688 18.8186C0.865456 18.8035 0.900379 18.7926 0.930951 18.7831ZM24.1758 23.7723L24.1758 19.3199C24.1367 19.3004 24.0911 19.2874 24.0195 19.2874C23.8893 19.2874 23.7592 19.2874 23.629 19.2939C23.642 19.3524 23.6355 19.4045 23.6029 19.4436C23.5574 19.398 23.4272 19.3524 23.31 19.3069C23.1928 19.3069 23.0692 19.3134 22.9455 19.3134L22.8348 19.3134C22.8153 19.3199 22.7893 19.3199 22.7697 19.3134C22.633 19.3199 22.4833 19.3264 22.3336 19.3134L22.3336 23.8048C22.3727 23.8114 22.3987 23.8244 22.4247 23.8309C23.0106 23.9025 23.5964 23.8765 24.1758 23.7723ZM14.0407 21.305C14.236 21.5589 14.4378 21.7737 14.6591 21.8518C15.1538 22.034 15.3687 22.5808 15.5965 23.03L13.2076 23.03L13.175 23.1146L13.0774 23.3424L12.1075 25.7183L10.2458 25.7183L12.6998 19.899C12.8886 20.0292 13.0709 20.1528 13.201 20.2635C13.4614 20.4848 13.7023 20.8624 13.9561 21.1943L13.9106 21.305L14.0407 21.305ZM7.8111 24.8592C7.8111 24.5142 8.26675 24.2278 8.44902 23.9088C8.59222 24.2733 8.23421 24.5662 7.8111 24.8592ZM24.2741 24.085C24.4795 24.087 24.6976 24.0892 24.8982 23.9936L28.9079 23.9936L28.9079 25.7185L27.4368 25.7185C27.2806 25.5037 26.7143 25.4256 26.4539 25.5298C26.4474 25.6079 26.4734 25.673 26.5125 25.7185L22.3335 25.7185L22.3335 24.1693C22.7436 24.1433 23.3489 24.1953 23.4336 24.2344C23.3164 24.3841 23.3294 24.5143 23.4661 24.638C23.5789 24.0782 23.9061 24.0814 24.2741 24.085ZM23.6484 25.315C23.6213 25.322 23.5939 25.3304 23.5667 25.3387C23.417 25.3847 23.2708 25.4296 23.1992 25.2368C23.401 25.1067 23.5898 25.0025 23.6484 25.315ZM23.0951 25.2954C22.8738 25.3215 23.1862 25.5818 23.2187 25.6014C23.4791 25.6469 24.3449 25.1913 24.0585 25.1262C23.9435 25.1006 23.9093 25.1586 23.8666 25.2309C23.8441 25.2692 23.8191 25.3115 23.7786 25.3475C23.5972 25.5098 23.4368 25.4376 23.2743 25.3644C23.2152 25.3378 23.1558 25.3111 23.0951 25.2954ZM17.5947 32.5988C18.1089 32.3254 18.5841 31.9674 18.864 31.4792C18.7403 31.4662 18.6231 31.4531 18.506 31.4336C16.7484 31.1993 15.0951 30.5744 13.637 29.585C13.6044 29.5654 13.5654 29.5459 13.5328 29.5199C12.8689 29.0642 12.244 28.5304 11.6777 27.9316L10.7338 28.8299C10.9551 29.0642 11.1895 29.292 11.4303 29.5069C11.554 29.4352 11.7102 29.3702 11.7688 29.2725C11.7818 29.5329 12.0943 29.6435 12.2895 29.5134C12.4262 29.7607 12.0943 29.8128 11.7753 29.8193C13.2724 31.0821 15.017 31.9804 16.8917 32.4491C17.0088 32.4816 17.1325 32.5077 17.2497 32.5272C17.3148 32.5532 17.3799 32.5662 17.4449 32.5728C17.484 32.5858 17.5166 32.5923 17.5491 32.5923C17.5621 32.5988 17.5816 32.6053 17.5947 32.5988ZM29.3181 28.8885C28.0553 30.2034 26.5646 31.2123 24.9373 31.8828C24.8201 31.9283 24.7095 31.9804 24.5923 32.0195L24.5858 32.0195C23.1602 32.5597 21.6305 32.8396 20.0553 32.8396C19.4043 32.8396 18.7599 32.7941 18.135 32.6964C18.2066 32.6509 18.2717 32.6053 18.3368 32.5532C18.5711 32.3775 18.7859 32.1822 19.0203 31.9999C19.3262 31.7591 19.4239 31.668 19.4629 31.5248C19.6582 31.5313 19.86 31.5378 20.0553 31.5378C20.5304 31.5378 20.9991 31.5117 21.4548 31.4531C21.5134 31.4466 21.5654 31.4401 21.6175 31.4336C23.3165 31.2058 24.9243 30.6069 26.3433 29.6761C26.3498 29.6696 26.3498 29.6761 26.3498 29.6761C26.5321 29.5589 26.7143 29.4287 26.8901 29.2986C27.0528 29.4483 27.2481 29.5134 27.4824 29.3702C27.3262 29.3376 27.2611 29.2074 27.196 29.0642L27.196 29.0577C27.6126 28.7387 28.0097 28.3807 28.3807 27.9902L29.3181 28.8885ZM33.6404 33.393C33.5492 33.406 33.4646 33.4581 33.4125 33.5362C33.405 33.7307 33.5395 33.7017 33.6737 33.6727C33.773 33.6512 33.8722 33.6297 33.9137 33.6989C33.9203 33.6013 33.8942 33.5232 33.8552 33.4776C33.8617 33.4255 33.8682 33.3409 33.8617 33.2173C33.5297 32.9439 33.5492 33.1977 33.6404 33.393ZM32.2083 34.9097C32.4166 34.7665 32.6314 34.8186 32.8527 35.0138C32.5924 35.1896 32.3255 35.2156 32.2083 34.9097Z" id="Combined-Shape" fill="#FF2626" fill-rule="evenodd" stroke="none" />
</svg>