<svg xmlns="http://www.w3.org/2000/svg" width="59" height="56" viewBox="0 0 59 56">
    <g fill="none" fill-rule="evenodd">
        <circle cx="39" cy="23" r="20" fill="#F2F249"/>
        <path fill="#000" d="M27.888 46.67l.12.002c.903-.094 1.36 1.8 1.736 2.462l.051.082 2.087.319c.695.08 1.027.965.603 1.492l-.073.08-1.538 1.576c0 .563.681 2.54.155 2.995-.713.946-2.3-.546-3.019-.815-.629.224-2.15 1.6-2.847.977-.824-.457-.02-2.468-.02-3.154-.375-.546-2.15-1.695-1.754-2.525.19-.895 2.197-.737 2.831-.945.35-.512.767-2.296 1.553-2.524l.115-.021zm.123 3.136c-.44 1.097-.648 1.176-1.797 1.3.899.846.987.994.72 2.22.934-.596 1.218-.598 2.153 0-.06-.447-.283-1.122.038-1.52l.084-.087.598-.613c-1.147-.125-1.356-.201-1.796-1.3zm11.845-6.233l.12.001c.904-.094 1.36 1.8 1.736 2.463l.05.082 2.089.319c.697.08 1.027.968.6 1.493l-.074.08-1.537 1.577c0 .676.803 2.704-.018 3.153-.703.623-2.209-.748-2.847-.972-.629.223-2.148 1.596-2.845.973-.823-.456-.018-2.468-.018-3.153-.376-.546-2.152-1.695-1.755-2.525.191-.895 2.198-.737 2.832-.945.349-.513.766-2.297 1.552-2.524l.115-.022zm-23.62-1.151c.904-.095 1.36 1.799 1.737 2.461l.05.083 2.082.319c.695.081 1.028.966.605 1.494l-.073.08-1.536 1.573c0 .562.683 2.539.156 2.995-.713.945-2.301-.548-3.02-.815-.628.223-2.146 1.595-2.843.976-.826-.455-.022-2.467-.023-3.153-.375-.545-2.149-1.694-1.753-2.524.19-.894 2.197-.737 2.83-.945.383-.561.848-2.648 1.788-2.544zm23.742 4.288c-.427 1.087-.662 1.183-1.797 1.3.9.845.989.994.721 2.219.934-.595 1.219-.597 2.154 0-.061-.446-.285-1.121.037-1.52l.084-.087.598-.613c-1.147-.123-1.357-.2-1.797-1.299zm-23.745-1.154c-.44 1.096-.647 1.175-1.796 1.299.898.847.987.995.72 2.22.933-.596 1.218-.595 2.152 0-.06-.445-.282-1.12.039-1.52l.084-.086.598-.614c-1.147-.124-1.356-.2-1.797-1.3zM48.47 34.553l.12.001c.904-.094 1.36 1.8 1.737 2.462l.05.082 2.088.319c.695.083 1.024.969.6 1.494l-.073.08-1.538 1.576c0 .676.804 2.704-.018 3.153-.703.622-2.208-.749-2.846-.973-.63.223-2.147 1.597-2.845.974-.823-.456-.02-2.468-.02-3.154-.375-.546-2.15-1.695-1.753-2.525.191-.894 2.199-.736 2.832-.944.348-.512.766-2.296 1.552-2.523l.114-.022zM28.011 12.137c20.854.353 20.857 31.379 0 31.735-20.858-.358-20.85-31.36 0-31.735zM10.319 36.824l.05.082 2.09.32c.692.083 1.02.967.597 1.493l-.073.08-1.533 1.572.365 2.24c.14.707-.646 1.298-1.283 1.014l-.09-.046-1.856-1.027c-.628.223-2.148 1.594-2.844.974-.824-.454-.021-2.466-.021-3.15-.376-.546-2.15-1.695-1.755-2.525.19-.895 2.198-.737 2.832-.945.348-.513.763-2.297 1.549-2.525l.115-.021.12.001c.904-.094 1.36 1.8 1.737 2.463zm21.823-15.906c.29-2.226-2.235-3.4-4.142-3.18-1.903-.216-4.407.961-4.115 3.18v2.785c.031.414-.52 1.002-.725 1.335.014.556-.136 1.594.373 2.01.201.125.34.328.385.56.21 1.341 1.017 2.486 1.413 3.737.063 1.57.098 3.4-1.511 4.246-.696.425-4.66 2.205-5.05 2.9 5.267 4.685 13.212 4.685 18.485 0-.423-.718-4.323-2.466-5.044-2.897-1.664-.776-1.563-2.702-1.514-4.25.406-1.254 1.252-2.388 1.465-3.74.857-1.4.711-.74.706-2.566-.197-.324-.76-.924-.726-1.335zm16.447 16.77c-.438 1.098-.648 1.174-1.796 1.3.9.845.986.994.72 2.22.933-.599 1.218-.598 2.153 0-.06-.447-.283-1.123.038-1.521l.084-.087.598-.613c-1.147-.124-1.356-.201-1.797-1.3zm-40.004-.192c-.44 1.097-.647 1.176-1.797 1.3.898.846.989.994.72 2.219.934-.595 1.219-.597 2.153 0-.06-.445-.283-1.12.039-1.519l.084-.087.597-.614c-1.145-.125-1.356-.201-1.796-1.299zm19.773-23.5l-.347.008C16.377 13.602 9.517 28.62 17.434 37.152c.73-.985 4.448-2.604 5.51-3.216.73-.355.46-1.718.508-2.34-.83-1.508-1.184-3.167-2.101-4.614-.132-.229-.045-1.946-.07-2.235-.04-.422.535-.993.727-1.336v-2.447c-.14-3.315 2.435-5.158 5.988-5.093 3.557-.05 6.142 1.764 6.01 5.092v2.448c.19.33.769.918.725 1.336.02 1.278.155 2.549-.823 3.566-.301 1.152-.754 2.26-1.346 3.292v1.5c-.019 1.317 5.24 2.698 6.025 4.047 7.917-8.53 1.054-23.549-10.576-23.148zM4.556 23.334l.12.001c.945-.098 1.4 1.975 1.788 2.544.625.204 2.646.053 2.831.945.376.8-1.225 1.872-1.698 2.45l-.057.075.365 2.24c.14.708-.648 1.297-1.284 1.014l-.09-.046-1.855-1.027c-.63.224-2.147 1.6-2.845.976-.823-.456-.019-2.467-.019-3.154-.375-.545-2.15-1.694-1.755-2.524.191-.894 2.198-.74 2.832-.949.349-.512.767-2.296 1.552-2.524l.115-.021zm48.573 2.549c.627.204 2.649.053 2.834.945.39.832-1.375 1.972-1.755 2.522 0 .562.681 2.539.155 2.995-.713.946-2.3-.547-3.019-.815-.629.223-2.15 1.6-2.847.977-.824-.457-.019-2.468-.019-3.155-.376-.545-2.151-1.694-1.755-2.525.19-.894 2.198-.736 2.831-.944.35-.512.768-2.297 1.553-2.524l.115-.021.12.001c.944-.099 1.4 1.975 1.787 2.544zm-1.784.59c-.44 1.097-.647 1.175-1.797 1.3.899.845.987.994.72 2.219.934-.596 1.218-.597 2.153 0-.06-.446-.282-1.121.038-1.52l.084-.087.599-.613c-1.148-.124-1.357-.2-1.797-1.299zm-46.669 0c-.44 1.097-.647 1.175-1.796 1.3.899.845.987.994.72 2.219.933-.596 1.218-.597 2.152 0-.265-1.223-.18-1.372.721-2.22-1.147-.124-1.356-.2-1.797-1.299zm5.289-12.71c.626.204 2.647.053 2.831.945.393.836-1.375 1.97-1.755 2.524 0 .677.804 2.706-.019 3.155-.703.62-2.207-.75-2.845-.974-.629.223-2.149 1.596-2.845.973-.824-.456-.018-2.468-.018-3.153-.376-.546-2.152-1.694-1.756-2.524.192-.895 2.195-.737 2.828-.945.349-.512.767-2.297 1.553-2.524l.115-.021.12.001c.943-.098 1.402 1.975 1.79 2.543zm40.769-.273l.05.083 2.092.32c.694.08 1.023.964.6 1.49l-.073.08-1.537 1.576c-.001.676.802 2.705-.02 3.153-.702.622-2.208-.748-2.845-.972-.626.222-2.147 1.593-2.84.97-.822-.454-.02-2.465-.019-3.148-.375-.545-2.15-1.694-1.754-2.524.19-.894 2.197-.737 2.83-.945.383-.562.848-2.649 1.788-2.545.906-.095 1.354 1.798 1.728 2.462zm-42.56.86c-.195.408-.4 1.041-.894 1.165l-.12.019-.783.12c.9.846.987.994.72 2.22.934-.596 1.218-.599 2.153 0-.266-1.224-.181-1.373.72-2.22-1.136-.118-1.37-.214-1.796-1.305zM49 14.163c-.194.405-.398 1.03-.885 1.157l-.128.021-.784.121c.899.846.99.994.72 2.22.934-.597 1.219-.598 2.154-.001-.265-1.22-.186-1.372.72-2.214-1.135-.119-1.37-.214-1.797-1.304zM16.644 3.159c.904-.095 1.36 1.798 1.736 2.461l.051.083 2.088.319c.695.084 1.024.97.6 1.496l-.073.08-1.538 1.575c0 .675.804 2.704-.018 3.153-.703.621-2.209-.749-2.846-.973-.63.223-2.148 1.596-2.845.973-.823-.456-.019-2.467-.019-3.153-.375-.546-2.152-1.695-1.755-2.525.192-.894 2.198-.737 2.832-.945.383-.562.847-2.648 1.787-2.544zm24.714 1.39c.626.205 2.645.054 2.83.947.393.836-1.372 1.965-1.752 2.52 0 .562.682 2.539.155 2.995-.712.946-2.301-.548-3.019-.815-.63.223-2.147 1.596-2.846.978-.828-.454-.023-2.467-.023-3.154-.376-.546-2.15-1.695-1.755-2.525.19-.896 2.198-.737 2.832-.945.382-.561.847-2.648 1.788-2.544.943-.099 1.402 1.975 1.79 2.544zM16.644 6.292c-.193.405-.398 1.03-.885 1.158l-.128.021-.78.123c.895.847.985.996.717 2.22.934-.595 1.219-.597 2.154 0-.27-1.225-.18-1.373.719-2.223-1.147-.124-1.357-.2-1.797-1.3zM28.011.004c.945-.099 1.398 1.975 1.784 2.544.627.204 2.648.052 2.834.945.39.834-1.375 1.969-1.755 2.522 0 .562.681 2.539.155 2.994-.713.947-2.3-.546-3.019-.814-.629.224-2.147 1.6-2.844.976-.824-.456-.02-2.468-.019-3.154-.376-.545-2.151-1.694-1.755-2.525.19-.894 2.197-.736 2.831-.944.382-.561.848-2.648 1.788-2.544zm11.557 5.14c-.194.405-.399 1.03-.885 1.159l-.128.021-.784.12c.908.838.987.989.723 2.212.93-.596 1.219-.59 2.15.003-.263-1.219-.189-1.371.72-2.21-1.136-.118-1.37-.214-1.796-1.305zM28.01 3.138c-.194.405-.399 1.03-.885 1.158l-.128.022-.784.119c.899.846.987.995.72 2.22.934-.596 1.218-.597 2.153 0-.266-1.223-.18-1.373.72-2.22-1.147-.124-1.356-.2-1.796-1.3z"/>
    </g>
</svg>
