<?xml version="1.0" encoding="UTF-8"?>
<svg width="319px" height="32px" viewBox="0 0 319 32" version="1.1" xmlns="http://www.w3.org/2000/svg" xmlns:xlink="http://www.w3.org/1999/xlink">
    <!-- Generator: Sketch 62 (91390) - https://sketch.com -->
    <title>payment</title>
    <desc>Created with Sketch.</desc>
    <defs>
        <polygon id="path-1" points="0.129206148 0.176776471 115.143059 0.176776471 115.143059 15.1969945 0.129206148 15.1969945"></polygon>
        <polygon id="path-3" points="0.000117647059 0.214352941 31.5525882 0.214352941 31.5525882 31.7646588 0.000117647059 31.7646588"></polygon>
        <polygon id="path-5" points="0.0797411765 0.214352941 31.6322118 0.214352941 31.6322118 31.7646588 0.0797411765 31.7646588"></polygon>
        <polygon id="path-7" points="0.127670857 0.0645485714 23.9612709 0.0645485714 23.9612709 31.8171429 0.127670857 31.8171429"></polygon>
        <polygon id="path-9" points="0.112292571 0.0828525714 28.6370743 0.0828525714 28.6370743 30.8233326 0.112292571 30.8233326"></polygon>
    </defs>
    <g id="Desktop" stroke="none" stroke-width="1" fill="none" fill-rule="evenodd">
        <g id="Desktop/about-confidenciality-politics" transform="translate(-415.000000, -2138.000000)">
            <g id="Group-6-Copy" transform="translate(415.000000, 1793.000000)">
                <g id="payment" transform="translate(0.000000, 345.000000)">
                    <g id="Group-12" transform="translate(141.516340, 0.000000)">
                        <g id="Group-3" transform="translate(61.411765, 6.373882)">
                            <mask id="mask-2" fill="white">
                                <use xlink:href="#path-1"></use>
                            </mask>
                            <g id="Clip-2"></g>
                            <path d="M87.7781882,6.22442353 C85.3405412,6.89030588 84.7358353,10.3326588 86.2958353,12.1164235 C87.4346588,13.5726588 89.9664235,13.5703059 91.0911294,12.0973647 C92.0770118,10.9020706 92.1334824,9.08795294 91.4511294,7.73501176 C90.7970118,6.42207059 89.1570118,5.79618824 87.7781882,6.22442353 M84.6911294,5.72324706 C86.4652471,3.71148235 90.0205412,3.53736471 91.8320706,5.59383529 C91.8205412,5.19854118 91.8181882,4.80324706 91.8181882,4.41030588 C92.5285412,4.39383529 93.2417176,4.39383529 93.9546588,4.40795294 C93.8908941,7.91618824 94.0511294,11.4408941 93.8746588,14.9373647 C93.1876,14.9493647 92.5028941,14.8738353 91.8181882,14.8667765 C91.8181882,14.4832471 91.8205412,14.0997176 91.8252471,13.7208941 C89.7358353,16.0926588 85.5546588,15.4314824 84.0511294,12.7444235 C82.7593647,10.5891294 82.9596,7.58207059 84.6911294,5.72324706 M100.229953,4.53501176 C101.309953,4.04795294 102.552306,4.02442353 103.6676,4.42207059 C103.420306,5.06442353 103.192306,5.71618824 102.973482,6.37030588 C102.180541,6.21971765 101.317012,5.94912941 100.549953,6.34677647 C99.5852471,6.71618824 99.2205412,7.83618824 99.1970118,8.78442353 C99.1805412,10.8056 99.1876,12.8291294 99.1946588,14.8526588 C98.4817176,14.9373647 97.7638353,14.9493647 97.0534824,14.8620706 C97.0652471,11.3773647 97.0558353,7.89030588 97.0581882,4.4056 C97.7593647,4.40089412 98.4605412,4.40089412 99.1640706,4.39383529 C99.1664235,4.78207059 99.1734824,5.17265882 99.1828941,5.56324706 C99.5217176,5.21265882 99.8699529,4.86912941 100.229953,4.53501176 M74.1146588,5.73265882 C76.1640706,3.69265882 79.7899529,3.57971765 82.0205412,5.39618824 C81.6346588,5.93030588 81.2699529,6.47854118 80.9101882,7.02912941 C79.7593647,6.29501176 78.3005412,5.77265882 76.9664235,6.32795294 C75.2158353,6.99383529 74.5146588,9.18912941 75.0840706,10.8761882 C75.4558353,12.2879529 76.8958353,13.3185412 78.3570118,13.1844235 C79.2911294,13.1938353 80.1240706,12.7256 80.9193647,12.2856 C81.2370118,12.7773647 81.6017176,13.2456 81.8652471,13.7703059 C81.8723059,14.1679529 81.4370118,14.2950118 81.1946588,14.5232471 C79.2417176,15.4432471 76.7925412,15.4644235 74.9570118,14.2597176 C72.2111294,12.4385412 71.9640706,8.10442353 74.1146588,5.73265882 M67.4393647,5.58677647 C68.4276,4.13736471 70.3687765,3.83383529 71.9381882,4.4056 C71.7193647,5.05971765 71.4770118,5.70677647 71.2746588,6.3656 C70.4676,6.19618824 69.5828941,5.95383529 68.8040706,6.35618824 C67.8699529,6.7656 67.5264235,7.83618824 67.4699529,8.77736471 C67.4346588,10.8361882 67.4981882,12.8950118 67.4417176,14.9538353 C66.7334824,14.9514824 66.0278353,14.9232471 65.3264235,14.8503059 C65.3381882,11.3726588 65.3358353,7.89265882 65.3264235,4.41501176 C66.0323059,4.40089412 66.7381882,4.39854118 67.4440706,4.39618824 C67.4417176,4.79148235 67.4417176,5.18912941 67.4393647,5.58677647 M55.9123059,6.83854118 C55.3734824,7.32795294 55.1687765,8.05030588 54.9499529,8.71854118 C56.8628941,8.74442353 58.7758353,8.75854118 60.6887765,8.71148235 C60.5287765,7.87618824 60.1828941,7.01736471 59.4464235,6.53501176 C58.3713647,5.87383529 56.8370118,5.95148235 55.9123059,6.83854118 M53.6958353,6.25736471 C55.3452471,3.71854118 59.4581882,3.38207059 61.5005412,5.61971765 C62.6770118,6.94207059 63.0040706,8.80795294 62.8699529,10.5281882 C60.2252471,10.5303059 57.5781882,10.5044235 54.9334824,10.5420706 C55.2158353,11.5185412 55.7499529,12.5044235 56.7358353,12.9161882 C58.2699529,13.6032471 60.0111294,13.0338353 61.3405412,12.1608941 C61.6393647,12.6267765 61.9946588,13.0550118 62.2628941,13.5420706 C62.4393647,13.8620706 62.0278353,14.0056 61.8299529,14.1491294 C60.1028941,15.2479529 57.8534824,15.4997176 55.9334824,14.7867765 C54.3687765,14.1891294 53.2299529,12.7256 52.8934824,11.1044235 C52.5805412,9.46912941 52.7405412,7.66442353 53.6958353,6.25736471 M32.6299529,5.93501176 C33.1617176,4.95618824 34.2370118,4.42207059 35.2981882,4.23148235 C37.1970118,3.97736471 39.2064235,4.21971765 40.8770118,5.21030588 C40.5478353,5.77501176 40.2276,6.34207059 39.8958353,6.90442353 C38.4840706,6.32324706 36.8701882,5.70912941 35.3593647,6.28089412 C34.6417176,6.47618824 34.1099529,7.57030588 34.9146588,8.01030588 C36.4346588,8.85030588 38.3923059,8.38442353 39.8513647,9.43383529 C41.6370118,10.5491294 41.3240706,13.4881882 39.5217176,14.4385412 C37.3311294,15.5891294 34.5781882,15.3491294 32.4228941,14.2340706 C32.2346588,14.0764235 31.8299529,14.0197176 31.8558353,13.7091294 C32.1311294,13.1608941 32.5099529,12.6738353 32.8534824,12.1656 C34.3633647,13.2303059 36.5224235,13.6284235 38.2231294,12.8298353 C39.0400706,12.4458353 38.9763059,11.4241882 38.1890118,11.0841882 C36.6153647,10.4044235 34.6941882,10.7641882 33.2864235,9.64324706 C32.1428941,8.8056 32.0370118,7.13030588 32.6299529,5.93501176 M22.9287765,6.37265882 C20.7828941,7.29030588 20.3923059,10.4456 21.8440706,12.1279529 C22.9217176,13.4644235 25.1734824,13.5773647 26.3876,12.3679529 C27.6511294,11.1232471 27.7617176,8.99148235 26.8699529,7.50912941 C26.0770118,6.21030588 24.2911294,5.74677647 22.9287765,6.37265882 M20.3311294,5.6056 C22.1546588,3.72795294 25.5193647,3.59148235 27.3546588,5.53501176 C27.3546588,5.15618824 27.3570118,4.77736471 27.3617176,4.40089412 C28.0699529,4.39618824 28.7805412,4.39618824 29.4911294,4.40324706 C29.4981882,7.8856 29.4770118,11.3679529 29.5005412,14.8526588 C28.7852471,14.9350118 28.0676,14.9326588 27.3523059,14.8620706 C27.3546588,14.4787765 27.3593647,14.0952471 27.3664235,13.7140706 C26.2887765,14.8950118 24.5852471,15.4456 23.0228941,15.0903059 C21.3546588,14.8244235 19.8887765,13.6244235 19.2464235,12.0691294 C18.3264235,9.95148235 18.7052471,7.27618824 20.3311294,5.6056 M2.23936471,5.56795294 C3.03230588,4.65971765 4.17348235,4.04324706 5.40642353,4.14207059 C6.80642353,4.03854118 8.08642353,4.83148235 8.88407059,5.93736471 C10.1758353,3.96089412 13.0911294,3.6056 15.0134824,4.82207059 C16.1381882,5.57971765 16.6534824,6.98912941 16.6111294,8.30912941 C16.6111294,10.4950118 16.6040706,12.6832471 16.6135391,14.8691294 C15.8958353,14.8856 15.1758353,14.8832471 14.4605412,14.8761882 C14.4628941,12.7797176 14.4817176,10.6832471 14.4558353,8.58701176 C14.4464235,7.72089412 14.0817176,6.81501176 13.3005412,6.37030588 C12.3593647,5.91618824 11.1711294,6.02912941 10.3428941,6.66912941 C9.72642353,7.17501176 9.43701176,7.99148235 9.45583529,8.77501176 C9.44877647,10.7985412 9.44171765,12.8223059 9.46524706,14.8432471 C8.74995294,14.9399529 8.0276,14.9608941 7.31465882,14.8644235 C7.31465882,12.9891294 7.32171765,11.1164235 7.31230588,9.24324706 C7.26995294,8.26207059 7.20407059,7.08324706 6.29818824,6.48324706 C4.80407059,5.49501176 2.45348235,6.43618824 2.30524706,8.29736471 C2.21583529,10.4832471 2.29112941,12.6738353 2.26995294,14.8620706 C1.55701176,14.9493647 0.841717647,14.9467765 0.131129412,14.8620706 C0.133482353,11.3750118 0.124070588,7.88795294 0.133482353,4.40324706 C0.837011765,4.39854118 1.54289412,4.40089412 2.24877647,4.40089412 C2.24642353,4.78912941 2.24407059,5.17736471 2.23936471,5.56795294 M44.8440706,1.20324706 C45.5570118,1.20089412 46.2699529,1.20089412 46.9828941,1.20089412 C47.0017176,2.26677647 46.9991294,3.33030588 46.9876,4.39618824 C48.2725412,4.41030588 49.5617176,4.38207059 50.8487765,4.41501176 C50.8440706,5.04795294 50.8440706,5.68089412 50.8464235,6.31618824 C49.5593647,6.32795294 48.2725412,6.31854118 46.9852471,6.33030588 C47.0134824,8.01736471 46.9758353,9.70677647 47.0040706,11.3961882 C47.0581882,11.9681882 47.1970118,12.7091294 47.8228941,12.9161882 C48.7617176,13.3373647 49.7523059,12.8550118 50.6393647,12.5303059 C50.8111294,13.1726588 51.2605412,13.7891294 51.1828941,14.4738353 C49.7005412,15.2361882 47.8299529,15.5067765 46.3052471,14.7161882 C45.2628941,14.1914824 44.9617176,12.9350118 44.8676,11.8714824 C44.8134824,10.0220706 44.8699529,8.17030588 44.8393647,6.32089412 C44.1052471,6.31618824 43.3734824,6.32089412 42.6393647,6.3256 C42.6417176,5.68324706 42.6417176,5.04089412 42.6534824,4.39854118 C43.3828941,4.40089412 44.1123059,4.39854118 44.8440706,4.40324706 C44.8487765,3.33501176 44.8464235,2.26912941 44.8440706,1.20324706 M109.354659,6.13501176 C106.721718,6.49971765 105.855835,10.0503059 107.371365,11.9776 C108.4396,13.4881882 110.924071,13.6291294 112.157012,12.2503059 C113.258188,11.0526588 113.361718,9.13736471 112.637012,7.72089412 C112.044071,6.53971765 110.639365,5.91618824 109.354659,6.13501176 M113.013482,0.182070588 C113.719365,0.175011765 114.4276,0.175011765 115.138188,0.182070588 C115.1476,5.07383529 115.140541,9.96818824 115.140541,14.8597176 C114.430188,14.9538353 113.712306,14.9493647 113.001718,14.8620706 C113.004071,14.4693647 113.011129,14.0785412 113.022894,13.6879529 C111.034659,16.0385412 106.966424,15.4832471 105.378188,12.9561882 C104.004071,10.8879529 104.088776,7.94677647 105.632306,5.99148235 C107.349953,3.77265882 111.055835,3.44324706 113.006424,5.53971765 C113.015835,3.75383529 113.004071,1.96795294 113.013482,0.182070588" id="Fill-1" fill="#000000" mask="url(#mask-2)"></path>
                        </g>
                        <g id="Group-6" transform="translate(0.000000, 0.020941)">
                            <mask id="mask-4" fill="white">
                                <use xlink:href="#path-3"></use>
                            </mask>
                            <g id="Clip-5"></g>
                            <path d="M15.7763529,0.214305882 C24.4892941,0.214305882 31.5525882,7.27712941 31.5525882,15.9896 C31.5525882,24.7020706 24.4892941,31.7646588 15.7763529,31.7646588 C7.06317647,31.7646588 0.000117647059,24.7020706 0.000117647059,15.9896 C0.000117647059,7.27712941 7.06317647,0.214305882 15.7763529,0.214305882" id="Fill-4" fill="#EA001B" mask="url(#mask-4)"></path>
                        </g>
                        <g id="Group-9" transform="translate(19.529412, 0.020941)">
                            <mask id="mask-6" fill="white">
                                <use xlink:href="#path-5"></use>
                            </mask>
                            <g id="Clip-8"></g>
                            <path d="M15.8559765,0.214305882 C24.5689176,0.214305882 31.6322118,7.27712941 31.6322118,15.9896 C31.6322118,24.7020706 24.5689176,31.7646588 15.8559765,31.7646588 C7.14303529,31.7646588 0.0797411765,24.7020706 0.0797411765,15.9896 C0.0797411765,7.27712941 7.14303529,0.214305882 15.8559765,0.214305882" id="Fill-7" fill="#F79F1A" mask="url(#mask-6)"></path>
                        </g>
                        <path d="M25.5808,3.65183529 C29.2191529,6.54171765 31.5525647,11.0033647 31.5525647,16.0104235 C31.5525647,21.0174824 29.2191529,25.4791294 25.5808,28.3690118 C21.9424471,25.4791294 19.6090353,21.0174824 19.6090353,16.0104235 C19.6090353,11.0033647 21.9424471,6.54171765 25.5808,3.65183529" id="Fill-10" fill="#FF5F01"></path>
                    </g>
                    <g id="Group-13" transform="translate(0.655387, 0.000000)">
                        <path d="M27.9043109,0.744557714 L20.1301394,21.7160777 L19.2972251,17.4540434 C17.630848,12.9826377 13.5390537,8.87493486 8.93855086,6.98656914 L15.4065737,31.4530377 L23.8130651,31.4471863 L36.3206766,0.744557714 L27.9043109,0.744557714 Z" id="Fill-1" fill="#24529C"></path>
                        <polygon id="Fill-3" fill="#24529C" points="34.5676983 31.4797349 39.5362926 0.719140571 47.4788754 0.719140571 42.510464 31.4797349"></polygon>
                        <g id="Group-7" transform="translate(47.360000, 0.118309)">
                            <mask id="mask-8" fill="white">
                                <use xlink:href="#path-7"></use>
                            </mask>
                            <g id="Clip-6"></g>
                            <path d="M23.9612709,1.35553829 C22.3907109,0.738029714 19.9190309,0.064384 16.8435566,0.064384 C8.99130514,0.064384 3.46353371,4.23901257 3.41544229,10.2169783 C3.36789943,14.6377326 7.36223086,17.1044754 10.3735223,18.5737326 C13.4680137,20.0806583 14.508288,21.0443154 14.4956709,22.3906926 C14.4744594,24.4513097 12.0258194,25.3954011 9.74175086,25.3954011 C6.56186514,25.3954011 4.87226514,24.9302126 2.26015086,23.7822354 L1.23797943,23.2923611 L0.127670857,30.177664 C1.98001371,31.0347154 5.41205943,31.7782126 8.97722514,31.8171611 C17.3228251,31.8171611 22.7454537,27.6930011 22.8096366,21.3105554 C22.835968,17.8037211 20.7206766,15.146624 16.1369966,12.9525211 C13.3617737,11.5253211 11.6584594,10.5814126 11.6780251,9.13647543 C11.6798537,7.85866971 13.1171109,6.49016686 16.2278766,6.49016686 C18.8253623,6.44792686 20.7049509,7.04733257 22.1725623,7.67178971 L22.885888,8.023424 L23.9612709,1.35553829 Z" id="Fill-5" fill="#24529C" mask="url(#mask-8)"></path>
                        </g>
                        <g id="Group-10" transform="translate(69.485714, 0.666880)">
                            <mask id="mask-10" fill="white">
                                <use xlink:href="#path-9"></use>
                            </mask>
                            <g id="Clip-9"></g>
                            <path d="M22.209664,0.0828525714 L16.0724297,0.0828525714 C14.1681554,0.0828525714 12.7418697,0.627584 11.909504,2.63224686 L0.112292571,30.8233326 L8.45588114,30.8233326 C8.45588114,30.8233326 9.81706971,27.0308754 10.1260983,26.1988754 C11.0363611,26.1988754 19.1398583,26.2146011 20.2988069,26.2146011 C20.5346926,27.2866926 21.2657554,30.8233326 21.2657554,30.8233326 L28.6370926,30.8233326 L22.209664,0.0828525714 Z M12.411264,19.9065783 C13.0697326,18.136704 15.5757897,11.3086354 15.5757897,11.3086354 C15.5297097,11.3894583 16.2287726,9.52650971 16.6294126,8.37377829 L17.1655497,11.0270354 C17.1655497,11.0270354 18.6892983,18.3678354 19.0047269,19.9065783 L12.411264,19.9065783 Z" id="Fill-8" fill="#24529C" mask="url(#mask-10)"></path>
                        </g>
                        <path d="M12.9132434,0.72384 L0.106660571,0.72384 L5.48571429e-05,1.36054857 C8.81194057,3.57897143 16.0265691,8.37769143 19.2978834,17.45344 L16.5147977,3.31876571 C16.0349806,1.36914286 14.6399634,0.791497143 12.9132434,0.72384" id="Fill-11" fill="#24529C"></path>
                    </g>
                </g>
            </g>
        </g>
    </g>
</svg>