<svg xmlns="http://www.w3.org/2000/svg" width="56" height="48" viewBox="0 0 56 48">
    <g fill="none" fill-rule="evenodd">
        <path fill="#F2F249" d="M24 8H56V40H24z"/>
        <path fill="#000" d="M6.553 25.584c-.1-5.792 7.207-4.745 11.004-4.766.514 0 .93.417.93.93-.133 3.785.712 9.792-1.44 12.532 6.4.445 8.586 6.994 7.85 12.577.715 2.258-23.228.29-23.825.929-.513 0-.93-.417-.93-.93C-.632 41.181 1.707 34.6 8.2 34.246c-2.195-1.881-1.568-6.08-1.647-8.662zm20.58 7.597c1.383-4.908 12.524-2.23 15.986-2.883 2.565 0 4.651 2.086 4.651 4.65-.29 3.86 1.712 12.976-4.65 12.838-4.024-.688-16.57 2.579-16.335-4.651V38.66c-.326-.64-4.779-3.976-4.091-4.905.242-1.083 3.755-.376 4.44-.574zM7.922 36.162c-2.962.334-5.558 2.85-5.875 5.949-.225.23 3.77.03 3.815.094 1.114-.063 1.278 1.824.036 1.86-.047.002-3.773-.002-3.894.001-2.73 3.833 20.265 1.065 21.034 1.86.544-4.235-1.04-9.197-5.819-9.752-.515.077-4.075 4.404-4.662 4.2-.59.224-4.11-3.823-4.635-4.212zm37.988 6.973c1.262-15.215-2.967-10.154-14.473-10.977-3.45.164-1.486 3.652-5.639 2.884 3.61 2.953 2.833 3.854 2.848 8.093 0 1.539 1.252 2.79 2.79 2.791 2.487-.755 14.797 2.205 14.474-2.791zm-36.984.658c-.865-.84.475-2.18 1.316-1.316.865.84-.475 2.18-1.316 1.316zm28.744-4.754c.746-.423 2.707-3.685 3.789-2.472 1.301 1.126-2.74 3.652-3.13 4.446-1.02 1.092-2.43-1.347-3.124-1.808-.867-.84.476-2.181 1.316-1.315l1.094 1.093zm-23.125-2.934h-4.05c2.43 2.42 1.615 2.43 4.05 0zm2.082-7.972c-1.242.985-6.707.408-8.214.55-.852 7.773 9.6 7.072 8.214-.55zm12.798-23.21C29.325-.873 36.632.185 40.429.158c.514 0 .93.416.93.93-.133 3.784.71 9.794-1.44 12.532 6.4.443 8.586 6.996 7.851 12.576.289 1.909-7.936.505-8.713.93-4.268-2.684 6.091-1.712 6.852-1.86.556-4.27-1.08-9.271-5.918-9.765-.38.243-4.099 4.462-4.599 4.214-.526.23-4.185-3.953-4.6-4.214-3.332.423-5.918 3.275-5.918 6.72v3.044h6.555c4.41 2.756-6.784 1.69-7.485 1.86-1.71.125-.622-4.093-.93-4.904-.006-4.592 3.584-8.29 8.057-8.635-2.193-1.887-1.569-6.072-1.646-8.663zm5.31 21.93c-.866-.84.475-2.18 1.315-1.315.866.84-.476 2.18-1.315 1.315zm-18.108-4.174c-3.125.07-9.091-1.054-8.214 4.084 3.398-.226 9.302 1.856 8.214-4.084zM4.793.158c4.023.688 16.569-2.579 16.334 4.651-.441 5.097.52 5.025 3.89 8.366 1.533 2.352-3.31 1.404-4.238 1.588-1.383 4.908-12.524 2.23-15.986 2.883-2.564 0-4.65-2.086-4.65-4.65C.43 9.136-1.57.02 4.792.158zm32.624 15.287h-4.05l2.025 2.024 2.025-2.024zM19.266 4.808c.289-5.014-11.944-2.006-14.473-2.79-4.577-.172-2.235 8.52-2.79 10.978-.307 5.01 11.969 2.014 14.472 2.79 2.27.277 2.152-2.368 3.626-2.884h2.013c-3.61-2.953-2.832-3.855-2.848-8.094zm-8.277 9.319c-.866-.84.475-2.181 1.315-1.316.865.84-.476 2.18-1.315 1.316zm28.51-4.65c.06-2.592.203-1.678-1.978-1.454h-6.235c-1.253 6.13 7.787 7.826 8.213 1.454zM9.35 7.48C5.556 4.864 14.185.382 14.863 6.322c.106 1.528-.846 2.886-2.287 3.316.278 1.344-1.82 1.66-1.86.271-.106-.887.277-1.837 1.23-2.028 1.501-.29 1.326-2.626-.201-2.693C9.99 4.925 10.755 7.4 9.35 7.48zm30.148-5.462c-2.422.208-8.305-1.129-8.214 2.905v1.24h6.236c1.09 0 1.978-.888 1.978-1.978V2.58z"/>
    </g>
</svg>
