<svg xmlns="http://www.w3.org/2000/svg" width="55" height="48" viewBox="0 0 55 48">
    <g fill="none" fill-rule="evenodd">
        <path fill="#F2F249" d="M18 9H48V39H18z" transform="rotate(45 33 24)"/>
        <path fill="#000" d="M.345 44.143C2.198-6.93-8.804.597 24.173.164c2.119 0 3.843 1.73 3.843 3.858v14.66h1.537C29.572.036 27.411 5.691 45.694 4.792 46.965 4.793 48 5.832 48 7.108v12.345c0 1.276-1.035 2.315-2.306 2.315h-6.918c-.693 14.889 3.666 14.052-10.76 13.887v8.488c0 2.127-1.724 3.857-3.843 3.857H4.189c-2.12 0-3.844-1.73-3.844-3.857zm26.134-2.315H1.883c-.03 1.913-.336 4.507 2.306 4.63h19.984c2.643-.124 2.334-2.715 2.306-4.63zm-9.224 1.543v1.543h-6.149v-1.543h6.15zM8.032 1.707c-2.009.154-6.08-.865-6.15 2.315v36.263H26.48v-4.63c-2.009-.153-6.08.866-6.15-2.314V20.996c.053-3.168 4.153-2.167 6.15-2.315V4.021c-.075-3.183-4.133-2.159-6.15-2.314.205 1.526-.634 3.088-2.305 3.086h-7.686c-1.675.001-2.509-1.559-2.306-3.086zm3.074 29.32v4.628H6.494v-4.629h4.612zm6.15 0v4.628h-4.613v-4.629h4.612zm-7.687 1.542H8.032v1.543h1.537V32.57zM36.47 20.224H22.635c-.424 0-.768.347-.768.772v12.345c0 .426.344.771.768.771h13.836c.424 0 .768-.345.768-.771V20.996c0-.425-.344-.772-.768-.772zM15.718 32.57H14.18v1.543h1.537V32.57zm16.14-11.12l3.394 3.405-2.306 2.314 2.306 2.315-3.393 3.406-2.306-2.315-2.306 2.315-3.393-3.406 2.306-2.315-2.306-2.314 3.393-3.406 2.306 2.315 2.306-2.315zm0 2.181l-2.305 2.315-2.306-2.315-1.219 1.224 2.306 2.314-2.306 2.315 1.22 1.224 2.305-2.315 2.306 2.315 1.219-1.224-2.306-2.315 2.306-2.314-1.22-1.224zm-20.752 1.224v4.63H6.494v-4.63h4.612zm6.15 0v4.63h-4.613v-4.63h4.612zm-7.687 1.543H8.032v1.543h1.537v-1.543zm6.149 0H14.18v1.543h1.537v-1.543zm-4.612-7.716v4.63H6.494v-4.63h4.612zm6.15 0v4.63h-4.613v-4.63h4.612zm-7.687 1.543H8.032v1.544h1.537v-1.544zm6.149 0H14.18v1.544h1.537v-1.544zM45.694 6.337H31.86c-.424 0-.769.346-.769.771v11.573h5.062l-3.074-3.086 2.306-2.314-2.306-2.315L36.47 7.56l2.305 2.315 2.306-2.315 3.393 3.406-2.306 2.315 2.306 2.314-3.393 3.406-2.306-2.315-2.016 2.025c.872.11 1.588.706 1.875 1.513h7.06c.423 0 .768-.346.768-.771V7.108c0-.425-.345-.771-.769-.771zm-4.612 3.405l-2.306 2.315-2.305-2.315-1.22 1.224 2.306 2.315-2.305 2.314 1.219 1.224 2.305-2.315 2.306 2.315 1.22-1.224-2.307-2.314 2.306-2.315-1.219-1.224zm-19.215-.32v6.173H6.494V9.423h15.373zm-4.612 1.544H8.032v3.086h9.223v-3.086zm3.075 0h-1.538v3.086h1.538v-3.086zm-1.538-9.259H9.57c-.029.603-.072 1.542.769 1.543h7.686c.845-.002.794-.938.768-1.543z"/>
    </g>
</svg>
