<svg xmlns="http://www.w3.org/2000/svg" width="57" height="47" viewBox="0 0 57 47">
    <g fill="none" fill-rule="evenodd">
        <circle cx="37" cy="23" r="20" fill="#F2F249"/>
        <path fill="#000" d="M16.496 19.313c-.138-7.18 9.682-5.165 14.137-5.423 1.921-.33.515 8.508.935 9.257 0 2.493-1.218 4.707-3.09 6.08-.39.492 3.12 1.242 3.28 1.403 6.336 1.785 6.582 8.968 6.228 14.39.455 2.466-26.222.176-26.973.934-.517 0-.936-.42-.936-.936-.366-5.408-.097-12.611 6.229-14.388.115-.158 3.698-.914 3.28-1.404-3.22-2.013-3.257-6.47-3.09-9.913zm11.915 12.179c.205 5.74-8.829 5.855-8.758.104.163-.351-2.709.923-2.758.81-5.14 1.435-5.2 7.332-4.947 11.676h2.54v-5.136c-.021-1.214 1.894-1.214 1.872 0v5.136h15.345c-.696-8.236 2.56-8.298 1.87 0h2.54v-4.826c.145-4.445-3.83-6.91-7.704-7.764zm14.522-7.227c1.95-.623.512 15.046.935 15.703.207 1.405-4.915 1.422-4.71 0-.034-1.347 2.048-.855 2.838-.937.41-.636-1.004-15.378.937-14.766zM4.18 32.63c2.662-4.142 1.74 5.575 1.872 6.403h1.793c1.215-.017 1.213 1.887 0 1.871h-2.73c-1.873.237-.562-7.44-.935-8.274zm22.36-2.377c-1.554.57-3.462.57-5.015 0-.905 5.043 5.918 5.046 5.015 0zM11.72 5.544c-1.04-3.826 4.165-2.068 6.107-2.44 1.884.337-.088 2.83 2.277 2.89 2.626 2.679-4.399 2.114-3.213-1.02h-3.3c-.036.685.25 2.065-.739 2.22-2.16.098-4.25 3.086-5.84.499L4.68 10.025c.46.511 1.642 1.286 1.052 2.097-1.264 1.194-.834 3.932-2.465 4.483H1.952L1.95 18.86v1.044c.686.038 2.074-.253 2.23.739-.048 1.74 2.19 3.374 1.425 4.914l-.931.932 1.02 1.021 1.312 1.312c.513-.459 1.29-1.649 2.102-1.057 1.15 1.305 4.31.803 4.463 2.663-.885 1.757-3.537-.201-4.829-.696-1.956 3.471-4.445-1.502-6.053-2.581-.902-.848.57-1.842 1.075-2.399C1.455 17.971-.417 26.345.08 15.67c-.033-1.24 1.694-.893 2.45-.935.865-3.294 1.875-1.837-.112-4.71 7.417-9.248 2.855-1.059 9.302-4.48zm15.86 17.238c-5.629-.4-3.213-3.565-9.214.365 0 3.124 2.541 5.665 5.665 5.664 3.452.86 8.8-7.216 3.55-6.03zM8.296 18.26c-1.142-2.664 6.045-9.41 4.468-4.428-4.5 2.346-2.622 9.651 2.473 9.498 3.965 4.293-8.269.64-6.94-5.07zm33.975 3.885c-.87-.846.477-2.192 1.323-1.324.87.844-.477 2.195-1.323 1.324zM29.697 15.76c-3.028.405-11.474-1.719-11.33 3.551-.38 4.395 3.523-2.205 4.88-.535 1.466 1.954 4.214 2.67 6.45 1.706zM33.737.094c3.582 0 6.839 2.123 8.305 5.35 2.277.137 4.072 2.113 3.96 4.419 3.557 2.063 1.892 7.953-2.252 7.82-.755-.404-11.114.994-10.736-.937 1.323-3.126 13.102 1.907 13.1-3.297.298-1.73-2.089-1.841-2.038-3.261.375-1.544-.98-3.064-2.558-2.867C37.786 1.214 29.26-.8 26.64 7.74c-1.567 1.58-4.861.6-4.853 4.405-3.64 3.843-1.427-6.175 3.204-5.519C26.12 2.8 29.686.094 33.737.094zM15.228 11.318c1.213-.02 1.224 1.887.009 1.871-1.22.029-1.229-1.888-.009-1.87zm13.361-.368c-.869-.846.478-2.193 1.324-1.323.87.845-.478 2.192-1.324 1.323zm9.396 0c-.87-.845.478-2.194 1.323-1.323.87.845-.478 2.193-1.323 1.323zm-4.698 0c-.869-.846.477-2.193 1.324-1.323.868.846-.478 2.192-1.324 1.323z"/>
    </g>
</svg>
