<svg xmlns="http://www.w3.org/2000/svg" width="55" height="48" viewBox="0 0 55 48">
    <g fill="none" fill-rule="evenodd">
        <path fill="#F2F249" d="M31 0L55 36 7 36z"/>
        <path fill="#000" d="M13.564 3.493c1.468-4.462 8.585-4.564 10.053 0 2.475.119 5.344-.917 4.632 2.824h4.292c9.313-.998 2.94 32.71 4.745 36.939 0 2.485-2.26 4.292-4.745 4.294C28.536 46-.56 51.613.008 43.256V10.892C.113 6.12 5.543 6.078 9.045 6.317c.054-.974-.413-2.99 1.243-2.824h3.135zM9.045 8.576c-2.014.152-6.625-.872-6.778 2.316v32.364c0 1.242 1.243 2.033 2.486 2.034 1.616-.887 31.306 2.192 30.274-2.034V10.892c-.138-3.209-4.784-2.136-6.778-2.316-.134 1.027.6 4.132-1.3 3.954H10.289c-1.879.134-1.066-2.917-1.243-3.954zm.056 29.2c.94-.458 3.9-4.975 5.197-3.388 1.704 1.38-3.951 4.802-4.406 5.761-1.256 1.385-3.044-1.824-3.897-2.372-1.044-1.04.553-2.677 1.582-1.582L9.1 37.777zm7.286.17c-.478-2.334 13.192-.638 14.121-1.13 1.468-.02 1.462 2.282 0 2.26-.879-.485-14.642 1.2-14.12-1.13zM9.101 28.74c.94-.459 3.9-4.976 5.197-3.389 1.704 1.38-3.951 4.802-4.406 5.761-1.256 1.386-3.044-1.824-3.897-2.372-1.044-1.04.553-2.677 1.582-1.581l1.524 1.58zm7.286.169c-.478-2.334 13.192-.638 14.121-1.13 1.468-.02 1.462 2.282 0 2.26-.879-.485-14.642 1.2-14.12-1.13zm-7.286-9.206c.94-.459 3.9-4.976 5.197-3.389 1.704 1.38-3.951 4.802-4.406 5.761-1.256 1.386-3.044-1.824-3.897-2.372-1.044-1.04.553-2.677 1.582-1.581l1.524 1.58zm7.286.169c-.478-2.334 13.192-.638 14.121-1.13 1.468-.02 1.462 2.282 0 2.26-.879-.484-14.642 1.2-14.12-1.13zm2.204-17.678c-4.431.549-1.26 4.504-7.287 3.558v4.519H25.99V5.75c-6.348.933-2.89-2.916-7.4-3.557z"/>
    </g>
</svg>
