<?xml version="1.0" encoding="utf-8"?>
<svg width="1440px" height="487px" viewBox="0 0 1440 487" version="1.1" xmlns:xlink="http://www.w3.org/1999/xlink" xmlns="http://www.w3.org/2000/svg">
  <desc>Created with Lunacy</desc>
  <defs>
    <path d="M0 0L1440 0L1440 487L0 487L0 0Z" id="path_1" />
    <clipPath id="mask_1">
      <use xlink:href="#path_1" />
    </clipPath>
  </defs>
  <g id="bg">
    <path d="M0 0L1440 0L1440 487L0 487L0 0Z" id="Mask" fill="#4C7399" stroke="none" />
    <g clip-path="url(#mask_1)">
      <path d="M585 1170C908.087 1170 1170 908.087 1170 585C1170 261.913 908.087 0 585 0C261.913 0 0 261.913 0 585C0 908.087 261.913 1170 585 1170Z" transform="translate(135 -314)" id="03" fill="#FFFFFF" fill-opacity="0.088192895" style="mix-blend-mode: soft-light;" stroke="none" />
      <path d="M410 820C636.437 820 820 636.437 820 410C820 183.563 636.437 0 410 0C183.563 0 0 183.563 0 410C0 636.437 183.563 820 410 820Z" transform="translate(309 -138)" id="02" fill="#FFFFFF" fill-opacity="0.088192895" style="mix-blend-mode: soft-light;" stroke="none" />
      <path d="M290 580C450.163 580 580 450.163 580 290C580 129.837 450.163 0 290 0C129.837 0 0 129.837 0 290C0 450.163 129.837 580 290 580Z" transform="translate(429 -18)" id="01" fill="#FFFFFF" fill-opacity="0.088192895" style="mix-blend-mode: soft-light;" stroke="none" />
      <path d="M180 360C279.411 360 360 279.411 360 180C360 80.5887 279.411 0 180 0C80.5887 0 0 80.5887 0 180C0 279.411 80.5887 360 180 360Z" transform="translate(539 92)" id="00" fill="#FFFFFF" fill-opacity="0.088192895" style="mix-blend-mode: soft-light;" stroke="none" />
    </g>
  </g>
</svg>