<?xml version="1.0" encoding="utf-8"?>
<svg width="16px" height="16px" viewBox="0 0 16 16" version="1.1" xmlns:xlink="http://www.w3.org/1999/xlink" xmlns="http://www.w3.org/2000/svg">
  <desc>Created with Lunacy</desc>
  <path d="M16 8.04891C16 3.60362 12.4183 0 8 0C3.58172 0 0 3.60362 0 8.04891C0 12.0664 2.92548 15.3962 6.75 16L6.75 10.3756L4.71875 10.3756L4.71875 8.04891L6.75 8.04891L6.75 6.27564C6.75 4.25838 7.94434 3.14411 9.77172 3.14411C10.647 3.14411 11.5625 3.30131 11.5625 3.30131L11.5625 5.2821L10.5537 5.2821C9.55992 5.2821 9.25 5.90254 9.25 6.53907L9.25 8.04891L11.4688 8.04891L11.1141 10.3756L9.25 10.3756L9.25 16C13.0745 15.3962 16 12.0664 16 8.04891" id="facebook" fill="#1877F2" stroke="none" />
</svg>