<?xml version="1.0" encoding="utf-8"?>
<svg width="16px" height="16px" viewBox="0 0 16 16" version="1.1" xmlns:xlink="http://www.w3.org/1999/xlink" xmlns="http://www.w3.org/2000/svg">
  <desc>Created with Lunacy</desc>
  <g id="inst">
    <path d="M11.2336 0L4.7664 0C2.1384 0 0 2.1384 0 4.7672L0 11.2336C0 13.8616 2.1384 16 4.7664 16L11.2336 16C13.8616 16 16 13.8616 16 11.2336L16 4.7672C16 2.1384 13.8616 0 11.2336 0ZM14.3904 11.2336C14.3904 12.9776 12.9768 14.3904 11.2336 14.3904L4.7664 14.3904C3.0232 14.3904 1.6096 12.9776 1.6096 11.2336L1.6096 4.7672C1.6096 3.0232 3.0232 1.6096 4.7664 1.6096L11.2336 1.6096C12.9768 1.6096 14.3904 3.0232 14.3904 4.7672L14.3904 11.2336ZM13.1378 3.8936C13.1378 3.3456 12.6946 2.9016 12.1466 2.9016C11.5986 2.9016 11.1546 3.3456 11.1546 3.8936C11.1546 4.4408 11.5986 4.8848 12.1466 4.8848C12.6946 4.8848 13.1378 4.4408 13.1378 3.8936ZM3.86176 8.00008C3.86176 5.71848 5.71776 3.86248 8.00016 3.86248C10.2818 3.86248 12.1378 5.71848 12.1378 8.00008C12.1378 10.2817 10.2818 12.1385 8.00016 12.1385C5.71776 12.1385 3.86176 10.2817 3.86176 8.00008ZM5.47136 8.00008C5.47136 9.39688 6.60336 10.5289 8.00016 10.5289C9.39696 10.5289 10.529 9.39688 10.529 8.00008C10.529 6.60408 9.39696 5.47208 8.00016 5.47208C6.60336 5.47208 5.47136 6.60408 5.47136 8.00008Z" transform="translate(-8E-05 -0.00032)" id="Combined-Shape" fill="#C60967" fill-rule="evenodd" stroke="none" />
  </g>
</svg>