<?xml version="1.0" encoding="utf-8"?>
<!-- Generator: Adobe Illustrator 22.1.0, SVG Export Plug-In . SVG Version: 6.00 Build 0)  -->
<svg version="1.1" id="Слой_1" xmlns="http://www.w3.org/2000/svg" xmlns:xlink="http://www.w3.org/1999/xlink" x="0px" y="0px"
	 viewBox="0 0 155 36" style="enable-background:new 0 0 155 36;" xml:space="preserve">
<style type="text/css">
	.st0{fill:#FD2624;}
	.st1{fill:#1A1A1A;}
	.st2{fill:#BF1D1D;}
</style>
<g>
	<path class="st0" d="M19.943,27.972c0,0.364-0.13,0.667-0.39,0.91c-0.26,0.26-0.563,0.39-0.91,0.39s-0.65-0.13-0.91-0.39
		c-0.243-0.243-0.364-0.546-0.364-0.91V21.42c0-0.729-0.26-1.353-0.78-1.872c-0.555-0.503-1.179-0.754-1.872-0.754
		s-1.317,0.251-1.872,0.754c-0.52,0.52-0.78,1.144-0.78,1.872v6.552c0,0.364-0.122,0.667-0.364,0.91
		c-0.26,0.26-0.563,0.39-0.91,0.39s-0.65-0.13-0.91-0.39c-0.26-0.243-0.39-0.546-0.39-0.91V21.42c0-0.693-0.251-1.317-0.754-1.872
		c-0.555-0.503-1.179-0.754-1.872-0.754c-0.694,0-1.318,0.251-1.872,0.754c-0.52,0.52-0.78,1.144-0.78,1.872v6.552
		c0,0.364-0.122,0.667-0.364,0.91c-0.26,0.26-0.563,0.39-0.91,0.39c-0.364,0-0.667-0.13-0.91-0.39c-0.26-0.243-0.39-0.546-0.39-0.91
		V21.42c0-1.422,0.511-2.643,1.534-3.666c1.022-1.023,2.253-1.534,3.692-1.534c1.612,0,2.92,0.598,3.926,1.794
		c1.022-1.196,2.331-1.794,3.926-1.794c1.439,0,2.669,0.511,3.692,1.534c1.022,1.023,1.534,2.244,1.534,3.666
		c0,0.052-0.009,0.087-0.026,0.104c0.017,0.018,0.026,0.061,0.026,0.13C19.943,21.654,19.943,27.972,19.943,27.972z"/>
	<path class="st0" d="M24.702,23.968c0.277,0.797,0.754,1.438,1.43,1.924c0.71,0.503,1.482,0.754,2.314,0.754
		c0.329,0,0.502-0.009,0.52-0.026l0.208-0.025l0.208-0.026l0.156-0.026l0.13-0.025c0.537-0.121,1.101-0.364,1.69-0.729
		c0.294-0.19,0.615-0.216,0.962-0.077c0.364,0.139,0.615,0.363,0.754,0.676c0.312,0.642,0.104,1.213-0.624,1.716
		c-0.867,0.503-1.629,0.832-2.288,0.988l-0.182,0.025l-0.208,0.026l-0.26,0.026l-0.286,0.025l-0.39,0.026h-0.39
		c-1.803,0-3.346-0.642-4.628-1.924c-1.266-1.266-1.898-2.8-1.898-4.603c0-1.82,0.633-3.362,1.898-4.627
		c1.265-1.265,2.808-1.898,4.628-1.898c1.75,0,3.232,0.555,4.446,1.664c1.387,1.248,2.08,2.869,2.08,4.862
		c0,0.313-0.122,0.615-0.364,0.91c-0.295,0.243-0.607,0.364-0.936,0.364H24.702z M32.216,21.394
		c-0.26-0.866-0.763-1.534-1.508-2.002c-0.641-0.433-1.396-0.65-2.262-0.65c-0.832,0-1.604,0.251-2.314,0.753
		c-0.676,0.485-1.153,1.118-1.43,1.898L32.216,21.394L32.216,21.394z"/>
	<path class="st0" d="M36.947,10.968c0-0.347,0.13-0.65,0.39-0.91c0.243-0.242,0.546-0.364,0.91-0.364
		c0.312,0,0.615,0.122,0.91,0.364c0.242,0.295,0.364,0.598,0.364,0.91v6.474c1.179-0.884,2.496-1.326,3.952-1.326
		c1.82,0,3.362,0.633,4.628,1.898c1.265,1.266,1.898,2.808,1.898,4.628c0,1.803-0.633,3.337-1.898,4.602
		c-1.283,1.283-2.825,1.925-4.628,1.925c-1.786,0-3.319-0.642-4.602-1.925c-1.283-1.282-1.924-2.816-1.924-4.602
		C36.947,22.642,36.947,10.968,36.947,10.968z M39.521,22.642c0,1.092,0.39,2.02,1.17,2.782c0.763,0.779,1.69,1.17,2.782,1.17
		s2.028-0.391,2.808-1.17c0.762-0.814,1.144-1.742,1.144-2.782c0-1.058-0.382-1.993-1.144-2.809
		c-0.815-0.762-1.751-1.143-2.808-1.143c-1.092,0-2.02,0.381-2.782,1.143c-0.78,0.78-1.17,1.708-1.17,2.782V22.642z"/>
	<path class="st0" d="M54.679,23.968c0.277,0.797,0.754,1.438,1.43,1.924c0.71,0.503,1.482,0.754,2.314,0.754
		c0.329,0,0.502-0.009,0.52-0.026l0.208-0.025l0.208-0.026l0.156-0.026l0.13-0.025c0.537-0.121,1.101-0.364,1.69-0.729
		c0.294-0.19,0.615-0.216,0.962-0.077c0.364,0.139,0.615,0.363,0.754,0.676c0.312,0.642,0.104,1.213-0.624,1.716
		c-0.867,0.503-1.629,0.832-2.288,0.988l-0.182,0.025l-0.208,0.026l-0.26,0.026l-0.286,0.025l-0.39,0.026h-0.39
		c-1.803,0-3.346-0.642-4.628-1.924c-1.266-1.266-1.898-2.8-1.898-4.603c0-1.82,0.633-3.362,1.898-4.627s2.808-1.898,4.628-1.898
		c1.75,0,3.232,0.555,4.446,1.664c1.387,1.248,2.08,2.869,2.08,4.862c0,0.313-0.122,0.615-0.364,0.91
		c-0.295,0.243-0.607,0.364-0.936,0.364H54.679z M62.193,21.394c-0.26-0.866-0.763-1.534-1.508-2.002
		c-0.641-0.433-1.396-0.65-2.262-0.65c-0.832,0-1.604,0.251-2.314,0.753c-0.676,0.485-1.153,1.118-1.43,1.898L62.193,21.394
		L62.193,21.394z"/>
	<path class="st0" d="M66.925,11.02c0-0.346,0.13-0.65,0.39-0.91c0.243-0.243,0.546-0.364,0.91-0.364
		c0.312,0,0.615,0.122,0.91,0.364c0.242,0.295,0.364,0.598,0.364,0.91v16.926c0,0.364-0.122,0.668-0.364,0.91
		c-0.26,0.26-0.563,0.39-0.91,0.39c-0.364,0-0.667-0.13-0.91-0.39c-0.26-0.242-0.39-0.546-0.39-0.91V11.02z"/>
</g>
<g>
	<path class="st1" d="M94.943,27.972c0,0.364-0.13,0.667-0.39,0.91c-0.261,0.26-0.563,0.39-0.91,0.39c-0.348,0-0.65-0.13-0.91-0.39
		c-0.243-0.243-0.364-0.546-0.364-0.91V21.42c0-0.729-0.26-1.353-0.78-1.872c-0.555-0.503-1.179-0.754-1.872-0.754
		s-1.317,0.251-1.871,0.754c-0.521,0.52-0.78,1.144-0.78,1.872v6.552c0,0.364-0.122,0.667-0.364,0.91
		c-0.26,0.26-0.563,0.39-0.91,0.39s-0.649-0.13-0.91-0.39c-0.26-0.243-0.39-0.546-0.39-0.91V21.42c0-0.693-0.251-1.317-0.754-1.872
		c-0.555-0.503-1.179-0.754-1.872-0.754s-1.317,0.251-1.872,0.754c-0.52,0.52-0.78,1.144-0.78,1.872v6.552
		c0,0.364-0.121,0.667-0.363,0.91c-0.261,0.26-0.563,0.39-0.91,0.39c-0.364,0-0.667-0.13-0.91-0.39
		c-0.26-0.243-0.39-0.546-0.39-0.91V21.42c0-1.422,0.511-2.643,1.533-3.666s2.254-1.534,3.692-1.534
		c1.612,0,2.921,0.598,3.926,1.794c1.022-1.196,2.331-1.794,3.926-1.794c1.439,0,2.67,0.511,3.692,1.534s1.534,2.244,1.534,3.666
		c0,0.052-0.009,0.087-0.026,0.104c0.018,0.018,0.026,0.061,0.026,0.13L94.943,27.972L94.943,27.972z"/>
	<path class="st1" d="M110.388,27.894c0,0.382-0.122,0.693-0.364,0.936c-0.243,0.243-0.555,0.364-0.936,0.364
		c-0.243,0-0.512-0.121-0.807-0.364c-0.295-0.294-0.441-0.606-0.441-0.936c-1.075,0.867-2.357,1.3-3.849,1.3
		c-1.837,0-3.389-0.606-4.653-1.82c-1.283-1.23-1.925-2.756-1.925-4.575c0-1.82,0.642-3.371,1.925-4.654
		c1.282-1.282,2.834-1.924,4.653-1.924c1.82,0,3.346,0.642,4.576,1.924c1.213,1.266,1.82,2.816,1.82,4.654L110.388,27.894
		L110.388,27.894z M103.991,26.646c1.092,0,2.011-0.372,2.756-1.118c0.729-0.728,1.093-1.638,1.093-2.729
		c0-1.109-0.364-2.055-1.093-2.834c-0.745-0.798-1.664-1.196-2.756-1.196s-2.037,0.398-2.834,1.196
		c-0.797,0.797-1.195,1.741-1.195,2.834c0,1.074,0.398,1.984,1.195,2.729C101.902,26.273,102.848,26.646,103.991,26.646z"/>
	<path class="st1" d="M115.354,34.472c0,0.312-0.122,0.615-0.364,0.91c-0.295,0.242-0.598,0.363-0.91,0.363
		c-0.364,0-0.667-0.121-0.91-0.363c-0.26-0.261-0.39-0.563-0.39-0.91V22.798c0-1.785,0.641-3.319,1.924-4.602
		c1.282-1.283,2.816-1.924,4.602-1.924c1.803,0,3.346,0.642,4.629,1.924c1.265,1.265,1.897,2.799,1.897,4.602
		c0,1.819-0.633,3.362-1.897,4.628c-1.266,1.266-2.809,1.897-4.629,1.897c-1.455,0-2.773-0.441-3.951-1.326L115.354,34.472
		L115.354,34.472z M115.354,22.823c0,1.075,0.39,2.002,1.17,2.782c0.763,0.763,1.689,1.144,2.781,1.144
		c1.093,0,2.028-0.39,2.809-1.17c0.763-0.762,1.144-1.689,1.144-2.781c0-1.04-0.381-1.968-1.144-2.782
		c-0.78-0.78-1.716-1.17-2.809-1.17c-1.092,0-2.019,0.381-2.781,1.144c-0.78,0.78-1.17,1.716-1.17,2.809V22.823z"/>
	<path class="st1" d="M129.679,29.22c-0.347,0-0.65-0.13-0.91-0.391c-0.243-0.242-0.364-0.546-0.364-0.909
		c0-0.313,0.121-0.615,0.364-0.91c0.295-0.243,0.599-0.364,0.91-0.364c0.364,0,0.667,0.121,0.91,0.364
		c0.26,0.26,0.39,0.563,0.39,0.91c0,0.363-0.13,0.667-0.39,0.909C130.363,29.09,130.06,29.22,129.679,29.22z"/>
	<path class="st1" d="M136.126,27.945c0,0.313-0.121,0.615-0.363,0.91c-0.261,0.26-0.563,0.39-0.91,0.39
		c-0.364,0-0.668-0.13-0.91-0.39c-0.26-0.26-0.391-0.563-0.391-0.91V22.72c0-1.803,0.642-3.346,1.925-4.628
		c1.265-1.265,2.799-1.898,4.602-1.898c0.329,0,0.642,0.122,0.937,0.364c0.242,0.295,0.363,0.598,0.363,0.91
		s-0.121,0.615-0.363,0.91c-0.261,0.26-0.572,0.39-0.937,0.39c-1.092,0-2.02,0.382-2.782,1.144c-0.779,0.78-1.17,1.717-1.17,2.809
		L136.126,27.945L136.126,27.945z"/>
	<path class="st1" d="M152.818,24.02c-0.035,1.456-0.555,2.687-1.561,3.692c-1.022,1.022-2.262,1.533-3.718,1.533
		c-1.438,0-2.669-0.511-3.691-1.533c-1.006-1.006-1.526-2.236-1.561-3.692v-6.552c0-0.312,0.121-0.615,0.364-0.91
		c0.294-0.242,0.598-0.364,0.91-0.364c0.329,0,0.641,0.122,0.936,0.364c0.242,0.295,0.364,0.598,0.364,0.91v6.5
		c0,0.745,0.26,1.378,0.78,1.897c0.52,0.538,1.152,0.807,1.897,0.807s1.387-0.269,1.924-0.807c0.521-0.52,0.78-1.152,0.78-1.897
		v-6.5c0-0.347,0.13-0.65,0.39-0.91c0.243-0.242,0.547-0.364,0.91-0.364c0.313,0,0.615,0.122,0.91,0.364
		c0.242,0.295,0.364,0.598,0.364,0.91v6.552H152.818z"/>
</g>
<path class="st0" d="M111.57,0.406c-3.838,0-6.96,3.122-6.96,6.96c0,1.58,0.518,3.071,1.5,4.312l5.46,5.794l5.46-5.794
	c0.982-1.241,1.5-2.732,1.5-4.312C118.53,3.528,115.408,0.406,111.57,0.406z M111.57,11.38c-2.184,0-3.955-1.77-3.955-3.954
	c0-2.184,1.771-3.955,3.955-3.955s3.955,1.771,3.955,3.955C115.525,9.61,113.754,11.38,111.57,11.38z"/>
<path class="st2" d="M111.57,0.406v3.065c2.184,0,3.955,1.771,3.955,3.955s-1.771,3.955-3.955,3.955v6.092l5.461-5.795
	c0.981-1.24,1.499-2.73,1.499-4.311C118.53,3.529,115.408,0.406,111.57,0.406z"/>
</svg>
