<svg xmlns="http://www.w3.org/2000/svg" width="18" height="18" viewBox="0 0 18 18">
    <path fill="#A0A0A0" d="M3.414 4l1.707-1.707c.187-.186.444-.293.707-.293h6.344c.263 0 .52.107.707.293L14.586 4H3.414zM9 13c-2.206 0-4-1.794-4-4 0-.552.447-1 1-1 .553 0 1 .448 1 1 0 1.103.897 2 2 2 1.102 0 2-.897 2-2 0-.552.447-1 1-1 .553 0 1 .448 1 1 0 2.206-1.794 4-4 4zm8.121-9.293L14.293.879C13.727.312 12.973 0 12.172 0H5.828c-.801 0-1.555.312-2.121.879L.879 3.707C.312 4.273 0 5.027 0 5.829V15c0 1.654 1.346 3 3 3h12c1.654 0 3-1.346 3-3V5.829c0-.802-.313-1.556-.879-2.122z"/>
</svg>
